<svg width="1440" height="2616" xmlns="http://www.w3.org/2000/svg"><rect width="1440" height="2616" fill="#ffffff"/><path d="M603.28125,1729.0195 Q603.28125,1729.0195 603.28125,1729.0195 Q603.28125,1729.0195 603.28125,1729.0195 Q603.28125,1729.0195 603.28125,1729.0195 Q603.28125,1729.0195 603.28125,1729.0195 Q603.28125,1729.0195 620.5864,1706.1279 Q637.8916,1683.2362 650.4907,1670.6553 Q663.08984,1658.0742 679.6196,1643.706 Q696.1494,1629.3379 711.6538,1617.0835 Q727.1582,1604.8291 742.6543,1595.581 Q758.1504,1586.3331 772.45996,1580.1372 Q786.7695,1573.9414 799.12256,1570.8169 Q811.4756,1567.6923 821.5488,1567.6138 Q831.622,1567.5352 839.41406,1570.501 Q847.20605,1573.4669 852.897,1578.0049 Q858.5879,1582.543 867.1284,1595.6572 Q875.66895,1608.7714 879.813,1622.8047 Q883.95703,1636.8379 885.9575,1655.0884 Q887.95807,1673.3389 887.3164,1692.7144 Q886.6748,1712.0898 884.9468,1731.46 Q883.21875,1750.8301 881.2837,1772.5513 Q879.34863,1794.2723 877.07666,1811.1079 Q874.8047,1827.9434 873.2051,1843.9546 Q871.60547,1859.9658 870.3662,1874.8472 Q869.12695,1889.7285 868.9253,1899.6709 Q868.72363,1909.6133 869.40186,1916.6362 Q870.0801,1923.659 871.4634,1927.5355 Q872.8467,1931.412 874.5967,1932.2646 Q876.3467,1933.1173 883.33057,1932.4058 Q890.31445,1931.6942 902.21387,1924.627 Q914.1133,1917.5596 926.9165,1905.5112 Q939.7197,1893.4629 954.95605,1874.5957 Q970.19244,1855.7285 986.18555,1835.1826 Q1002.1787,1814.6367 1018.7129,1794.0396 Q1035.2471,1773.4424 1051.1997,1753.3193 Q1067.1523,1733.1963 1081.6162,1717.0762 Q1096.0801,1700.9562 1109.4741,1687.918 Q1122.8682,1674.8799 1134.5244,1664.5176 Q1146.1807,1654.1553 1155.897,1647.5815 Q1165.6133,1641.0078 1172.7231,1637.4946 Q1179.833,1633.9814 1185.8037,1633.5239 Q1191.7744,1633.0664 1195.2104,1634.9072 Q1198.6465,1636.748 1202.8418,1642.7285 Q1207.0371,1648.709 1209.3755,1661.8481 Q1211.7139,1674.9873 1211.4326,1689.063 Q1211.1514,1703.1387 1209.4341,1716.8354 Q1207.7168,1730.5322 1206.3076,1743.8062 Q1204.8984,1757.0801 1203.8262,1770.4829 Q1202.7539,1783.8857 1202.5532,1794.6436 Q1202.3525,1805.4015 1202.1768,1813.8379 Q1202.001,1822.2744 1201.8252,1829.915 Q1201.6494,1837.5557 1201.645,1845.4702 Q1201.6406,1853.3848 1201.8115,1860.7021 Q1201.9824,1868.0195 1202.1582,1875.2544 Q1202.334,1882.4893 1202.6802,1887.8633 Q1203.0264,1893.2374 1203.2075,1898.584 Q1203.3887,1903.9305 1203.3936,1908.8915 Q1203.3984,1913.8524 1203.3984,1918.0674 Q1203.3984,1922.2822 1202.8848,1928.3232 Q1202.3711,1934.3641 1200.8164,1943.0571 Q1199.2617,1951.7501 1195.7969,1962.3628 Q1192.332,1972.9756 1187.6167,1984.0132 Q1182.9014,1995.0508 1177.3008,2006.8335 Q1171.7002,2018.6162 1165.2212,2031.9033 Q1158.7422,2045.1904 1152.4141,2057.77 Q1146.0859,2070.3496 1139.0674,2082.1875 Q1132.0488,2094.0254 1124.3257,2105.1006 Q1116.6025,2116.1758 1108.706,2127.5781 Q1100.8096,2138.9805 1093.9175,2148.936 Q1087.0254,2158.8916 1080.1938,2167.6494 Q1073.3623,2176.4072 1067.6929,2182.958 Q1062.0234,2189.5088 1056.9233,2194.8594 Q1051.8232,2200.21 1047.5723,2204.4395 Q1043.3213,2208.669 1040.293,2211.3823 Q1037.2646,2214.0957 1035.8169,2214.5361 Q1034.3691,2214.9766 1034.333,2214.9863 Q1034.2969,2214.996 1034.2969,2214.996 Q1034.2969,2214.996 1034.7598,2195.5508 Q1035.2227,2176.1055 1040.9292,2161.6694 Q1046.6357,2147.2334 1055.0,2129.4287 Q1063.3643,2111.624 1074.5586,2094.8027 Q1085.7529,2077.9814 1097.1758,2063.8203 Q1108.5986,2049.6592 1120.021,2035.9424 Q1131.4434,2022.2256 1141.5005,2011.8525 Q1151.5576,2001.4795 1161.7373,1994.544 Q1171.917,1987.6085 1181.0977,1984.0846 Q1190.2783,1980.5607 1197.5127,1980.4736 Q1204.7471,1980.3867 1211.4517,1983.7222 Q1218.1562,1987.0576 1224.6685,1993.083 Q1231.1807,1999.1084 1238.8872,2010.771 Q1246.5938,2022.4336 1251.9321,2034.6157 Q1257.2705,2046.7979 1261.688,2060.0996 Q1266.1055,2073.4014 1269.125,2087.8257 Q1272.1445,2102.25 1273.4199,2115.587 Q1274.6953,2128.9238 1274.3892,2141.872 Q1274.083,2154.8203 1272.3662,2167.7715 Q1270.6494,2180.7227 1267.352,2194.4282 Q1264.0547,2208.1338 1259.1729,2220.0034 Q1254.291,2231.873 1248.0142,2243.6558 Q1241.7373,2255.4385 1234.0293,2265.045 Q1226.3213,2274.6514 1217.04,2284.1816 Q1207.7588,2293.712 1196.0371,2302.4985 Q1184.3154,2311.2852 1172.0454,2318.1777 Q1159.7754,2325.0703 1145.7363,2330.8242 Q1131.6973,2336.5781 1117.4727,2339.6914 Q1103.248,2342.8047 1089.0015,2342.5137 Q1074.7549,2342.2227 1061.0225,2339.6138 Q1047.29,2337.005 1033.582,2331.7412 Q1019.8741,2326.4775 1007.88184,2318.5503 Q995.8896,2310.623 984.2803,2298.5454 Q972.6709,2286.4678 960.584,2270.2368 Q948.4971,2254.0059 938.73486,2235.7314 Q928.97266,2217.457 921.53564,2195.8486 Q914.09863,2174.2402 909.2793,2151.0278 Q904.45996,2127.8154 902.3032,2101.8608 Q900.1465,2075.9062 900.91895,2047.5122 Q901.6914,2019.118 905.6123,1991.2983 Q909.5332,1963.4785 916.6113,1936.4355 Q923.68945,1909.3926 933.5962,1884.187 Q943.5029,1858.9814 955.2173,1834.5615 Q966.93164,1810.1416 980.9087,1789.5415 Q994.88574,1768.9414 1011.34717,1748.7461 Q1027.8086,1728.5508 1044.8384,1709.4858 Q1061.8682,1690.4209 1081.3267,1671.7373 Q1100.7852,1653.0537 1120.6445,1634.3867 Q1140.5039,1615.7197 1161.188,1597.46 Q1181.8721,1579.2002 1201.2837,1562.3682 Q1220.6953,1545.5363 1238.4321,1530.6826 Q1256.169,1515.8291 1273.0942,1501.3237 Q1290.0195,1486.8184 1303.7832,1472.751 Q1317.5469,1458.6835 1331.6099,1446.06 Q1345.6729,1433.4365 1356.1758,1421.5791 Q1366.6787,1409.7218 1373.6157,1398.6749 Q1380.5527,1387.628 1384.6191,1379.2891 Q1388.6855,1370.9502 1391.4204,1363.9292 Q1394.1553,1356.9081 1396.6255,1349.668 Q1399.0957,1342.4277 1402.2402,1335.1958 Q1405.3848,1327.9637 1409.5806,1320.7207 Q1413.7764,1313.4775 1418.3384,1305.8691 Q1422.9004,1298.2607 1426.2593,1290.2993 Q1429.6182,1282.3379 1429.7114,1274.7104 Q1429.8047,1267.083 1429.8047,1260.2046 Q1429.8047,1253.3262 1429.8047,1247.5708 Q1429.8047,1241.8154 1429.8047,1237.2104 Q1429.8047,1232.6055 1429.8047,1228.7856 Q1429.8047,1224.9658 1416.479,1221.9023 Q1403.1533,1218.8389 1389.4214,1219.4951 Q1375.6895,1220.1514 1355.5078,1223.1328 Q1335.3262,1226.1143 1316.0796,1229.9116 Q1296.833,1233.709 1278.4536,1237.0972 Q1260.0742,1240.4854 1242.5337,1242.8501 Q1224.9932,1245.2148 1209.499,1246.7554 Q1194.0049,1248.2959 1179.5547,1247.9644 Q1165.1045,1247.6328 1150.5205,1244.2822 Q1135.9365,1240.9316 1121.8574,1236.7607 Q1107.7783,1232.5898 1094.918,1226.9165 Q1082.0576,1221.2432 1069.4067,1215.1636 Q1056.7559,1209.084 1044.9453,1203.7275 Q1033.1348,1198.3711 1021.0449,1194.5337 Q1008.9551,1190.6963 997.124,1187.9883 Q985.29297,1185.2803 973.0044,1186.331 Q960.7159,1187.3818 945.8447,1189.2671 Q930.97363,1191.1523 915.32764,1195.29 Q899.68164,1199.4277 880.53174,1205.8154 Q861.38184,1212.2031 840.7949,1221.292 Q820.208,1230.3809 797.4136,1243.6035 Q774.61914,1256.8262 751.58203,1271.6494 Q728.545,1286.4727 706.16113,1302.8423 Q683.77734,1319.2118 663.541,1336.3091 Q643.3047,1353.4062 624.647,1369.7896 Q605.98926,1386.1729 590.4243,1399.9653 Q574.8594,1413.7579 562.1406,1427.0908 Q549.4219,1440.4238 538.9785,1453.4014 Q528.53516,1466.3789 520.228,1480.4365 Q511.92093,1494.4943 505.89453,1507.8306 Q499.86813,1521.167 495.9531,1535.2236 Q492.03806,1549.2803 489.71045,1562.6367 Q487.3828,1575.9932 487.8379,1588.9531 Q488.29297,1601.913 490.87158,1615.9517 Q493.4502,1629.9902 498.49316,1643.374 Q503.53613,1656.7579 509.98828,1668.9409 Q516.4404,1681.124 525.70996,1694.0947 Q534.9795,1707.0654 546.35645,1719.2739 Q557.7334,1731.4825 571.04004,1744.0356 Q584.3467,1756.5889 598.53516,1768.3906 Q612.72363,1780.1925 628.1543,1792.3652 Q643.58496,1804.5381 658.60156,1816.8652 Q673.61816,1829.1924 687.895,1840.8887 Q702.1719,1852.5851 715.61816,1865.4551 Q729.0645,1878.3252 741.5586,1891.9995 Q754.05273,1905.6738 765.0303,1919.7949 Q776.0078,1933.916 785.0337,1950.2456 Q794.05963,1966.5752 800.81006,1982.6074 Q807.56055,1998.6396 812.18164,2014.6304 Q816.8028,2030.6211 818.8008,2046.6074 Q820.79877,2062.5938 821.1919,2076.7627 Q821.585,2090.9316 820.22314,2103.8794 Q818.8613,2116.8271 815.3921,2129.064 Q811.92285,2141.3008 806.3491,2151.6245 Q800.77545,2161.9482 793.96436,2169.983 Q787.1533,2178.0176 776.51953,2185.6533 Q765.88574,2193.289 752.42285,2200.162 Q738.96,2207.0352 723.52686,2212.038 Q708.09375,2217.041 691.4258,2219.3906 Q674.7578,2221.7402 656.6987,2222.9102 Q638.63965,2224.08 619.4951,2222.2505 Q600.3506,2220.421 581.37256,2217.4038 Q562.39453,2214.3867 544.4282,2209.852 Q526.4619,2205.3174 506.99365,2198.8906 Q487.5254,2192.4639 469.89258,2184.5005 Q452.25977,2176.537 433.66748,2166.689 Q415.0752,2156.8408 398.00244,2146.5776 Q380.9297,2136.3145 364.18604,2124.8945 Q347.44238,2113.4746 330.76904,2102.0664 Q314.0957,2090.6582 299.62305,2079.6035 Q285.1504,2068.5488 270.77588,2057.164 Q256.40137,2045.7794 243.04053,2035.4854 Q229.67969,2025.1914 217.3081,2013.398 Q204.93652,2001.6045 194.5044,1990.9009 Q184.07227,1980.1973 174.37842,1968.042 Q164.68457,1955.8867 156.22119,1944.0786 Q147.75781,1932.2706 139.82178,1920.4468 Q131.88574,1908.623 125.01611,1897.2085 Q118.14648,1885.794 113.680176,1875.0977 Q109.21387,1864.4014 107.043945,1854.105 Q104.874016,1843.8086 103.793945,1833.54 Q102.71387,1823.2715 104.055664,1811.4854 Q105.39745,1799.6992 110.74219,1786.4111 Q116.08692,1773.123 128.04443,1757.937 Q140.00195,1742.751 155.56445,1724.1675 Q171.12695,1705.584 189.16455,1685.814 Q207.20215,1666.0438 228.5498,1645.8804 Q249.89746,1625.7168 273.58594,1605.8872 Q297.2744,1586.0576 321.6289,1568.895 Q345.9834,1551.7324 371.6089,1536.4473 Q397.23438,1521.162 420.79248,1508.2725 Q444.3506,1495.3828 469.01855,1483.1211 Q493.68652,1470.8593 518.60986,1459.0522 Q543.5332,1447.2451 568.3169,1433.9722 Q593.1006,1420.6992 618.4746,1408.5947 Q643.84863,1396.4902 667.75195,1381.9653 Q691.6553,1367.4404 714.84717,1353.3496 Q738.03906,1339.2588 757.50635,1324.437 Q776.97363,1309.6152 795.3052,1295.854 Q813.6367,1282.0928 829.20605,1269.1152 Q844.7754,1256.1377 857.5327,1244.2886 Q870.29004,1232.4395 882.272,1220.6289 Q894.2539,1208.8184 903.8281,1198.1177 Q913.4024,1187.417 921.58984,1177.0542 Q929.77734,1166.6914 934.97363,1158.6064 Q940.17,1150.5215 943.37164,1144.7715 Q946.5733,1139.0215 948.03613,1133.6582 Q949.49896,1128.2949 949.53467,1123.7031 Q949.5703,1119.1113 948.54297,1115.6577 Q947.5156,1112.2041 945.6255,1108.8135 Q943.73535,1105.4229 939.9346,1101.6235 Q936.1338,1097.8242 929.7388,1092.9258 Q923.3437,1088.0273 915.8257,1083.0767 Q908.3076,1078.126 900.86523,1074.6157 Q893.42285,1071.1055 885.6714,1067.6655 Q877.91986,1064.2256 868.9888,1060.4272 Q860.0577,1056.6289 851.08057,1053.9282 Q842.1035,1051.2275 832.4795,1048.1987 Q822.85547,1045.1699 813.0176,1043.603 Q803.17975,1042.0361 791.6924,1042.7285 Q780.2051,1043.4209 765.56836,1045.6509 Q750.93164,1047.8809 732.7417,1054.5864 Q714.55176,1061.292 693.8926,1070.356 Q673.2334,1079.4199 651.3008,1091.8735 Q629.36816,1104.3271 608.2754,1117.9795 Q587.1826,1131.6318 567.9302,1146.8325 Q548.67773,1162.0332 533.6045,1175.0503 Q518.53125,1188.0674 506.12207,1199.9263 Q493.7129,1211.7852 484.99365,1221.3638 Q476.2744,1230.9424 470.042,1238.6182 Q463.80957,1246.294 460.36475,1252.0806 Q456.91992,1257.8672 455.10498,1261.7446 Q453.29,1265.6221 452.37988,1269.0615 Q451.46973,1272.501 451.60742,1274.8286 Q451.74512,1277.1562 453.1206,1279.4629 Q454.49612,1281.7695 458.9727,1285.5298 Q463.44925,1289.29 470.5786,1292.7275 Q477.70798,1296.165 485.4292,1299.5938 Q493.1504,1303.0225 501.06885,1305.7148 Q508.9873,1308.4072 518.4404,1311.8159 Q527.89355,1315.2246 538.6284,1318.6123 Q549.3633,1322.0 560.7866,1326.167 Q572.20996,1330.334 584.834,1335.2622 Q597.458,1340.1904 610.46045,1345.8794 Q623.4629,1351.5684 637.1499,1358.7515 Q650.8369,1365.9346 663.8535,1373.5293 Q676.8701,1381.124 689.5405,1389.1094 Q702.21094,1397.0947 714.03564,1405.8384 Q725.86035,1414.5819 736.79004,1424.813 Q747.7197,1435.044 757.9468,1446.4385 Q768.1738,1457.833 778.0322,1470.3657 Q787.8906,1482.8984 796.2051,1494.7295 Q804.51953,1506.5605 811.9087,1519.7979 Q819.29785,1533.0352 824.48047,1547.4668 Q829.66315,1561.8984 832.5654,1576.398 Q835.4678,1590.8975 835.9053,1609.4199 Q836.34283,1627.9424 833.4712,1646.5986 Q830.5996,1665.2549 825.0635,1686.1343 Q819.5274,1707.0137 811.6411,1727.3647 Q803.7549,1747.7158 793.9043,1769.5083 Q784.0537,1791.3008 773.3677,1810.0781 Q762.68164,1828.8555 751.0679,1845.7563 Q739.4541,1862.6572 726.83154,1878.685 Q714.209,1894.7129 701.8926,1907.4009 Q689.5762,1920.0889 676.1494,1931.5 Q662.72266,1942.9111 648.4448,1951.4517 Q634.167,1959.9922 620.77783,1965.7983 Q607.3887,1971.6046 593.39844,1973.2705 Q579.4082,1974.9365 565.9961,1974.6289 Q552.584,1974.3213 539.708,1972.8369 Q526.83203,1971.3525 513.4966,1966.8901 Q500.16113,1962.4277 486.97803,1957.1255 Q473.79492,1951.8232 461.96143,1944.6514 Q450.12793,1937.4794 439.8711,1929.5039 Q429.61426,1921.5283 420.60938,1912.7979 Q411.6045,1904.0674 403.48096,1893.8291 Q395.35742,1883.5908 389.16846,1872.9907 Q382.9795,1862.3906 379.0127,1851.6968 Q375.0459,1841.0028 373.8877,1829.5894 Q372.7295,1818.1758 375.06885,1805.2744 Q377.40823,1792.373 383.42822,1779.0669 Q389.44824,1765.7607 398.45557,1751.373 Q407.46292,1736.9855 419.9834,1722.8799 Q432.50388,1708.7744 449.2456,1692.0903 Q465.9873,1675.4062 486.10303,1660.4658 Q506.21875,1645.5255 528.64746,1630.6655 Q551.0762,1615.8057 574.6196,1603.1431 Q598.1631,1590.4803 622.3262,1577.582 Q646.48926,1564.6836 670.5122,1553.8887 Q694.53516,1543.0938 719.0703,1532.3779 Q743.60547,1521.6621 767.41797,1510.227 Q791.23047,1498.792 813.07324,1487.3682 Q834.9161,1475.9443 856.0279,1467.1167 Q877.1397,1458.2891 896.16895,1449.5332 Q915.19824,1440.7773 931.1001,1432.0176 Q947.0019,1423.2578 962.9678,1414.8823 Q978.9336,1406.5068 991.855,1398.8672 Q1004.77637,1391.2275 1013.66797,1385.0972 Q1022.5595,1378.9668 1029.6426,1372.8706 Q1036.7256,1366.7743 1041.5352,1361.791 Q1046.3447,1356.8076 1050.2363,1351.1143 Q1054.1279,1345.4209 1056.7949,1338.9731 Q1059.4619,1332.5254 1060.2192,1326.0498 Q1060.9766,1319.5742 1059.9692,1313.833 Q1058.9619,1308.0918 1056.3696,1302.3848 Q1053.7773,1296.6777 1050.294,1292.0859 Q1046.8105,1287.4941 1041.7568,1282.5513 Q1036.7031,1277.6084 1027.5693,1271.5874 Q1018.43555,1265.5664 1008.96094,1261.314 Q999.4863,1257.0615 988.4756,1253.6074 Q977.46484,1250.1533 964.1509,1247.4512 Q950.8369,1244.749 936.9341,1243.9297 Q923.0313,1243.1104 906.73486,1244.1724 Q890.4385,1245.2344 872.15137,1248.9517 Q853.86426,1252.669 834.17236,1259.4336 Q814.48047,1266.1982 795.05176,1277.419 Q775.623,1288.6396 756.75586,1300.5591 Q737.8887,1312.4785 721.6504,1325.7666 Q705.4121,1339.0547 691.96533,1352.396 Q678.51855,1365.7373 667.22266,1379.7964 Q655.92676,1393.8555 647.5801,1408.6948 Q639.2334,1423.5342 634.3916,1436.9087 Q629.5498,1450.2832 627.71387,1463.2319 Q625.8779,1476.1808 627.0093,1488.2208 Q628.1406,1500.2609 632.42676,1511.7744 Q636.7129,1523.2881 643.6504,1533.6162 Q650.5879,1543.9443 659.9546,1554.5527 Q669.3213,1565.1611 681.0708,1575.5151 Q692.8203,1585.8691 705.69824,1596.4482 Q718.5762,1607.0273 730.67725,1617.416 Q742.7783,1627.8047 755.4717,1639.2476 Q768.165,1650.6906 778.7275,1660.5947 Q789.29,1670.499 799.5322,1683.0264 Q809.7744,1695.5537 817.9302,1709.9907 Q826.08594,1724.4277 831.7788,1738.9038 Q837.4717,1753.3799 841.3843,1770.4395 Q845.2968,1787.499 846.601,1805.0347 Q847.9052,1822.5703 847.25195,1841.5791 Q846.59863,1860.5879 843.6919,1879.8511 Q840.78516,1899.1143 835.2466,1918.1733 Q829.708,1937.2324 822.0039,1957.1133 Q814.2998,1976.9941 805.53076,1994.2256 Q796.7617,2011.457 787.29834,2027.4678 Q777.83496,2043.4785 768.3262,2055.7935 Q758.8174,2068.1084 748.52295,2078.3882 Q738.2286,2088.668 726.2676,2096.776 Q714.30664,2104.8838 703.3999,2108.7969 Q692.49316,2112.71 683.08154,2112.4458 Q673.6699,2112.1816 666.0737,2109.5688 Q658.47754,2106.956 652.98486,2101.6924 Q647.4922,2096.4287 641.2656,2083.0957 Q635.03906,2069.7627 632.2554,2053.419 Q629.4717,2037.0751 629.21387,2016.9409 Q628.95605,1996.8066 631.68066,1973.665 Q634.4053,1950.5234 639.791,1922.041 Q645.17676,1893.5586 653.7114,1860.1514 Q662.2461,1826.744 675.30664,1790.2715 Q688.3672,1753.799 705.8237,1713.9116 Q723.2803,1674.0244 745.29443,1636.6504 Q767.3086,1599.2764 790.69727,1565.9658 Q814.086,1532.6553 837.0616,1507.0122 Q860.0372,1481.3691 879.3281,1462.4927 Q898.61914,1443.6162 916.58154,1431.2549 Q934.54395,1418.8936 948.02734,1413.377 Q961.51074,1407.8604 973.1655,1408.0884 Q984.8203,1408.3164 1007.6782,1409.0664 Q1030.5361,1409.8164 1031.186,1409.8379 L1031.8359,1409.8594 " fill="none" stroke="#106d1f" stroke-width="56.0" stroke-linecap="round"/></svg>