<svg width="1440" height="2616" xmlns="http://www.w3.org/2000/svg"><rect width="1440" height="2616" fill="#ffffff"/><path d="M314.64844,1663.5116 Q314.64844,1663.5116 314.64844,1663.5116 Q314.64844,1663.5116 314.64844,1663.5116 Q314.64844,1663.5116 314.64844,1663.5116 Q314.64844,1663.5116 314.64844,1663.5116 Q314.64844,1663.5116 314.64844,1663.5116 Q314.64844,1663.5116 314.64844,1663.5116 Q314.64844,1663.5116 314.64844,1663.5116 Q314.64844,1663.5116 308.37158,1653.9609 Q302.09473,1644.4102 298.02344,1637.1777 Q293.95215,1629.9453 290.12402,1622.4414 Q286.2959,1614.9375 282.9629,1607.4097 Q279.62988,1599.8818 276.47412,1591.6147 Q273.31836,1583.3478 269.5874,1574.4243 Q265.85645,1565.501 262.13135,1555.2114 Q258.40625,1544.9219 254.88184,1535.0005 Q251.35742,1525.0791 247.89941,1517.1196 Q244.4414,1509.1602 240.43457,1500.4541 Q236.42773,1491.748 232.86572,1485.102 Q229.3037,1478.456 224.76025,1470.8452 Q220.21681,1463.2344 215.28955,1455.2178 Q210.3623,1447.2012 205.84473,1441.1074 Q201.32715,1435.0137 196.55713,1427.7969 Q191.78711,1420.5801 186.7832,1414.1567 Q181.7793,1407.7334 177.45264,1401.9043 Q173.12598,1396.0751 167.49365,1387.7202 Q161.86133,1379.3652 157.6333,1372.8872 Q153.40527,1366.4092 149.98535,1360.6016 Q146.56543,1354.794 143.58887,1350.2129 Q140.6123,1345.632 137.56152,1341.7002 Q134.51074,1337.7686 131.56445,1333.6514 Q128.61816,1329.5342 125.625,1325.7007 Q122.63184,1321.8673 120.3125,1318.7832 Q117.993164,1315.6991 115.87793,1313.0181 Q113.762695,1310.3369 112.33838,1308.4175 Q110.91406,1306.498 110.17383,1305.6729 Q109.43359,1304.8477 108.71338,1304.0679 Q107.99316,1303.2881 107.961426,1303.2534 Q107.92969,1303.2188 107.92969,1303.2188 Q107.92969,1303.2188 107.92969,1303.2188 Q107.92969,1303.2188 107.92969,1303.2188 Q107.92969,1303.2188 107.92969,1303.2188 Q107.92969,1303.2188 107.92969,1303.2188 Q107.92969,1303.2188 107.92969,1303.2188 Q107.92969,1303.2188 107.92969,1303.2188 Q107.92969,1303.2188 111.58203,1299.6006 Q115.234375,1295.9824 122.50635,1291.8804 Q129.77832,1287.7783 137.45801,1284.3193 Q145.1377,1280.8604 152.50146,1277.376 Q159.86523,1273.8916 167.44824,1269.3584 Q175.03125,1264.8252 182.2373,1259.9053 Q189.44334,1254.9854 199.50682,1248.5747 Q209.5703,1242.1641 221.5503,1235.6279 Q233.53029,1229.0918 245.18994,1220.8779 Q256.8496,1212.6641 269.45068,1204.6533 Q282.05176,1196.6426 293.69775,1189.373 Q305.34375,1182.1035 314.79834,1175.938 Q324.25293,1169.7725 332.2041,1164.4224 Q340.15527,1159.0723 346.6006,1155.2598 Q353.0459,1151.4473 358.02246,1148.6401 Q362.99902,1145.833 366.2251,1143.9019 Q369.45117,1141.9707 371.4956,1140.7603 Q373.54004,1139.5498 374.2954,1139.1367 Q375.0508,1138.7236 375.08398,1138.7056 Q375.1172,1138.6875 375.1172,1138.6875 Q375.1172,1138.6875 375.1172,1138.6875 Q375.1172,1138.6875 375.1172,1138.6875 Q375.1172,1138.6875 375.1172,1138.6875 Q375.1172,1138.6875 375.1172,1138.6875 Q375.1172,1138.6875 375.1172,1138.6875 Q375.1172,1138.6875 375.1172,1138.6875 Q375.1172,1138.6875 375.1172,1138.6875 Q375.1172,1138.6875 368.78906,1141.7344 L362.46094,1144.7812 " fill="none" stroke="#0037ff" stroke-width="56.0" stroke-linecap="round"/><path d="M188.78906,1422.0469 Q188.78906,1422.0469 188.78906,1422.0469 Q188.78906,1422.0469 188.78906,1422.0469 Q188.78906,1422.0469 188.78906,1422.0469 Q188.78906,1422.0469 188.78906,1422.0469 Q188.78906,1422.0469 188.78906,1422.0469 Q188.78906,1422.0469 188.78906,1422.0469 Q188.78906,1422.0469 198.65039,1415.7949 Q208.5117,1409.5428 212.98633,1407.1675 Q217.46094,1404.792 221.91064,1402.1143 Q226.36035,1399.4365 231.70508,1396.4385 Q237.04982,1393.4404 241.74806,1390.8022 Q246.4463,1388.1641 251.92236,1385.1016 Q257.39844,1382.0391 262.9746,1379.0127 Q268.55078,1375.9863 274.58398,1372.8984 Q280.6172,1369.8105 286.5415,1367.148 Q292.46582,1364.4854 297.8413,1362.5127 Q303.2168,1360.5399 307.3921,1359.0327 Q311.56738,1357.5254 314.80322,1356.3564 Q318.03906,1355.1875 320.87744,1354.0454 Q323.71582,1352.9033 326.40283,1352.102 Q329.08984,1351.3008 331.72266,1350.897 Q334.35547,1350.4932 337.187,1349.3862 Q340.01855,1348.2794 340.16553,1348.2197 L340.3125,1348.16 " fill="none" stroke="#0037ff" stroke-width="56.0" stroke-linecap="round"/><path d="M529.10156,1188.1992 Q529.10156,1188.1992 529.10156,1188.1992 Q529.10156,1188.1992 529.10156,1188.1992 Q529.10156,1188.1992 529.10156,1188.1992 Q529.10156,1188.1992 529.10156,1188.1992 Q529.10156,1188.1992 529.10156,1188.1992 Q529.10156,1188.1992 529.10156,1188.1992 Q529.10156,1188.1992 529.10156,1188.1992 Q529.10156,1188.1992 529.10156,1188.1992 Q529.10156,1188.1992 529.10156,1188.1992 Q529.10156,1188.1992 529.10156,1188.1992 Q529.10156,1188.1992 529.10156,1188.1992 Q529.10156,1188.1992 529.10156,1188.1992 Q529.10156,1188.1992 529.10156,1188.1992 Q529.10156,1188.1992 523.9175,1197.9253 Q518.7334,1207.6514 515.209,1214.898 Q511.68457,1222.1445 507.65625,1230.4922 Q503.62793,1238.8398 499.75488,1247.2227 Q495.88184,1255.6055 492.53516,1264.7134 Q489.18848,1273.8213 486.70947,1281.4648 Q484.23047,1289.1084 481.95654,1298.8823 Q479.68262,1308.6562 478.4038,1317.1782 Q477.125,1325.7002 476.06885,1333.687 Q475.0127,1341.6738 474.29932,1348.9443 Q473.58594,1356.2148 473.5703,1363.0752 Q473.5547,1369.9355 474.2417,1376.792 Q474.9287,1383.6484 475.9756,1391.249 Q477.02246,1398.8497 478.4204,1405.7207 Q479.81836,1412.5917 481.39502,1418.3262 Q482.97168,1424.0605 484.89746,1429.7749 Q486.82324,1435.4893 489.95996,1443.4375 Q493.09665,1451.3857 496.09033,1457.8984 Q499.08398,1464.4111 501.72852,1468.6519 Q504.37305,1472.8926 507.1797,1476.3354 Q509.98633,1479.7782 513.3154,1482.8354 Q516.64453,1485.8926 522.0386,1488.9355 Q527.4326,1491.9785 532.37256,1493.9121 Q537.3125,1495.8458 543.2837,1496.9775 Q549.2549,1498.1094 555.04785,1498.1641 Q560.8408,1498.2189 566.12305,1497.1016 Q571.4053,1495.9844 577.36084,1494.0991 Q583.3164,1492.2137 589.62354,1488.8281 Q595.93066,1485.4424 601.93164,1480.5166 Q607.9326,1475.5908 613.90625,1469.898 Q619.8799,1464.205 626.7007,1457.0195 Q633.5215,1449.834 640.0469,1442.2114 Q646.57227,1434.589 653.24805,1426.2275 Q659.9238,1417.8662 665.91455,1409.4907 Q671.9053,1401.1152 678.229,1390.8701 Q684.55273,1380.6251 690.3677,1368.4775 Q696.1826,1356.3301 701.29395,1344.8916 Q706.4053,1333.4531 711.6753,1320.5381 Q716.9453,1307.623 722.0493,1296.1562 Q727.1533,1284.6895 731.90576,1274.0122 Q736.6582,1263.335 740.62305,1255.0991 Q744.5879,1246.8633 747.6865,1240.1665 Q750.78516,1233.4697 752.57715,1229.2163 Q754.3692,1224.9629 755.4409,1222.2588 Q756.5127,1219.5547 757.05273,1218.0044 Q757.59283,1216.4541 757.605,1216.4185 Q757.6172,1216.3828 757.6172,1216.3828 Q757.6172,1216.3828 757.6172,1216.3828 Q757.6172,1216.3828 757.6172,1216.3828 Q757.6172,1216.3828 757.6172,1216.3828 Q757.6172,1216.3828 757.6172,1216.3828 Q757.6172,1216.3828 757.6172,1216.3828 Q757.6172,1216.3828 757.6172,1216.3828 Q757.6172,1216.3828 757.6172,1216.3828 Q757.6172,1216.3828 757.6172,1216.3828 Q757.6172,1216.3828 757.6172,1216.3828 Q757.6172,1216.3828 757.6172,1216.3828 Q757.6172,1216.3828 757.6172,1216.3828 Q757.6172,1216.3828 757.6172,1216.3828 L757.6172,1216.3828 " fill="none" stroke="#0037ff" stroke-width="56.0" stroke-linecap="round"/><path d="M968.2031,1251.4219 Q968.2031,1251.4219 968.2031,1251.4219 Q968.2031,1251.4219 968.2031,1251.4219 Q968.2031,1251.4219 968.2031,1251.4219 Q968.2031,1251.4219 968.2031,1251.4219 Q968.2031,1251.4219 968.2031,1251.4219 Q968.2031,1251.4219 968.2031,1251.4219 Q968.2031,1251.4219 968.2031,1251.4219 Q968.2031,1251.4219 961.0513,1250.2993 Q953.8994,1249.1768 949.6582,1249.519 Q945.417,1249.8613 939.7212,1250.6006 Q934.02545,1251.3398 927.45953,1253.1636 Q920.8936,1254.9873 913.8716,1257.252 Q906.8496,1259.5166 900.1655,1262.8647 Q893.48145,1266.2129 886.5405,1270.0508 Q879.5996,1273.8887 872.188,1279.5483 Q864.77637,1285.208 856.4219,1294.1597 Q848.0674,1303.1113 839.16797,1314.7388 Q830.26855,1326.3662 823.2949,1336.0181 Q816.3213,1345.6699 809.3013,1359.1641 Q802.28125,1372.6582 797.9072,1383.1436 Q793.5332,1393.6289 790.3535,1402.7236 Q787.1738,1411.8184 785.0244,1420.8594 Q782.875,1429.9004 782.2588,1438.6523 Q781.6426,1447.4043 781.91846,1454.9795 Q782.1944,1462.5547 783.22656,1468.7373 Q784.2588,1474.9199 786.47314,1481.3086 Q788.68744,1487.6973 791.80273,1494.1577 Q794.918,1500.6182 798.0918,1505.2983 Q801.2656,1509.9786 805.90283,1514.875 Q810.54004,1519.7715 817.04834,1525.3862 Q823.55664,1531.001 830.77344,1536.0312 Q837.99023,1541.0616 844.687,1544.5708 Q851.3838,1548.0801 859.6592,1551.5527 Q867.9346,1555.0254 876.13916,1557.709 Q884.3437,1560.3927 891.46436,1561.9824 Q898.585,1563.5723 903.9697,1564.7393 Q909.3545,1565.9061 919.6094,1568.1279 Q929.86426,1570.3496 930.4009,1570.4658 L930.9375,1570.582 " fill="none" stroke="#0037ff" stroke-width="56.0" stroke-linecap="round"/><path d="M1100.0391,1246.8516 Q1100.0391,1246.8516 1100.0391,1246.8516 Q1100.0391,1246.8516 1100.0391,1246.8516 Q1100.0391,1246.8516 1100.0391,1246.8516 Q1100.0391,1246.8516 1100.0391,1246.8516 Q1100.0391,1246.8516 1100.0391,1246.8516 Q1100.0391,1246.8516 1100.0391,1246.8516 Q1100.0391,1246.8516 1096.6436,1260.1279 Q1093.248,1273.4043 1090.148,1283.8833 Q1087.0479,1294.3623 1083.5293,1306.1807 Q1080.0107,1317.999 1075.6528,1331.2769 Q1071.2949,1344.5548 1066.706,1359.0571 Q1062.1172,1373.5596 1056.584,1390.4429 Q1051.0508,1407.326 1045.4243,1423.0239 Q1039.7979,1438.7218 1034.4956,1454.73 Q1029.1934,1470.7383 1025.2417,1483.8877 Q1021.29,1497.0371 1019.437,1508.1626 Q1017.584,1519.2881 1016.667,1526.6797 Q1015.75,1534.0713 1015.53955,1539.5127 Q1015.32904,1544.9541 1015.4878,1548.46 Q1015.6465,1551.9658 1015.82227,1554.3032 Q1015.99805,1556.6406 1016.1738,1557.8423 Q1016.3496,1559.044 1016.3584,1559.1001 Q1016.3672,1559.1564 1016.3672,1559.1564 L1016.3672,1559.1564 " fill="none" stroke="#0037ff" stroke-width="56.0" stroke-linecap="round"/><path d="M1026.2109,1459.3712 Q1026.2109,1459.3712 1026.2109,1459.3712 Q1026.2109,1459.3712 1026.2109,1459.3712 Q1026.2109,1459.3712 1026.2109,1459.3712 Q1026.2109,1459.3712 1026.2109,1459.3712 Q1026.2109,1459.3712 1039.8594,1441.9863 Q1053.5078,1424.6016 1062.2031,1415.1147 Q1070.8984,1405.6279 1080.1919,1397.0239 Q1089.4854,1388.4199 1099.0981,1380.8008 Q1108.7109,1373.1816 1116.4272,1367.102 Q1124.1436,1361.0223 1130.853,1356.0293 Q1137.5625,1351.0361 1143.1377,1347.1226 Q1148.7129,1343.209 1153.6753,1340.1152 Q1158.6377,1337.0215 1163.3496,1334.3613 Q1168.0615,1331.7012 1172.3115,1329.0342 Q1176.5615,1326.3671 1180.3027,1324.4102 Q1184.044,1322.4531 1187.5293,1320.5698 Q1191.0146,1318.6865 1193.397,1317.125 Q1195.7793,1315.5635 1199.2095,1314.0498 Q1202.6396,1312.5361 1202.8433,1312.4478 L1203.0469,1312.3594 " fill="none" stroke="#0037ff" stroke-width="56.0" stroke-linecap="round"/><path d="M1068.3984,1390.8164 Q1068.3984,1390.8164 1068.3984,1390.8164 Q1068.3984,1390.8164 1068.3984,1390.8164 Q1068.3984,1390.8164 1068.3984,1390.8164 Q1068.3984,1390.8164 1068.3984,1390.8164 Q1068.3984,1390.8164 1067.0308,1409.9756 Q1065.6631,1429.1348 1065.2905,1440.6431 Q1064.918,1452.1514 1064.9004,1463.9336 Q1064.8828,1475.7158 1065.0498,1486.0679 Q1065.2168,1496.4199 1066.5659,1506.375 Q1067.915,1516.3301 1069.9854,1524.395 Q1072.0557,1532.46 1074.4683,1538.5732 Q1076.8809,1544.6865 1079.707,1549.771 Q1082.5332,1554.8555 1085.0107,1558.3574 Q1087.4883,1561.8595 1090.6245,1564.9326 Q1093.7607,1568.0059 1100.1006,1572.8628 Q1106.4404,1577.7197 1111.3975,1580.4741 Q1116.3545,1583.2284 1122.5889,1584.8135 Q1128.8232,1586.3984 1141.0171,1589.334 Q1153.2109,1592.2695 1154.0469,1592.4707 L1154.8828,1592.6719 " fill="none" stroke="#0037ff" stroke-width="56.0" stroke-linecap="round"/></svg>