<svg width="1080" height="2018" xmlns="http://www.w3.org/2000/svg"><rect width="1080" height="2018" fill="#ffffff"/><path d="M277.0,1461.0 Q277.0,1461.0 276.0,1461.0 Q275.0,1461.0 274.5,1460.0 Q274.0,1459.0 274.0,1457.3951 Q274.0,1455.7903 273.4227,1454.7405 Q272.8454,1453.6908 272.9227,1451.6533 Q273.0,1449.6158 272.3868,1445.5156 Q271.77362,1441.4154 271.287,1437.4092 Q270.80035,1433.4028 270.26288,1421.4558 Q269.72543,1409.5088 269.86273,1402.3875 Q270.0,1395.2661 269.354,1386.2975 Q268.70804,1377.3289 268.23325,1369.1113 Q267.75845,1360.8937 266.59033,1353.28 Q265.42218,1345.6664 265.08234,1337.1448 Q264.74252,1328.623 263.67914,1321.2744 Q262.61572,1313.9257 262.80786,1304.5938 Q263.0,1295.2617 263.0,1288.6055 Q263.0,1281.9491 261.75842,1273.542 Q260.51688,1265.1349 260.75842,1258.6465 Q261.0,1252.1581 260.3532,1245.1709 Q259.70645,1238.1837 259.8532,1231.4468 Q260.0,1224.7098 260.0,1218.1184 Q260.0,1211.5271 260.0,1202.5574 Q260.0,1193.5876 260.0,1185.6294 Q260.0,1177.6711 259.4101,1169.8971 Q258.8202,1162.123 259.5084,1153.9889 Q260.1966,1145.8547 260.74237,1137.1224 Q261.28812,1128.3901 261.14404,1121.3401 Q261.0,1114.29 261.0,1107.3362 Q261.0,1100.3823 261.0,1094.6296 Q261.0,1088.8771 261.62637,1083.5483 Q262.25275,1078.2197 262.75525,1072.0631 Q263.25778,1065.9065 263.73956,1061.9573 Q264.2213,1058.0082 265.3018,1051.8572 Q266.38226,1045.7063 266.19113,1037.1779 Q266.0,1028.6494 266.0,1021.89404 Q266.0,1015.13873 266.0,1009.14575 Q266.0,1003.15283 266.0,996.52057 Q266.0,989.8883 266.62158,984.6068 Q267.24313,979.3253 266.52808,975.3213 Q265.81305,971.31726 265.90652,966.9764 Q266.0,962.6355 266.0,960.15906 Q266.0,957.6826 266.0,954.0365 Q266.0,950.3904 265.36896,947.4089 Q264.73788,944.42737 264.23227,940.7569 Q263.72665,937.0864 263.86334,934.3506 Q264.0,931.61475 264.0,928.5269 Q264.0,925.4391 264.0,921.77484 Q264.0,918.1106 264.0,914.6711 Q264.0,911.23157 263.36432,907.0303 Q262.72864,902.829 262.86432,899.5914 Q263.0,896.35376 263.0,892.7971 Q263.0,889.2405 263.0,885.82446 Q263.0,882.40845 261.74094,878.7975 Q260.48187,875.1865 260.74094,872.41864 Q261.0,869.65076 261.0,867.2058 Q261.0,864.76086 261.0,862.317 Q261.0,859.87317 261.0,858.01013 Q261.0,856.1471 261.0,855.3039 Q261.0,854.4607 261.0,853.4981 Q261.0,852.5355 261.0,851.64935 Q261.0,850.7632 262.0,851.3816 Q263.0,852.0 264.9234,852.6411 Q266.84683,853.2822 267.55405,853.7064 Q268.26126,854.1306 269.3866,855.3213 Q270.51196,856.51196 271.49976,856.87787 Q272.48755,857.2438 274.79074,858.3954 Q277.09393,859.547 279.04962,860.52484 Q281.00534,861.5027 283.64062,862.50653 Q286.27588,863.5104 288.55865,863.83936 Q290.84146,864.16833 293.0067,864.08417 Q295.17197,864.0 298.2456,865.21985 Q301.31924,866.4397 303.19482,866.21985 Q305.07043,866.0 307.03973,866.0 Q309.00903,866.0 310.74744,866.5607 Q312.48584,867.12146 314.7111,867.0607 Q316.93634,867.0 318.9417,867.0 Q320.94705,867.0 322.98944,867.0 Q325.03183,867.0 326.31525,867.5998 Q327.5987,868.1996 329.67587,868.6939 Q331.75305,869.18823 333.23865,869.0941 Q334.72424,869.0 336.7751,869.0 Q338.82596,869.0 340.28375,869.0 Q341.74155,869.0 342.62228,868.37427 Q343.50302,867.74854 345.76895,867.24493 Q348.03488,866.74133 349.3634,866.87067 Q350.6919,867.0 352.19797,867.6173 Q353.70404,868.2346 355.0542,868.1173 Q356.40433,868.0 357.4247,867.38873 Q358.4451,866.77747 360.07095,866.88873 Q361.6968,867.0 362.6236,866.3624 Q363.55035,865.72485 364.4967,865.8624 Q365.44308,866.0 367.1324,864.72614 Q368.8217,863.4523 369.67676,863.0932 Q370.53186,862.73413 371.53006,863.49915 Q372.52826,864.26416 373.46667,863.5308 Q374.40512,862.7975 375.89178,863.46185 Q377.37848,864.1262 378.3032,864.62006 Q379.2279,865.1139 379.61395,866.55695 Q380.0,868.0 380.0,870.34265 Q380.0,872.6853 380.0,875.5215 Q380.0,878.35767 380.0,881.2817 Q380.0,884.2057 380.0,887.84015 Q380.0,891.4746 380.0,895.24506 Q380.0,899.0155 379.37183,902.405 Q378.74362,905.79456 378.2602,909.7904 Q377.77673,913.78625 377.2915,917.6679 Q376.8063,921.54956 376.3053,926.1554 Q375.8043,930.7612 375.2575,934.3932 Q374.7107,938.02515 374.85535,942.94977 Q375.0,947.8744 373.08405,952.0464 Q371.1681,956.2184 370.32916,961.38354 Q369.49026,966.5487 369.10794,971.6463 Q368.72562,976.7439 368.23322,982.9268 Q367.74084,989.10974 367.243,996.3387 Q366.74518,1003.5676 365.66748,1008.41187 Q364.5898,1013.25604 364.18854,1020.011 Q363.78723,1026.7659 363.25812,1033.0092 Q362.72897,1039.2524 362.24817,1046.2544 Q361.7674,1053.2562 361.23926,1060.006 Q360.7111,1066.7557 360.85553,1073.5781 Q361.0,1080.4004 361.612,1086.0442 Q362.224,1091.688 362.112,1098.3268 Q362.00003,1104.9656 360.73737,1110.4275 Q359.47467,1115.8893 359.73734,1120.5035 Q360.0,1125.1178 360.60815,1130.7485 Q361.2163,1136.3793 361.74225,1141.5308 Q362.26822,1146.6821 362.13412,1151.6904 Q362.00003,1156.6986 362.59222,1161.8635 Q363.1844,1167.0284 363.0922,1172.0637 Q363.0,1177.099 363.0,1181.9163 Q363.0,1186.7336 364.28192,1192.9175 Q365.56387,1199.1013 365.80255,1202.7568 Q366.04126,1206.4125 367.1463,1212.4629 Q368.25134,1218.5133 368.8875,1223.5659 Q369.5237,1228.6185 370.5235,1233.6176 Q371.52332,1238.6166 371.89697,1244.2966 Q372.2706,1249.9767 373.42236,1255.5673 Q374.57416,1261.1578 374.91553,1265.8635 Q375.25693,1270.5693 376.39435,1275.614 Q377.53174,1280.6586 378.52927,1285.0146 Q379.5268,1289.3706 379.8927,1294.4784 Q380.2586,1299.5862 381.3954,1304.6234 Q382.53214,1309.6606 383.5308,1314.654 Q384.52945,1319.6473 384.89532,1324.6298 Q385.26123,1329.6122 385.1306,1333.2252 Q385.0,1336.8383 385.6213,1340.8896 Q386.2426,1344.941 386.1213,1348.958 Q386.0,1352.9749 386.62738,1356.3792 Q387.25476,1359.7833 387.12738,1363.7291 Q387.0,1367.6749 387.0,1370.6431 Q387.0,1373.6111 387.59222,1376.951 Q388.18442,1380.291 388.73486,1384.1443 Q389.2853,1387.9974 389.14264,1390.6428 Q389.0,1393.2883 387.7733,1395.0977 Q386.54657,1396.9069 386.14557,1398.3365 Q385.74457,1399.7662 385.87228,1401.74 Q386.0,1403.7136 386.0,1405.7965 Q386.0,1407.8794 386.0,1409.3538 Q386.0,1410.8281 385.38266,1413.5007 Q384.76532,1416.1733 384.28076,1417.3923 Q383.79617,1418.6115 383.89807,1420.7994 Q384.0,1422.9874 383.39075,1424.3215 Q382.78146,1425.6556 382.27795,1426.5533 Q381.77448,1427.451 381.25592,1429.1195 Q380.73737,1430.788 379.76575,1431.4968 Q378.79416,1432.2058 377.789,1432.657 Q376.7838,1433.108 375.68008,1433.054 Q374.57635,1433.0 372.38354,1433.0 Q370.1907,1433.0 368.75354,1433.0 Q367.31638,1433.0 364.6289,1432.3942 Q361.9414,1431.7883 359.23886,1431.8942 Q356.53632,1432.0 354.1268,1431.3717 Q351.7173,1430.7434 348.57028,1430.2402 Q345.42328,1429.7372 342.5788,1430.4741 Q339.73428,1431.2109 336.79614,1431.1055 Q333.858,1431.0 330.08887,1431.62 Q326.3197,1432.24 322.7296,1432.12 Q319.13956,1432.0 314.10226,1432.5967 Q309.06497,1433.1935 305.1836,1433.0967 Q301.30225,1433.0 297.67023,1433.0 Q294.03824,1433.0 291.88547,1432.3733 Q289.7327,1431.7466 287.82,1429.9635 L285.9073,1428.1804 " fill="none" stroke="#000000" stroke-width="19.949999" stroke-linecap="round"/><path d="M382.0,911.0 Q382.0,911.0 382.5,910.0 Q383.0,909.0 384.08127,908.45935 Q385.16254,907.9187 386.18155,907.95935 Q387.20056,908.0 391.7283,909.0256 Q396.25604,910.05115 398.9521,911.1552 Q401.64816,912.2593 405.5736,913.192 Q409.49908,914.12476 413.48245,914.5915 Q417.46582,915.0582 423.61316,916.3052 Q429.76047,917.5521 433.34985,918.5185 Q436.93924,919.48486 441.57214,919.8649 Q446.20505,920.245 450.11896,920.7496 Q454.03284,921.25415 457.54248,923.06683 Q461.05215,924.8795 463.00262,923.8444 Q464.9531,922.8093 467.672,922.90466 Q470.39087,923.0 472.19397,921.75073 Q473.99704,920.50146 475.42606,919.4657 Q476.85507,918.42993 478.2752,918.09906 Q479.69537,917.7682 481.28076,917.23975 Q482.86618,916.7113 483.6087,915.68 Q484.35126,914.6487 485.29532,914.82434 Q486.23938,915.0 485.6197,916.0 Q484.99997,917.0 484.3718,918.25635 Q483.74362,919.5127 483.24127,920.51746 Q482.7389,921.5222 482.3233,922.35345 Q481.90768,923.1847 480.79932,925.4014 Q479.69095,927.61816 479.28497,928.99066 Q478.87897,930.36316 478.3117,932.6926 Q477.74448,935.0221 477.26877,936.9249 Q476.79306,938.82776 476.89655,940.18286 Q477.0,941.53796 475.70322,943.2142 Q474.40643,944.8904 474.12067,946.1928 Q473.8349,947.49524 473.91745,948.5383 Q474.0,949.5814 473.38995,950.5108 Q472.7799,951.4402 472.38995,952.2201 Q472.0,953.0 471.5,952.0 Q471.0,951.0 470.0,951.0 Q469.0,951.0 467.69412,951.65295 Q466.38824,952.3059 464.98712,952.15295 Q463.586,952.0 461.45642,952.58417 Q459.3268,953.16833 456.7708,954.2412 Q454.2148,955.3141 450.65814,956.2854 Q447.10147,957.2567 442.28113,957.12836 Q437.46082,957.0 433.47122,958.1898 Q429.48163,959.37964 425.88635,959.8119 Q422.29105,960.24414 419.8407,960.67285 Q417.39032,961.10156 413.9178,961.68036 Q410.44525,962.25916 408.0138,960.846 Q405.5823,959.43286 404.45825,959.10547 Q403.33417,958.7781 401.12982,956.9861 Q398.9255,955.1941 397.5111,951.6937 Q396.09668,948.19336 394.84808,942.86237 L393.5995,937.5314 " fill="none" stroke="#000000" stroke-width="19.949999" stroke-linecap="round"/><path d="M396.0,870.0 Q396.0,870.0 397.5,869.5 Q398.99997,869.0 400.68542,868.4382 Q402.3709,867.87634 414.33786,864.25696 Q426.3048,860.6376 434.4409,858.02313 Q442.57697,855.4087 447.30273,853.49866 Q452.02847,851.5886 459.1288,850.1626 Q466.22916,848.7366 473.028,848.33875 Q479.82687,847.9409 487.4305,847.35376 Q495.03415,846.7666 500.2741,846.26904 Q505.51404,845.7715 510.4669,845.88574 Q515.41974,846.0 520.36304,846.0 Q525.3063,846.0 529.9822,846.0 Q534.658,846.0 539.5953,845.37335 Q544.53253,844.7467 549.47754,844.87335 Q554.42255,845.0 558.34106,845.0 Q562.25964,845.0 566.684,845.0 Q571.1084,845.0 574.58203,845.0 Q578.0556,845.0 581.3291,845.0 Q584.60266,845.0 587.0194,845.0 Q589.4362,845.0 591.5968,845.0 Q593.7573,845.0 595.3426,845.65466 Q596.92786,846.3093 597.66797,846.15466 Q598.40814,846.0 599.45935,846.6276 Q600.51056,847.25525 601.3756,848.2479 Q602.2406,849.2406 602.1203,850.7826 Q602.0,852.3246 601.35767,855.37415 Q600.7153,858.4237 600.85767,862.2554 Q601.0,866.08704 600.38666,870.45026 Q599.7733,874.8135 599.282,879.9533 Q598.7907,885.09314 597.6217,891.05164 Q596.4527,897.01013 595.4962,902.271 Q594.5397,907.53186 593.13745,913.33954 Q591.7353,919.1472 589.54297,926.70984 Q587.3507,934.27246 586.4208,941.291 Q585.49084,948.3096 584.5142,954.6576 Q583.5376,961.0056 582.58435,966.0173 Q581.6311,971.02893 580.53796,978.3191 Q579.44476,985.60925 578.51465,991.0514 Q577.5845,996.4935 576.66724,1002.55945 Q575.74994,1008.62537 574.5738,1014.96924 Q573.39764,1021.31305 573.084,1025.1897 Q572.7704,1029.0664 571.62335,1031.8187 Q570.4763,1034.571 570.1057,1036.9475 Q569.73517,1039.3241 569.25415,1040.5023 Q568.77313,1041.6805 568.8866,1042.5967 Q569.0,1043.513 568.4443,1044.3679 Q567.88855,1045.2228 567.4443,1046.6113 Q567.0,1048.0 566.3675,1050.53 Q565.735,1053.06 565.8675,1055.5963 Q566.0,1058.1326 565.36145,1060.1204 Q564.72296,1062.108 563.6361,1063.3921 Q562.5492,1064.6761 562.15186,1066.2063 Q561.7546,1067.7363 560.74805,1068.4974 Q559.7415,1069.2585 558.0196,1069.7463 Q556.29767,1070.2341 554.7627,1069.4883 Q553.2278,1068.7426 551.76514,1068.2551 Q550.30255,1067.7676 548.24817,1067.283 Q546.1938,1066.7985 543.4457,1065.6387 Q540.6975,1064.479 537.64777,1064.1227 Q534.598,1063.7664 531.03436,1062.6648 Q527.4707,1061.5631 522.1788,1061.1759 Q516.88684,1060.7887 510.2021,1060.2493 Q503.51736,1059.7098 498.9375,1058.7056 Q494.3576,1057.7014 490.22223,1057.8507 Q486.08685,1058.0 481.50647,1057.3848 Q476.92612,1056.7695 473.8325,1056.8848 Q470.73886,1057.0 465.71838,1055.8699 Q460.69794,1054.7396 455.8537,1054.2593 Q451.0095,1053.7788 446.49237,1053.8894 Q441.97528,1054.0 437.44415,1052.7681 Q432.91306,1051.5363 428.862,1051.7681 Q424.81094,1052.0 421.58716,1052.617 Q418.36334,1053.2338 415.48383,1053.117 Q412.60434,1053.0 410.60336,1053.0 Q408.6024,1053.0 406.94565,1053.0 Q405.2889,1053.0 404.35516,1053.0 Q403.42142,1053.0 401.81372,1051.7354 Q400.206,1050.4707 398.18274,1048.3152 L396.1595,1046.1595 " fill="none" stroke="#000000" stroke-width="19.949999" stroke-linecap="round"/><path d="M348.0,1068.0 Q348.0,1068.0 346.90305,1068.0 Q345.8061,1068.0 346.90305,1067.5 Q348.0,1067.0 350.1584,1065.9209 Q352.31674,1064.8417 353.46588,1064.9209 Q354.61502,1065.0 356.08752,1064.4067 Q357.56003,1063.8134 359.16028,1062.6531 Q360.76056,1061.4929 374.64545,1058.6453 Q388.53036,1055.7977 398.5858,1053.3463 Q408.6412,1050.8949 418.14,1050.2034 Q427.63885,1049.5117 434.33173,1048.6294 Q441.02463,1047.747 449.65955,1047.8735 Q458.2945,1048.0 465.93713,1048.0 Q473.57974,1048.0 481.65338,1048.6165 Q489.72705,1049.2329 499.5119,1049.7295 Q509.29678,1050.2262 515.93445,1050.7407 Q522.57214,1051.2551 527.57086,1051.7444 Q532.5696,1052.2336 537.6582,1053.3915 Q542.7469,1054.5493 547.6078,1054.8981 Q552.46875,1055.2468 556.17163,1055.1234 Q559.87445,1055.0 562.65045,1055.0 Q565.42645,1055.0 568.1009,1054.4353 Q570.7753,1053.8707 572.8176,1053.3279 Q574.85986,1052.785 575.54205,1051.7804 Q576.22424,1050.7758 577.42737,1050.2302 Q578.6305,1049.6848 579.98694,1050.3997 Q581.3434,1051.1145 582.3921,1051.6675 Q583.4408,1052.2205 583.2204,1053.1102 Q583.0,1054.0 583.0,1056.4717 Q583.0,1058.9435 583.0,1062.1606 Q583.0,1065.3777 583.6439,1068.5524 Q584.28784,1071.727 584.7808,1075.3218 Q585.2738,1078.9165 585.74365,1082.8125 Q586.21356,1086.7086 586.1068,1091.2083 Q586.0,1095.7079 586.0,1099.8579 Q586.0,1104.0078 584.7933,1109.0376 Q583.58655,1114.0675 583.16364,1119.3301 Q582.7407,1124.5927 581.6544,1129.376 Q580.5681,1134.1593 578.92285,1136.802 Q577.27765,1139.4447 576.3827,1141.8627 Q575.48773,1144.2806 575.14777,1146.0247 Q574.8078,1147.7687 573.6631,1149.2456 Q572.5184,1150.7224 571.51514,1152.2273 Q570.51196,1153.732 569.5725,1153.9578 Q568.63306,1154.1835 568.1776,1155.3695 Q567.7222,1156.5555 566.7102,1156.2778 Q565.6982,1156.0 563.97156,1156.0 Q562.2449,1156.0 561.3441,1156.0 Q560.44336,1156.0 559.4684,1156.0 Q558.49347,1156.0 557.03577,1155.4297 Q555.578,1154.8594 553.45996,1154.3474 Q551.3419,1153.8354 548.68774,1153.321 Q546.0335,1152.8066 543.41016,1153.5247 Q540.78687,1154.2426 537.2057,1154.7195 Q533.6246,1155.1965 528.64453,1156.3578 Q523.6644,1157.519 518.80164,1159.0687 Q513.93884,1160.6184 507.89557,1160.9523 Q501.85233,1161.2861 497.90222,1162.9844 Q493.95215,1164.6826 488.60114,1166.2538 Q483.2501,1167.825 477.8554,1168.6433 Q472.46072,1169.4617 465.78073,1170.4539 Q459.10074,1171.446 453.75192,1171.8411 Q448.4031,1172.2361 443.67648,1173.323 Q438.94986,1174.41 433.09753,1176.0807 Q427.2452,1177.7513 422.33063,1179.8925 Q417.41608,1182.0336 413.58545,1182.6552 Q409.7548,1183.2767 405.80798,1183.7911 Q401.8612,1184.3055 398.5656,1184.7764 Q395.27005,1185.2472 393.13086,1185.1235 Q390.99164,1185.0 388.9327,1185.0 Q386.87378,1185.0 385.57877,1185.0 Q384.28375,1185.0 382.78455,1185.0 L381.28534,1185.0 " fill="none" stroke="#000000" stroke-width="19.949999" stroke-linecap="round"/><path d="M362.00003,1163.0 Q362.00003,1163.0 360.8686,1163.0 Q359.73715,1163.0 360.8686,1164.0 Q362.00003,1165.0 364.12033,1165.0 Q366.24063,1165.0 367.8745,1165.0 Q369.5084,1165.0 371.51495,1165.0 Q373.52155,1165.0 388.29538,1165.0 Q403.0692,1165.0 416.35907,1165.0 Q429.64896,1165.0 431.4431,1165.0 Q433.23724,1165.0 445.05136,1164.3842 Q456.86548,1163.7683 466.66882,1163.8842 Q476.47217,1164.0 484.6748,1163.3566 Q492.87747,1162.7131 499.3974,1161.5768 Q505.91736,1160.4404 512.5929,1160.1035 Q519.2685,1159.7665 523.1831,1158.0337 Q527.0977,1156.3008 531.8105,1156.6504 Q536.52325,1157.0 540.0303,1157.0 Q543.53723,1157.0 546.0314,1157.0 Q548.52545,1157.0 550.8278,1157.0 Q553.1302,1157.0 554.4736,1157.0 Q555.81696,1157.0 556.6012,1157.0 Q557.38544,1157.0 557.19275,1159.2413 Q557.0,1161.4827 557.0,1164.3289 Q557.0,1167.1749 557.0,1169.0604 Q557.0,1170.9459 556.3882,1174.1436 Q555.7764,1177.3413 555.8882,1181.1038 Q556.0,1184.8663 556.0,1188.7134 Q556.0,1192.5604 556.0,1196.1194 Q556.0,1199.6782 556.0,1204.4924 Q556.0,1209.3066 556.0,1213.2205 Q556.0,1217.1342 556.0,1220.476 Q556.0,1223.8177 555.3746,1229.7885 Q554.74915,1235.7592 554.25916,1239.3032 Q553.7691,1242.8472 553.2628,1246.2756 Q552.75653,1249.7041 552.2754,1252.4695 Q551.7942,1255.2347 550.71545,1257.5713 Q549.6368,1259.908 549.81836,1261.3132 Q550.0,1262.7186 549.3679,1264.2556 Q548.7358,1265.7926 547.61536,1266.0226 Q546.4949,1266.2526 546.12634,1267.3685 Q545.75775,1268.4845 545.8789,1269.4948 Q546.0,1270.505 546.0,1271.4685 Q546.0,1272.4319 544.89233,1272.7698 Q543.78467,1273.1077 541.98724,1273.0538 Q540.1898,1273.0 538.67554,1273.0 Q537.1613,1273.0 536.4596,1273.5605 Q535.7579,1274.1211 533.36255,1274.6897 Q530.9672,1275.2582 527.14136,1275.7494 Q523.3155,1276.2406 519.319,1277.3301 Q515.3225,1278.4194 510.05176,1279.4316 Q504.78098,1280.4438 500.19208,1280.7917 Q495.6032,1281.1396 490.4477,1281.7202 Q485.29214,1282.3009 482.22803,1282.7816 Q479.16388,1283.2623 474.36115,1284.4025 Q469.55838,1285.5426 464.63367,1286.5005 Q459.70898,1287.4583 455.1596,1289.1274 Q450.61026,1290.7966 446.32483,1292.2251 Q442.03937,1293.6536 436.68445,1293.9603 Q431.32953,1294.2671 428.30197,1295.3801 Q425.2744,1296.493 422.51648,1296.85 Q419.7585,1297.2069 416.55005,1298.3799 Q413.34158,1299.5529 411.76733,1299.2764 Q410.19305,1299.0 408.6568,1299.0 Q407.12057,1299.0 406.36243,1299.0 Q405.6043,1299.0 404.59766,1297.7954 Q403.59097,1296.591 403.16916,1293.6638 Q402.74734,1290.7367 401.31274,1288.2466 L399.87817,1285.7563 " fill="none" stroke="#000000" stroke-width="19.949999" stroke-linecap="round"/><path d="M462.0,910.0 Q462.0,910.0 461.0,910.5 Q460.00003,911.0 459.36304,912.274 Q458.72604,913.548 458.25104,914.4979 Q457.77606,915.4479 457.31067,917.53345 Q456.84525,919.619 455.7256,921.10504 Q454.6059,922.59106 454.19644,924.72156 Q453.787,926.85205 453.8935,928.3598 Q454.0,929.86755 453.38477,931.8947 Q452.76953,933.9219 452.88477,935.2898 Q453.0,936.6577 453.53476,937.93317 Q454.06952,939.2086 454.7093,942.477 Q455.34906,945.74536 457.2309,945.8727 Q459.11273,946.0 461.1136,946.0 Q463.11447,946.0 468.884,942.8366 Q474.65353,939.6732 476.29446,937.3689 Q477.9354,935.0646 479.7534,931.53235 Q481.57138,928.0001 483.1145,924.2329 Q484.6576,920.4657 485.6009,916.14453 Q486.54416,911.82336 486.2721,909.20984 Q486.0,906.5963 484.74188,904.1529 Q483.4838,901.7095 481.9749,901.17676 Q480.46606,900.64404 478.80234,901.4656 Q477.1386,902.2871 474.07837,902.14355 Q471.01813,902.0 468.91534,905.2421 Q466.81256,908.48425 464.3153,909.5967 Q461.81808,910.7091 460.54883,913.45496 Q459.27954,916.2008 457.72968,916.2371 Q456.1798,916.27344 454.12537,916.75287 L452.0709,917.2323 " fill="none" stroke="#000000" stroke-width="19.949999" stroke-linecap="round"/><path d="M451.0,1104.0 Q451.0,1104.0 450.0,1104.0 Q449.0,1104.0 447.91443,1104.5427 Q446.82886,1105.0856 445.84424,1106.6481 Q444.85965,1108.2106 444.9298,1109.1758 Q445.0,1110.1409 445.0,1111.1167 Q445.0,1112.0925 445.61087,1113.2681 Q446.22174,1114.4435 446.6688,1115.3376 Q447.11584,1116.2317 448.98892,1117.4032 Q450.862,1118.5747 451.6291,1118.2874 Q452.39618,1118.0 453.45715,1118.0 Q454.51816,1118.0 456.18274,1116.7175 Q457.84732,1115.435 459.34625,1113.7949 Q460.8452,1112.1548 461.06104,1110.6621 Q461.2769,1109.1693 461.13843,1105.8145 Q461.0,1102.4595 461.0,1101.3984 Q461.0,1100.3374 461.0,1099.4492 Q461.0,1098.5612 459.70728,1098.7805 Q458.41452,1099.0 457.05548,1101.2024 Q455.69644,1103.4048 454.59253,1106.9695 Q453.48862,1110.5342 452.54468,1112.1663 Q451.60074,1113.7985 451.18756,1115.2378 Q450.77435,1116.677 450.25092,1118.8835 Q449.72745,1121.0902 450.47742,1122.3862 Q451.22742,1123.6823 452.6137,1122.8411 Q454.0,1122.0 455.22192,1120.7781 Q456.44388,1119.5562 456.86127,1118.4994 Q457.27866,1117.4426 457.77524,1114.5417 Q458.27182,1111.6409 459.40192,1109.1555 Q460.53198,1106.67 460.8876,1104.2269 Q461.24323,1101.7838 461.72595,1099.9746 Q462.20868,1098.1653 462.70435,1097.3826 Q463.2,1096.6 461.97174,1096.2358 Q460.74347,1095.8717 460.23407,1097.8489 Q459.72467,1099.8259 458.0937,1101.7712 Q456.4627,1103.7164 455.48328,1106.4783 Q454.50388,1109.2402 453.5324,1111.0592 Q452.56094,1112.8782 451.59976,1115.3909 Q450.63858,1117.9036 450.81927,1119.2698 L451.0,1120.636 " fill="none" stroke="#000000" stroke-width="19.949999" stroke-linecap="round"/><path d="M433.0,1200.0 Q433.0,1200.0 432.2882,1198.5764 Q431.57645,1197.1528 430.7882,1198.0764 Q430.0,1199.0 430.0,1200.0668 Q430.0,1201.1335 430.52283,1202.6353 Q431.04562,1204.1368 432.0594,1205.105 Q433.07315,1206.0731 433.64667,1207.2567 Q434.2202,1208.4403 435.25906,1209.3691 Q436.2979,1210.298 438.6579,1211.4034 Q441.01788,1212.5089 442.7564,1213.3782 Q444.49493,1214.2474 447.4469,1214.1238 Q450.39883,1214.0 452.662,1213.4075 Q454.92514,1212.815 457.43628,1211.718 Q459.9474,1210.6211 461.31284,1208.3584 Q462.67828,1206.0956 463.60364,1204.0188 Q464.52902,1201.942 464.26453,1200.6024 Q464.0,1199.2628 462.72455,1197.7183 Q461.44913,1196.1737 460.45355,1196.5869 Q459.45798,1197.0 458.45898,1197.635 Q457.46002,1198.27 455.80878,1198.7754 Q454.15753,1199.2808 452.6916,1199.7695 Q451.22565,1200.2582 450.32715,1200.1292 Q449.42868,1200.0 450.21436,1199.0 Q451.0,1198.0 452.97537,1196.6831 Q454.95074,1195.3662 454.47537,1191.2295 L454.0,1187.0929 " fill="none" stroke="#000000" stroke-width="19.949999" stroke-linecap="round"/><path d="M260.0,1422.0 Q260.0,1422.0 259.0,1423.5 Q258.0,1425.0 257.35764,1426.2847 Q256.71527,1427.5695 256.85764,1429.063 Q257.0,1430.5564 257.0,1431.3928 Q257.0,1432.2292 257.0,1433.8 Q257.0,1435.371 257.0,1437.4666 Q257.0,1439.5621 257.0,1441.3845 Q257.0,1443.2069 257.57986,1458.18 Q258.15973,1473.1532 259.1767,1484.7871 Q260.19366,1496.4209 260.70538,1509.2072 Q261.2171,1521.9934 262.39172,1532.3284 Q263.56635,1542.6633 263.92252,1553.2578 Q264.2787,1563.8524 265.37714,1572.0664 Q266.47562,1580.2805 266.2378,1590.3796 Q266.0,1600.4788 266.64838,1609.9098 Q267.29672,1619.3408 267.14838,1626.2715 Q267.0,1633.202 267.0,1640.2845 Q267.0,1647.3671 267.0,1654.7433 Q267.0,1662.1195 267.0,1668.2236 Q267.0,1674.3276 266.36603,1680.2714 Q265.7321,1686.2151 265.86603,1691.6165 Q266.0,1697.018 266.0,1701.76 Q266.0,1706.502 266.0,1710.0549 Q266.0,1713.608 266.6033,1717.0271 Q267.2066,1720.4462 267.1033,1722.9197 Q267.0,1725.3933 267.0,1726.51 Q267.0,1727.6268 267.64166,1729.2383 Q268.2833,1730.8499 268.14166,1732.2904 Q268.0,1733.731 268.52747,1734.4204 Q269.05496,1735.11 270.02747,1735.5549 Q271.0,1736.0 272.0376,1735.4812 Q273.07523,1734.9624 274.37256,1734.3137 Q275.6699,1733.665 276.50006,1733.25 Q277.3302,1732.835 279.7228,1732.2781 Q282.11542,1731.7212 284.07318,1731.2317 Q286.03098,1730.7423 288.65494,1729.6154 Q291.2789,1728.4884 294.36514,1728.1233 Q297.4514,1727.758 301.05115,1727.2611 Q304.65088,1726.7642 308.31653,1726.8821 Q311.98215,1727.0 315.4427,1726.364 Q318.90326,1725.7281 321.7704,1725.864 Q324.63754,1726.0 327.61508,1726.0 Q330.59262,1726.0 334.21097,1725.3694 Q337.8293,1724.7386 341.12982,1724.8694 Q344.43036,1725.0 348.70865,1724.3757 Q352.98694,1723.7516 355.5067,1723.8757 Q358.02652,1724.0 361.32715,1723.3643 Q364.6278,1722.7286 367.5025,1721.6348 Q370.37723,1720.5409 371.48303,1720.1724 Q372.5888,1719.8037 374.22882,1718.6123 Q375.86887,1717.4208 376.0515,1715.2422 Q376.23413,1713.0635 376.11707,1710.3701 Q376.0,1707.6766 374.74524,1703.9467 Q373.49048,1700.2167 372.46893,1694.0886 Q371.4474,1687.9606 369.87357,1681.4631 Q368.29974,1674.9656 366.25372,1666.8982 Q364.2077,1658.8308 361.3947,1648.8625 Q358.58173,1638.8943 356.11035,1625.5446 Q353.63898,1612.1948 351.22754,1598.2825 Q348.8161,1584.3701 345.60992,1567.4285 Q342.40378,1550.4869 340.6859,1527.6969 Q338.96808,1504.9069 338.88318,1493.6299 Q338.7983,1482.353 340.14886,1472.0547 Q341.4994,1461.7563 343.72357,1457.575 Q345.94772,1453.3937 347.94522,1450.372 Q349.94272,1447.3502 353.1427,1446.3394 L356.34268,1445.3286 " fill="none" stroke="#000000" stroke-width="19.949999" stroke-linecap="round"/><path d="M375.0,1426.0 Q375.0,1426.0 376.0,1426.0 Q377.0,1426.0 378.32364,1426.0 Q379.64728,1426.0 380.61636,1426.0 Q381.58545,1426.0 382.56897,1426.0 Q383.5525,1426.0 384.4291,1426.0 Q385.30573,1426.0 387.63782,1426.0 Q389.9699,1426.0 393.9052,1426.6315 Q397.8405,1427.263 401.77286,1428.3446 Q405.7052,1429.4263 411.4808,1430.4182 Q417.2564,1431.4103 423.70636,1433.0996 Q430.15628,1434.7891 435.42148,1436.261 Q440.68668,1437.7328 447.6408,1439.2812 Q454.59497,1440.8296 461.04156,1442.3173 Q467.48816,1443.8049 473.5202,1444.5989 Q479.55228,1445.3927 485.3454,1445.839 Q491.13852,1446.2853 494.5277,1446.7625 Q497.9169,1447.2396 502.0288,1447.7537 Q506.14075,1448.2676 508.87665,1448.1338 Q511.61258,1448.0 514.6126,1447.3656 Q517.6126,1446.7312 519.3433,1446.2313 Q521.07404,1445.7314 523.03186,1445.8657 Q524.98975,1446.0 526.925,1446.6075 Q528.8602,1447.2151 531.0021,1447.1075 Q533.144,1447.0 535.5871,1447.603 Q538.0302,1448.206 539.4032,1448.103 Q540.77625,1448.0 541.60046,1447.3938 Q542.4247,1446.7877 544.6736,1446.8938 Q546.92255,1447.0 548.9756,1446.3715 Q551.02856,1445.7429 552.3883,1445.2468 Q553.7481,1444.7506 554.64343,1444.2406 Q555.53876,1443.7306 557.17065,1443.2316 Q558.80255,1442.7325 559.643,1442.2454 Q560.48346,1441.7583 560.2417,1440.6321 Q560.0,1439.5059 559.5,1438.2529 Q559.0,1437.0 558.3652,1434.4607 Q557.73035,1431.9214 557.8652,1428.2135 Q558.0,1424.5056 557.3683,1419.5675 Q556.7366,1414.6294 556.29004,1408.8757 Q555.8435,1403.122 554.657,1397.1045 Q553.4704,1391.0872 553.1004,1384.9258 Q552.7304,1378.7645 553.4783,1374.2512 Q554.2262,1369.7378 554.1131,1365.2515 Q554.0,1360.765 554.6384,1356.7753 Q555.2768,1352.7855 555.7739,1349.444 Q556.27106,1346.1024 557.36694,1343.3569 Q558.4628,1340.6116 558.8594,1338.166 Q559.2559,1335.7205 559.7401,1333.9117 Q560.22424,1332.103 560.1121,1330.6763 Q560.0,1329.2494 560.63794,1328.3489 Q561.2759,1327.4482 561.13794,1326.7241 Q561.0,1326.0 560.0,1326.0 Q559.0,1326.0 557.8961,1326.0 Q556.7922,1326.0 554.99713,1324.734 Q553.2021,1323.468 551.327,1323.1655 Q549.452,1322.863 547.0961,1321.6166 Q544.74023,1320.3701 542.07715,1319.0386 Q539.41406,1317.707 537.3745,1316.6873 Q535.3349,1315.6675 530.69586,1313.3479 Q526.0568,1311.0284 521.2711,1309.5951 Q516.48535,1308.1617 511.39728,1305.6965 Q506.30917,1303.2314 499.95044,1300.3411 Q493.59167,1297.4508 489.06287,1295.3923 Q484.5341,1293.3337 478.66562,1291.8665 Q472.79715,1290.3992 467.20102,1290.0907 Q461.6049,1289.7822 455.06885,1291.18 Q448.53284,1292.5779 443.6975,1294.0804 Q438.86218,1295.583 434.87183,1298.4536 Q430.88147,1301.3241 428.28693,1303.7069 Q425.69235,1306.0897 423.88458,1309.2373 Q422.07684,1312.3848 421.27893,1314.2114 L420.48105,1316.038 " fill="none" stroke="#000000" stroke-width="19.949999" stroke-linecap="round"/><path d="M452.0,1372.0 Q452.0,1372.0 451.0,1373.0 Q450.0,1374.0 449.43286,1375.7014 Q448.8657,1377.403 448.40677,1378.2537 Q447.94785,1379.1042 447.9739,1380.0924 Q447.99997,1381.0806 449.0,1381.5403 Q450.0,1382.0 451.04037,1380.4395 Q452.08075,1378.8789 453.36615,1377.6136 Q454.65158,1376.3484 456.2501,1374.1084 Q457.8486,1371.8685 457.9978,1371.2874 Q458.147,1370.706 457.5735,1373.853 Q457.0,1377.0 455.72223,1380.1943 Q454.4445,1383.3888 453.8042,1387.3911 Q453.16388,1391.3936 451.6505,1393.9158 Q450.13718,1396.438 449.9321,1397.6284 Q449.72702,1398.819 447.88858,1399.7261 Q446.05014,1400.6332 448.5251,1399.8167 L451.0,1399.0 " fill="none" stroke="#000000" stroke-width="19.949999" stroke-linecap="round"/><path d="M396.25873,1586.1768 Q396.25873,1586.1768 398.14456,1586.1768 Q400.0304,1586.1768 402.8591,1585.2339 Q405.6878,1584.291 408.64035,1583.3066 Q411.5929,1582.3223 413.6728,1582.3638 Q415.7527,1582.4053 420.9112,1582.4053 Q426.0697,1582.4053 429.67264,1582.4053 Q433.27557,1582.4053 437.6702,1583.4028 Q442.06482,1584.4004 447.80902,1584.3457 Q453.55322,1584.291 456.9777,1584.291 Q460.40216,1584.291 465.44247,1584.291 Q470.4828,1584.291 473.97522,1584.291 Q477.46765,1584.291 481.12488,1584.291 Q484.7821,1584.291 489.8817,1584.291 Q494.98132,1584.291 498.44775,1584.291 Q501.91418,1584.291 505.63202,1584.291 Q509.34985,1584.291 513.28326,1583.0791 Q517.2167,1581.8672 520.87714,1580.9521 Q524.5376,1580.0371 530.8109,1580.2781 Q537.0842,1580.519 540.0966,1580.519 Q543.109,1580.519 547.1107,1580.519 Q551.1124,1580.519 554.83844,1580.519 Q558.56445,1580.519 563.29083,1580.519 Q568.0172,1580.519 572.7055,1580.519 Q577.3938,1580.519 582.18616,1580.519 Q586.9785,1580.519 591.94604,1580.519 Q596.9136,1580.519 604.02136,1580.519 Q611.12915,1580.519 615.01733,1580.519 Q618.9055,1580.519 625.0671,1580.519 Q631.22864,1580.519 635.5107,1580.519 Q639.7927,1580.519 646.8671,1580.519 Q653.9415,1580.519 659.33826,1580.519 Q664.735,1580.519 669.089,1580.519 Q673.443,1580.519 679.4999,1580.519 Q685.55676,1580.519 690.0276,1579.3596 Q694.4984,1578.2002 700.42505,1577.2485 Q706.3517,1576.2969 713.3692,1577.7178 Q720.3867,1579.1387 728.0718,1580.0679 Q735.75684,1580.9971 742.005,1580.758 Q748.2532,1580.519 754.9467,1581.698 Q761.64026,1582.877 768.1133,1583.8018 Q774.5863,1584.7266 781.339,1585.6912 Q788.0917,1586.6558 794.32025,1586.4163 Q800.5488,1586.1768 808.46954,1587.3301 Q816.39026,1588.4834 825.4499,1588.273 Q834.5095,1588.0625 844.28217,1588.0625 Q854.0548,1588.0625 863.3261,1588.0625 Q872.5974,1588.0625 881.9742,1588.0625 Q891.35095,1588.0625 901.64233,1588.0625 Q911.9337,1588.0625 921.1383,1588.0625 Q930.3429,1588.0625 939.5605,1589.1926 Q948.7781,1590.3228 958.97974,1592.5505 Q969.18146,1594.7783 979.31647,1594.2493 Q989.4515,1593.7202 997.4664,1593.7202 Q1005.48126,1593.7202 1013.19025,1593.7202 Q1020.89923,1593.7202 1027.9323,1593.7202 Q1034.9652,1593.7202 1041.5309,1593.7202 Q1048.0966,1593.7202 1054.8915,1593.7202 Q1061.6864,1593.7202 1068.3308,1593.7202 Q1074.9752,1593.7202 1080.0062,1593.7202 Q1085.0372,1593.7202 1093.5065,1596.1299 Q1101.9757,1598.5396 1109.1995,1599.1807 Q1116.4232,1599.8218 1121.823,1599.5996 Q1127.2228,1599.3774 1131.4943,1598.2192 Q1135.7657,1597.061 1140.6692,1597.2764 Q1145.5726,1597.4917 1149.7098,1597.4917 Q1153.847,1597.4917 1158.9178,1597.4917 Q1163.9886,1597.4917 1168.7513,1597.4917 Q1173.514,1597.4917 1178.1321,1597.4917 Q1182.7501,1597.4917 1187.48,1596.3464 Q1192.2098,1595.2012 1196.9128,1595.4033 Q1201.6158,1595.6055 1206.6241,1596.8071 Q1211.6324,1598.0088 1215.136,1597.7502 Q1218.6395,1597.4917 1221.2094,1597.4917 Q1223.7792,1597.4917 1227.6287,1597.4917 Q1231.4781,1597.4917 1234.1486,1598.6631 Q1236.819,1599.8345 1238.4852,1599.606 Q1240.1515,1599.3774 1241.6906,1598.3748 Q1243.2296,1597.3721 1245.2677,1597.4319 Q1247.3058,1597.4917 1247.0342,1595.606 Q1246.7626,1593.7202 1245.7542,1590.6946 Q1244.7457,1587.669 1243.7494,1585.742 Q1242.753,1583.815 1242.8721,1581.6411 Q1242.9911,1579.4673 1241.9171,1576.7715 Q1240.8431,1574.0757 1240.9741,1570.1577 Q1241.1051,1566.2397 1241.1051,1563.092 Q1241.1051,1559.9443 1241.1051,1555.9995 Q1241.1051,1552.0547 1241.1051,1549.6272 Q1241.1051,1547.1997 1241.1051,1543.2434 Q1241.1051,1539.2871 1242.1422,1535.9535 Q1243.1793,1532.6199 1243.0852,1529.3024 Q1242.9911,1525.9849 1242.9911,1522.0737 Q1242.9911,1518.1626 1242.9911,1516.7711 Q1242.9911,1515.3796 1242.9911,1512.5608 Q1242.9911,1509.742 1241.8081,1505.511 Q1240.6251,1501.28 1239.7053,1497.6011 Q1238.7855,1493.9221 1239.0024,1491.4443 Q1239.2194,1488.9666 1239.2194,1486.1171 Q1239.2194,1483.2676 1239.2194,1477.9716 Q1239.2194,1472.6755 1239.2194,1467.7991 Q1239.2194,1462.9226 1240.407,1461.8281 Q1241.5946,1460.7336 1241.3499,1455.2797 Q1241.1051,1449.8257 1241.1051,1446.308 Q1241.1051,1442.7903 1241.1051,1438.9606 Q1241.1051,1435.1309 1241.1051,1431.3439 Q1241.1051,1427.5569 1242.2949,1426.2256 Q1243.4847,1424.8943 1243.2379,1420.6892 Q1242.9911,1416.4841 1242.9911,1415.1678 Q1242.9911,1413.8516 1242.9911,1411.8094 Q1242.9911,1409.7673 1242.9911,1406.8611 Q1242.9911,1403.9548 1245.3904,1402.147 Q1247.7897,1400.3391 1247.2761,1396.6066 Q1246.7626,1392.874 1245.6006,1388.7006 Q1244.4386,1384.5271 1245.7161,1381.1704 Q1246.9935,1377.8137 1246.878,1375.8984 Q1246.7626,1373.9832 1247.8983,1372.2025 Q1249.034,1370.4219 1248.8412,1368.4651 Q1248.6483,1366.5083 1248.6483,1364.8762 Q1248.6483,1363.2441 1249.871,1361.002 Q1251.0936,1358.7598 1250.814,1355.9243 Q1250.5343,1353.0889 1250.5343,1351.2819 Q1250.5343,1349.4749 1250.5343,1346.3403 Q1250.5343,1343.2058 1250.5343,1341.6079 Q1250.5343,1340.01 1250.5343,1338.1625 Q1250.5343,1336.315 1250.5343,1334.4923 Q1250.5343,1332.6697 1250.5343,1330.7444 Q1250.5343,1328.8191 1251.5704,1326.1537 Q1252.6066,1323.4883 1253.572,1321.6506 Q1254.5375,1319.813 1254.4216,1316.5082 Q1254.3058,1313.2034 1254.3058,1311.5903 Q1254.3058,1309.9773 1254.3058,1306.8075 Q1254.3058,1303.6377 1254.3058,1300.3296 Q1254.3058,1297.0215 1254.3058,1294.1765 Q1254.3058,1291.3315 1254.3058,1289.324 Q1254.3058,1287.3164 1254.3058,1285.4104 Q1254.3058,1283.5044 1255.3109,1280.9598 Q1256.316,1278.4153 1255.0293,1276.1527 Q1253.7426,1273.8901 1254.0242,1272.3033 Q1254.3058,1270.7166 1254.3058,1268.6445 Q1254.3058,1266.5725 1254.3058,1264.6946 Q1254.3058,1262.8167 1254.3058,1259.7267 Q1254.3058,1256.6367 1254.3058,1253.801 Q1254.3058,1250.9653 1254.3058,1248.0707 Q1254.3058,1245.176 1254.3058,1242.4738 Q1254.3058,1239.7715 1254.3058,1238.053 Q1254.3058,1236.3345 1254.3058,1233.3656 Q1254.3058,1230.3967 1254.3058,1228.7509 Q1254.3058,1227.105 1254.3058,1225.195 Q1254.3058,1223.2849 1253.2349,1221.5504 Q1252.164,1219.8159 1252.292,1216.9081 Q1252.42,1214.0002 1252.42,1212.015 Q1252.42,1210.0298 1252.42,1208.1173 Q1252.42,1206.2048 1252.42,1203.1584 Q1252.42,1200.112 1253.4865,1196.5255 Q1254.5529,1192.939 1254.4293,1189.8634 Q1254.3058,1186.7878 1254.3058,1182.8722 Q1254.3058,1178.9565 1254.3058,1176.348 Q1254.3058,1173.7395 1254.3058,1169.8717 Q1254.3058,1166.0039 1255.4625,1163.2943 Q1256.6193,1160.5847 1256.4055,1157.6849 Q1256.1918,1154.7852 1256.1918,1152.0704 Q1256.1918,1149.3557 1256.1918,1147.6382 Q1256.1918,1145.9207 1256.1918,1142.8375 Q1256.1918,1139.7544 1256.1918,1136.8052 Q1256.1918,1133.856 1256.1918,1131.1525 Q1256.1918,1128.449 1256.1918,1125.5598 Q1256.1918,1122.6707 1256.1918,1119.8236 Q1256.1918,1116.9766 1256.1918,1113.2191 Q1256.1918,1109.4617 1256.1918,1101.8959 Q1256.1918,1094.3301 1255.0165,1087.8126 Q1253.8412,1081.2952 1255.2006,1076.1599 Q1256.5599,1071.0247 1257.5825,1062.4756 Q1258.6051,1053.9265 1259.5143,1046.6536 Q1260.4235,1039.3806 1261.3865,1030.4838 Q1262.3495,1021.587 1262.0992,1013.4318 Q1261.849,1005.2767 1263.0518,995.17 Q1264.2545,985.0633 1265.1776,975.8321 Q1266.1007,966.6009 1265.8607,956.3022 Q1265.6207,946.0035 1266.7955,937.7574 Q1267.9703,929.5113 1268.9373,920.80914 Q1269.9042,912.107 1269.6483,902.50433 Q1269.3925,892.9017 1270.5441,885.0124 Q1271.6957,877.1231 1272.7035,866.8372 Q1273.7113,856.55133 1273.4376,846.19977 Q1273.164,835.8482 1273.164,824.2869 Q1273.164,812.72565 1275.4817,800.6219 Q1277.7994,788.5181 1278.5537,778.2774 Q1279.308,768.0367 1280.241,758.95135 Q1281.174,749.866 1282.107,739.3675 Q1283.0402,728.86896 1282.8167,716.79364 Q1282.5931,704.7183 1283.7537,691.6906 Q1284.9142,678.6629 1285.8431,667.95013 Q1286.7721,657.23737 1286.5685,648.1966 Q1286.3649,639.1558 1288.7301,629.3853 Q1291.0953,619.6148 1293.0237,612.38086 Q1294.952,605.1469 1294.43,594.4037 Q1293.9081,583.66046 1295.0494,574.7064 Q1296.1908,565.7524 1297.1577,556.08276 Q1298.1246,546.41315 1297.9022,537.3322 Q1297.6798,528.2513 1298.8923,519.2139 Q1300.1049,510.17657 1299.8352,503.50958 Q1299.5656,496.8426 1300.7444,488.96313 Q1301.9232,481.08368 1301.6873,474.89996 Q1301.4513,468.71625 1302.5878,461.09534 Q1303.7242,453.47443 1303.5306,447.03253 Q1303.337,440.59064 1304.5479,432.29462 Q1305.7587,423.9986 1305.4908,416.5808 Q1305.223,409.16302 1306.39,400.67657 Q1307.557,392.19012 1307.3329,382.19568 Q1307.1088,372.20123 1308.3015,362.85754 Q1309.4943,353.51385 1310.4457,343.99817 Q1311.3971,334.48248 1312.3009,325.4455 Q1313.2047,316.4085 1315.2454,307.3014 Q1317.286,298.19427 1319.2997,285.7379 Q1321.3134,273.28156 1323.1107,263.6474 Q1324.9081,254.01324 1324.4946,243.0647 Q1324.0812,232.11615 1325.2802,221.7779 Q1326.4791,211.43964 1326.223,201.27399 Q1325.9669,191.10834 1327.146,178.39093 Q1328.3251,165.67352 1328.0889,155.82019 Q1327.8527,145.96686 1327.8527,135.2873 Q1327.8527,124.60773 1327.8527,117.471924 Q1327.8527,110.33612 1325.4316,100.949585 Q1323.0106,91.56305 1322.3514,84.41632 Q1321.6923,77.26959 1320.7686,72.2301 Q1319.8448,67.19061 1318.8973,62.68573 Q1317.9498,58.180847 1315.815,54.621887 Q1313.68,51.062927 1312.978,48.47058 Q1312.276,45.878235 1311.3383,41.88214 Q1310.4005,37.886047 1308.2833,36.48889 Q1306.1661,35.091736 1305.4423,33.17279 Q1304.7184,31.253845 1301.4493,29.410767 Q1298.1803,27.567688 1296.5088,25.665283 Q1294.8373,23.762878 1292.9662,23.066406 Q1291.0951,22.369934 1286.76,20.202454 Q1282.4249,18.034973 1277.4995,16.16748 Q1272.5741,14.299988 1267.944,14.795166 Q1263.3138,15.290344 1257.3877,14.110413 Q1251.4615,12.930481 1244.6847,14.338806 Q1237.9078,15.747131 1228.8694,15.518738 Q1219.8309,15.290344 1212.4723,16.479065 Q1205.1136,17.667786 1196.3224,17.421997 Q1187.5311,17.176208 1177.8235,17.176208 Q1168.1158,17.176208 1161.1417,15.985718 Q1154.1676,14.795227 1146.557,15.042786 Q1138.9464,15.290344 1131.3514,14.084961 Q1123.7565,12.879578 1115.1616,13.142029 Q1106.5668,13.40448 1098.1777,14.582031 Q1089.7887,15.7595825 1081.0463,16.730896 Q1072.3038,17.70221 1064.0549,18.618774 Q1055.806,19.53534 1045.9531,18.100403 Q1036.1002,16.665466 1029.2585,16.920837 Q1022.4168,17.176208 1014.8852,17.176208 Q1007.3536,17.176208 997.1772,17.176208 Q987.0008,17.176208 979.2492,17.176208 Q971.4976,17.176208 963.0167,18.324463 Q954.5359,19.472717 945.7767,19.267334 Q937.01746,19.06195 928.0473,19.06195 Q919.07715,19.06195 911.386,19.06195 Q903.6948,19.06195 894.7655,19.06195 Q885.8362,19.06195 877.22473,19.06195 Q868.6133,19.06195 860.2448,20.256104 Q851.87634,21.450256 843.77435,21.199036 Q835.67236,20.947815 828.2624,22.108704 Q820.8524,23.269592 812.1337,23.051636 Q803.41504,22.83368 794.57574,20.430298 Q785.73645,18.026917 778.70905,17.374939 Q771.68164,16.722961 764.07227,16.949585 Q756.4629,17.176208 751.10333,18.38269 Q745.7438,19.589172 739.01324,19.325562 Q732.2827,19.06195 726.84937,17.871094 Q721.416,16.680237 713.367,14.544067 Q705.318,12.407898 697.95337,11.736511 Q690.58875,11.0651245 684.57184,10.173157 Q678.55493,9.281189 672.638,9.457031 Q666.72107,9.632874 659.88245,9.632874 Q653.0438,9.632874 646.43365,7.250305 Q639.8235,4.867737 633.1814,5.364502 Q626.5393,5.861267 620.236,4.706482 Q613.93274,3.5516968 608.66626,2.6386108 Q603.3998,1.7255249 596.16705,0.71832275 Q588.9343,-0.2888794 582.5055,-1.2072754 Q576.07666,-2.1256714 569.24,-3.102417 Q562.4033,-4.0791626 555.97394,-2.649292 Q549.54456,-1.2194214 542.9213,-1.4506836 Q536.2981,-1.6819458 529.56744,-1.6819458 Q522.8368,-1.6819458 515.3048,-1.6819458 Q507.77283,-1.6819458 502.34387,-1.6819458 Q496.91492,-1.6819458 490.40637,-1.6819458 Q483.89783,-1.6819458 478.445,-1.6819458 Q472.9922,-1.6819458 465.15237,-1.6819458 Q457.31256,-1.6819458 451.00726,-1.6819458 Q444.70197,-1.6819458 436.17792,-0.46185303 Q427.65387,0.75823975 420.83936,0.48101807 Q414.02484,0.20379639 406.48502,0.20379639 Q398.9452,0.20379639 390.74902,0.20379639 Q382.55286,0.20379639 375.16208,1.3949585 Q367.7713,2.5861206 360.4564,3.5004272 Q353.14148,4.414734 345.51962,4.1951294 Q337.89777,3.975525 328.90662,5.178528 Q319.91547,6.381531 313.12592,8.404053 Q306.33636,10.426575 297.34164,8.853943 Q288.34692,7.281311 280.7826,8.721741 Q273.21826,10.16217 266.02676,11.061096 Q258.83527,11.960022 250.9484,11.73938 Q243.06154,11.518738 237.09676,12.672119 Q231.13197,13.8255005 223.13533,14.798767 Q215.13869,15.772034 209.07167,16.673157 Q203.00465,17.57428 194.3517,18.491516 Q185.69875,19.408752 177.4775,20.458069 Q169.25624,21.507385 161.99214,21.2276 Q154.72804,20.947815 147.2387,20.947815 Q139.74934,20.947815 133.30333,20.947815 Q126.857315,20.947815 121.49815,20.947815 Q116.13899,20.947815 109.254684,22.138733 Q102.37038,23.32965 95.96742,24.244446 Q89.56447,25.15924 81.50508,27.338867 Q73.445694,29.518494 67.341446,31.335999 Q61.237194,33.153503 53.40333,35.056335 Q45.56947,36.959167 40.254803,37.690796 Q34.940136,38.422424 29.388195,39.34778 Q23.836254,40.273132 18.1013,41.228943 Q12.366344,42.184753 6.760845,41.938293 Q1.1553459,41.691833 -4.2385445,41.691833 Q-9.632435,41.691833 -14.169575,41.691833 Q-18.706715,41.691833 -23.275333,41.691833 Q-27.843952,41.691833 -34.321415,41.691833 Q-40.798878,41.691833 -42.708073,42.88147 Q-44.617268,44.071106 -48.64539,43.82434 Q-52.67351,43.577576 -56.437,43.577576 Q-60.20049,43.577576 -61.595936,44.769592 Q-62.991383,45.96161 -66.00574,45.712524 Q-69.020096,45.46344 -71.50336,44.407715 Q-73.98662,43.35199 -74.59117,41.57898 Q-75.195724,39.80597 -77.08154,37.920166 Q-78.96736,36.034363 -82.66905,34.14856 Q-86.37074,32.262756 -87.38359,32.262756 Q-88.39644,32.262756 -91.39203,30.293457 Q-94.38762,28.324158 -97.43007,26.268066 Q-100.47252,24.211975 -103.21326,23.425232 Q-105.953995,22.638489 -108.96866,20.53125 Q-111.98332,18.424011 -116.26778,17.552246 Q-120.55223,16.680481 -124.35315,15.730225 Q-128.15407,14.779968 -130.73222,15.035156 Q-133.31038,15.290344 -137.14445,15.290344 Q-140.97853,15.290344 -144.90375,15.290344 Q-148.82896,15.290344 -151.16487,14.183044 Q-153.50078,13.075745 -156.66223,13.240112 Q-159.82368,13.40448 -162.6425,13.40448 Q-165.46132,13.40448 -166.99086,14.577332 Q-168.5204,15.750183 -170.20827,15.520264 Q-171.89613,15.290344 -173.5201,15.290344 Q-175.14406,15.290344 -173.25824,16.233276 Q-171.37242,17.176208 -171.37242,19.290771 Q-171.37242,21.405334 -171.37242,23.12555 Q-171.37242,24.845764 -171.37242,27.01062 Q-171.37242,29.175476 -170.13036,31.317444 Q-168.88829,33.45941 -169.18744,35.18225 Q-169.48659,36.90509 -169.48659,38.661133 Q-169.48659,40.417175 -169.48659,44.825745 Q-169.48659,49.234314 -168.31493,51.806824 Q-167.14326,54.379333 -166.16643,59.72107 Q-165.18959,65.062805 -165.45229,68.44348 Q-165.71498,71.82416 -164.51799,79.28064 Q-163.321,86.73712 -163.57507,92.97211 Q-163.82915,99.20709 -162.64357,104.90729 Q-161.458,110.60748 -160.52519,117.3797 Q-159.59239,124.15192 -158.6191,129.75922 Q-157.6458,135.36652 -157.90874,140.66125 Q-158.17168,145.956 -156.9973,151.78735 Q-155.82292,157.61871 -156.05441,164.50452 Q-156.2859,171.39032 -156.2859,176.94922 Q-156.2859,182.50812 -156.2859,187.71442 Q-156.2859,192.92072 -156.2859,199.04535 Q-156.2859,205.16998 -156.2859,209.55145 Q-156.2859,213.93292 -156.2859,218.62213 Q-156.2859,223.31134 -157.45932,227.94495 Q-158.63274,232.57855 -158.4022,236.10211 Q-158.17168,239.62567 -158.17168,243.50891 Q-158.17168,247.39215 -159.33276,249.85931 Q-160.49385,252.32648 -160.27568,255.06879 Q-160.05751,257.8111 -160.05751,260.80225 Q-160.05751,263.7934 -161.11208,265.17206 Q-162.16664,266.55072 -163.94081,267.27032 Q-165.71498,267.98993 -168.05238,267.98993 Q-170.38979,267.98993 -174.01129,267.98993 Q-177.6328,267.98993 -180.96707,266.778 Q-184.30135,265.5661 -187.0795,265.83508 Q-189.85765,266.10406 -192.59563,267.26892 Q-195.3336,268.43378 -199.23935,269.35468 Q-203.1451,270.27557 -208.41304,271.28918 Q-213.68098,272.3028 -219.44197,273.21783 Q-225.20296,274.13287 -229.73499,273.89014 Q-234.26701,273.6474 -237.6373,274.8086 Q-241.00758,275.9698 -245.92873,275.75146 Q-250.84987,275.53314 -254.42715,275.53314 Q-258.00446,275.53314 -263.0843,276.7262 Q-268.16415,277.91925 -271.69977,278.8656 Q-275.2354,279.81195 -278.9704,278.37103 Q-282.70538,276.9301 -286.4834,275.9856 Q-290.26144,275.04108 -292.88092,275.2871 Q-295.5004,275.53314 -297.0721,274.3598 Q-298.64383,273.18646 -300.54767,273.41693 Q-302.45148,273.6474 -304.3053,273.6474 Q-306.1591,273.6474 -308.86853,271.5432 Q-311.578,269.43903 -312.2948,267.5688 L-313.0116,265.69855 " fill="none" stroke="#000000" stroke-width="37.622066" stroke-linecap="round"/><path d="M213.33443,1580.519 Q213.33443,1580.519 213.33443,1578.6333 Q213.33443,1576.7476 213.33443,1574.5884 Q213.33443,1572.4292 213.33443,1570.6877 Q213.33443,1568.9463 213.33443,1567.112 Q213.33443,1565.2778 213.33443,1562.1665 Q213.33443,1559.0552 213.33443,1555.274 Q213.33443,1551.4929 214.3951,1532.7698 Q215.45576,1514.0466 216.41386,1508.6356 Q217.37196,1503.2246 218.3195,1487.9479 Q219.26704,1472.6711 220.32481,1458.0 Q221.38258,1443.3289 221.13011,1430.716 Q220.87764,1418.103 220.87764,1409.4991 Q220.87764,1400.8953 220.87764,1389.898 Q220.87764,1378.9006 222.08992,1368.3123 Q223.3022,1357.7239 223.03282,1347.4117 Q222.76344,1337.0996 223.96373,1326.8 Q225.16402,1316.5005 224.90666,1306.4158 Q224.6493,1296.331 225.8708,1286.6594 Q227.0923,1276.9878 226.8137,1269.6467 Q226.53511,1262.3057 226.53511,1252.9391 Q226.53511,1243.5725 226.53511,1236.2384 Q226.53511,1228.9043 227.70082,1218.6168 Q228.86653,1208.3293 229.79778,1200.1707 Q230.72902,1192.012 232.8221,1185.8474 Q234.91518,1179.6829 234.49678,1171.4142 Q234.07838,1163.1455 236.46974,1155.7699 Q238.8611,1148.3943 238.35558,1143.176 Q237.85005,1137.9578 238.98857,1131.571 Q240.12709,1125.1843 239.93147,1117.6368 Q239.73586,1110.0894 239.73586,1102.0852 Q239.73586,1094.081 239.73586,1088.6594 Q239.73586,1083.2378 239.73586,1076.4962 Q239.73586,1069.7546 240.88466,1063.4526 Q242.03346,1057.1506 243.02007,1051.4373 Q244.00667,1045.7239 244.90645,1040.3248 Q245.80623,1034.9258 245.59975,1026.786 Q245.39326,1018.6463 245.39326,1013.5107 Q245.39326,1008.37506 245.39326,1003.872 Q245.39326,999.36896 246.524,995.94806 Q247.65474,992.52716 247.46693,987.24005 Q247.27913,981.95294 247.27913,977.5119 Q247.27913,973.07086 249.67143,970.5328 Q252.06374,967.9947 252.7517,963.97675 Q253.43965,959.9588 254.38734,954.9687 Q255.33504,949.9786 256.20895,946.7391 Q257.0829,943.4996 256.89554,938.3953 Q256.7082,933.2911 257.65112,928.7657 Q258.59406,924.2403 258.59406,920.3709 Q258.59406,916.5015 259.79254,912.7553 Q260.99103,909.0091 263.11765,907.64923 Q265.24426,906.28937 264.7479,903.1829 Q264.25153,900.0765 265.4022,897.3986 Q266.55286,894.72076 267.54675,892.9406 Q268.54065,891.16046 268.28186,888.1795 Q268.02307,885.19855 269.22043,883.4737 Q270.4178,881.74884 271.2982,879.988 Q272.1786,878.2271 273.1726,876.2391 Q274.16663,874.25104 273.92358,872.40155 Q273.68054,870.55206 274.87463,868.6136 Q276.06873,866.6751 275.81754,865.0799 Q275.56635,863.4847 275.56635,861.59 Q275.56635,859.6954 275.56635,857.8465 Q275.56635,855.9976 275.56635,854.065 Q275.56635,852.1324 275.56635,850.28876 Q275.56635,848.4451 274.52374,846.5484 Q273.48114,844.6517 273.58084,842.46185 Q273.68054,840.27203 273.68054,838.88947 Q273.68054,837.5069 273.68054,835.62115 Q273.68054,833.7354 271.7947,831.84955 Q269.90887,829.9637 268.02307,828.07794 Q266.13727,826.1922 265.09363,824.1049 Q264.05,822.01764 263.1569,820.23126 Q262.2638,818.4449 262.31473,816.26556 Q262.36566,814.08624 262.36566,811.23175 Q262.36566,808.37726 262.36566,806.45953 Q262.36566,804.5418 262.36566,802.5693 Q262.36566,800.59674 262.36566,797.53546 Q262.36566,794.4742 262.36566,791.7504 Q262.36566,789.0267 262.36566,786.08075 Q262.36566,783.1348 262.36566,779.28217 Q262.36566,775.4295 263.57568,772.665 Q264.7857,769.90045 265.70935,768.3204 Q266.633,766.7403 266.38513,763.6674 Q266.13727,760.59454 267.32175,758.9655 Q268.50623,757.3365 269.20755,755.9338 Q269.90887,754.53107 268.96597,756.4168 Q268.02307,758.30255 266.1373,757.3597 Q264.25153,756.4168 262.3657,755.47394 Q260.47986,754.53107 257.65112,754.53107 Q254.8224,754.53107 251.05077,754.53107 Q247.27913,754.53107 245.31386,755.5136 Q243.34859,756.49615 240.36076,757.47894 Q237.37294,758.46173 235.47585,758.38214 Q233.57875,758.30255 230.79234,758.30255 Q228.00594,758.30255 226.07655,759.37103 Q224.14717,760.4395 222.30937,761.35834 Q220.47157,762.27716 217.53743,762.1757 Q214.60329,762.0743 211.53267,763.2006 Q208.46205,764.32697 205.86412,764.1435 Q203.26619,763.96 200.06087,763.96 Q196.85555,763.96 194.1219,765.10333 Q191.38826,766.24664 188.6169,767.1705 Q185.84554,768.0943 181.48091,767.9129 Q177.11629,767.7315 174.85521,768.8642 Q172.59413,769.9969 169.47218,771.03754 Q166.35023,772.0782 162.48912,771.7907 Q158.628,771.50323 153.70491,771.50323 Q148.78181,771.50323 146.44408,771.50323 Q144.10634,771.50323 141.3708,770.36835 Q138.63527,769.23346 136.86555,770.59845 Q135.09584,771.96344 131.90642,772.9499 Q128.717,773.93634 125.93541,773.6628 Q123.153824,773.3892 120.54491,774.51666 Q117.93599,775.6441 113.804855,774.28827 Q109.67372,772.93243 107.03865,773.1608 Q104.40358,773.3892 101.58516,773.3892 Q98.76674,773.3892 95.932724,773.3892 Q93.09871,773.3892 90.211075,772.18854 Q87.32344,770.98785 84.511185,771.24554 Q81.69893,771.50323 78.98833,770.3475 Q76.277725,769.1917 73.4789,769.4046 Q70.68007,769.6175 68.96101,770.78143 Q67.24196,771.9454 62.984024,771.7243 Q58.726086,771.50323 57.359173,772.65094 Q55.99226,773.79865 51.755627,772.4323 Q47.518993,771.066 44.90095,771.2846 Q42.28291,771.50323 38.356915,771.50323 Q34.43092,771.50323 32.938915,772.6584 Q31.44691,773.81354 28.220898,774.8182 Q24.994884,775.8228 22.345104,775.5489 Q19.695324,775.27496 16.796703,776.4555 Q13.898083,777.63605 11.124432,777.3984 Q8.3507805,777.1607 4.242077,777.1607 Q0.13337326,777.1607 -2.398426,777.1607 Q-4.9302254,777.1607 -7.8532295,778.36774 Q-10.776234,779.57477 -14.733875,778.12335 Q-18.691517,776.67194 -22.29723,775.7703 Q-25.902943,774.8687 -28.50777,776.2109 Q-31.112598,777.55304 -34.085804,777.3569 Q-37.05901,777.1607 -39.75214,778.3027 Q-42.44527,779.44464 -45.25208,780.3803 Q-48.058887,781.316 -50.952564,781.1242 Q-53.84624,780.93243 -56.77637,780.93243 Q-59.7065,780.93243 -62.489975,780.93243 Q-65.27345,780.93243 -68.154495,782.12494 Q-71.03554,783.31744 -75.08185,783.06793 Q-79.12816,782.8184 -81.52365,782.8184 Q-83.91914,782.8184 -89.07445,781.66925 Q-94.22975,780.5201 -95.4942,781.87396 Q-96.75865,783.22784 -99.96622,785.4344 Q-103.17378,787.6409 -105.978836,787.1154 Q-108.78389,786.5899 -112.53696,786.5899 Q-116.29002,786.5899 -119.06061,786.5899 Q-121.83119,786.5899 -124.707886,786.5899 Q-127.58458,786.5899 -129.22449,786.5899 Q-130.8644,786.5899 -132.6824,787.74384 Q-134.50041,788.89777 -137.66562,787.4909 Q-140.83083,786.08405 -143.61041,787.5163 Q-146.39,788.94855 -148.05492,788.7121 Q-149.71983,788.47565 -151.62888,789.6745 Q-153.53792,790.87335 -156.61374,790.6175 Q-159.68956,790.36163 -161.29283,790.36163 Q-162.8961,790.36163 -166.0019,790.36163 Q-169.10771,790.36163 -171.79799,790.36163 Q-174.48827,790.36163 -176.22803,790.36163 Q-177.96779,790.36163 -179.75371,791.48895 Q-181.53963,792.6163 -183.60493,793.649 Q-185.67024,794.6817 -187.54372,794.4074 Q-189.41719,794.1331 -191.27066,795.32806 Q-193.12413,796.523 -195.01933,796.27094 Q-196.91454,796.01886 -199.97223,797.20917 Q-203.02992,798.3995 -204.68881,798.15216 Q-206.3477,797.90485 -208.22906,797.90485 Q-210.11043,797.90485 -211.93063,797.90485 Q-213.75084,797.90485 -216.87514,799.09454 Q-219.99944,800.28424 -222.67934,798.89716 Q-225.35924,797.5101 -227.0656,797.70746 Q-228.77196,797.90485 -231.99947,796.69147 Q-235.22697,795.4781 -235.62564,798.1684 Q-236.0243,800.8587 -239.23386,800.32465 Q-242.4434,799.7906 -245.3422,799.7906 Q-248.24098,799.7906 -249.79288,799.7906 Q-251.34477,799.7906 -254.57483,799.7906 Q-257.80487,799.7906 -260.43423,798.6524 Q-263.0636,797.5142 -266.00873,796.53253 Q-268.9539,795.55084 -271.83356,795.78485 Q-274.71326,796.01886 -277.5766,796.01886 Q-280.43997,796.01886 -281.9944,796.01886 Q-283.54883,796.01886 -286.6563,794.8309 Q-289.7638,793.6429 -291.43726,793.888 Q-293.11075,794.1331 -296.7379,792.05804 Q-300.36505,789.983 -303.12552,789.12604 Q-305.886,788.2691 -308.75043,788.3724 Q-311.61487,788.47565 -313.15472,787.5328 Q-314.69458,786.5899 -317.089,785.39264 Q-319.4834,784.1954 -322.18057,783.38104 Q-324.87775,782.5667 -326.38654,782.69257 Q-327.89532,782.8184 -329.78113,782.8184 L-331.66696,782.8184 " fill="none" stroke="#000000" stroke-width="37.622066" stroke-linecap="round"/><path d="M-260.1825,830.2623 Q-260.1825,830.2623 -263.19263,830.2623 Q-266.20276,830.2623 -268.90558,830.2623 Q-271.6084,830.2623 -275.50616,830.2623 Q-279.40393,830.2623 -281.84192,830.2623 Q-284.2799,830.2623 -287.65024,830.2623 Q-291.02057,830.2623 -294.94382,830.2623 Q-298.86707,830.2623 -301.6808,830.2623 Q-304.4945,830.2623 -334.1099,831.7655 Q-363.72528,833.2687 -382.74966,831.4507 Q-401.77405,829.6327 -417.90002,829.9475 Q-434.026,830.2623 -452.15662,830.2623 Q-470.28723,830.2623 -489.99945,830.2623 Q-509.71167,830.2623 -527.7418,831.68884 Q-545.77203,833.11536 -562.6919,835.6931 Q-579.6118,838.2709 -598.1082,840.5469 Q-616.6046,842.8229 -636.92426,846.6422 Q-657.2439,850.46155 -675.90845,853.75525 Q-694.57306,857.04895 -715.3664,857.63904 Q-736.1597,858.2291 -751.6484,862.32605 Q-767.137,866.423 -782.56396,866.89734 Q-797.9909,867.3717 -813.04504,867.0984 Q-828.09924,866.8251 -840.0331,866.8251 Q-851.9669,866.8251 -863.0565,862.4812 Q-874.1461,858.1373 -881.0973,856.1948 Q-888.0485,854.2523 -896.0758,853.3922 Q-904.103,852.5321 -910.656,849.95996 Q-917.209,847.3878 -921.28375,846.51355 Q-925.3585,845.6393 -928.48315,844.4946 Q-931.6078,843.35 -934.9274,842.2434 Q-938.2471,841.13684 -941.7595,838.51953 Q-945.2719,835.9022 -948.74585,833.5862 Q-952.21985,831.27014 -954.19104,828.9796 Q-956.1623,826.6891 -958.36597,823.0614 Q-960.5697,819.4337 -964.4093,814.4082 Q-968.2489,809.3827 -968.7157,803.4757 Q-969.1825,797.5687 -971.78326,788.91394 Q-974.38403,780.25916 -975.2255,772.21875 Q-976.067,764.17834 -978.6689,751.7954 Q-981.27075,739.4125 -983.4252,727.24817 Q-985.5796,715.08386 -988.0244,700.1655 Q-990.4692,685.2472 -994.194,671.66565 Q-997.9188,658.0841 -999.86835,643.02246 Q-1001.8179,627.9608 -1005.5568,611.6494 Q-1009.2958,595.338 -1011.2452,579.51904 Q-1013.1946,563.7001 -1015.51215,543.1072 Q-1017.8297,522.5143 -1020.12616,500.07007 Q-1022.4226,477.62585 -1023.2042,458.12366 Q-1023.9858,438.62146 -1026.6218,407.20105 Q-1029.2579,375.78064 -1030.0837,350.17847 Q-1030.9097,324.5763 -1033.5042,301.24048 Q-1036.0986,277.90466 -1035.4768,255.49231 Q-1034.8551,233.07996 -1034.8551,214.48438 Q-1034.8551,195.8888 -1034.8551,180.90198 Q-1034.8551,165.91516 -1034.8551,154.21375 Q-1034.8551,142.51233 -1034.8551,132.86658 Q-1034.8551,123.220825 -1031.9569,111.47705 Q-1029.0587,99.73328 -1029.6718,91.300415 Q-1030.2848,82.86755 -1030.2848,73.71643 Q-1030.2848,64.56531 -1030.2848,56.786377 Q-1030.2848,49.007446 -1030.2848,41.025635 Q-1030.2848,33.043823 -1028.8438,25.088623 Q-1027.4026,17.133423 -1027.701,7.605652 Q-1027.9995,-1.9221191 -1027.9995,-9.59259 Q-1027.9995,-17.263062 -1027.9995,-23.80066 Q-1027.9995,-30.338257 -1026.555,-34.285156 Q-1025.1106,-38.232056 -1022.52844,-41.350586 Q-1019.9463,-44.469116 -1016.18823,-47.927734 Q-1012.4302,-51.386353 -1003.2216,-57.698425 Q-994.01306,-64.0105 -983.03827,-69.767944 L-972.0635,-75.52539 " fill="none" stroke="#000000" stroke-width="45.589138" stroke-linecap="round"/><path d="M-326.45245,295.5326 Q-326.45245,295.5326 -328.73764,294.39 Q-331.02283,293.24744 -333.93207,293.24744 Q-336.8413,293.24744 -339.89514,292.0216 Q-342.94897,290.79578 -345.29755,290.87903 Q-347.64612,290.96228 -350.03012,289.61365 Q-352.41412,288.265 -355.9813,287.14453 Q-359.54846,286.02405 -362.9574,286.208 Q-366.36633,286.39197 -369.73053,285.0929 Q-373.09473,283.79382 -379.82654,281.06982 Q-386.55835,278.34583 -393.68414,277.5056 Q-400.80994,276.6654 -409.26028,274.0415 Q-417.71063,271.4176 -424.21494,267.69165 Q-430.71924,263.9657 -439.04755,259.07385 Q-447.37585,254.182 -453.90472,248.16785 Q-460.4336,242.15369 -465.88193,237.85718 Q-471.33026,233.56067 -475.53152,227.5896 Q-479.7328,221.61853 -484.35254,215.84375 Q-488.9723,210.06897 -492.07455,201.44482 Q-495.17682,192.82068 -498.58932,183.40295 Q-502.00183,173.98523 -505.43045,163.3866 Q-508.85907,152.78796 -509.36664,138.24512 Q-509.8742,123.70227 -513.93604,108.432495 Q-517.99786,93.16272 -519.8545,77.66431 Q-521.7112,62.165894 -522.66614,43.763916 Q-523.62115,25.361938 -523.2991,6.8865356 Q-522.97705,-11.588867 -525.88837,-35.677185 Q-528.7997,-59.765503 -529.6341,-84.17578 Q-530.4685,-108.58606 -530.1505,-132.64777 Q-529.8326,-156.70947 -529.8326,-178.35217 Q-529.8326,-199.99487 -528.4217,-225.49884 Q-527.0108,-251.0028 -524.3611,-272.82092 Q-521.71136,-294.63904 -518.11694,-312.58173 Q-514.52246,-330.5244 -513.8636,-352.24567 Q-513.2047,-373.96692 -509.1667,-390.0509 Q-505.12866,-406.1349 -503.14148,-420.44073 Q-501.1543,-434.74658 -500.34247,-449.383 Q-499.53064,-464.0194 -495.45352,-477.65173 Q-491.3764,-491.28406 -487.9579,-500.59283 Q-484.53937,-509.9016 -482.61963,-519.9468 Q-480.6999,-529.99194 -476.9564,-537.4872 Q-473.2129,-544.9824 -471.2137,-553.0153 Q-469.21454,-561.0482 -466.90732,-567.669 Q-464.6001,-574.2898 -462.32748,-579.6594 Q-460.05487,-585.02905 -459.20905,-590.78644 Q-458.36322,-596.5438 -455.77814,-596.4209 Q-453.19305,-596.298 -450.91183,-600.3342 Q-448.6306,-604.3705 -444.92044,-604.89496 Q-441.21027,-605.41943 -437.73,-612.41046 L-434.24976,-619.4015 " fill="none" stroke="#000000" stroke-width="45.589138" stroke-linecap="round"/><path d="M-1005.1479,160.70764 Q-1005.1479,160.70764 -1006.4512,158.1012 Q-1007.7544,155.49475 -1010.1904,151.92102 Q-1012.62646,148.34729 -1013.68713,146.07007 Q-1014.74786,143.79285 -1015.86523,141.55798 Q-1016.98267,139.32312 -1018.1205,137.04749 Q-1019.2583,134.77185 -1019.0586,131.20825 Q-1018.8589,127.64465 -1020.1804,122.89404 Q-1021.50195,118.14343 -1021.323,112.37439 Q-1021.14404,106.60535 -1021.14404,101.66467 Q-1021.14404,96.724 -1025.4869,58.779907 Q-1029.8298,20.835815 -1028.9147,-2.8098755 Q-1027.9995,-26.455566 -1027.9995,-32.822388 Q-1027.9995,-39.18921 -1027.9995,-53.579956 Q-1027.9995,-67.9707 -1023.6274,-93.609985 Q-1019.25525,-119.24927 -1024.5789,-133.38934 Q-1029.9023,-147.52942 -1033.3289,-162.06012 Q-1036.7552,-176.59082 -1037.2656,-195.84082 Q-1037.776,-215.09082 -1037.4581,-227.54016 Q-1037.1403,-239.9895 -1037.1403,-253.04443 Q-1037.1403,-266.09937 -1037.1403,-279.0534 Q-1037.1403,-292.00745 -1035.6876,-305.88544 Q-1034.235,-319.76343 -1037.4661,-330.64813 Q-1040.6971,-341.53284 -1044.395,-352.79938 Q-1048.093,-364.06592 -1048.6338,-376.9605 Q-1049.1746,-389.8551 -1047.4023,-398.2531 Q-1045.6301,-406.65112 -1045.9556,-417.1391 Q-1046.281,-427.62708 -1044.825,-436.46704 Q-1043.3689,-445.307 -1040.7623,-455.9395 Q-1038.1558,-466.57202 -1037.3303,-473.93695 Q-1036.5049,-481.30188 -1035.3591,-489.32233 Q-1034.2134,-497.34277 -1031.6296,-500.90607 Q-1029.0459,-504.46936 -1029.6653,-509.0365 Q-1030.2848,-513.60364 -1036.0515,-519.5763 Q-1041.8181,-525.54895 -1044.8523,-529.69434 Q-1047.8866,-533.8397 -1049.992,-538.5855 Q-1052.0972,-543.3313 -1052.9338,-546.46405 Q-1053.7705,-549.5968 -1053.4535,-552.9741 Q-1053.1365,-556.35144 -1048.8074,-555.4509 Q-1044.4783,-554.5504 -1042.4937,-551.6644 Q-1040.5089,-548.77844 -1038.218,-549.3793 Q-1035.9272,-549.9801 -1032.1947,-548.53375 Q-1028.4622,-547.0874 -1023.6742,-547.3911 Q-1018.88617,-547.6948 -1011.34546,-544.805 L-1003.8048,-541.91516 " fill="none" stroke="#000000" stroke-width="45.589138" stroke-linecap="round"/><path d="M693.3838,1527.8135 Q693.3838,1527.8135 694.16534,1527.4226 Q694.9469,1527.0319 696.28033,1526.5874 Q697.6138,1526.143 698.4493,1525.6982 Q699.2848,1525.2537 707.5012,1523.8733 Q715.71765,1522.4928 720.82806,1520.8374 Q725.9385,1519.182 730.96027,1517.6055 Q735.98206,1516.029 741.00916,1514.9741 Q746.03625,1513.9192 750.1261,1512.2573 Q754.21594,1510.5953 759.2505,1509.1082 Q764.28503,1507.621 768.7248,1505.4473 Q773.16455,1503.2736 778.4194,1502.3296 Q783.6742,1501.3856 787.65967,1499.7537 Q791.64514,1498.1217 796.0225,1496.5299 Q800.3999,1494.9381 804.77374,1493.8489 Q809.1476,1492.7596 813.66437,1492.1357 Q818.18115,1491.512 822.634,1491.186 Q827.0868,1490.8602 830.7902,1489.499 Q834.49365,1488.138 837.9965,1486.4379 Q841.4994,1484.7378 843.961,1484.1897 Q846.4226,1483.6415 849.6995,1483.3448 Q852.97644,1483.0482 855.0405,1482.1823 Q857.1046,1481.3163 858.9725,1480.531 Q860.84033,1479.7457 862.3598,1479.439 Q863.8793,1479.1321 864.43274,1478.2463 Q864.9862,1477.3605 865.2585,1476.1135 Q865.53076,1474.8666 865.9346,1474.1555 Q866.3384,1473.4443 867.0105,1474.0542 Q867.6826,1474.6641 867.6826,1471.6753 L867.6826,1468.6866 " fill="none" stroke="#000000" stroke-width="15.593106" stroke-linecap="round"/><path d="M561.29175,1820.9169 Q561.29175,1820.9169 561.29175,1820.1353 Q561.29175,1819.3538 562.07336,1818.5721 Q562.855,1817.7905 564.13525,1816.937 Q565.4155,1816.0834 566.2242,1815.2388 Q567.03284,1814.3942 567.7981,1814.0791 Q568.56335,1813.7639 569.75055,1813.388 Q570.93774,1813.0118 572.7721,1812.0725 Q574.60645,1811.133 577.15985,1810.3494 Q579.71326,1809.5657 583.08026,1808.2776 Q586.44727,1806.9894 590.08606,1805.3129 Q593.72485,1803.6364 597.27673,1801.5547 Q600.8286,1799.473 604.84515,1797.5209 Q608.8617,1795.5687 612.2759,1793.6099 Q615.69006,1791.6509 619.7173,1789.6936 Q623.7445,1787.7365 626.1518,1786.7859 Q628.5591,1785.8352 629.76215,1784.6738 Q630.9652,1783.5123 632.5232,1782.8448 Q634.0812,1782.1774 635.14594,1781.8959 Q636.2107,1781.6144 636.8749,1781.7253 Q637.53906,1781.8364 638.10504,1781.8364 Q638.671,1781.8364 639.45264,1781.8364 Q640.23425,1781.8364 641.01587,1782.2273 Q641.7975,1782.618 642.6823,1782.1758 L643.56714,1781.7334 " fill="none" stroke="#000000" stroke-width="15.593106" stroke-linecap="round"/><path d="M312.74713,1679.3125 Q312.74713,1679.3125 311.89914,1679.7366 Q311.05115,1680.1606 310.224,1681.5144 Q309.39685,1682.8682 308.66772,1684.4291 Q307.9386,1685.99 307.20456,1687.9248 Q306.47052,1689.8596 305.00113,1693.1161 Q303.53174,1696.3726 301.39563,1701.0621 Q299.25952,1705.7517 297.8873,1709.7987 Q296.51508,1713.8457 294.57706,1718.3572 Q292.63904,1722.8687 290.7952,1727.2938 Q288.95135,1731.719 281.46658,1753.067 Q273.9818,1774.415 269.18805,1785.368 Q264.3943,1796.321 263.91522,1797.6183 Q263.43616,1798.9155 261.50412,1803.5121 Q259.57208,1808.1086 258.24222,1812.8538 Q256.91235,1817.5989 255.40714,1822.0251 Q253.90192,1826.4514 252.89696,1829.4663 Q251.892,1832.4812 250.79367,1835.3115 Q249.69534,1838.1418 249.52226,1840.1522 Q249.34918,1842.1626 248.53966,1843.8462 Q247.73013,1845.5298 247.90193,1846.9292 Q248.07373,1848.3286 248.07373,1848.9042 Q248.07373,1849.4797 249.32352,1850.1133 Q250.5733,1850.7468 251.36218,1850.6486 Q252.15106,1850.5503 252.88252,1850.5503 Q253.61398,1850.5503 254.80919,1850.5503 Q256.0044,1850.5503 257.11035,1850.5503 Q258.2163,1850.5503 259.7837,1850.5503 Q261.35107,1850.5503 263.29428,1850.5503 Q265.2375,1850.5503 266.56223,1850.5503 Q267.88696,1850.5503 269.88934,1851.4922 Q271.89172,1852.4341 273.71405,1852.227 Q275.53638,1852.02 277.36572,1852.9529 Q279.19507,1853.8857 281.03583,1853.6879 Q282.8766,1853.49 284.70963,1853.9562 Q286.54266,1854.4224 288.85452,1854.7913 Q291.16638,1855.1602 292.8897,1855.0599 Q294.61304,1854.9597 296.46967,1854.9597 Q298.3263,1854.9597 300.62714,1854.9597 Q302.92798,1854.9597 304.6591,1855.4264 Q306.3902,1855.8931 307.76138,1855.7938 Q309.13257,1855.6946 311.04767,1855.6946 Q312.96277,1855.6946 313.89288,1855.6946 Q314.823,1855.6946 316.3852,1856.1609 Q317.9474,1856.6272 318.47772,1856.5284 Q319.00806,1856.4297 319.74258,1856.4297 Q320.4771,1856.4297 321.1198,1856.4297 Q321.7625,1856.4297 322.39932,1856.7971 Q323.03613,1857.1646 322.3012,1856.7971 Q321.56628,1856.4297 322.3012,1856.0621 Q323.03613,1855.6946 323.86823,1855.6946 Q324.70032,1855.6946 325.85266,1855.6946 Q327.005,1855.6946 327.74133,1855.6946 Q328.47766,1855.6946 329.62994,1855.6946 Q330.78223,1855.6946 332.31854,1856.1283 Q333.85486,1856.562 335.25116,1856.9111 Q336.64746,1857.2603 338.58173,1857.2124 Q340.516,1857.1646 341.90106,1857.5829 Q343.28613,1858.0012 344.9372,1857.9503 Q346.58826,1857.8994 348.5222,1858.3632 Q350.45612,1858.8269 351.84735,1859.667 Q353.2386,1860.5071 355.188,1860.3057 Q357.1374,1860.1042 358.979,1860.5756 Q360.82062,1861.0469 362.6509,1861.413 Q364.4812,1861.779 366.32138,1862.1471 Q368.16156,1862.5151 369.0566,1862.8821 Q369.95166,1863.249 371.05194,1863.6158 Q372.15222,1863.9827 373.25726,1863.8807 Q374.3623,1863.7788 374.9887,1863.7788 Q375.6151,1863.7788 376.3601,1863.7788 Q377.1051,1863.7788 377.83862,1863.7788 Q378.57214,1863.7788 379.2023,1863.7788 Q379.83246,1863.7788 378.994,1863.044 Q378.15552,1862.3091 377.6784,1861.3549 Q377.2013,1860.4006 376.3664,1859.6753 Q375.5315,1858.95 374.32562,1856.8005 Q373.11975,1854.6511 371.54245,1852.3373 Q369.96515,1850.0234 368.9755,1846.4237 Q367.98584,1842.824 366.42047,1839.0643 Q364.8551,1835.3047 363.39273,1831.1824 Q361.93036,1827.06 360.92093,1821.1222 Q359.9115,1815.1843 358.3448,1810.6227 Q356.77808,1806.061 355.3119,1800.8295 Q353.8457,1795.5979 351.90686,1790.4464 Q349.96802,1785.2949 348.12195,1780.1259 Q346.27588,1774.9568 344.0752,1770.0581 Q341.8745,1765.1594 339.5676,1760.2449 Q337.26068,1755.3303 335.5521,1751.0886 Q333.8435,1746.8469 331.9803,1742.843 Q330.11707,1738.8391 328.303,1734.385 Q326.48895,1729.9309 325.09933,1726.409 Q323.70972,1722.8872 322.71692,1720.1735 Q321.72412,1717.4597 320.6171,1714.5076 Q319.51007,1711.5554 318.4031,1710.0038 Q317.29614,1708.4521 317.12903,1707.089 Q316.9619,1705.7258 316.12756,1703.7859 Q315.2932,1701.846 315.022,1700.934 Q314.7508,1700.022 314.38483,1699.3906 Q314.01886,1698.7593 313.28482,1696.458 L312.55078,1694.1567 " fill="none" stroke="#000000" stroke-width="14.661765" stroke-linecap="round"/><path d="M337.01495,40.020264 Q337.01495,40.020264 336.34702,38.684387 Q335.67908,37.34851 335.67908,36.012695 Q335.67908,34.67688 335.67908,33.341003 Q335.67908,32.005127 335.67908,30.487183 Q335.67908,28.969238 335.67908,26.591125 Q335.67908,24.213013 335.67908,22.228027 Q335.67908,20.243042 335.67908,14.856873 Q335.67908,9.470703 335.67908,4.8239136 Q335.67908,0.17712402 335.67908,-7.1378174 Q335.67908,-14.452759 336.5221,-20.184326 Q337.36508,-25.915894 337.19,-33.712204 Q337.01495,-41.508514 337.85773,-48.753998 Q338.70047,-55.99948 339.37408,-63.409393 Q340.0477,-70.819305 340.69693,-76.3013 Q341.34616,-81.783295 341.18433,-87.996155 Q341.02252,-94.209015 341.02252,-99.35861 Q341.02252,-104.50821 341.02252,-111.51541 Q341.02252,-118.52261 342.70746,-123.47031 Q344.3924,-128.418 344.88635,-133.76611 Q345.38034,-139.11423 346.8932,-144.46506 Q348.40604,-149.81589 348.8979,-155.15927 Q349.38977,-160.50266 349.21368,-165.07056 Q349.0376,-169.63846 349.0376,-173.45425 Q349.0376,-177.27005 349.0376,-180.42328 Q349.0376,-183.5765 349.0376,-186.89658 Q349.0376,-190.21664 348.19098,-193.54642 Q347.34436,-196.87619 347.52307,-199.34988 Q347.70175,-201.82358 347.70175,-203.67453 Q347.70175,-205.52548 349.17963,-206.46075 Q350.65753,-207.39603 350.5155,-208.96689 Q350.37347,-210.53775 350.37347,-212.43176 Q350.37347,-214.32578 350.37347,-212.72263 Q350.37347,-211.11948 352.06772,-210.27234 Q353.76196,-209.4252 354.15985,-208.09183 Q354.55774,-206.75845 356.1736,-206.0831 Q357.7895,-205.40775 359.1297,-205.59195 Q360.4699,-205.77615 362.64075,-204.08041 Q364.81158,-202.38467 368.5267,-201.04257 Q372.24182,-199.70047 377.27667,-197.51654 Q382.31152,-195.33261 387.78647,-195.8789 Q393.2614,-196.4252 398.61786,-195.57986 Q403.9743,-194.73453 409.309,-194.9119 Q414.64368,-195.08926 421.66214,-193.4035 Q428.6806,-191.71774 434.45328,-190.39606 Q440.22595,-189.07437 447.17587,-188.56406 Q454.1258,-188.05374 462.51346,-187.38446 Q470.90112,-186.71518 481.41797,-186.89471 Q491.9348,-187.07425 501.1463,-187.07425 Q510.3578,-187.07425 520.56335,-187.07425 Q530.7689,-187.07425 539.8903,-188.76297 Q549.0117,-190.45169 561.81146,-191.79544 Q574.6112,-193.13919 588.28687,-194.47067 Q601.9625,-195.80215 612.80176,-197.98749 Q623.641,-200.17282 633.6295,-203.70901 Q643.61804,-207.24521 658.2101,-211.59341 Q672.8021,-215.94162 684.98315,-219.01514 Q697.1642,-222.08865 707.71265,-225.53671 Q718.2611,-228.98477 729.7678,-232.31516 Q741.27454,-235.64554 751.811,-239.8465 Q762.3474,-244.04745 772.10944,-247.17905 Q781.87146,-250.31064 791.7062,-252.75449 Q801.5409,-255.19833 809.2677,-257.9404 Q816.9945,-260.68246 826.649,-260.79364 Q836.30347,-260.90482 847.34863,-261.57272 Q858.3938,-262.24063 866.463,-261.21973 Q874.5322,-260.19882 883.2429,-258.68515 Q891.9536,-257.17148 899.81354,-255.83218 Q907.67346,-254.49289 915.6537,-252.32043 Q923.6339,-250.14798 935.0641,-247.29044 Q946.49426,-244.43289 955.532,-240.90106 Q964.5697,-237.36923 973.0821,-234.87488 Q981.5945,-232.38052 989.4168,-229.71274 Q997.23914,-227.04495 1004.2728,-224.42178 Q1011.3065,-221.79861 1017.70734,-219.99591 Q1024.1082,-218.1932 1031.8386,-216.97311 Q1039.569,-215.75302 1046.0657,-215.26309 Q1052.5623,-214.77316 1058.4956,-213.23837 Q1064.4288,-211.70358 1070.3488,-209.54233 Q1076.2687,-207.38107 1084.0187,-206.21442 Q1091.7687,-205.04776 1098.2634,-203.7124 Q1104.758,-202.37704 1112.2898,-201.04068 Q1119.8217,-199.70432 1127.1118,-198.37888 Q1134.402,-197.05344 1141.7626,-195.71509 Q1149.1232,-194.37674 1156.4343,-192.20468 Q1163.7454,-190.03262 1170.2573,-188.87012 Q1176.7692,-187.70761 1184.3016,-186.37006 Q1191.8341,-185.0325 1199.2253,-184.53705 Q1206.6165,-184.0416 1212.2599,-185.91736 Q1217.9033,-187.79312 1226.488,-185.73334 Q1235.0726,-183.67355 1242.2211,-183.18933 Q1249.3695,-182.70511 1253.9045,-182.88586 Q1258.4396,-183.06662 1264.8958,-182.21817 Q1271.352,-181.36972 1278.1521,-179.0228 Q1284.9521,-176.67587 1289.9929,-176.35132 Q1295.0337,-176.02676 1300.3672,-177.05414 Q1305.7006,-178.08151 1310.8516,-177.9024 Q1316.0024,-177.7233 1323.2787,-175.16824 Q1330.5549,-172.61319 1334.6646,-173.16443 Q1338.774,-173.71567 1342.5647,-172.02826 L1346.3553,-170.34085 " fill="none" stroke="#000000" stroke-width="26.650208" stroke-linecap="round"/><path d="M1318.8647,981.79456 Q1318.8647,981.79456 1317.4165,981.0705 Q1315.9683,980.34644 1314.5364,979.63043 Q1313.1046,978.9144 1311.0415,978.2614 Q1308.9783,977.6084 1305.8835,976.85706 Q1302.7888,976.1057 1299.2262,974.5771 Q1295.6636,973.04846 1292.3151,972.5615 Q1288.9666,972.0746 1284.8041,970.56396 Q1280.6416,969.05334 1275.7263,966.8443 Q1270.811,964.63525 1267.0272,963.49945 Q1263.2434,962.36365 1231.1486,951.66534 Q1199.0537,940.96704 1198.544,941.64703 Q1198.0343,942.327 1190.279,940.1293 Q1182.5239,937.9315 1172.6475,935.9347 Q1162.771,933.93787 1153.3932,931.9283 Q1144.0154,929.9187 1133.835,928.7717 Q1123.6544,927.62476 1110.5486,929.6627 Q1097.4429,931.7007 1090.345,934.7908 Q1083.2472,937.88086 1076.9543,941.40356 L1070.6615,944.9263 " fill="none" stroke="#000000" stroke-width="26.650208" stroke-linecap="round"/><path d="M1264.095,1533.5005 Q1264.095,1533.5005 1262.759,1533.5005 Q1261.4232,1533.5005 1262.759,1533.5005 Q1264.095,1533.5005 1266.6362,1533.5005 Q1269.1775,1533.5005 1271.186,1534.3492 Q1273.1946,1535.198 1276.8923,1536.7133 Q1280.5902,1538.2285 1285.584,1540.3944 Q1290.5779,1542.5603 1296.1492,1543.7355 Q1301.7203,1544.9106 1307.0746,1546.2493 Q1312.4288,1547.5879 1318.6309,1548.0746 Q1324.833,1548.5613 1332.4629,1548.378 Q1340.0928,1548.1948 1346.648,1548.1948 Q1353.2032,1548.1948 1359.0087,1548.1948 Q1364.8141,1548.1948 1369.9645,1548.1948 Q1375.1149,1548.1948 1378.7949,1548.1948 Q1382.4749,1548.1948 1386.4363,1548.1948 Q1390.3978,1548.1948 1393.615,1548.1948 Q1396.8323,1548.1948 1400.1547,1547.348 Q1403.477,1546.5012 1406.8145,1545.8336 Q1410.1519,1545.166 1413.5013,1543.6477 Q1416.8508,1542.1294 1418.4934,1541.6422 Q1420.1359,1541.155 1422.9897,1540.4866 Q1425.8436,1539.8181 1427.6514,1539.1553 Q1429.4592,1538.4924 1431.4893,1537.8157 Q1433.5194,1537.1389 1435.5137,1535.6248 Q1437.5079,1534.1106 1439.4972,1533.629 Q1441.4865,1533.1475 1442.6487,1531.632 Q1443.811,1530.1165 1445.1519,1529.6241 Q1446.4927,1529.1318 1447.4674,1528.6445 Q1448.4421,1528.1572 1449.1101,1526.1534 Q1449.7781,1524.1497 1449.7781,1520.749 Q1449.7781,1517.3484 1449.7781,1512.9698 Q1449.7781,1508.5913 1449.7781,1501.1826 Q1449.7781,1493.774 1449.7781,1483.7657 Q1449.7781,1473.7574 1449.7781,1462.7092 Q1449.7781,1451.661 1449.7781,1436.9396 Q1449.7781,1422.2181 1450.6289,1398.5354 Q1451.4796,1374.8527 1450.449,1355.2701 Q1449.4182,1335.6876 1449.5981,1307.9185 Q1449.7781,1280.1493 1447.2329,1256.7246 Q1444.6877,1233.2999 1444.3811,1209.2643 Q1444.0743,1185.2286 1442.5574,1162.016 Q1441.0404,1138.8033 1441.4016,1118.8068 Q1441.763,1098.8102 1443.4679,1075.4393 Q1445.1729,1052.0685 1445.6309,1030.2205 Q1446.0889,1008.3723 1448.4836,984.84064 Q1450.8784,961.30896 1450.3282,946.43353 Q1449.7781,931.5581 1449.7781,913.90643 Q1449.7781,896.25476 1449.7781,879.82477 Q1449.7781,863.3948 1450.6301,844.81836 Q1451.4823,826.24194 1453.0037,809.0427 Q1454.525,791.8435 1454.1553,777.0702 Q1453.7856,762.2969 1452.9373,749.54614 Q1452.0889,736.7954 1452.2693,721.67926 Q1452.4498,706.5631 1450.7378,690.05054 Q1449.0259,673.53796 1448.555,659.4188 Q1448.0842,645.2997 1448.2632,629.7284 Q1448.4421,614.1571 1450.133,596.3212 Q1451.8241,578.48535 1448.9233,561.88837 Q1446.0226,545.2914 1446.5645,531.8856 Q1447.1064,518.47986 1447.9216,502.80725 Q1448.7369,487.13464 1448.5896,470.09332 Q1448.4421,453.052 1449.2898,440.6499 Q1450.1373,428.2478 1451.6477,411.5589 Q1453.1582,394.87 1452.804,383.02728 Q1452.4498,371.18457 1452.4498,355.9538 Q1452.4498,340.72302 1453.2963,325.19336 Q1454.1427,309.6637 1453.1201,296.0465 Q1452.0975,282.42932 1453.1162,268.43445 Q1454.1348,254.43958 1453.9602,237.83691 Q1453.7856,221.23425 1453.7856,205.14142 Q1453.7856,189.04858 1457.1609,176.4737 Q1460.536,163.8988 1463.2012,149.7309 Q1465.8663,135.56299 1467.6938,118.18475 Q1469.5214,100.80652 1470.6934,87.372314 Q1471.8654,73.93811 1473.1052,64.113464 Q1474.345,54.28882 1474.94,43.66809 Q1475.535,33.047363 1477.0386,24.871094 Q1478.5422,16.694824 1476.4875,7.963379 Q1474.4329,-0.7680664 1473.9417,-9.514465 Q1473.4504,-18.260864 1473.637,-23.524658 Q1473.8234,-28.788452 1472.9739,-34.757797 Q1472.1243,-40.727142 1472.3059,-45.90573 Q1472.4874,-51.08432 1473.3354,-58.095093 Q1474.1836,-65.105865 1473.1519,-74.37622 Q1472.1201,-83.646576 1473.1342,-92.883545 Q1474.1482,-102.120514 1474.8403,-113.52008 Q1475.5326,-124.91965 1477.0239,-134.51813 Q1478.5153,-144.11661 1479.0194,-155.09146 Q1479.5236,-166.06631 1479.3452,-175.01169 Q1479.1667,-183.95706 1479.1667,-190.00397 Q1479.1667,-196.05087 1479.1667,-201.90714 Q1479.1667,-207.7634 1480.0187,-212.06537 Q1480.8706,-216.36734 1480.6865,-219.30798 Q1480.5026,-222.24863 1479.654,-223.9054 Q1478.8054,-225.56216 1478.2301,-227.28802 Q1477.6548,-229.01389 1476.2267,-228.74973 Q1474.7986,-228.48557 1473.2826,-227.63742 Q1471.7666,-226.78928 1470.4442,-225.28668 Q1469.1218,-223.78409 1465.2102,-222.42755 Q1461.2985,-221.07101 1457.996,-218.0614 Q1454.6935,-215.05179 1449.6023,-210.63751 Q1444.511,-206.22324 1437.3015,-199.67911 Q1430.0922,-193.13498 1421.7805,-187.17548 Q1413.4689,-181.21597 1404.6365,-174.38095 Q1395.8042,-167.54593 1387.9426,-162.53815 Q1380.0812,-157.53036 1371.9727,-152.97711 Q1363.8643,-148.42386 1357.6606,-144.66483 Q1351.457,-140.90579 1345.5503,-139.4003 Q1339.6437,-137.8948 1335.363,-140.12888 L1331.0825,-142.36295 " fill="none" stroke="#000000" stroke-width="26.650208" stroke-linecap="round"/></svg>