<svg width="1440" height="2616" xmlns="http://www.w3.org/2000/svg"><rect width="1440" height="2616" fill="#ffffff"/><path d="M463.0078,359.4492 Q463.0078,359.4492 463.0078,359.4492 Q463.0078,359.4492 463.0078,359.4492 Q463.0078,359.4492 463.0078,359.4492 Q463.0078,359.4492 463.0078,359.4492 Q463.0078,359.4492 463.0078,359.4492 Q463.0078,359.4492 463.0078,359.4492 Q463.0078,359.4492 463.0078,359.4492 Q463.0078,359.4492 463.0078,359.4492 Q463.0078,359.4492 463.0078,359.4492 Q463.0078,359.4492 463.0078,359.4492 Q463.0078,359.4492 463.0078,359.4492 Q463.0078,359.4492 463.0078,359.4492 Q463.0078,359.4492 463.0078,359.4492 Q463.0078,359.4492 463.0078,359.4492 Q463.0078,359.4492 463.0078,359.4492 Q463.0078,359.4492 463.8672,361.31055 Q464.72656,363.17188 465.43164,363.95752 Q466.13672,364.74316 466.667,366.24365 Q467.19727,367.74414 467.7256,368.89893 Q468.2539,370.0537 468.78174,370.82617 Q469.3096,371.59863 469.66553,372.73096 Q470.02145,373.86328 470.71582,375.00635 Q471.41016,376.14938 472.1128,377.2915 Q472.81543,378.4336 473.34277,379.5664 Q473.87012,380.69922 474.7373,382.20996 Q475.6045,383.72073 476.313,385.24316 Q477.02148,386.76562 477.7251,388.29053 Q478.4287,389.81543 478.96094,391.70215 Q479.4932,393.58887 480.18652,395.48438 Q480.87985,397.37988 481.58493,400.02148 Q482.29,402.6631 483.15576,405.31006 Q484.02148,407.95703 484.5708,410.28564 Q485.12012,412.61426 485.98486,415.26025 Q486.8496,417.90622 487.3911,420.21143 Q487.93262,422.5166 488.45947,424.79932 Q488.98633,427.08203 489.34473,429.00244 Q489.70312,430.92285 490.39404,433.56152 Q491.08496,436.2002 491.61816,438.49854 Q492.15137,440.79688 492.67822,443.44727 Q493.20508,446.09766 493.73096,448.38867 Q494.25684,450.6797 494.7915,453.74023 Q495.32617,456.80078 495.6787,459.45166 Q496.03125,462.10254 496.55273,464.76855 Q497.07422,467.43457 497.60156,469.73242 Q498.1289,472.03027 498.48682,474.68896 Q498.84476,477.34766 499.19678,479.27637 Q499.5488,481.20508 499.8999,483.8457 Q500.251,486.48633 500.2622,488.78418 Q500.27344,491.08203 500.27344,493.36865 Q500.27344,495.65524 500.10303,498.3086 Q499.93262,500.9619 499.92725,503.62158 Q499.92188,506.28125 499.92188,508.57324 Q499.92188,510.86523 499.92188,513.14844 Q499.92188,515.43164 499.92188,518.08936 Q499.92188,520.7471 499.75098,523.43555 Q499.5801,526.124 499.5752,528.77686 Q499.5703,531.4297 499.5703,533.7261 Q499.5703,536.02246 499.5703,537.93506 Q499.5703,539.84766 499.5703,542.49023 Q499.5703,545.1328 499.4004,547.4326 Q499.23047,549.7324 498.88623,552.0054 Q498.54196,554.2783 498.3589,556.20605 Q498.17578,558.1338 497.83008,559.66895 Q497.48438,561.2041 497.1338,563.09033 Q496.7832,564.97656 496.6006,566.1504 Q496.41797,567.3242 496.2422,568.4658 Q496.0664,569.6074 495.88916,570.3887 Q495.7119,571.1699 495.5371,572.6636 Q495.3623,574.1572 495.187,574.9429 Q495.01172,575.7285 494.83594,576.8584 Q494.66016,577.9883 494.31445,579.1304 Q493.96875,580.27246 493.6167,581.4155 Q493.26462,582.5586 493.083,583.70215 Q492.90137,584.8457 492.72607,585.9863 Q492.55078,587.12695 492.20605,588.6338 Q491.86133,590.1406 491.51904,591.2666 Q491.17676,592.3926 490.64307,593.9424 Q490.10938,595.4922 489.58105,598.1289 Q489.05273,600.7656 488.5254,603.0625 Q487.99805,605.3594 487.4712,607.6421 Q486.9443,609.9248 486.41602,612.21436 Q485.8877,614.5039 485.18896,617.15967 Q484.49023,619.8154 484.1294,622.48 Q483.76855,625.14453 483.07422,627.81445 Q482.37988,630.4844 481.8496,633.1421 Q481.3193,635.7998 480.61813,638.10596 Q479.91696,640.4121 479.0454,644.1714 Q478.17383,647.93066 477.29297,650.6343 Q476.4121,653.3379 475.36133,656.7466 Q474.31055,660.1553 473.25732,663.208 Q472.2041,666.26074 471.1494,669.3081 Q470.09473,672.3555 468.6963,675.03467 Q467.29785,677.71387 466.2329,680.7539 Q465.16797,683.794 464.11377,686.0967 Q463.05957,688.3994 461.8369,691.41943 Q460.61426,694.4394 459.55225,697.12256 Q458.49023,699.80566 457.26318,703.2168 Q456.03613,706.6279 454.65234,710.01025 Q453.26855,713.3926 451.84326,717.23926 Q450.41794,721.08594 449.01514,725.25635 Q447.6123,729.42676 446.21875,733.5781 Q444.8252,737.7295 443.41895,741.55176 Q442.0127,745.374 441.1128,748.45557 Q440.2129,751.5371 439.3335,754.2178 Q438.4541,756.89844 437.74658,759.1919 Q437.03906,761.4854 436.33496,763.77295 Q435.63086,766.06055 434.5879,768.7134 Q433.54492,771.3663 432.48926,774.40283 Q431.43356,777.43945 430.04102,780.8491 Q428.64847,784.2588 427.25146,788.0303 Q425.8545,791.8017 424.27588,795.98584 Q422.69727,800.1699 421.09375,804.7876 Q419.49023,809.4053 418.0913,813.9385 Q416.69238,818.4717 415.4585,822.6655 Q414.2246,826.8594 412.64014,832.2012 Q411.05566,837.5429 409.64453,842.5054 Q408.2334,847.4678 406.99854,852.7905 Q405.76367,858.1133 404.87695,862.6987 Q403.99023,867.2842 403.10986,872.23145 Q402.22946,877.1787 401.3501,881.38965 Q400.4707,885.6006 399.76465,890.1538 Q399.0586,894.70703 398.18506,899.27246 Q397.31155,903.8379 396.08838,909.90234 Q394.86523,915.9668 393.6372,921.6763 Q392.4092,927.3857 391.3501,932.72656 Q390.29102,938.0674 389.40527,943.0405 Q388.51953,948.0137 387.46973,952.5923 Q386.41992,957.1709 385.70752,961.7427 Q384.9951,966.31445 384.1201,970.5156 Q383.2451,974.7168 382.70993,979.6465 Q382.17477,984.5762 381.64697,988.78613 Q381.11914,992.9961 380.76367,997.5552 Q380.40823,1002.1143 380.22803,1006.6865 Q380.04785,1011.2588 379.7046,1015.40967 Q379.36133,1019.5605 378.83936,1023.7549 Q378.31738,1027.9492 377.95605,1032.186 Q377.59473,1036.4229 377.24805,1040.9165 Q376.90134,1045.4102 375.86084,1050.7788 Q374.8203,1056.1475 374.10645,1060.748 Q373.39258,1065.3486 372.68994,1071.0312 Q371.98727,1076.7139 371.62744,1081.3081 Q371.2676,1085.9023 370.4004,1091.2217 Q369.5332,1096.541 368.4834,1101.1265 Q367.4336,1105.7119 366.20605,1110.6597 Q364.97852,1115.6074 363.74902,1120.5557 Q362.51953,1125.5039 361.1206,1130.4438 Q359.72168,1135.3838 358.14893,1141.06 Q356.57617,1146.7363 355.33398,1152.0859 Q354.0918,1157.4355 352.85986,1163.1445 Q351.62793,1168.8535 350.4004,1174.5532 Q349.17285,1180.2529 347.937,1185.9893 Q346.70117,1191.7256 345.3003,1198.5488 Q343.8994,1205.3721 343.521,1211.8589 Q343.14258,1218.3457 342.61963,1224.4463 Q342.09668,1230.5469 341.9121,1236.6484 Q341.72754,1242.75 341.55176,1248.8374 Q341.37598,1254.9248 341.54297,1259.9102 Q341.70996,1264.8955 342.22754,1270.5757 Q342.74512,1276.2559 343.27344,1281.6064 Q343.80176,1286.957 344.84326,1293.0312 Q345.88477,1299.1055 346.76855,1304.4595 Q347.65234,1309.8135 348.87402,1315.8887 Q350.0957,1321.964 351.14697,1328.3809 Q352.19824,1334.7979 353.4209,1340.8921 Q354.64355,1346.9863 356.21582,1353.4575 Q357.7881,1359.9287 359.37158,1366.04 Q360.95508,1372.1515 362.53467,1378.2354 Q364.11426,1384.3192 366.03857,1390.7891 Q367.9629,1397.2588 369.71094,1402.582 Q371.45898,1407.9053 373.05615,1413.6309 Q374.65332,1419.3564 376.2378,1424.3418 Q377.82227,1429.327 379.40186,1434.2705 Q380.98145,1439.2139 382.7329,1444.166 Q384.48438,1449.1182 386.58643,1454.8179 Q388.68848,1460.5176 391.33057,1466.2798 Q393.97266,1472.042 396.59912,1477.3623 Q399.22556,1482.6827 401.51172,1487.6245 Q403.79785,1492.5664 406.44336,1497.1841 Q409.0889,1501.8019 412.21582,1506.7065 Q415.34277,1511.6113 418.33545,1516.1919 Q421.32812,1520.7726 424.4878,1524.9761 Q427.64746,1529.1797 430.63867,1532.9971 Q433.6299,1536.8145 437.3003,1540.9937 Q440.9707,1545.1729 444.3208,1549.3608 Q447.6709,1553.5487 451.354,1558.1102 Q455.0371,1562.6718 458.21777,1566.1357 Q461.39844,1569.5996 464.21973,1573.0249 Q467.041,1576.4502 470.19482,1579.5107 Q473.34866,1582.5712 477.19238,1586.3545 Q481.03613,1590.1377 485.07275,1593.9458 Q489.10934,1597.7539 493.3213,1601.5615 Q497.5332,1605.3691 501.75342,1608.8105 Q505.97363,1612.252 510.28662,1615.6206 Q514.5996,1618.9893 519.90137,1622.831 Q525.2031,1626.6727 529.7954,1630.1118 Q534.3877,1633.5508 538.96436,1637.3506 Q543.541,1641.1504 548.6196,1645.3257 Q553.69824,1649.501 558.3013,1652.9663 Q562.9043,1656.4316 568.36426,1659.8843 Q573.8242,1663.3369 579.2334,1666.3716 Q584.6426,1669.4062 589.92285,1672.4531 Q595.2031,1675.5 600.86426,1677.8296 Q606.5254,1680.1592 611.458,1682.4414 Q616.3906,1684.7236 621.65234,1686.6367 Q626.91406,1688.5497 632.1909,1690.8267 Q637.4678,1693.1035 643.0845,1694.646 Q648.7012,1696.1886 654.14307,1698.0796 Q659.58496,1699.9707 664.70654,1701.1372 Q669.8281,1702.3036 675.103,1703.4471 Q680.3779,1704.5907 685.4751,1705.3608 Q690.57227,1706.1309 695.6763,1707.2656 Q700.7803,1708.4004 706.2134,1708.7983 Q711.6465,1709.1963 717.43994,1710.3203 Q723.2334,1711.4443 729.6992,1712.2129 Q736.16504,1712.9814 742.52,1714.1177 Q748.875,1715.2539 754.8418,1716.3931 Q760.80865,1717.5322 766.4458,1718.3042 Q772.083,1719.076 777.1987,1719.4678 Q782.31445,1719.8594 787.4116,1720.2402 Q792.50885,1720.6212 796.7588,1720.6309 Q801.0088,1720.6406 806.25244,1720.6406 Q811.4961,1720.6406 816.94434,1720.269 Q822.3926,1719.8975 827.66895,1719.8882 Q832.9453,1719.8789 838.04785,1719.5073 Q843.1504,1719.1359 848.4199,1719.1266 Q853.68945,1719.1173 858.05615,1719.1173 Q862.4228,1719.1173 867.3179,1719.1173 Q872.2129,1719.1173 877.14014,1718.75 Q882.0674,1718.3828 887.17773,1718.0005 Q892.2881,1717.6182 897.75586,1717.2354 Q903.22363,1716.8525 908.8496,1716.1001 Q914.4756,1715.3477 920.1006,1714.5859 Q925.7256,1713.8242 930.4966,1712.6909 Q935.2676,1711.5576 940.17773,1710.0464 Q945.0879,1708.5352 950.18115,1706.27 Q955.2745,1704.0049 959.18115,1702.0874 Q963.0879,1700.1699 967.6299,1697.8994 Q972.1719,1695.6289 976.58154,1692.5957 Q980.9912,1689.5625 986.0762,1686.5127 Q991.16113,1683.4628 995.56445,1680.7925 Q999.9678,1678.1221 1004.01855,1675.0859 Q1008.06934,1672.0498 1012.4536,1668.6333 Q1016.8379,1665.2168 1021.06055,1661.7896 Q1025.2832,1658.3623 1029.5059,1655.3022 Q1033.7285,1652.2421 1037.4346,1649.1943 Q1041.1406,1646.1465 1044.4648,1643.1221 Q1047.7891,1640.0977 1051.8081,1636.315 Q1055.8271,1632.5321 1059.2202,1628.69 Q1062.6133,1624.8477 1066.2627,1620.7051 Q1069.9121,1616.5625 1073.4219,1611.6528 Q1076.9316,1606.7432 1080.1353,1602.1201 Q1083.3389,1597.4971 1085.96,1593.2544 Q1088.581,1589.0117 1091.0859,1584.477 Q1093.5908,1579.9423 1095.7461,1575.6416 Q1097.9014,1571.3408 1099.6274,1567.2637 Q1101.3535,1563.1865 1102.7705,1559.3618 Q1104.1875,1555.5371 1105.4233,1552.0986 Q1106.6592,1548.6602 1107.7178,1544.8608 Q1108.7764,1541.0616 1109.6587,1537.9995 Q1110.541,1534.9375 1111.4209,1531.5156 Q1112.3008,1528.0938 1113.1802,1524.6641 Q1114.0596,1521.2344 1114.937,1517.4419 Q1115.8145,1513.6494 1116.4722,1510.7983 Q1117.1299,1507.9474 1117.689,1504.4595 Q1118.248,1500.9717 1118.9683,1497.0332 Q1119.6885,1493.0947 1120.3921,1489.2827 Q1121.0957,1485.4706 1121.2861,1480.9077 Q1121.4766,1476.3447 1121.8232,1471.0361 Q1122.1699,1465.7274 1122.522,1460.0225 Q1122.874,1454.3175 1123.397,1447.8574 Q1123.9199,1441.3975 1124.104,1435.2988 Q1124.2881,1429.2002 1124.4639,1423.103 Q1124.6396,1417.0059 1124.644,1411.6675 Q1124.6484,1406.3291 1124.3062,1400.9966 Q1123.9639,1395.6641 1123.6123,1389.9653 Q1123.2607,1384.2666 1122.5654,1378.5405 Q1121.8701,1372.8145 1120.8237,1366.355 Q1119.7773,1359.8955 1118.5522,1352.6836 Q1117.3271,1345.4716 1115.5801,1337.1104 Q1113.833,1328.749 1111.9077,1318.9048 Q1109.9824,1309.0605 1108.561,1299.5186 Q1107.1396,1289.9766 1105.7334,1280.8252 Q1104.3271,1271.6738 1103.2642,1264.396 Q1102.2012,1257.1182 1100.9761,1250.2573 Q1099.751,1243.3965 1098.6919,1236.541 Q1097.6328,1229.6855 1096.581,1223.2197 Q1095.5293,1216.7539 1094.3013,1211.7476 Q1093.0732,1206.7412 1092.0156,1201.7983 Q1090.958,1196.8555 1089.9575,1192.8608 Q1088.957,1188.8662 1087.5972,1184.0405 Q1086.2373,1179.2148 1084.7363,1174.6724 Q1083.2354,1170.1299 1081.8276,1166.6797 Q1080.4199,1163.2295 1078.6709,1158.6875 Q1076.9219,1154.1455 1074.9932,1149.5767 Q1073.0645,1145.0078 1070.9585,1140.8071 Q1068.8525,1136.6064 1066.9165,1131.6782 Q1064.9805,1126.75 1063.2163,1122.165 Q1061.4521,1117.5801 1059.5303,1113.398 Q1057.6084,1109.2158 1055.1553,1104.2715 Q1052.7021,1099.3271 1050.0654,1093.624 Q1047.4287,1087.9209 1044.4453,1082.1602 Q1041.4619,1076.3994 1038.6709,1070.4111 Q1035.8799,1064.4229 1033.0479,1058.6577 Q1030.2158,1052.8926 1027.7437,1047.5459 Q1025.2715,1042.1992 1022.9839,1037.6143 Q1020.6963,1033.0293 1018.75244,1028.8271 Q1016.8086,1024.625 1014.8755,1021.55176 Q1012.9424,1018.4786 1011.01074,1015.43506 Q1009.0791,1012.3916 1006.9707,1010.0845 Q1004.86224,1007.77734 1002.5918,1005.5029 Q1000.3213,1003.2285 996.1543,999.08984 Q991.9873,994.9512 987.583,991.11914 Q983.1787,987.2871 979.14307,983.8638 Q975.1074,980.4405 971.06396,976.6421 Q967.02057,972.84375 962.7964,969.397 Q958.57227,965.9502 954.34717,962.88916 Q950.122,959.82806 946.0747,956.78125 Q942.02734,953.7344 937.98486,951.0596 Q933.9423,948.38477 930.0747,945.7212 Q926.20703,943.0577 922.6826,940.7632 Q919.1582,938.46875 915.13086,935.81396 Q911.1035,933.1592 907.4253,930.8779 Q903.74713,928.5967 900.0293,925.92334 Q896.3115,923.25 892.9878,920.604 Q889.6641,917.95795 885.8179,914.5581 Q881.9717,911.1582 877.7637,907.73 Q873.55566,904.30176 869.2744,900.7363 Q864.99316,897.1709 860.6787,893.7832 Q856.36426,890.3955 851.40186,886.2871 Q846.4394,882.1787 841.3882,878.0259 Q836.3369,873.8731 830.90967,869.3237 Q825.4824,864.7744 819.855,859.8291 Q814.2275,854.88385 808.81494,850.337 Q803.40234,845.7901 797.9453,841.2129 Q792.4883,836.63574 787.1826,832.4116 Q781.87695,828.18744 777.6299,824.7397 Q773.3828,821.29193 768.3159,817.4966 Q763.249,813.7012 759.3071,810.2324 Q755.36523,806.7637 751.1797,803.355 Q746.9942,799.9463 742.26373,796.1489 Q737.53326,792.3516 733.1328,788.9155 Q728.7324,785.4795 724.334,781.68066 Q719.93555,777.88184 715.53906,773.7031 Q711.1426,769.52435 706.9209,765.3374 Q702.6992,761.1504 697.50244,755.89844 Q692.30566,750.64655 687.29004,744.85693 Q682.2744,739.0674 677.56836,733.04004 Q672.8623,727.0127 668.4595,721.6592 Q664.05664,716.30566 659.8247,710.96484 Q655.5928,705.624 650.69775,699.92773 Q645.80273,694.23145 641.396,688.89307 Q636.98926,683.5547 632.416,678.58057 Q627.8428,673.60645 623.2661,667.91064 Q618.68945,662.21484 614.1279,656.145 Q609.5664,650.0752 604.78955,642.0796 Q600.0127,634.084 596.4912,628.3545 Q592.9697,622.625 588.7993,615.84766 Q584.6289,609.0703 579.7163,601.4546 Q574.8037,593.83887 570.73145,587.32666 Q566.6592,580.81445 562.6167,574.7075 Q558.5742,568.6006 554.1846,562.4961 Q549.7949,556.3916 545.74805,551.04443 Q541.7012,545.69727 538.1289,541.0508 Q534.55664,536.4043 530.8633,531.0825 Q527.1699,525.76074 523.6494,520.42773 Q520.1289,515.0947 515.584,508.27588 Q511.03906,501.45703 507.53223,495.4043 Q504.0254,489.35156 500.13184,482.4541 Q496.23828,475.5566 492.72656,469.0952 Q489.21484,462.63382 485.52197,456.51904 Q481.8291,450.40427 478.47656,444.3037 Q475.12402,438.20312 472.13037,433.2295 Q469.13672,428.25583 466.48926,423.6733 Q463.8418,419.0908 461.54834,414.5205 Q459.25485,409.9502 457.4839,405.75146 Q455.7129,401.55273 454.46924,396.99268 Q453.22562,392.43262 451.99414,387.48584 Q450.7627,382.53906 450.39014,377.96533 Q450.0176,373.3916 449.8374,368.81934 Q449.65723,364.24707 449.82324,359.708 Q449.98926,355.16898 450.16406,351.7222 Q450.33887,348.27542 450.51562,345.19873 Q450.69238,342.12207 451.0376,339.44922 Q451.3828,336.77634 451.56592,334.4585 Q451.74902,332.14062 451.9248,330.5996 Q452.1006,329.05862 452.44727,327.53662 Q452.79395,326.01465 452.9746,324.49072 Q453.15527,322.9668 453.33105,321.44238 Q453.50684,319.91797 453.68262,318.39404 Q453.8584,316.87012 454.03418,315.7168 Q454.20996,314.56348 454.38477,313.42773 Q454.55957,312.292 454.73633,311.51465 Q454.9131,310.7373 454.91748,310.34717 Q454.92188,309.95703 454.92188,309.94727 Q454.92188,309.9375 454.92188,309.9375 Q454.92188,309.9375 454.92188,309.9375 Q454.92188,309.9375 454.92188,309.9375 Q454.92188,309.9375 454.92188,309.9375 Q454.92188,309.9375 454.92188,309.9375 Q454.92188,309.9375 454.92188,309.9375 Q454.92188,309.9375 455.625,309.55664 L456.32812,309.17578 " fill="none" stroke="#000000" stroke-width="54.6" stroke-linecap="round"/><path d="M369.4922,240.6211 Q369.4922,240.6211 369.4922,240.6211 Q369.4922,240.6211 369.4922,240.6211 Q369.4922,240.6211 369.4922,240.6211 Q369.4922,240.6211 369.4922,240.6211 Q369.4922,240.6211 369.4922,240.6211 Q369.4922,240.6211 369.4922,240.6211 Q369.4922,240.6211 369.4922,240.6211 Q369.4922,240.6211 369.4922,240.6211 Q369.4922,240.6211 363.74512,242.0874 Q357.99805,243.5537 353.95264,245.04883 Q349.90723,246.54395 346.0249,248.4292 Q342.14258,250.31445 337.25293,254.03857 Q332.36328,257.7627 328.43115,261.2207 Q324.49902,264.6787 318.81836,270.97803 Q313.1377,277.27734 308.06006,283.32373 Q302.98242,289.37012 298.34082,295.51465 Q293.69922,301.65918 289.4629,309.5503 Q285.22656,317.4414 281.99512,324.7422 Q278.76367,332.04294 276.4463,338.8789 Q274.1289,345.71484 272.50586,352.57324 Q270.8828,359.43167 269.5039,366.45508 Q268.125,373.47852 267.34717,380.52148 Q266.56934,387.56445 266.19336,394.48535 Q265.81738,401.40625 266.1338,407.917 Q266.4502,414.42773 267.13477,420.5249 Q267.81934,426.62204 268.84766,431.9497 Q269.87598,437.27734 271.4331,442.271 Q272.99023,447.26465 274.5703,450.77148 Q276.1504,454.27832 278.2334,457.71143 Q280.3164,461.14453 282.9414,464.23242 Q285.5664,467.3203 289.7622,470.77295 Q293.958,474.2256 299.5708,477.67578 Q305.1836,481.12598 311.49805,483.8169 Q317.8125,486.50778 323.13477,488.44043 Q328.45703,490.37305 334.0586,492.27246 Q339.66016,494.17184 345.46484,495.70752 Q351.26953,497.24316 358.10352,499.13965 Q364.9375,501.03613 371.44727,503.31055 Q377.95703,505.58496 385.32178,507.5 Q392.68652,509.41504 399.56055,510.94873 Q406.43457,512.4824 412.5581,513.2363 Q418.68164,513.99023 425.88623,514.4048 Q433.09085,514.81934 439.27832,514.0874 Q445.46582,513.35547 452.8125,512.22314 Q460.15918,511.09082 466.68408,509.20752 Q473.209,507.32422 478.80957,505.43604 Q484.41016,503.54785 489.73975,501.25684 Q495.06934,498.96582 499.30127,496.31982 Q503.5332,493.67383 506.8706,490.29883 Q510.208,486.92383 515.1304,481.41992 Q520.05273,475.91602 524.4536,469.2881 Q528.8545,462.66016 531.99316,456.30078 Q535.13184,449.9414 538.1074,443.15186 Q541.083,436.3623 543.57715,428.0503 Q546.0713,419.73828 547.3657,412.44482 Q548.66016,405.15134 548.3911,396.82764 Q548.1221,388.5039 546.9502,380.9253 Q545.7783,373.34668 543.3716,365.66064 Q540.96484,357.9746 538.00684,351.44434 Q535.0488,344.91406 530.8965,338.0786 Q526.74414,331.24316 521.9292,324.83887 Q517.11426,318.43457 511.47314,312.2456 Q505.83206,306.05664 498.188,299.21875 Q490.5439,292.38086 480.95508,285.8706 Q471.3662,279.36035 460.70752,273.34668 Q450.04883,267.333 439.37354,262.54248 Q428.69824,257.75195 417.4795,253.54541 Q406.2607,249.33887 395.95898,246.27637 Q385.65723,243.21387 376.21338,241.23682 Q366.76956,239.25977 358.95947,238.44873 Q351.1494,237.63771 344.8921,237.23828 Q338.63477,236.83885 334.88086,237.1909 Q331.12695,237.54295 328.6416,237.19775 Q326.15625,236.85254 326.02734,236.83252 L325.89844,236.8125 " fill="none" stroke="#01a923" stroke-width="54.6" stroke-linecap="round"/><path d="M710.15625,239.85938 Q710.15625,239.85938 710.15625,239.85938 Q710.15625,239.85938 710.15625,239.85938 Q710.15625,239.85938 710.15625,239.85938 Q710.15625,239.85938 710.15625,239.85938 Q710.15625,239.85938 710.15625,239.85938 Q710.15625,239.85938 710.15625,239.85938 Q710.15625,239.85938 702.5283,244.74023 Q694.9004,249.62108 690.6904,252.28467 Q686.48047,254.94826 682.9873,256.8506 Q679.49414,258.75293 675.31885,261.74365 Q671.14355,264.73438 667.8008,266.66797 Q664.458,268.60156 659.813,271.9292 Q655.16797,275.25684 650.7075,278.35742 Q646.2471,281.458 641.6665,284.88135 Q637.08594,288.3047 632.2329,292.41504 Q627.3799,296.5254 622.7793,300.7246 Q618.1787,304.92383 612.9175,310.2207 Q607.65625,315.51758 602.25,322.25684 Q596.84375,328.9961 592.3623,335.89746 Q587.88086,342.79883 584.01025,349.61523 Q580.13965,356.43164 577.5923,363.68066 Q575.0449,370.9297 573.2412,377.84912 Q571.4375,384.76855 570.52686,392.66846 Q569.6162,400.56833 569.40625,408.93945 Q569.1963,417.31055 569.6919,426.44434 Q570.1875,435.57812 571.0513,443.99072 Q571.91504,452.40332 572.7871,460.35693 Q573.6592,468.31055 575.19727,476.98975 Q576.73535,485.66895 579.2002,494.25146 Q581.66504,502.834 584.6416,510.8623 Q587.61816,518.8906 590.72266,524.9424 Q593.82715,530.99414 597.7134,536.4385 Q601.5996,541.8828 605.5962,546.0713 Q609.5928,550.25977 615.29004,554.79395 Q620.9873,559.3281 627.95166,563.1714 Q634.916,567.01465 641.59033,569.0083 Q648.26465,571.00195 656.042,571.1045 Q663.81934,571.20703 673.26514,569.0093 Q682.71094,566.8115 691.5376,562.40967 Q700.36426,558.0078 709.6626,551.99805 Q718.96094,545.9883 728.6616,538.41455 Q738.3623,530.8408 747.5166,522.5127 Q756.6709,514.1846 765.4868,505.43555 Q774.30273,496.68652 782.19434,486.2046 Q790.08594,475.72266 795.8335,466.15332 Q801.58105,456.58395 806.0762,447.00732 Q810.5713,437.43066 812.31836,428.93408 Q814.0654,420.4375 814.3091,411.70508 Q814.55273,402.97263 812.7207,393.8374 Q810.8887,384.70215 807.78516,376.65234 Q804.6817,368.60254 800.3453,360.60205 Q796.00885,352.60156 790.0991,344.22803 Q784.18945,335.8545 777.2114,328.20605 Q770.23346,320.55762 762.0513,312.23682 Q753.86914,303.91602 744.2676,296.03174 Q734.66595,288.14746 723.8135,281.0957 Q712.96094,274.04395 701.3374,269.04297 Q689.71387,264.042 676.9634,261.60742 Q664.2129,259.17285 649.6089,260.4834 Q635.0049,261.79395 606.5747,264.7627 Q578.14453,267.73145 576.6504,267.8872 L575.15625,268.04297 " fill="none" stroke="#01a923" stroke-width="54.6" stroke-linecap="round"/><path d="M470.03906,384.58594 Q470.03906,384.58594 470.03906,384.58594 Q470.03906,384.58594 470.03906,384.58594 Q470.03906,384.58594 470.03906,384.58594 Q470.03906,384.58594 470.03906,384.58594 Q470.03906,384.58594 470.03906,384.58594 Q470.03906,384.58594 470.03906,384.58594 Q470.03906,384.58594 470.03906,384.58594 L470.03906,384.58594 L470.03906,386.58594 L471.03906,386.58594 L471.03906,384.58594 " fill="none" stroke="#01a923" stroke-width="54.6" stroke-linecap="round"/><path d="M737.5781,388.39453 Q737.5781,388.39453 737.5781,388.39453 Q737.5781,388.39453 737.5781,388.39453 Q737.5781,388.39453 737.5781,388.39453 Q737.5781,388.39453 737.5781,388.39453 Q737.5781,388.39453 737.5781,388.39453 Q737.5781,388.39453 737.5781,388.39453 Q737.5781,388.39453 737.5781,388.39453 Q737.5781,388.39453 737.5781,388.39453 L737.5781,388.39453 L737.5781,390.39453 L738.5781,390.39453 L738.5781,388.39453 " fill="none" stroke="#01a923" stroke-width="54.6" stroke-linecap="round"/><path d="M503.78906,839.33203 Q503.78906,839.33203 503.78906,839.33203 Q503.78906,839.33203 503.78906,839.33203 Q503.78906,839.33203 503.78906,839.33203 Q503.78906,839.33203 503.78906,839.33203 Q503.78906,839.33203 503.78906,839.33203 Q503.78906,839.33203 503.78906,839.33203 Q503.78906,839.33203 503.78906,839.33203 Q503.78906,839.33203 503.78906,839.33203 Q503.78906,839.33203 513.84863,836.7627 Q523.9082,834.19336 529.0552,833.374 Q534.20215,832.5547 538.8301,831.06055 Q543.458,829.5664 548.33887,828.4126 Q553.2197,827.2588 557.1455,826.47705 Q561.0713,825.6953 565.0874,824.937 Q569.1035,824.1787 572.64746,823.77734 Q576.1914,823.376 579.6509,823.35596 Q583.11035,823.33594 586.3198,822.9785 Q589.5293,822.6211 592.8867,822.59766 Q596.24414,822.5742 599.9375,822.5742 Q603.63086,822.5742 608.3467,822.5742 Q613.0625,822.5742 617.12744,822.21094 Q621.1924,821.84766 625.38965,821.8301 Q629.5869,821.8125 633.11426,821.45264 Q636.6416,821.0928 636.8364,821.0718 L637.03125,821.05084 " fill="none" stroke="#01a923" stroke-width="54.6" stroke-linecap="round"/><path d="M582.1875,1646.7538 Q582.1875,1646.7538 582.1875,1646.7538 Q582.1875,1646.7538 582.1875,1646.7538 Q582.1875,1646.7538 582.1875,1646.7538 Q582.1875,1646.7538 582.1875,1646.7538 Q582.1875,1646.7538 582.1875,1646.7538 Q582.1875,1646.7538 582.1875,1646.7538 Q582.1875,1646.7538 582.1875,1646.7538 Q582.1875,1646.7538 582.1875,1646.7538 Q582.1875,1646.7538 582.1875,1646.7538 Q582.1875,1646.7538 582.1875,1646.7538 Q582.1875,1646.7538 582.1875,1646.7538 Q582.1875,1646.7538 582.1875,1646.7538 Q582.1875,1646.7538 582.1953,1657.1415 Q582.2031,1667.5292 581.7041,1675.2539 Q581.2051,1682.9785 580.17236,1691.0869 Q579.13965,1699.1953 576.7749,1710.3438 Q574.41016,1721.4922 571.9238,1731.9546 Q569.4375,1742.417 566.15137,1754.8359 Q562.86523,1767.2548 559.0259,1781.2666 Q555.1865,1795.2783 551.21533,1809.1543 Q547.24414,1823.0303 543.4175,1837.1777 Q539.5908,1851.3252 536.2256,1866.1855 Q532.86035,1881.0459 527.03076,1904.835 Q521.2012,1928.6241 518.7241,1940.4263 Q516.2471,1952.2284 514.31885,1962.0776 Q512.3906,1971.9268 510.59277,1980.898 Q508.79492,1989.869 507.26025,1996.5483 Q505.7256,2003.2275 504.31006,2009.002 Q502.89453,2014.7764 501.81787,2019.7793 Q500.7412,2024.7822 500.02393,2028.9834 Q499.30664,2033.1846 498.93164,2037.751 Q498.55664,2042.3174 498.36865,2045.8467 Q498.18066,2049.376 498.17236,2052.8428 Q498.16406,2056.3096 498.33252,2058.9917 Q498.50098,2061.6738 498.67627,2064.3325 Q498.85156,2066.9912 499.02783,2068.9292 Q499.2041,2070.8672 499.5464,2073.1274 Q499.88867,2075.3877 500.23975,2077.668 Q500.59085,2079.9482 500.7754,2082.6 Q500.95996,2085.252 500.96826,2088.2373 Q500.97656,2091.2227 500.97656,2094.25 Q500.97656,2097.2773 501.14453,2100.394 Q501.3125,2103.5107 501.48828,2106.1938 Q501.66406,2108.877 501.83838,2110.44 Q502.0127,2112.003 502.02197,2112.8086 Q502.03125,2113.6143 502.03125,2113.651 Q502.03125,2113.6875 502.03125,2113.6875 Q502.03125,2113.6875 502.03125,2113.6875 Q502.03125,2113.6875 502.03125,2113.6875 Q502.03125,2113.6875 502.03125,2113.6875 Q502.03125,2113.6875 502.03125,2113.6875 Q502.03125,2113.6875 502.03125,2113.6875 Q502.03125,2113.6875 502.03125,2113.6875 Q502.03125,2113.6875 502.03125,2113.6875 Q502.03125,2113.6875 502.03125,2113.6875 Q502.03125,2113.6875 502.03125,2113.6875 Q502.03125,2113.6875 502.03125,2113.6875 Q502.03125,2113.6875 502.03125,2113.6875 Q502.03125,2113.6875 502.03125,2113.6875 Q502.03125,2113.6875 502.03125,2113.6875 Q502.03125,2113.6875 502.03125,2113.6875 Q502.03125,2113.6875 502.03125,2113.6875 Q502.03125,2113.6875 502.03125,2113.6875 Q502.03125,2113.6875 502.03125,2113.6875 Q502.03125,2113.6875 502.03125,2114.0684 Q502.03125,2114.4492 502.03125,2114.4492 Q502.03125,2114.4492 502.03125,2114.4492 Q502.03125,2114.4492 502.03125,2114.4492 Q502.03125,2114.4492 502.03125,2114.4492 Q502.03125,2114.4492 502.03125,2114.4492 Q502.03125,2114.4492 502.03125,2114.4492 Q502.03125,2114.4492 502.03125,2114.4492 Q502.03125,2114.4492 502.03125,2114.4492 Q502.03125,2114.4492 502.03125,2114.4492 Q502.03125,2114.4492 502.03125,2114.4492 Q502.03125,2114.4492 502.03125,2114.4492 Q502.03125,2114.4492 502.03125,2114.4492 Q502.03125,2114.4492 502.03125,2114.4492 Q502.03125,2114.4492 502.03125,2114.4492 Q502.03125,2114.4492 502.03125,2114.4492 Q502.03125,2114.4492 502.03125,2114.4492 Q502.03125,2114.4492 502.03125,2114.4492 Q502.03125,2114.4492 502.03125,2114.4492 Q502.03125,2114.4492 502.03125,2114.4492 Q502.03125,2114.4492 502.03125,2114.4492 Q502.03125,2114.4492 502.03125,2114.4492 Q502.03125,2114.4492 502.03125,2114.4492 Q502.03125,2114.4492 502.03125,2114.4492 Q502.03125,2114.4492 502.37402,2114.83 Q502.71677,2115.211 502.7256,2115.211 Q502.73438,2115.211 502.73438,2115.211 Q502.73438,2115.211 502.73438,2115.211 Q502.73438,2115.211 502.73438,2115.211 Q502.73438,2115.211 505.1626,2117.4678 Q507.5908,2119.7246 509.4707,2120.8447 Q511.3506,2121.9648 513.58545,2122.732 Q515.8203,2123.499 518.4448,2124.2632 Q521.06934,2125.0273 524.2217,2125.7935 Q527.374,2126.5596 530.6802,2127.3154 Q533.9863,2128.0713 538.26953,2128.4702 Q542.55273,2128.8691 547.167,2128.8955 Q551.78125,2128.9219 557.3628,2128.5615 Q562.94434,2128.2012 569.43066,2127.8188 Q575.917,2127.4365 581.90576,2127.0566 Q587.89453,2126.6768 594.89453,2125.9321 Q601.89453,2125.1875 609.0737,2124.4277 Q616.2529,2123.668 624.18896,2122.5361 Q632.125,2121.4043 638.9927,2120.63 Q645.86035,2119.8555 652.3721,2118.733 Q658.8838,2117.6104 664.7925,2116.8198 Q670.7012,2116.0293 676.26465,2114.915 Q681.8281,2113.8008 686.0967,2112.663 Q690.36523,2111.5254 693.5845,2110.7437 Q696.8037,2109.962 698.49756,2109.5542 Q700.1914,2109.1465 701.08984,2109.1318 Q701.9883,2109.1172 702.0293,2109.1172 Q702.0703,2109.1172 702.0703,2109.1172 Q702.0703,2109.1172 702.0703,2109.1172 L702.0703,2109.1172 " fill="none" stroke="#000000" stroke-width="54.6" stroke-linecap="round"/><path d="M477.0703,2107.5938 Q477.0703,2107.5938 477.0703,2107.5938 Q477.0703,2107.5938 477.0703,2107.5938 Q477.0703,2107.5938 477.0703,2107.5938 Q477.0703,2107.5938 477.0703,2107.5938 Q477.0703,2107.5938 477.0703,2107.5938 Q477.0703,2107.5938 477.0703,2107.5938 Q477.0703,2107.5938 477.0703,2107.5938 Q477.0703,2107.5938 477.0703,2107.5938 Q477.0703,2107.5938 483.96582,2112.312 Q490.86133,2117.0303 495.83398,2120.371 Q500.80667,2123.712 508.23877,2128.308 Q515.6709,2132.9043 523.6289,2138.2764 Q531.5869,2143.6484 539.7593,2149.0342 Q547.93164,2154.42 556.20654,2159.3628 Q564.48145,2164.3057 572.167,2168.8447 Q579.85254,2173.3838 589.05566,2178.357 Q598.2588,2183.33 606.48975,2187.8872 Q614.7207,2192.4443 622.6299,2196.627 Q630.53906,2200.8096 637.71924,2204.6035 Q644.8994,2208.3975 650.8325,2211.811 Q656.7656,2215.2246 662.0166,2218.2593 Q667.2676,2221.294 670.91016,2223.162 Q674.55273,2225.0303 682.00195,2228.873 L689.4512,2232.7158 " fill="none" stroke="#000000" stroke-width="54.6" stroke-linecap="round"/><path d="M463.71094,2093.121 Q463.71094,2093.121 463.71094,2093.121 Q463.71094,2093.121 463.71094,2093.121 Q463.71094,2093.121 463.71094,2093.121 Q463.71094,2093.121 463.71094,2093.121 Q463.71094,2093.121 463.34766,2095.8774 Q462.98438,2098.6338 462.6333,2104.831 Q462.28226,2111.0283 462.4756,2116.7476 Q462.66895,2122.4668 463.5713,2128.96 Q464.47363,2135.4531 465.89746,2143.1074 Q467.3213,2150.7617 469.45654,2159.1768 Q471.5918,2167.5918 474.0547,2176.7202 Q476.51758,2185.8486 478.93018,2193.269 Q481.3428,2200.6895 483.26367,2208.2793 Q485.18457,2215.8691 487.12158,2222.3462 Q489.0586,2228.8232 490.63672,2234.1426 Q492.21484,2239.462 493.6206,2243.6445 Q495.02634,2247.8271 496.79248,2252.8008 Q498.5586,2257.7744 501.46094,2262.958 Q504.36328,2268.1416 505.5918,2269.31 Q506.8203,2270.4785 506.88672,2270.54 L506.95312,2270.6016 " fill="none" stroke="#000000" stroke-width="54.6" stroke-linecap="round"/><path d="M851.4844,1720.6406 Q851.4844,1720.6406 851.4844,1720.6406 Q851.4844,1720.6406 851.4844,1720.6406 Q851.4844,1720.6406 851.4844,1720.6406 Q851.4844,1720.6406 851.4844,1720.6406 Q851.4844,1720.6406 851.4844,1720.6406 Q851.4844,1720.6406 851.4844,1720.6406 Q851.4844,1720.6406 851.4844,1720.6406 Q851.4844,1720.6406 851.4844,1720.6406 Q851.4844,1720.6406 851.4844,1720.6406 Q851.4844,1720.6406 851.4844,1720.6406 Q851.4844,1720.6406 851.4844,1720.6406 Q851.4844,1720.6406 851.4844,1720.6406 Q851.4844,1720.6406 851.4844,1720.6406 Q851.4844,1720.6406 849.07764,1728.4546 Q846.6709,1736.2687 845.6094,1740.8188 Q844.54785,1745.3691 843.66113,1749.5752 Q842.7745,1753.7812 841.9009,1758.3052 Q841.02734,1762.8292 840.313,1769.2261 Q839.59863,1775.623 839.06104,1781.7603 Q838.52344,1787.8975 838.33154,1794.3682 Q838.13965,1800.8389 837.96484,1806.915 Q837.79,1812.9912 837.61475,1820.8872 Q837.43945,1828.7833 837.0952,1835.3496 Q836.7509,1841.916 836.23145,1849.4888 Q835.712,1857.0615 835.35254,1863.582 Q834.9931,1870.1025 834.8086,1875.5137 Q834.624,1880.9248 834.2842,1886.1909 Q833.94434,1891.457 833.42285,1896.8203 Q832.90137,1902.1836 832.5415,1906.7891 Q832.18164,1911.3944 831.49805,1916.31 Q830.81445,1921.2256 830.27686,1925.4629 Q829.73926,1929.7002 829.5469,1934.5986 Q829.3545,1939.4971 829.17676,1943.4077 Q828.999,1947.3184 828.82227,1950.4155 Q828.6455,1953.5127 828.4702,1956.1821 Q828.2949,1958.8516 828.2881,1961.1455 Q828.28125,1963.4395 828.1128,1964.6284 Q827.94434,1965.8174 827.76904,1966.958 Q827.59375,1968.0985 827.41943,1969.5923 Q827.2451,1971.0859 826.90137,1972.6152 Q826.5576,1974.1445 826.37354,1976.0264 Q826.18945,1977.9082 825.5127,1980.1763 Q824.83594,1982.4443 824.3013,1984.3628 Q823.76666,1986.2812 823.07275,1987.8237 Q822.3789,1989.3662 822.0093,1990.1675 Q821.63965,1990.9689 821.6206,1991.0098 Q821.60156,1991.0508 821.60156,1991.0508 Q821.60156,1991.0508 821.60156,1991.0508 Q821.60156,1991.0508 821.60156,1991.0508 Q821.60156,1991.0508 821.60156,1991.0508 Q821.60156,1991.0508 821.60156,1991.0508 Q821.60156,1991.0508 821.60156,1991.0508 Q821.60156,1991.0508 821.60156,1991.0508 Q821.60156,1991.0508 821.60156,1991.0508 Q821.60156,1991.0508 821.60156,1991.0508 Q821.60156,1991.0508 821.60156,1991.0508 Q821.60156,1991.0508 821.60156,1991.0508 Q821.60156,1991.0508 821.60156,1991.0508 Q821.60156,1991.0508 821.60156,1991.0508 Q821.60156,1991.0508 821.60156,1991.0508 Q821.60156,1991.0508 821.60156,1991.0508 Q821.60156,1991.0508 820.7427,1992.9116 Q819.8837,1994.7725 819.35986,1996.272 Q818.83594,1997.7716 818.4795,1998.9219 Q818.12305,2000.0723 817.938,2001.935 Q817.7529,2003.798 817.41016,2005.7047 Q817.0674,2007.6115 817.0493,2008.435 Q817.03125,2009.2588 817.03125,2011.1001 Q817.03125,2012.9414 817.19727,2013.7612 Q817.3632,2014.5812 817.7041,2015.6992 Q818.0449,2016.8174 818.72656,2017.9575 Q819.40826,2019.0977 819.7842,2019.5278 Q820.1601,2019.9581 823.6763,2021.7817 Q827.1924,2023.6055 831.7246,2024.79 Q836.25684,2025.9746 842.1665,2026.394 Q848.07623,2026.8135 853.8706,2026.4717 Q859.66504,2026.1299 866.13916,2025.7485 Q872.61334,2025.3672 879.4575,2024.6245 Q886.30176,2023.8818 892.7529,2022.7705 Q899.2041,2021.6592 905.7866,2020.8843 Q912.36914,2020.1094 919.3745,2019.3296 Q926.3799,2018.5498 932.9072,2017.7871 Q939.4346,2017.0245 945.25977,2016.9868 Q951.08496,2016.9492 956.0425,2016.9492 Q961.00006,2016.9492 964.9307,2016.5879 Q968.8614,2016.2266 972.3921,2016.207 Q975.92285,2016.1875 978.5991,2015.8276 Q981.2754,2015.4678 982.4199,2015.4468 Q983.5644,2015.4258 984.2866,2015.4258 Q985.0088,2015.4258 985.04346,2015.4258 L985.0781,2015.4258 " fill="none" stroke="#000000" stroke-width="54.6" stroke-linecap="round"/><path d="M778.0078,2019.9961 Q778.0078,2019.9961 778.0078,2019.9961 Q778.0078,2019.9961 778.0078,2019.9961 Q778.0078,2019.9961 778.0078,2019.9961 Q778.0078,2019.9961 778.0078,2019.9961 Q778.0078,2019.9961 779.978,2025.8164 Q781.94824,2031.6367 785.2998,2040.8022 Q788.6513,2049.9678 792.1841,2059.9219 Q795.71686,2069.876 799.94336,2080.1533 Q804.1699,2090.4307 808.3994,2099.5757 Q812.6289,2108.7207 816.8491,2117.0864 Q821.06934,2125.4521 825.1079,2133.8296 Q829.1465,2142.207 832.4551,2148.997 Q835.76373,2155.787 839.6026,2162.5776 Q843.44147,2169.3682 846.28125,2175.5303 Q849.1211,2181.6924 851.75977,2187.0215 Q854.39844,2192.3506 855.96045,2195.7422 Q857.52246,2199.1338 858.209,2201.3984 Q858.8955,2203.663 859.24023,2204.394 Q859.58496,2205.125 859.58496,2205.125 L859.58496,2205.125 " fill="none" stroke="#000000" stroke-width="54.6" stroke-linecap="round"/><path d="M799.8047,1988.7656 Q799.8047,1988.7656 799.8047,1988.7656 Q799.8047,1988.7656 799.8047,1988.7656 Q799.8047,1988.7656 799.8047,1988.7656 Q799.8047,1988.7656 799.8047,1988.7656 Q799.8047,1988.7656 799.8047,1988.7656 Q799.8047,1988.7656 799.8047,1988.7656 Q799.8047,1988.7656 803.36816,1993.0122 Q806.93164,1997.2589 810.75977,2001.7822 Q814.5879,2006.3057 819.5171,2010.8809 Q824.4462,2015.456 833.00146,2022.0181 Q841.5567,2028.5802 850.2955,2034.6294 Q859.03424,2040.6787 867.6328,2045.9951 Q876.23145,2051.3115 884.87744,2056.664 Q893.5235,2062.0166 902.4619,2068.4824 Q911.4004,2074.9482 920.5664,2081.44 Q929.7324,2087.9316 937.8281,2094.0376 Q945.92377,2100.1436 953.5864,2106.184 Q961.249,2112.2246 968.0386,2117.2559 Q974.8281,2122.287 981.5386,2127.2607 Q988.249,2132.2344 990.53076,2134.0059 L992.8125,2135.7773 " fill="none" stroke="#000000" stroke-width="54.6" stroke-linecap="round"/><path d="M520.66406,1126.5 Q520.66406,1126.5 520.66406,1126.5 Q520.66406,1126.5 520.66406,1126.5 Q520.66406,1126.5 520.66406,1126.5 Q520.66406,1126.5 520.66406,1126.5 Q520.66406,1126.5 520.66406,1126.5 Q520.66406,1126.5 520.66406,1126.5 Q520.66406,1126.5 520.66406,1126.5 Q520.66406,1126.5 520.66406,1126.5 Q520.66406,1126.5 520.66406,1126.5 Q520.66406,1126.5 520.66406,1126.5 Q520.66406,1126.5 520.66406,1126.5 Q520.66406,1126.5 520.66406,1126.5 Q520.66406,1126.5 515.3052,1133.771 Q509.9463,1141.042 505.31592,1146.8433 Q500.68555,1152.6445 495.0786,1159.1191 Q489.47168,1165.5938 484.2251,1171.293 Q478.97852,1176.9922 473.38623,1182.6885 Q467.79395,1188.3848 462.17725,1194.4507 Q456.56055,1200.5166 451.0625,1207.0181 Q445.56445,1213.5195 441.13623,1219.249 Q436.708,1224.9785 433.3213,1229.5986 Q429.9346,1234.2188 427.61035,1237.3237 Q425.28613,1240.4287 423.64062,1242.4253 Q421.99512,1244.4219 420.7578,1246.3159 Q419.5205,1248.21 418.4585,1249.3857 Q417.39648,1250.5615 416.84766,1251.3369 Q416.29883,1252.1123 416.2744,1252.148 Q416.25,1252.1836 416.25,1252.1836 Q416.25,1252.1836 416.25,1252.1836 Q416.25,1252.1836 416.25,1252.1836 Q416.25,1252.1836 416.25,1252.1836 Q416.25,1252.1836 416.25,1252.1836 Q416.25,1252.1836 416.25,1252.1836 Q416.25,1252.1836 416.25,1252.1836 Q416.25,1252.1836 416.25,1252.1836 Q416.25,1252.1836 416.25,1252.1836 Q416.25,1252.1836 416.25,1252.1836 Q416.25,1252.1836 416.25,1252.1836 Q416.25,1252.1836 416.25,1252.1836 Q416.25,1252.1836 416.25,1252.1836 Q416.25,1252.1836 418.97217,1254.7681 Q421.69434,1257.3525 424.46826,1259.978 Q427.24222,1262.6035 430.88916,1265.6294 Q434.53613,1268.6553 438.88477,1272.7788 Q443.2334,1276.9023 447.91943,1281.4126 Q452.60547,1285.9229 458.34277,1291.9253 Q464.0801,1297.9277 470.4204,1305.5073 Q476.7607,1313.0869 481.7583,1319.2632 Q486.7559,1325.4396 491.52637,1331.5527 Q496.29684,1337.666 500.35303,1343.0073 Q504.40918,1348.3486 508.3003,1353.3389 Q512.1914,1358.3291 515.88477,1363.6323 Q519.5781,1368.9354 522.7705,1373.9082 Q525.9629,1378.8809 529.1362,1384.2085 Q532.3096,1389.536 535.1377,1394.8652 Q537.9658,1400.1943 540.43604,1404.7876 Q542.90625,1409.3809 544.87305,1413.6025 Q546.83984,1417.8242 548.6035,1420.9224 Q550.3672,1424.0205 552.1157,1427.0513 Q553.86426,1430.082 555.1323,1432.7866 Q556.4004,1435.4913 557.13135,1436.7124 Q557.8623,1437.9336 558.5654,1439.0762 Q559.26855,1440.2188 559.8047,1441.3618 Q560.3408,1442.5049 560.5327,1442.5591 Q560.7246,1442.6134 560.7334,1442.6134 Q560.7422,1442.6134 560.7422,1442.6134 Q560.7422,1442.6134 561.43115,1443.7246 Q562.1201,1444.8359 562.3047,1445.9746 Q562.48926,1447.1132 563.17285,1449.352 Q563.85645,1451.5908 564.05225,1452.4121 Q564.24805,1453.2334 564.2529,1453.2554 L564.2578,1453.2772 " fill="none" stroke="#000000" stroke-width="54.6" stroke-linecap="round"/><path d="M1032.8906,1095.2695 Q1032.8906,1095.2695 1032.8906,1095.2695 Q1032.8906,1095.2695 1032.8906,1095.2695 Q1032.8906,1095.2695 1032.8906,1095.2695 Q1032.8906,1095.2695 1032.8906,1095.2695 Q1032.8906,1095.2695 1032.8906,1095.2695 Q1032.8906,1095.2695 1032.8906,1095.2695 Q1032.8906,1095.2695 1032.8906,1095.2695 Q1032.8906,1095.2695 1032.8906,1095.2695 Q1032.8906,1095.2695 1032.8906,1095.2695 Q1032.8906,1095.2695 1032.8906,1095.2695 Q1032.8906,1095.2695 1032.8906,1095.2695 Q1032.8906,1095.2695 1032.8906,1095.2695 Q1032.8906,1095.2695 1032.8906,1095.2695 Q1032.8906,1095.2695 1032.8906,1095.2695 Q1032.8906,1095.2695 1032.8906,1095.2695 Q1032.8906,1095.2695 1032.8906,1095.2695 Q1032.8906,1095.2695 1032.8906,1095.2695 Q1032.8906,1095.2695 1032.8906,1095.2695 Q1032.8906,1095.2695 1033.2329,1095.6304 Q1033.5752,1095.9912 1033.7534,1096.0112 Q1033.9316,1096.0312 1034.1055,1096.3931 Q1034.2793,1096.7549 1034.4585,1096.7739 Q1034.6377,1096.793 1034.9805,1097.1582 Q1035.3232,1097.5234 1035.6738,1097.9033 Q1036.0244,1098.2832 1036.5464,1098.666 Q1037.0684,1099.0488 1037.4253,1099.4277 Q1037.7822,1099.8066 1038.457,1100.5381 Q1039.1318,1101.2695 1039.8452,1102.0425 Q1040.5586,1102.8154 1041.5967,1103.5767 Q1042.6348,1104.3379 1043.6865,1105.4595 Q1044.7383,1106.581 1046.1143,1108.0713 Q1047.4902,1109.5615 1049.2305,1111.8062 Q1050.9707,1114.0508 1053.4053,1117.4326 Q1055.8398,1120.8145 1058.4731,1125.335 Q1061.1064,1129.8555 1063.7461,1134.0688 Q1066.3857,1138.2822 1069.0244,1143.1997 Q1071.6631,1148.1172 1073.9536,1151.9619 Q1076.2441,1155.8066 1078.7124,1160.0044 Q1081.1807,1164.2021 1083.7974,1168.3721 Q1086.4141,1172.542 1089.3711,1177.0728 Q1092.3281,1181.6035 1095.3462,1186.2197 Q1098.3643,1190.8359 1101.27,1195.6328 Q1104.1758,1200.4297 1107.8579,1206.5098 Q1111.54,1212.5898 1115.0239,1218.9629 Q1118.5078,1225.3359 1122.4595,1231.9951 Q1126.4111,1238.6543 1129.5918,1244.374 Q1132.7725,1250.0938 1135.7983,1255.1309 Q1138.8242,1260.168 1141.4746,1264.3867 Q1144.125,1268.6055 1146.9321,1272.4316 Q1149.7393,1276.2578 1152.7173,1280.0625 Q1155.6953,1283.8672 1158.5127,1286.9424 Q1161.3301,1290.0176 1164.6182,1294.1221 Q1167.9062,1298.2266 1171.0835,1302.0596 Q1174.2607,1305.8926 1177.9136,1310.0493 Q1181.5664,1314.206 1184.9209,1318.0298 Q1188.2754,1321.8535 1190.7891,1324.5874 Q1193.3027,1327.3212 1195.2607,1329.2622 Q1197.2188,1331.2031 1199.6577,1333.4731 Q1202.0967,1335.743 1204.5708,1337.6768 Q1207.0449,1339.6104 1208.4839,1340.7754 Q1209.9229,1341.9403 1211.6694,1343.0884 Q1213.416,1344.2363 1215.0088,1345.0181 Q1216.6016,1345.7998 1218.0156,1346.561 Q1219.4297,1347.3223 1220.6841,1348.0933 Q1221.9385,1348.8643 1222.9829,1349.2534 Q1224.0273,1349.6426 1224.9185,1350.0249 Q1225.8096,1350.4072 1226.023,1350.4263 Q1226.2363,1350.4453 1226.4102,1350.8071 Q1226.584,1351.169 1226.5928,1351.188 Q1226.6016,1351.207 1226.6016,1351.207 Q1226.6016,1351.207 1226.6016,1351.207 Q1226.6016,1351.207 1226.6016,1351.207 Q1226.6016,1351.207 1226.6016,1351.207 Q1226.6016,1351.207 1226.6016,1351.207 Q1226.6016,1351.207 1226.6016,1351.207 Q1226.6016,1351.207 1226.6016,1351.207 Q1226.6016,1351.207 1226.6016,1351.207 Q1226.6016,1351.207 1226.6016,1351.207 Q1226.6016,1351.207 1226.6016,1351.207 Q1226.6016,1351.207 1226.6016,1351.207 Q1226.6016,1351.207 1226.6016,1351.207 Q1226.6016,1351.207 1226.6016,1351.207 Q1226.6016,1351.207 1226.6016,1351.207 Q1226.6016,1351.207 1226.6016,1351.207 Q1226.6016,1351.207 1226.6016,1351.207 Q1226.6016,1351.207 1226.6016,1351.207 Q1226.6016,1351.207 1226.6016,1351.207 Q1226.6016,1351.207 1226.6016,1351.207 Q1226.6016,1351.207 1226.6016,1351.207 Q1226.6016,1351.207 1226.6016,1351.207 Q1226.6016,1351.207 1226.6016,1351.207 Q1226.6016,1351.207 1226.6016,1351.207 Q1226.6016,1351.207 1226.6016,1351.207 Q1226.6016,1351.207 1226.6016,1351.207 Q1226.6016,1351.207 1226.6016,1351.207 Q1226.6016,1351.207 1226.6016,1351.207 Q1226.6016,1351.207 1226.6016,1351.207 Q1226.6016,1351.207 1226.6016,1351.207 Q1226.6016,1351.207 1226.6016,1351.207 Q1226.6016,1351.207 1226.9478,1351.5879 Q1227.294,1351.9688 1227.4702,1352.3394 Q1227.6465,1352.71 1227.6514,1353.0884 Q1227.6562,1353.4668 1227.6562,1353.4795 Q1227.6562,1353.4921 1227.6562,1353.4921 Q1227.6562,1353.4921 1227.6562,1353.4921 Q1227.6562,1353.4921 1227.6562,1353.4921 Q1227.6562,1353.4921 1227.6562,1353.4921 Q1227.6562,1353.4921 1227.6562,1353.4921 Q1227.6562,1353.4921 1227.6562,1353.4921 Q1227.6562,1353.4921 1228.0,1353.856 Q1228.3438,1354.2197 1228.5146,1354.5898 Q1228.6855,1354.96 1228.8672,1354.9878 Q1229.0488,1355.0156 1229.3936,1355.3813 Q1229.7383,1355.7471 1229.752,1355.7622 Q1229.7656,1355.7773 1229.7656,1355.7773 Q1229.7656,1355.7773 1229.7656,1355.7773 Q1229.7656,1355.7773 1229.7656,1355.7773 Q1229.7656,1355.7773 1229.7656,1355.7773 Q1229.7656,1355.7773 1229.7656,1355.7773 Q1229.7656,1355.7773 1229.7656,1355.7773 Q1229.7656,1355.7773 1229.7656,1355.7773 Q1229.7656,1355.7773 1229.7656,1355.7773 Q1229.7656,1355.7773 1229.7656,1355.7773 Q1229.7656,1355.7773 1229.7656,1355.7773 Q1229.7656,1355.7773 1229.7656,1355.7773 Q1229.7656,1355.7773 1229.7656,1355.7773 Q1229.7656,1355.7773 1229.7656,1355.7773 Q1229.7656,1355.7773 1229.7656,1355.7773 Q1229.7656,1355.7773 1229.7656,1355.7773 Q1229.7656,1355.7773 1229.7656,1355.7773 Q1229.7656,1355.7773 1229.7656,1355.7773 Q1229.7656,1355.7773 1229.7656,1355.7773 Q1229.7656,1355.7773 1229.7656,1355.7773 Q1229.7656,1355.7773 1229.7656,1355.7773 Q1229.7656,1355.7773 1229.7656,1355.7773 Q1229.7656,1355.7773 1229.7656,1355.7773 Q1229.7656,1355.7773 1229.7656,1355.7773 Q1229.7656,1355.7773 1229.7656,1355.7773 Q1229.7656,1355.7773 1229.7656,1355.7773 Q1229.7656,1355.7773 1229.7656,1355.7773 Q1229.7656,1355.7773 1229.7656,1355.7773 Q1229.7656,1355.7773 1229.7656,1355.7773 Q1229.7656,1355.7773 1229.7656,1355.7773 Q1229.7656,1355.7773 1229.7656,1355.7773 Q1229.7656,1355.7773 1229.7656,1355.7773 Q1229.7656,1355.7773 1229.7656,1355.7773 Q1229.7656,1355.7773 1230.1172,1356.5391 Q1230.4688,1357.3008 1230.4688,1357.3008 Q1230.4688,1357.3008 1230.6445,1358.4434 Q1230.8203,1359.586 1230.8203,1359.586 Q1230.8203,1359.586 1230.8203,1359.586 Q1230.8203,1359.586 1230.8203,1359.586 Q1230.8203,1359.586 1230.8203,1359.586 Q1230.8203,1359.586 1230.8203,1359.586 Q1230.8203,1359.586 1230.8203,1359.586 Q1230.8203,1359.586 1230.8203,1359.586 Q1230.8203,1359.586 1230.8203,1359.586 Q1230.8203,1359.586 1230.8203,1359.586 Q1230.8203,1359.586 1230.8203,1359.586 Q1230.8203,1359.586 1230.8203,1359.586 Q1230.8203,1359.586 1230.8203,1359.586 Q1230.8203,1359.586 1230.8203,1359.586 Q1230.8203,1359.586 1230.8203,1359.586 Q1230.8203,1359.586 1230.8203,1359.586 Q1230.8203,1359.586 1230.8203,1359.586 Q1230.8203,1359.586 1231.1636,1359.9668 Q1231.5068,1360.3477 1231.5151,1360.3477 L1231.5234,1360.3477 " fill="none" stroke="#000000" stroke-width="54.6" stroke-linecap="round"/><path d="M1129.5703,547.59375 Q1129.5703,547.59375 1129.5703,547.59375 Q1129.5703,547.59375 1129.5703,547.59375 Q1129.5703,547.59375 1129.5703,547.59375 Q1129.5703,547.59375 1129.5703,547.59375 Q1129.5703,547.59375 1129.5703,547.59375 Q1129.5703,547.59375 1129.5703,547.59375 Q1129.5703,547.59375 1129.5703,547.59375 Q1129.5703,547.59375 1129.5703,547.59375 Q1129.5703,547.59375 1129.5703,547.59375 Q1129.5703,547.59375 1129.5703,547.59375 Q1129.5703,547.59375 1129.5703,547.59375 Q1129.5703,547.59375 1123.0869,547.59375 Q1116.6035,547.59375 1111.8159,547.9624 Q1107.0283,548.33105 1101.4429,548.34326 Q1095.8574,548.35547 1089.7183,548.35547 Q1083.5791,548.35547 1078.4912,548.35547 Q1073.4033,548.35547 1067.6016,548.35547 Q1061.7998,548.35547 1055.2021,547.9917 Q1048.6045,547.6279 1042.9272,547.2466 Q1037.25,546.86523 1031.3135,546.48584 Q1025.377,546.10645 1019.22314,545.7251 Q1013.06934,545.34375 1008.28564,545.3262 Q1003.50195,545.3086 999.25244,545.6699 Q995.0029,546.03125 992.271,546.41406 Q989.53906,546.7969 987.05225,547.18066 Q984.5654,547.56445 982.3135,548.6577 Q980.0615,549.751 977.7085,550.92725 Q975.35547,552.1035 973.2427,553.6157 Q971.1299,555.1279 969.53076,556.6543 Q967.93164,558.18066 966.0088,560.81494 Q964.08594,563.4492 961.48145,567.9463 Q958.87695,572.44336 956.73975,578.8916 Q954.60254,585.33984 953.3784,591.29834 Q952.15436,597.25684 951.09033,602.9922 Q950.0263,608.72754 949.145,614.4009 Q948.26373,620.0742 948.0464,625.84326 Q947.82904,631.6123 948.32324,638.4116 Q948.8174,645.21094 949.6792,652.0615 Q950.5411,658.9121 951.58594,665.75977 Q952.63086,672.6074 954.02344,679.478 Q955.41595,686.3487 956.8213,692.1118 Q958.2266,697.875 959.6279,703.20605 Q961.0293,708.5371 962.61084,713.5337 Q964.1923,718.5303 966.6035,723.8242 Q969.01465,729.11816 971.2842,734.39355 Q973.5537,739.66895 976.3535,745.7583 Q979.1533,751.8476 981.31396,756.16504 Q983.4746,760.4824 985.73926,765.0112 Q988.0039,769.54004 989.9614,772.6743 Q991.91895,775.8086 993.6914,778.13965 Q995.46387,780.4707 997.3833,782.74854 Q999.30273,785.02637 1000.9072,786.5923 Q1002.5117,788.1582 1005.91406,791.1133 Q1009.31635,794.06836 1013.18115,796.4038 Q1017.04596,798.73926 1020.07227,800.6587 Q1023.09863,802.5781 1026.7349,804.47217 Q1030.3711,806.3662 1033.0972,807.9287 Q1035.8232,809.4912 1038.9849,811.0244 Q1042.1465,812.5576 1045.9956,814.0845 Q1049.8447,815.6113 1052.8442,816.75977 Q1055.8438,817.9082 1059.48,818.68066 Q1063.1162,819.4531 1066.4819,819.8535 Q1069.8477,820.2539 1073.8569,819.5454 Q1077.8662,818.8369 1081.5698,818.0757 Q1085.2734,817.31445 1089.6367,816.9155 Q1094.0,816.5166 1098.2183,815.7744 Q1102.4365,815.0322 1106.3159,814.2715 Q1110.1953,813.51074 1113.9072,813.1094 Q1117.6191,812.708 1120.623,812.3296 Q1123.627,811.9512 1127.6104,811.93066 Q1131.5938,811.91016 1134.4717,811.91016 Q1137.3496,811.91016 1140.3506,811.91016 Q1143.3516,811.91016 1146.8384,811.91016 Q1150.3252,811.91016 1153.4971,811.91016 Q1156.669,811.91016 1160.1743,811.91016 Q1163.6797,811.91016 1166.8662,811.54736 Q1170.0527,811.1845 1173.8818,810.8042 Q1177.7109,810.4238 1181.5742,810.4053 Q1185.4375,810.3867 1188.6401,810.3867 Q1191.8428,810.3867 1195.6763,810.3867 Q1199.5098,810.3867 1202.044,810.02344 Q1204.5781,809.66016 1207.5498,809.6426 Q1210.5215,809.625 1213.333,809.2617 Q1216.1445,808.89844 1218.7759,808.1587 Q1221.4072,807.41895 1224.0737,807.01416 Q1226.7402,806.6094 1229.8569,806.23145 Q1232.9736,805.8535 1235.9624,805.47363 Q1238.9512,805.09375 1241.7852,804.7114 Q1244.6191,804.3291 1247.7803,803.9463 Q1250.9414,803.56354 1253.94,803.54736 Q1256.9385,803.53125 1259.4111,803.16797 Q1261.8838,802.8047 1264.4785,802.7871 Q1267.0732,802.76953 1270.0708,802.4072 Q1273.0684,802.0449 1276.2075,802.02637 Q1279.3467,802.0078 1282.5332,801.645 Q1285.7197,801.2822 1288.5312,801.26416 Q1291.3428,801.2461 1293.6733,800.8823 Q1296.0039,800.5185 1298.7837,799.77686 Q1301.5635,799.0352 1304.3765,797.91064 Q1307.1895,796.78613 1309.8291,796.0078 Q1312.4688,795.2295 1315.2812,794.46533 Q1318.0938,793.70123 1320.9053,792.57666 Q1323.7168,791.45215 1326.0127,791.0376 Q1328.3086,790.6231 1329.9302,789.88086 Q1331.5518,789.1387 1332.9766,788.73535 Q1334.4014,788.33203 1335.3018,787.95264 Q1336.2021,787.57324 1337.2485,786.8301 Q1338.2949,786.0869 1339.1875,785.3208 Q1340.0801,784.5547 1342.6279,780.896 Q1345.1758,777.2373 1347.8193,771.60205 Q1350.4629,765.9668 1352.2539,758.82666 Q1354.0449,751.6865 1355.3037,744.4375 Q1356.5625,737.1885 1357.123,730.6792 Q1357.6836,724.1699 1358.2129,719.4951 Q1358.7422,714.8203 1358.9341,710.9663 Q1359.126,707.1123 1359.3008,703.68896 Q1359.4756,700.26556 1359.6514,697.1953 Q1359.8271,694.125 1359.8354,691.06104 Q1359.8438,687.997 1359.8438,683.84863 Q1359.8438,679.70026 1359.8438,675.8784 Q1359.8438,672.05664 1359.8438,667.8838 Q1359.8438,663.7109 1359.8438,660.27686 Q1359.8438,656.8428 1359.6768,654.50684 Q1359.5098,652.1709 1359.3335,650.2456 Q1359.1572,648.3203 1358.814,646.0513 Q1358.4707,643.7822 1358.1221,641.8784 Q1357.7734,639.9746 1357.4258,637.7363 Q1357.0781,635.49805 1356.5488,633.1533 Q1356.0195,630.8086 1355.6631,629.62646 Q1355.3066,628.44434 1354.7856,626.2051 Q1354.2646,623.9658 1353.5732,622.05566 Q1352.8818,620.1455 1352.1733,618.22656 Q1351.4648,616.3076 1350.2671,614.0581 Q1349.0693,611.8086 1347.8423,609.5298 Q1346.6152,607.251 1345.376,604.9497 Q1344.1367,602.64844 1342.2231,599.6167 Q1340.3096,596.58496 1338.5552,593.9199 Q1336.8008,591.2549 1334.8848,588.96387 Q1332.9688,586.67285 1331.2026,584.7495 Q1329.4365,582.8262 1327.8286,581.2671 Q1326.2207,579.708 1323.7583,577.791 Q1321.2959,575.874 1318.8877,574.01025 Q1316.4795,572.1465 1314.8413,571.3242 Q1313.2031,570.50195 1311.6104,570.1045 Q1310.0176,569.70703 1307.9482,569.3301 Q1305.8789,568.9531 1303.2812,568.5752 Q1300.6836,568.19727 1297.8809,567.4541 Q1295.0781,566.71094 1292.7637,566.31104 Q1290.4492,565.91113 1287.6577,565.166 Q1284.8662,564.4209 1282.7446,563.6665 Q1280.623,562.9121 1278.1802,561.79004 Q1275.7373,560.66797 1273.0771,559.876 Q1270.417,559.084 1267.958,558.3247 Q1265.499,557.5654 1263.207,556.8042 Q1260.915,556.04297 1257.9087,555.6382 Q1254.9023,555.2334 1251.7632,554.855 Q1248.624,554.47656 1244.8301,554.4629 Q1241.0361,554.4492 1236.8154,554.4492 Q1232.5947,554.4492 1228.3887,554.4492 Q1224.1826,554.4492 1219.1357,554.4492 Q1214.0889,554.4492 1210.1558,554.4492 Q1206.2227,554.4492 1201.8696,554.4492 Q1197.5166,554.4492 1193.1421,554.4492 Q1188.7676,554.4492 1184.2754,554.4492 Q1179.7832,554.4492 1175.2788,554.4492 Q1170.7744,554.4492 1166.5459,555.1743 Q1162.3174,555.8994 1158.4365,555.93604 Q1154.5557,555.97266 1150.6777,556.6997 Q1146.7998,557.42676 1143.2915,558.1831 Q1139.7832,558.93945 1137.2466,559.34375 Q1134.71,559.74805 1133.1006,560.126 Q1131.4912,560.5039 1129.5659,560.8867 Q1127.6406,561.26953 1123.2261,560.5664 Q1118.8115,559.8633 1118.5659,559.82227 L1118.3203,559.78125 " fill="none" stroke="#000000" stroke-width="54.6" stroke-linecap="round"/><path d="M1095.1172,690.03516 Q1095.1172,690.03516 1095.1172,690.03516 Q1095.1172,690.03516 1095.1172,690.03516 Q1095.1172,690.03516 1095.1172,690.03516 Q1095.1172,690.03516 1095.1172,690.03516 Q1095.1172,690.03516 1095.1172,690.03516 Q1095.1172,690.03516 1095.1172,690.03516 Q1095.1172,690.03516 1095.1172,690.03516 Q1095.1172,690.03516 1095.1172,690.03516 Q1095.1172,690.03516 1095.1172,690.03516 Q1095.1172,690.03516 1095.1172,690.03516 Q1095.1172,690.03516 1098.729,691.1465 Q1102.3408,692.2578 1105.1016,693.3784 Q1107.8623,694.49896 1111.356,695.28076 Q1114.8496,696.0625 1117.8608,696.45996 Q1120.8721,696.8574 1124.1978,697.2383 Q1127.5234,697.61914 1132.2178,697.63574 Q1136.9121,697.65234 1140.7861,697.65234 Q1144.6602,697.65234 1149.1826,697.2915 Q1153.7051,696.93066 1157.8228,696.1797 Q1161.9404,695.4287 1165.2964,695.39795 Q1168.6523,695.3672 1172.271,694.6509 Q1175.8896,693.9345 1179.27,693.5288 Q1182.6504,693.12305 1185.6792,692.73926 Q1188.708,692.35547 1191.3428,691.97754 Q1193.9775,691.5996 1196.7632,691.5791 Q1199.5488,691.5586 1202.5581,691.1963 Q1205.5674,690.8339 1208.7197,690.81537 Q1211.8721,690.7968 1214.6987,690.7968 Q1217.5254,690.7968 1220.1797,690.7968 Q1222.834,690.7968 1225.1279,690.7968 Q1227.4219,690.7968 1229.8721,691.1582 Q1232.3223,691.51953 1233.4507,691.53906 Q1234.5791,691.5586 1234.6333,691.5586 Q1234.6875,691.5586 1234.6875,691.5586 L1234.6875,691.5586 " fill="none" stroke="#000000" stroke-width="54.6" stroke-linecap="round"/><path d="M1158.75,632.90625 Q1158.75,632.90625 1158.75,632.90625 Q1158.75,632.90625 1158.75,632.90625 Q1158.75,632.90625 1158.75,632.90625 Q1158.75,632.90625 1158.75,632.90625 Q1158.75,632.90625 1158.75,632.90625 Q1158.75,632.90625 1158.75,632.90625 Q1158.75,632.90625 1158.5703,633.6846 Q1158.3906,634.4629 1156.6006,641.83057 Q1154.8105,649.19824 1153.9629,655.1797 Q1153.1152,661.16113 1152.4155,668.3784 Q1151.7158,675.5957 1151.1841,683.2827 Q1150.6523,690.9698 1150.6582,696.6655 Q1150.6641,702.3613 1150.8418,706.9092 Q1151.0195,711.45703 1151.1948,715.6323 Q1151.3701,719.8076 1151.7212,722.83203 Q1152.0723,725.85645 1152.4287,728.9424 Q1152.7852,732.02826 1153.1343,733.90137 Q1153.4834,735.7744 1154.0127,737.68066 Q1154.542,739.5869 1154.7144,740.7217 Q1154.8867,741.85645 1155.2397,742.9971 Q1155.5928,744.1377 1155.9468,744.90234 Q1156.3008,745.66693 1156.3008,745.66693 L1156.3008,745.66693 " fill="none" stroke="#000000" stroke-width="54.6" stroke-linecap="round"/></svg>