<svg width="1440" height="2601" xmlns="http://www.w3.org/2000/svg"><rect width="1440" height="2601" fill="#ffffff"/><path d="M605.3906,396.2461 Q605.3906,396.2461 605.3906,396.2461 Q605.3906,396.2461 605.3906,396.2461 Q605.3906,396.2461 605.3906,396.2461 Q605.3906,396.2461 590.2446,399.97852 Q575.09863,403.71094 565.63965,406.71973 Q556.18066,409.72852 545.3218,413.88037 Q534.4629,418.03223 524.51514,421.87988 Q514.5674,425.72754 502.6377,430.66113 Q490.708,435.59473 478.396,440.55273 Q466.08398,445.51074 452.98682,451.17676 Q439.88965,456.84277 426.8999,462.5454 Q413.91016,468.24805 401.7329,474.70898 Q389.55566,481.16992 377.59424,489.1245 Q365.6328,497.0791 354.69775,504.71143 Q343.7627,512.34375 333.52295,520.7197 Q323.2832,529.0957 312.12744,538.1626 Q300.97168,547.2295 289.687,557.1372 Q278.40234,567.0449 267.82666,577.3247 Q257.25098,587.6045 246.51416,599.0171 Q235.77736,610.4297 226.09229,621.8428 Q216.40723,633.25586 206.05957,647.2671 Q195.71191,661.2783 187.55566,673.52783 Q179.39941,685.77734 172.18018,699.05225 Q164.96094,712.32715 158.11377,725.9888 Q151.2666,739.6504 145.0625,754.90674 Q138.8584,770.163 133.39746,786.48535 Q127.93652,802.8076 123.1626,820.3198 Q118.38867,837.83203 113.81494,854.60547 Q109.24121,871.3789 105.87402,889.9458 Q102.50684,908.5127 99.686035,923.81055 Q96.865234,939.10834 95.40625,957.73926 Q93.947266,976.3702 93.56543,992.81885 Q93.183586,1009.2676 93.85742,1026.3872 Q94.53125,1043.5068 96.94531,1061.4067 Q99.359375,1079.3066 102.166504,1095.7461 Q104.97363,1112.1855 108.98096,1130.7705 Q112.98828,1149.3555 117.3667,1165.398 Q121.74511,1181.4404 127.32568,1198.8862 Q132.90625,1216.332 138.72412,1233.5479 Q144.54199,1250.7637 150.78809,1266.9849 Q157.03418,1283.206 165.1333,1302.3335 Q173.23242,1321.4609 181.16748,1339.4385 Q189.10254,1357.416 199.73389,1377.1328 Q210.36522,1396.8496 222.3042,1413.7148 Q234.24316,1430.5801 247.17822,1447.648 Q260.11328,1464.7157 273.9839,1480.7554 Q287.8545,1496.7949 302.89697,1511.4751 Q317.93945,1526.1553 333.91455,1539.3291 Q349.88965,1552.5029 368.43945,1566.1929 Q386.98926,1579.8827 403.78467,1591.0337 Q420.58008,1602.1846 437.48486,1612.1396 Q454.38965,1622.0947 471.60352,1631.2534 Q488.8174,1640.4121 504.64307,1649.1646 Q520.46875,1657.917 536.7749,1666.293 Q553.08105,1674.669 568.78125,1682.6963 Q584.48145,1690.7236 598.58496,1697.2388 Q612.6885,1703.7538 628.30176,1710.2344 Q643.91504,1716.7148 657.68555,1721.71 Q671.45605,1726.7051 685.47217,1732.0127 Q699.4883,1737.3203 713.24756,1741.9258 Q727.0069,1746.5312 739.8823,1749.9946 Q752.7578,1753.4581 764.3789,1756.5112 Q776.0,1759.5645 788.5762,1762.2295 Q801.15234,1764.8944 812.7837,1766.8213 Q824.415,1768.748 835.53705,1768.8057 Q846.6591,1768.8633 858.43066,1768.8633 Q870.20215,1768.8633 881.2822,1767.3813 Q892.36224,1765.8994 902.5664,1762.5293 Q912.7705,1759.1592 922.4668,1755.7266 Q932.1631,1752.294 942.6821,1747.0161 Q953.20123,1741.7383 962.7339,1735.6587 Q972.2666,1729.5792 981.5884,1721.6318 Q990.91016,1713.6846 1000.229,1705.3135 Q1009.54785,1696.9424 1020.0615,1688.1934 Q1030.5752,1679.4445 1039.9341,1671.0459 Q1049.293,1662.6475 1057.9155,1654.648 Q1066.5381,1646.6484 1074.815,1639.0156 Q1083.0918,1631.3829 1091.3569,1624.1338 Q1099.6221,1616.8848 1108.729,1608.5454 Q1117.8359,1600.206 1125.896,1591.8828 Q1133.956,1583.5597 1142.3647,1573.7277 Q1150.7734,1563.8956 1158.4233,1555.0264 Q1166.0732,1546.1571 1173.7925,1535.5591 Q1181.5117,1524.9609 1188.8911,1513.9468 Q1196.2705,1502.9326 1202.998,1492.5854 Q1209.7256,1482.2382 1216.9004,1468.6523 Q1224.0752,1455.0664 1230.0781,1441.0396 Q1236.081,1427.0127 1242.2539,1411.3481 Q1248.4268,1395.6836 1253.7051,1380.1206 Q1258.9834,1364.5575 1264.1079,1349.6187 Q1269.2324,1334.6797 1273.6455,1321.6792 Q1278.0586,1308.6787 1281.5977,1296.0962 Q1285.1367,1283.5137 1288.2954,1271.0024 Q1291.4541,1258.4912 1293.6006,1247.7402 Q1295.7471,1236.9893 1297.3486,1225.5444 Q1298.9502,1214.0996 1299.5015,1200.46 Q1300.0527,1186.8203 1299.894,1173.8545 Q1299.7354,1160.8887 1299.0479,1146.1411 Q1298.3604,1131.3936 1297.8271,1114.6572 Q1297.294,1097.9209 1296.4248,1083.3955 Q1295.5557,1068.8701 1294.334,1051.7949 Q1293.1123,1034.7197 1291.8809,1020.16064 Q1290.6494,1005.6015 1289.2515,992.64844 Q1287.8535,979.6954 1286.6133,966.3252 Q1285.373,952.9551 1284.6567,939.9971 Q1283.9404,927.03906 1282.8994,915.6279 Q1281.8584,904.2168 1280.4585,892.76025 Q1279.0586,881.3037 1277.6528,869.50977 Q1276.2471,857.7158 1274.5,845.91797 Q1272.7529,834.1201 1271.1797,821.31445 Q1269.6064,808.50885 1267.6641,793.5596 Q1265.7217,778.61035 1263.7856,762.6206 Q1261.8496,746.63086 1260.2627,727.70215 Q1258.6758,708.77344 1257.6079,691.5913 Q1256.54,674.4092 1255.6562,655.78516 Q1254.7725,637.16113 1253.7212,619.9673 Q1252.6699,602.77344 1250.9297,586.74414 Q1249.1895,570.71484 1246.9175,557.68994 Q1244.6455,544.66504 1241.3394,531.7456 Q1238.0332,518.8262 1234.0107,509.21436 Q1229.9883,499.60254 1224.7344,492.65527 Q1219.4805,485.708 1211.1431,477.7583 Q1202.8057,469.8086 1191.7646,461.7827 Q1180.7236,453.75684 1169.31,446.50488 Q1157.8965,439.25293 1145.4292,432.84082 Q1132.9619,426.4287 1120.0024,419.88672 Q1107.043,413.34473 1094.3799,407.23975 Q1081.7168,401.13474 1070.0654,396.14453 Q1058.4141,391.1543 1046.8657,385.85596 Q1035.3174,380.55762 1023.5166,375.2124 Q1011.7158,369.8672 1001.479,364.98828 Q991.24225,360.10938 981.38434,356.18848 Q971.5264,352.26755 959.48047,349.5752 Q947.4346,346.8828 934.9585,345.32715 Q922.4824,343.77148 909.80273,343.3584 Q897.12305,342.9453 883.1128,344.41895 Q869.1025,345.89258 855.3662,347.78906 Q841.6299,349.68555 828.0928,352.33154 Q814.55566,354.97754 800.8501,358.75684 Q787.1445,362.53613 772.9072,366.71973 Q758.6699,370.90335 743.94385,375.8267 Q729.2178,380.75003 713.46045,387.91016 Q697.7031,395.07028 680.2202,403.39502 Q662.7373,411.71973 645.24316,422.36523 Q627.749,433.01074 609.0615,443.9961 Q590.374,454.98145 573.395,465.68555 Q556.416,476.38965 540.90137,483.7251 Q525.3867,491.06058 495.08496,505.23584 Q464.78323,519.41113 463.71973,519.9087 L462.65625,520.40625 " fill="none" stroke="#000000" stroke-width="28.0" stroke-linecap="round"/><path d="M429.96094,1589.0977 Q429.96094,1589.0977 429.96094,1589.0977 Q429.96094,1589.0977 429.96094,1589.0977 Q429.96094,1589.0977 429.96094,1589.0977 Q429.96094,1589.0977 429.10645,1575.7192 Q428.25195,1562.3407 427.72168,1553.606 Q427.1914,1544.8712 426.14062,1534.8506 Q425.08984,1524.8301 424.55078,1514.5723 Q424.01172,1504.3145 423.13965,1493.6367 Q422.26758,1482.959 421.56104,1470.8198 Q420.85446,1458.6807 420.1499,1445.3472 Q419.4453,1432.0137 419.08594,1418.3198 Q418.72656,1404.626 418.37744,1390.6348 Q418.02832,1376.6436 417.84668,1360.2529 Q417.66504,1343.8623 417.83154,1328.6431 Q417.99802,1313.4237 417.83154,1296.3174 Q417.66504,1279.2109 418.00244,1263.5894 Q418.33984,1247.9678 418.69287,1234.8809 Q419.0459,1221.794 419.2256,1209.5923 Q419.40527,1197.3906 418.89453,1187.4302 Q418.3838,1177.4697 417.51416,1169.8086 Q416.64453,1162.1475 415.59326,1156.3818 Q414.54202,1150.6162 413.31445,1146.0151 Q412.0869,1141.4141 410.68848,1136.8564 Q409.29004,1132.2988 407.3667,1126.9766 Q405.44336,1121.6543 403.85547,1117.4448 Q402.26758,1113.2354 399.99854,1108.2993 Q397.7295,1103.3633 395.28955,1098.0776 Q392.84958,1092.792 390.71436,1088.5371 Q388.5791,1084.2822 385.9585,1079.7266 Q383.3379,1075.1709 380.53174,1069.4907 Q377.7256,1063.8105 374.73828,1057.3481 Q371.751,1050.8857 368.94482,1044.0659 Q366.13864,1037.2461 363.5044,1030.042 Q360.87012,1022.8379 358.56348,1015.1987 Q356.25684,1007.5596 354.48535,1001.05566 Q352.71387,994.5517 351.1211,987.68164 Q349.52832,980.8115 348.292,973.59863 Q347.05566,966.38574 345.99512,958.0259 Q344.93457,949.666 344.2246,942.0493 Q343.51465,934.4326 342.6416,926.8262 Q341.76855,919.2197 341.22998,911.2119 Q340.6914,903.2041 340.33496,894.8218 Q339.97852,886.43945 339.45557,878.4409 Q338.93262,870.4423 338.4048,862.8071 Q337.87695,855.1719 337.52148,849.41406 Q337.16602,843.6563 336.81396,838.3071 Q336.4619,832.958 336.28223,828.0078 Q336.10254,823.0576 336.09814,817.7368 Q336.09375,812.416 336.26465,806.72754 Q336.43555,801.03906 336.44043,793.103 Q336.4453,785.167 336.27588,779.06396 Q336.10645,772.96094 336.27148,767.55615 Q336.43652,762.1514 336.44092,756.80664 Q336.4453,751.4619 336.4453,747.6221 Q336.4453,743.7822 336.27393,740.7134 Q336.10254,737.64453 335.92676,734.603 Q335.75098,731.5616 335.57568,729.26074 Q335.4004,726.95996 335.3955,724.2915 Q335.39062,721.62305 335.21875,719.7012 Q335.04688,717.7793 334.87207,716.2539 Q334.69727,714.7285 334.521,713.94434 Q334.34473,713.16016 334.16895,712.39746 Q333.99316,711.63477 333.98877,711.6162 Q333.98438,711.59766 333.98438,711.59766 Q333.98438,711.59766 333.98438,711.59766 Q333.98438,711.59766 333.98438,711.59766 Q333.98438,711.59766 333.98438,711.59766 Q333.98438,711.59766 333.98438,711.59766 Q333.98438,711.59766 333.98438,711.59766 Q333.98438,711.59766 341.56738,709.34424 Q349.1504,707.0908 356.14453,707.4297 Q363.13867,707.76855 370.35498,708.5215 Q377.5713,709.2744 384.9502,710.4077 Q392.3291,711.541 400.88965,713.0513 Q409.4502,714.5616 418.41846,716.0869 Q427.38672,717.61224 436.69287,718.76465 Q445.999,719.917 456.50684,720.688 Q467.01465,721.459 476.70312,722.5913 Q486.3916,723.72363 495.8911,724.125 Q505.39062,724.52637 515.9175,724.1655 Q526.44434,723.8047 536.8413,723.06396 Q547.2383,722.32324 557.7583,721.5508 Q568.2783,720.7783 577.6221,720.0171 Q586.9658,719.25586 596.79346,717.3823 Q606.6211,715.5088 616.4658,714.3452 Q626.31055,713.18164 635.6133,712.04297 Q644.916,710.9043 653.0679,710.1284 Q661.2197,709.3526 669.13184,708.9619 Q677.04395,708.5713 684.6162,707.81885 Q692.1885,707.0664 700.10645,706.6753 Q708.0244,706.2842 714.71387,706.2749 Q721.4033,706.2657 727.7422,706.2657 Q734.08105,706.2657 740.7295,705.896 Q747.3779,705.52637 753.3872,704.7744 Q759.3965,704.0224 766.749,702.51855 Q774.10156,701.01465 782.5137,699.1196 Q790.9258,697.2246 799.02686,694.94775 Q807.1279,692.67096 814.9863,690.7705 Q822.8447,688.8701 829.61523,687.32275 Q836.38574,685.7753 843.9072,684.2549 Q851.42865,682.73444 859.5054,681.5811 Q867.58203,680.4278 874.812,679.65576 Q882.042,678.8838 888.8989,678.12305 Q895.75586,677.3623 902.0498,676.97363 Q908.34375,676.585 914.35547,676.2031 Q920.3672,675.8213 926.1953,675.06836 Q932.02344,674.3154 937.99854,673.5532 Q943.97363,672.791 950.63135,672.3999 Q957.28906,672.0088 963.8013,671.6279 Q970.3134,671.24713 976.31494,671.2368 Q982.3164,671.22656 987.9463,671.22656 Q993.5761,671.22656 998.68896,671.59766 Q1003.80176,671.96875 1009.9331,672.3501 Q1016.06445,672.73145 1022.0425,673.8545 Q1028.0205,674.97754 1033.5698,676.103 Q1039.1191,677.2285 1044.4873,678.3887 Q1049.8555,679.5488 1055.2998,680.6914 Q1060.7441,681.834 1065.167,682.97705 Q1069.5898,684.12006 1074.1548,684.8911 Q1078.7197,685.6621 1084.1567,686.05273 Q1089.5938,686.44336 1094.6816,686.82275 Q1099.7695,687.2021 1104.19,687.9551 Q1108.6104,688.708 1112.833,689.09863 Q1117.0557,689.4893 1120.5903,690.6133 Q1124.125,691.7373 1127.4619,692.87744 Q1130.7988,694.01764 1133.7974,695.16016 Q1136.7959,696.3027 1139.0991,697.8164 Q1141.4023,699.3301 1143.8613,700.4839 Q1146.3203,701.63776 1148.0986,702.41016 Q1149.877,703.1826 1151.1191,703.94385 Q1152.3613,704.70514 1154.1089,705.83984 Q1155.8564,706.9746 1157.2646,708.1118 Q1158.6729,709.249 1158.8818,709.28076 Q1159.0908,709.3125 1160.6309,711.15967 Q1162.1709,713.00684 1163.9312,715.6616 Q1165.6914,718.3164 1167.2793,721.728 Q1168.8672,725.1397 1170.27,730.39453 Q1171.6729,735.6494 1171.8867,741.3872 Q1172.1006,747.12506 1171.4194,755.062 Q1170.7383,762.999 1169.0107,772.459 Q1167.2832,781.91895 1165.3589,792.52734 Q1163.4346,803.13574 1161.1499,813.84717 Q1158.8652,824.55865 1157.0933,834.4839 Q1155.3213,844.4092 1154.2573,853.5 Q1153.1934,862.5908 1152.4775,872.1133 Q1151.7617,881.63574 1151.398,890.8237 Q1151.0342,900.0117 1151.1953,908.3838 Q1151.3564,916.7559 1151.5332,924.81445 Q1151.71,932.87305 1151.8857,940.1113 Q1152.0615,947.3496 1152.751,955.70557 Q1153.4404,964.06146 1153.8008,972.4282 Q1154.1611,980.7949 1153.999,989.18164 Q1153.8369,997.5683 1153.6616,1005.18555 Q1153.4863,1012.80273 1153.1387,1020.07764 Q1152.791,1027.3525 1152.7822,1034.9653 Q1152.7734,1042.5781 1152.9443,1048.3218 Q1153.1152,1054.0654 1152.9487,1060.9028 Q1152.7822,1067.7402 1152.6064,1074.2163 Q1152.4307,1080.6924 1152.4263,1086.4365 Q1152.4219,1092.1807 1152.2515,1097.8584 Q1152.081,1103.5361 1152.0757,1108.8999 Q1152.0703,1114.2637 1151.8999,1119.5762 Q1151.7295,1124.8887 1151.5537,1130.2241 Q1151.3779,1135.5596 1151.2021,1140.148 Q1151.0264,1144.7363 1150.8506,1149.6812 Q1150.6748,1154.626 1149.9873,1159.206 Q1149.2998,1163.7861 1148.7666,1167.9907 Q1148.2334,1172.1953 1147.54,1176.3584 Q1146.8467,1180.5215 1146.1396,1186.21 Q1145.4326,1191.8984 1144.7324,1199.061 Q1144.0322,1206.2236 1143.8379,1214.2354 Q1143.6436,1222.2471 1143.2974,1229.1299 Q1142.9512,1236.0127 1142.5981,1242.521 Q1142.2451,1249.0293 1142.0654,1254.3672 Q1141.8857,1259.7051 1141.71,1265.04 Q1141.5342,1270.375 1141.3579,1275.7202 Q1141.1816,1281.0654 1141.0059,1288.2544 Q1140.8301,1295.4434 1141.168,1303.062 Q1141.5059,1310.6807 1141.685,1317.5215 Q1141.8643,1324.3623 1142.0396,1330.4658 Q1142.2148,1336.5693 1142.3916,1341.9453 Q1142.5684,1347.3213 1143.0874,1354.1577 Q1143.6064,1360.9941 1143.791,1366.3604 Q1143.9756,1371.7266 1144.1514,1376.3188 Q1144.3271,1380.911 1144.5024,1385.8452 Q1144.6777,1390.7793 1144.8525,1395.3359 Q1145.0273,1399.8925 1145.2046,1404.1245 Q1145.3818,1408.3564 1145.5566,1413.2676 Q1145.7314,1418.1787 1145.9077,1423.1338 Q1146.084,1428.0889 1145.9175,1434.1685 Q1145.751,1440.248 1145.4053,1446.6953 Q1145.0596,1453.1427 1144.5361,1458.5171 Q1144.0127,1463.8916 1143.4858,1469.2183 Q1142.959,1474.5449 1142.2617,1478.3906 Q1141.5645,1482.2363 1141.0312,1485.3091 Q1140.498,1488.3818 1139.9712,1491.0557 Q1139.4443,1493.7295 1139.0869,1495.29 Q1138.7295,1496.8506 1138.377,1498.7485 Q1138.0244,1500.6465 1138.0161,1501.8071 Q1138.0078,1502.9678 1138.0078,1504.8506 Q1138.0078,1506.7334 1138.0078,1509.752 Q1138.0078,1512.7705 1138.3501,1515.4443 Q1138.6924,1518.1182 1139.043,1521.1465 Q1139.3936,1524.1748 1139.7441,1527.581 Q1140.0947,1530.9873 1140.4482,1534.064 Q1140.8018,1537.1406 1140.811,1539.8159 Q1140.8203,1542.4913 1140.8203,1543.6733 Q1140.8203,1544.8555 1140.8203,1545.2573 Q1140.8203,1545.6592 1140.8203,1545.6694 Q1140.8203,1545.6797 1140.8203,1545.6797 Q1140.8203,1545.6797 1140.8203,1545.6797 Q1140.8203,1545.6797 1140.8203,1545.6797 Q1140.8203,1545.6797 1138.8867,1545.6797 L1136.9531,1545.6797 " fill="none" stroke="#000000" stroke-width="28.0" stroke-linecap="round"/><path d="M388.82812,1554.0587 Q388.82812,1554.0587 388.82812,1554.0587 Q388.82812,1554.0587 388.82812,1554.0587 Q388.82812,1554.0587 388.82812,1554.0587 Q388.82812,1554.0587 388.82812,1554.0587 Q388.82812,1554.0587 388.82812,1554.0587 Q388.82812,1554.0587 388.82812,1554.0587 Q388.82812,1554.0587 388.82812,1554.0587 Q388.82812,1554.0587 388.82812,1554.0587 Q388.82812,1554.0587 388.82812,1554.0587 Q388.82812,1554.0587 388.82812,1554.0587 Q388.82812,1554.0587 388.82812,1554.0587 Q388.82812,1554.0587 388.82812,1554.0587 Q388.82812,1554.0587 388.82812,1554.0587 Q388.82812,1554.0587 388.82812,1554.0587 Q388.82812,1554.0587 388.82812,1554.0587 Q388.82812,1554.0587 388.82812,1554.0587 Q388.82812,1554.0587 388.82812,1554.0587 Q388.82812,1554.0587 388.82812,1554.0587 Q388.82812,1554.0587 388.82812,1554.0587 Q388.82812,1554.0587 388.82812,1554.0587 Q388.82812,1554.0587 388.82812,1554.0587 Q388.82812,1554.0587 388.82812,1554.0587 Q388.82812,1554.0587 388.82812,1554.0587 Q388.82812,1554.0587 388.82812,1554.0587 Q388.82812,1554.0587 388.82812,1554.0587 Q388.82812,1554.0587 388.82812,1554.0587 Q388.82812,1554.0587 388.82812,1554.0587 Q388.82812,1554.0587 388.82812,1554.0587 Q388.82812,1554.0587 388.82812,1554.0587 Q388.82812,1554.0587 388.82812,1554.0587 Q388.82812,1554.0587 388.82812,1554.0587 Q388.82812,1554.0587 388.82812,1554.0587 Q388.82812,1554.0587 388.82812,1554.0587 Q388.82812,1554.0587 388.82812,1554.0587 Q388.82812,1554.0587 388.82812,1554.0587 Q388.82812,1554.0587 388.82812,1554.0587 Q388.82812,1554.0587 388.82812,1554.0587 Q388.82812,1554.0587 388.82812,1554.0587 Q388.82812,1554.0587 388.82812,1554.0587 Q388.82812,1554.0587 388.82812,1554.0587 Q388.82812,1554.0587 388.82812,1554.0587 Q388.82812,1554.0587 388.82812,1554.0587 Q388.82812,1554.0587 388.82812,1554.0587 Q388.82812,1554.0587 388.82812,1554.0587 Q388.82812,1554.0587 388.82812,1554.0587 Q388.82812,1554.0587 389.37402,1554.0587 Q389.91992,1554.0587 390.62842,1554.4521 Q391.3369,1554.8457 392.22168,1554.833 Q393.10645,1554.8203 394.53076,1554.8203 Q395.95508,1554.8203 397.36035,1555.2139 Q398.76566,1555.6074 400.71338,1555.5947 Q402.6611,1555.582 404.937,1555.582 Q407.2129,1555.582 409.51758,1555.582 Q411.82227,1555.582 414.65723,1555.1885 Q417.4922,1554.7949 420.11816,1554.8076 Q422.7441,1554.8203 425.93164,1554.8203 Q429.11914,1554.8203 432.44922,1554.8203 Q435.77933,1554.8203 439.31445,1554.8203 Q442.8496,1554.8203 447.44775,1554.8203 Q452.0459,1554.8203 457.3462,1555.6069 Q462.64645,1556.3936 467.73682,1556.3687 Q472.82715,1556.3439 478.479,1556.3439 Q484.13086,1556.3439 490.1172,1556.3439 Q496.10352,1556.3439 502.0835,1556.3439 Q508.06348,1556.3439 514.7471,1556.7363 Q521.43066,1557.1289 529.39844,1557.5107 Q537.3662,1557.8926 545.6333,1557.8799 Q553.9004,1557.8672 563.02344,1557.4761 Q572.1465,1557.0851 581.13574,1556.7026 Q590.125,1556.3203 599.8535,1556.7261 Q609.58203,1557.1318 619.2241,1557.1187 Q628.8662,1557.1055 638.7363,1556.7114 Q648.60645,1556.3173 657.1631,1556.3306 Q665.7197,1556.3439 674.14014,1556.3439 Q682.56055,1556.3439 691.18555,1556.7368 Q699.81055,1557.1299 708.2417,1557.9038 Q716.67285,1558.6776 724.59326,1559.0479 Q732.5137,1559.418 739.6826,1559.4043 Q746.8515,1559.3906 752.79297,1559.7847 Q758.7344,1560.1787 765.0669,1560.1655 Q771.3995,1560.1523 777.00977,1560.1523 Q782.6201,1560.1523 789.146,1560.5459 Q795.6719,1560.9395 801.40234,1560.9268 Q807.1328,1560.914 813.7217,1560.914 Q820.3106,1560.914 826.24805,1560.914 Q832.18555,1560.914 838.70264,1561.3071 Q845.2198,1561.7002 851.5518,1562.4751 Q857.88385,1563.25 864.9371,1564.0117 Q871.9903,1564.7736 877.56934,1565.9287 Q883.14844,1567.084 889.67773,1568.2261 Q896.20703,1569.3682 901.2656,1570.5122 Q906.32416,1571.6562 912.104,1573.1807 Q917.8838,1574.7052 923.5513,1576.2413 Q929.21875,1577.7775 935.0249,1579.6948 Q940.83105,1581.6123 946.6343,1583.123 Q952.4375,1584.6338 956.9619,1585.7627 Q961.4863,1586.8916 966.0576,1587.6401 Q970.62885,1588.3887 975.7471,1589.1509 Q980.86523,1589.9131 984.8496,1590.2783 Q988.834,1590.6436 992.71436,1590.6323 Q996.5947,1590.621 1000.6387,1590.621 Q1004.6826,1590.621 1008.89844,1589.8359 Q1013.1143,1589.0509 1018.2442,1588.6812 Q1023.3741,1588.3115 1027.377,1587.9312 Q1031.3799,1587.5508 1035.4224,1586.7778 Q1039.4648,1586.005 1043.1602,1585.6338 Q1046.8555,1585.2627 1050.9048,1584.0957 Q1054.9541,1582.9287 1059.185,1582.1782 Q1063.416,1581.4277 1067.6343,1580.666 Q1071.8525,1579.9043 1076.0605,1579.1445 Q1080.2686,1578.3849 1085.0244,1577.2319 Q1089.7803,1576.0791 1095.4517,1575.3262 Q1101.123,1574.5732 1105.6587,1573.8115 Q1110.1943,1573.0499 1114.2197,1572.6816 Q1118.2451,1572.3135 1122.1035,1571.9331 Q1125.9619,1571.5527 1130.3716,1570.7788 Q1134.7812,1570.0049 1138.4551,1569.2417 Q1142.1289,1568.4785 1145.4517,1568.1113 Q1148.7744,1567.744 1153.1885,1567.3647 Q1157.6025,1566.9854 1160.7437,1566.2095 Q1163.8848,1565.4336 1166.6846,1565.0654 Q1169.4844,1564.6973 1172.1147,1564.71 Q1174.7451,1564.7227 1175.7476,1564.7227 Q1176.75,1564.7227 1176.75,1564.7227 L1176.75,1564.7227 " fill="none" stroke="#000000" stroke-width="28.0" stroke-linecap="round"/><path d="M431.71875,1039.1367 Q431.71875,1039.1367 431.71875,1039.1367 Q431.71875,1039.1367 431.71875,1039.1367 Q431.71875,1039.1367 431.71875,1039.1367 Q431.71875,1039.1367 431.71875,1039.1367 Q431.71875,1039.1367 431.71875,1039.1367 Q431.71875,1039.1367 431.71875,1039.1367 Q431.71875,1039.1367 431.71875,1039.1367 Q431.71875,1039.1367 431.71875,1039.1367 Q431.71875,1039.1367 431.71875,1039.1367 Q431.71875,1039.1367 431.71875,1039.1367 Q431.71875,1039.1367 431.71875,1039.1367 Q431.71875,1039.1367 431.71875,1039.1367 Q431.71875,1039.1367 431.71875,1039.1367 Q431.71875,1039.1367 431.71875,1039.1367 Q431.71875,1039.1367 431.71875,1039.1367 Q431.71875,1039.1367 437.06006,1038.7559 Q442.40137,1038.375 444.90283,1038.375 Q447.4043,1038.375 450.0337,1038.0049 Q452.66306,1037.6348 455.4619,1037.2554 Q458.26074,1036.876 460.5166,1036.8638 Q462.77246,1036.8516 465.45312,1036.4814 Q468.1338,1036.1113 470.77295,1035.73 Q473.4121,1035.3486 475.8706,1034.9688 Q478.3291,1034.5889 481.9917,1034.5776 Q485.6543,1034.5664 487.97168,1034.1973 Q490.28906,1033.8281 492.74512,1033.4473 Q495.20117,1033.0664 497.99902,1033.0547 Q500.79688,1033.043 503.44482,1032.3042 Q506.09277,1031.5654 508.9004,1031.1729 Q511.708,1030.7803 514.51855,1030.3999 Q517.3291,1030.0195 520.65234,1029.2695 Q523.9756,1028.5195 527.82275,1027.7583 Q531.6699,1026.9971 535.0405,1026.6025 Q538.41113,1026.208 541.9175,1025.458 Q545.4238,1024.708 548.7666,1024.3164 Q552.1094,1023.9248 555.27734,1023.54395 Q558.4453,1023.163 562.2451,1022.7871 Q566.0449,1022.41113 569.4165,1021.6631 Q572.7881,1020.91504 575.959,1020.51904 Q579.1299,1020.12305 582.1289,1019.375 Q585.1279,1018.62695 588.1362,1017.86035 Q591.14453,1017.0937 594.97314,1016.3345 Q598.80176,1015.5752 602.84424,1015.18066 Q606.8867,1014.78613 610.4326,1014.0342 Q613.9785,1013.2823 617.6616,1012.8906 Q621.3447,1012.499 624.69775,1011.74805 Q628.0508,1010.9971 631.5586,1010.60547 Q635.0664,1010.21387 637.34326,1009.478 Q639.6201,1008.7422 641.9487,1008.33545 Q644.27734,1007.9287 646.73486,1007.1782 Q649.1924,1006.4278 651.31396,1005.66504 Q653.43555,1004.90234 655.71387,1004.5112 Q657.9922,1004.1201 659.7637,1003.73926 Q661.53516,1003.3584 663.29004,1002.9785 Q665.0449,1002.59863 666.79834,1002.21875 Q668.55176,1001.8388 669.6362,1001.8257 Q670.7207,1001.8125 672.1177,1001.07227 Q673.51465,1000.332 674.40186,1000.31055 Q675.28906,1000.28906 676.68506,999.91943 Q678.08105,999.5498 679.999,998.7993 Q681.917,998.0488 684.1919,997.65674 Q686.4668,997.26465 688.92676,996.8833 Q691.3867,996.50195 693.84424,996.1216 Q696.30176,995.7412 698.93164,995.36035 Q701.5615,994.97943 703.67676,994.96826 Q705.792,994.95703 707.7373,994.5884 Q709.6826,994.2197 710.93555,994.2075 Q712.1885,994.1953 713.25,994.1953 Q714.3115,994.1953 715.5332,994.1953 Q716.7549,994.1953 716.9658,994.1953 Q717.17676,994.1953 717.1821,994.1953 Q717.1875,994.1953 717.1875,994.1953 Q717.1875,994.1953 717.1875,994.1953 Q717.1875,994.1953 717.1875,994.1953 Q717.1875,994.1953 717.1875,994.1953 Q717.1875,994.1953 717.1875,994.1953 Q717.1875,994.1953 717.1875,994.1953 Q717.1875,994.1953 717.1875,994.1953 Q717.1875,994.1953 717.1875,994.1953 Q717.1875,994.1953 717.1875,994.1953 Q717.1875,994.1953 717.1875,994.1953 L717.1875,994.1953 " fill="none" stroke="#000000" stroke-width="28.0" stroke-linecap="round"/><path d="M408.51562,1052.0859 Q408.51562,1052.0859 408.51562,1052.0859 Q408.51562,1052.0859 408.51562,1052.0859 Q408.51562,1052.0859 408.51562,1052.0859 Q408.51562,1052.0859 408.51562,1052.0859 Q408.51562,1052.0859 408.51562,1052.0859 Q408.51562,1052.0859 408.51562,1052.0859 Q408.51562,1052.0859 408.51562,1052.0859 Q408.51562,1052.0859 408.51562,1052.0859 Q408.51562,1052.0859 408.51562,1052.0859 Q408.51562,1052.0859 408.51562,1052.0859 Q408.51562,1052.0859 408.51562,1052.0859 Q408.51562,1052.0859 408.51562,1052.0859 Q408.51562,1052.0859 408.51562,1052.0859 Q408.51562,1052.0859 408.51562,1052.0859 Q408.51562,1052.0859 408.51562,1052.0859 Q408.51562,1052.0859 409.71484,1053.5752 Q410.91406,1055.0645 412.8252,1056.9497 Q414.73633,1058.835 416.50244,1061.1143 Q418.26855,1063.3936 420.70215,1066.0396 Q423.1357,1068.6855 425.437,1070.9932 Q427.73828,1073.3008 430.01514,1075.9478 Q432.29202,1078.5947 434.7373,1081.6177 Q437.18262,1084.6406 439.48438,1086.9614 Q441.78613,1089.2822 443.90137,1091.5684 Q446.0166,1093.8545 448.12354,1096.5068 Q450.23047,1099.1592 452.84912,1101.4531 Q455.46777,1103.7471 457.76758,1106.0361 Q460.06738,1108.3252 463.21338,1110.9863 Q466.35938,1113.6475 469.17383,1115.9365 Q471.98828,1118.2256 475.146,1120.1431 Q478.3037,1122.0605 481.20654,1123.9072 Q484.10938,1125.7539 487.69385,1127.3423 Q491.27835,1128.9307 494.63232,1130.458 Q497.9863,1131.9854 501.14307,1133.1338 Q504.2998,1134.2822 508.66602,1135.7974 Q513.0322,1137.3125 517.0884,1138.4668 Q521.14453,1139.6211 526.1631,1140.7524 Q531.18164,1141.8838 535.64746,1142.2969 Q540.1133,1142.71 545.1963,1143.4619 Q550.2793,1144.2139 555.3584,1143.8643 Q560.4375,1143.5146 565.1963,1143.1338 Q569.9551,1142.7529 574.8711,1142.0024 Q579.7871,1141.252 585.55225,1140.4917 Q591.3174,1139.7314 596.1011,1138.5996 Q600.88477,1137.4678 606.81445,1136.6958 Q612.74414,1135.9238 618.03906,1134.7935 Q623.334,1133.6631 627.9385,1132.5176 Q632.54297,1131.3721 637.06396,1130.2417 Q641.58496,1129.1113 645.8418,1127.5947 Q650.09863,1126.0781 654.1406,1124.9243 Q658.1826,1123.7705 661.562,1122.623 Q664.9414,1121.4756 668.28906,1119.9609 Q671.6367,1118.4463 675.9834,1116.5605 Q680.3301,1114.6748 684.2285,1113.1333 Q688.12695,1111.5918 691.24854,1109.7373 Q694.3701,1107.8828 698.16943,1105.2773 Q701.96875,1102.6719 705.2534,1100.3071 Q708.5381,1097.9424 711.5425,1095.2798 Q714.5469,1092.6172 717.36426,1089.582 Q720.18164,1086.5469 723.1699,1083.1245 Q726.1582,1079.7021 728.98193,1075.5254 Q731.80566,1071.3486 734.0952,1067.1768 Q736.38477,1063.0049 737.97754,1058.8433 Q739.5703,1054.6816 740.9912,1050.4683 Q742.4121,1046.2549 743.6504,1042.7964 Q744.8887,1039.3379 746.2905,1035.9087 Q747.6924,1032.4795 748.58545,1029.4258 Q749.4786,1026.3721 750.0166,1024.062 Q750.5547,1021.75195 751.08154,1019.8384 Q751.60846,1017.92487 752.1367,1015.64746 Q752.66504,1013.3701 752.8506,1012.1963 Q753.03613,1011.02246 753.2114,1009.8823 Q753.38666,1008.7422 753.3926,1007.2241 Q753.39844,1005.706 753.39844,1004.56 Q753.39844,1003.414 753.39844,1003.0054 Q753.39844,1002.5967 753.39844,1002.21533 Q753.39844,1001.8339 753.39844,1001.82324 Q753.39844,1001.8125 753.39844,1001.8125 Q753.39844,1001.8125 753.39844,1001.8125 Q753.39844,1001.8125 753.39844,1001.8125 Q753.39844,1001.8125 753.39844,1001.8125 Q753.39844,1001.8125 753.39844,1001.8125 Q753.39844,1001.8125 753.39844,1001.8125 Q753.39844,1001.8125 753.39844,1001.8125 Q753.39844,1001.8125 753.39844,1001.8125 Q753.39844,1001.8125 753.39844,1001.8125 Q753.39844,1001.8125 753.39844,1001.8125 Q753.39844,1001.8125 753.22266,1001.43164 L753.0469,1001.0508 " fill="none" stroke="#000000" stroke-width="28.0" stroke-linecap="round"/><path d="M839.53125,943.9219 Q839.53125,943.9219 839.53125,943.9219 Q839.53125,943.9219 839.53125,943.9219 Q839.53125,943.9219 839.53125,943.9219 Q839.53125,943.9219 839.53125,943.9219 Q839.53125,943.9219 839.53125,943.9219 Q839.53125,943.9219 839.53125,943.9219 Q839.53125,943.9219 839.53125,943.9219 Q839.53125,943.9219 839.53125,943.9219 Q839.53125,943.9219 839.53125,943.9219 Q839.53125,943.9219 839.53125,943.9219 Q839.53125,943.9219 839.53125,943.9219 Q839.53125,943.9219 839.53125,943.9219 Q839.53125,943.9219 839.53125,943.9219 Q839.53125,943.9219 839.53125,943.9219 Q839.53125,943.9219 839.53125,943.9219 Q839.53125,943.9219 839.53125,943.9219 Q839.53125,943.9219 839.53125,943.9219 Q839.53125,943.9219 839.53125,943.9219 Q839.53125,943.9219 839.53125,943.9219 Q839.53125,943.9219 839.53125,943.9219 Q839.53125,943.9219 839.8779,944.67285 Q840.2246,945.4238 840.4009,945.80615 Q840.5772,946.1885 840.58154,946.93945 Q840.58594,947.6904 840.7573,948.4531 Q840.9288,949.2158 841.104,949.9746 Q841.2793,950.7334 841.45557,951.86865 Q841.6319,953.0039 841.979,954.14746 Q842.3262,955.291 842.50635,956.80273 Q842.6866,958.31445 842.8613,960.20264 Q843.03613,962.0908 843.2124,964.3701 Q843.3887,966.6494 843.39355,968.5674 Q843.39844,970.48535 843.39844,973.104 Q843.39844,975.72266 843.39844,978.01416 Q843.39844,980.3056 843.39844,982.6157 Q843.39844,984.9258 843.39844,987.20654 Q843.39844,989.4873 843.39844,992.14844 Q843.39844,994.8095 843.56934,996.73535 Q843.74023,998.66113 844.25684,1001.3008 Q844.77344,1003.9404 845.645,1006.9868 Q846.5166,1010.0332 847.56445,1013.44336 Q848.6123,1016.8535 849.83936,1020.28467 Q851.0664,1023.7158 851.95557,1027.1465 Q852.8447,1030.5771 854.0552,1034.3433 Q855.2656,1038.1094 856.5034,1041.2007 Q857.74115,1044.292 858.97266,1047.7114 Q860.2041,1051.1309 861.605,1054.1875 Q863.00586,1057.2441 864.4136,1060.294 Q865.8213,1063.3438 867.22363,1066.0137 Q868.626,1068.6836 870.3779,1072.0967 Q872.12994,1075.5098 873.7168,1078.5674 Q875.30365,1081.625 876.8877,1085.4175 Q878.4717,1089.21 879.7075,1092.2681 Q880.94336,1095.3262 882.1704,1098.7324 Q883.3974,1102.1387 884.6328,1105.2095 Q885.86816,1108.2803 887.2671,1111.3223 Q888.6661,1114.3643 890.0679,1117.0337 Q891.4697,1119.7031 892.7134,1121.644 Q893.95703,1123.585 895.01465,1124.7461 Q896.0723,1125.9072 898.15234,1127.4204 Q900.2324,1128.9336 903.3662,1130.8267 Q906.49994,1132.7197 909.49023,1134.2524 Q912.48047,1135.7852 916.1416,1136.5674 Q919.8028,1137.3496 923.4297,1137.7358 Q927.05664,1138.1221 930.6572,1138.1411 Q934.25775,1138.1602 938.0283,1138.1602 Q941.7988,1138.1602 944.6128,1138.1602 Q947.42676,1138.1602 951.1929,1138.1602 Q954.95905,1138.1602 957.8042,1137.791 Q960.6494,1137.4219 964.6655,1137.04 Q968.68164,1136.6582 972.3867,1135.9062 Q976.0918,1135.1543 980.12354,1133.6519 Q984.1553,1132.1494 988.3677,1130.2559 Q992.5801,1128.3623 996.45215,1126.0908 Q1000.3242,1123.8193 1005.40186,1120.7852 Q1010.47943,1117.751 1014.71875,1114.7056 Q1018.958,1111.6602 1022.66016,1108.9863 Q1026.3623,1106.3125 1029.5396,1104.0176 Q1032.7168,1101.7227 1035.8779,1099.0698 Q1039.0391,1096.417 1041.8491,1094.1313 Q1044.6592,1091.8457 1047.3135,1089.5503 Q1049.9678,1087.2549 1052.4199,1084.6143 Q1054.8721,1081.9736 1056.835,1080.0322 Q1058.7979,1078.0908 1060.3872,1076.5596 Q1061.9766,1075.0283 1063.9038,1072.7607 Q1065.831,1070.4932 1067.5918,1068.2104 Q1069.3525,1065.9277 1070.4282,1064.3813 Q1071.5039,1062.835 1072.3877,1061.6816 Q1073.2715,1060.5283 1073.979,1059.0166 Q1074.6865,1057.5049 1075.3901,1055.981 Q1076.0938,1054.457 1076.9663,1052.935 Q1077.8389,1051.4131 1078.5454,1049.5259 Q1079.252,1047.6387 1080.2993,1045.7266 Q1081.3467,1043.8145 1082.5723,1041.54 Q1083.7979,1039.2656 1085.2002,1036.2383 Q1086.6025,1033.2109 1088.0068,1030.5381 Q1089.4111,1027.8652 1090.8018,1025.5942 Q1092.1924,1023.3233 1093.0967,1021.7622 Q1094.001,1020.2012 1095.0542,1018.6704 Q1096.1074,1017.1397 1096.8193,1015.98926 Q1097.5312,1014.83887 1097.7256,1014.4302 Q1097.9199,1014.0214 1097.9248,1014.01074 Q1097.9297,1014.0 1097.9297,1014.0 Q1097.9297,1014.0 1098.2749,1013.2661 Q1098.6201,1012.5322 1098.6265,1012.5044 Q1098.6328,1012.47656 1098.6328,1012.47656 Q1098.6328,1012.47656 1098.6328,1012.47656 Q1098.6328,1012.47656 1098.6328,1012.47656 Q1098.6328,1012.47656 1098.6328,1012.47656 Q1098.6328,1012.47656 1098.6328,1012.47656 Q1098.6328,1012.47656 1098.6328,1012.47656 Q1098.6328,1012.47656 1098.6328,1012.47656 Q1098.6328,1012.47656 1098.6328,1011.354 Q1098.6328,1010.23145 1098.2905,1009.8408 Q1097.9482,1009.4502 1097.2554,1008.3291 Q1096.5625,1007.20807 1096.0303,1006.43555 Q1095.498,1005.6631 1094.8003,1004.90186 Q1094.1025,1004.1407 1093.0581,1003.00977 Q1092.0137,1001.8789 1089.5996,1000.001 Q1087.1855,998.12305 1084.3936,996.2251 Q1081.6016,994.32715 1077.4395,992.79346 Q1073.2773,991.25977 1069.9131,990.10596 Q1066.5488,988.95215 1063.0376,987.8086 Q1059.5264,986.66504 1055.4751,985.8838 Q1051.4238,985.10254 1046.5176,984.33887 Q1041.6113,983.5752 1036.3701,982.8164 Q1031.1289,982.0576 1025.6777,981.2949 Q1020.22656,980.5322 1014.24023,979.02637 Q1008.25385,977.5205 1002.6206,976.7383 Q996.9873,975.95605 991.36035,974.82324 Q985.73334,973.6904 980.1118,972.91895 Q974.49023,972.14746 969.0332,971.38525 Q963.5762,970.62305 956.24854,969.4912 Q948.9209,968.3594 942.397,967.2178 Q935.87305,966.0762 930.05225,964.9336 Q924.23145,963.791 918.7661,962.647 Q913.3008,961.5029 908.19775,960.3613 Q903.0947,959.21967 898.50586,958.0761 Q893.917,956.93256 889.35645,955.7925 Q884.79584,954.6524 880.5576,953.1367 Q876.31934,951.6211 871.7637,950.0991 Q867.20807,948.57715 862.9888,947.42676 Q858.76953,946.2763 854.2158,945.1352 Q849.6621,943.9941 845.27783,943.22314 Q840.89355,942.45215 836.6382,941.6846 Q832.3828,940.91693 828.68066,940.52637 Q824.9785,940.13574 821.79834,939.7544 Q818.61816,939.3731 816.1489,938.626 Q813.6796,937.8789 811.3872,937.8535 Q809.0947,937.8281 807.4863,937.8281 Q805.87787,937.8281 804.63965,937.45996 Q803.40137,937.0918 801.99414,937.0791 Q800.587,937.06647 800.03467,936.6963 Q799.4824,936.3262 799.4678,936.3154 L799.4531,936.3047 " fill="none" stroke="#000000" stroke-width="28.0" stroke-linecap="round"/><path d="M498.8672,1347.6329 Q498.8672,1347.6329 498.8672,1347.6329 Q498.8672,1347.6329 498.8672,1347.6329 Q498.8672,1347.6329 498.8672,1347.6329 Q498.8672,1347.6329 498.8672,1347.6329 Q498.8672,1347.6329 498.8672,1347.6329 Q498.8672,1347.6329 498.8672,1347.6329 Q498.8672,1347.6329 498.8672,1347.6329 Q498.8672,1347.6329 498.8672,1347.6329 Q498.8672,1347.6329 498.8672,1347.6329 Q498.8672,1347.6329 498.8672,1347.6329 Q498.8672,1347.6329 498.8672,1347.6329 Q498.8672,1347.6329 498.8672,1347.6329 Q498.8672,1347.6329 498.8672,1347.6329 Q498.8672,1347.6329 498.8672,1347.6329 Q498.8672,1347.6329 498.8672,1347.6329 Q498.8672,1347.6329 499.04883,1347.6329 Q499.23047,1347.6329 499.58838,1347.6329 Q499.9463,1347.6329 501.2046,1347.6329 Q502.4629,1347.6329 504.4131,1348.0249 Q506.36328,1348.417 507.94287,1348.4058 Q509.52246,1348.3945 511.10107,1348.3945 Q512.6797,1348.3945 514.4375,1348.0029 Q516.1953,1347.6113 518.13525,1347.6221 Q520.0752,1347.6329 521.64795,1347.2402 Q523.2207,1346.8477 524.97363,1346.4692 Q526.72656,1346.0908 528.6758,1345.3154 Q530.625,1344.54 532.7373,1344.1709 Q534.8496,1343.8018 537.6782,1343.0303 Q540.50684,1342.2587 542.5874,1341.8901 Q544.66797,1341.5215 548.0659,1341.1372 Q551.46387,1340.7529 554.7783,1340.375 Q558.0928,1339.9971 560.91846,1339.6128 Q563.74414,1339.2285 566.7368,1338.4541 Q569.7295,1337.6797 572.89404,1337.3125 Q576.0586,1336.9453 579.2085,1336.5659 Q582.3584,1336.1866 585.7256,1335.4092 Q589.0928,1334.6318 592.4126,1334.2661 Q595.7324,1333.9004 598.8989,1333.1265 Q602.0654,1332.3525 605.05225,1331.9829 Q608.03906,1331.6133 610.8506,1330.8384 Q613.6621,1330.0635 616.2793,1329.6968 Q618.8965,1329.33 621.72705,1328.9478 Q624.5576,1328.5654 627.3696,1328.1846 Q630.18164,1327.8037 633.90186,1327.4229 Q637.6221,1327.042 641.4956,1326.6611 Q645.36914,1326.2803 649.4175,1325.5059 Q653.4658,1324.7314 657.479,1324.7563 Q661.4922,1324.7812 665.7363,1324.3892 Q669.98047,1323.9971 674.022,1324.0083 Q678.0635,1324.0195 682.4663,1324.0195 Q686.86914,1324.0195 691.2676,1324.0195 Q695.666,1324.0195 700.791,1324.0195 Q705.916,1324.0195 710.83545,1324.0195 Q715.7549,1324.0195 721.03467,1324.4126 Q726.31445,1324.8057 730.86914,1324.7935 Q735.4239,1324.7812 739.2613,1324.7812 Q743.0987,1324.7812 746.9741,1324.7812 Q750.8496,1324.7812 754.7163,1324.7812 Q758.58307,1324.7812 761.70996,1324.7812 Q764.8369,1324.7812 768.1875,1325.1743 Q771.5381,1325.5674 775.4448,1325.5552 Q779.35156,1325.5431 783.38477,1325.5431 Q787.41797,1325.5431 792.5591,1325.937 Q797.7002,1326.331 801.51074,1326.3179 Q805.3213,1326.3047 808.46484,1326.3047 Q811.6084,1326.3047 814.58887,1326.3047 Q817.56934,1326.3047 820.72705,1325.9136 Q823.88477,1325.5225 826.6953,1325.5327 Q829.50586,1325.5431 833.22314,1325.1509 Q836.9404,1324.7588 840.0908,1324.77 Q843.2412,1324.7812 847.67725,1324.3882 Q852.1133,1323.995 862.02246,1324.0073 Q871.93164,1324.0195 877.04346,1324.0195 Q882.1553,1324.0195 886.39014,1323.6494 Q890.625,1323.2793 894.6753,1323.2686 Q898.7256,1323.2579 902.5913,1322.8882 Q906.45703,1322.5186 909.98047,1322.1377 Q913.5039,1321.7568 917.1787,1321.7456 Q920.8535,1321.7344 924.73926,1321.7344 Q928.62494,1321.7344 933.01025,1321.7344 Q937.3955,1321.7344 941.4419,1322.105 Q945.4883,1322.4756 948.501,1322.4858 Q951.5137,1322.4961 953.9956,1322.4961 Q956.47754,1322.4961 958.41846,1322.4961 Q960.3594,1322.4961 961.7837,1322.125 Q963.208,1321.7539 963.9297,1321.7441 Q964.65137,1321.7344 964.8408,1321.7344 Q965.03033,1321.7344 965.20557,1321.7344 Q965.38086,1321.7344 965.38574,1321.7344 Q965.3906,1321.7344 965.3906,1321.7344 Q965.3906,1321.7344 965.3906,1321.7344 Q965.3906,1321.7344 965.3906,1321.7344 Q965.3906,1321.7344 965.3906,1321.7344 Q965.3906,1321.7344 965.3906,1321.7344 Q965.3906,1321.7344 965.3906,1321.7344 Q965.3906,1321.7344 965.3906,1321.7344 Q965.3906,1321.7344 965.3906,1321.7344 Q965.3906,1321.7344 965.3906,1321.7344 Q965.3906,1321.7344 964.87354,1317.5884 Q964.35645,1313.4424 964.0044,1310.064 Q963.6524,1306.6857 962.4448,1302.8848 Q961.2373,1299.084 959.8335,1294.8984 Q958.4297,1290.7129 956.68164,1286.1548 Q954.9336,1281.5967 952.83105,1277.3936 Q950.7285,1273.1904 948.7969,1269.3848 Q946.8653,1265.5791 944.417,1262.5083 Q941.9687,1259.4375 939.33057,1256.0122 Q936.6924,1252.5869 934.2285,1249.9033 Q931.76465,1247.2197 928.78955,1244.5537 Q925.81445,1241.8877 922.4878,1239.2256 Q919.1611,1236.5635 916.33154,1234.6367 Q913.50195,1232.71 910.53564,1230.8169 Q907.56934,1228.9238 904.3999,1227.3833 Q901.23047,1225.8428 897.0376,1223.9473 Q892.8447,1222.0518 888.6289,1219.7788 Q884.4131,1217.5059 879.6841,1215.5918 Q874.95514,1213.6777 869.35254,1211.0322 Q863.75,1208.3867 858.1284,1205.7222 Q852.5069,1203.0576 847.0366,1201.126 Q841.5664,1199.1943 836.9829,1198.0347 Q832.3994,1196.875 827.9927,1196.1016 Q823.58594,1195.3281 819.0332,1194.5688 Q814.48047,1193.8096 810.07764,1193.4175 Q805.6748,1193.0254 801.1079,1192.2739 Q796.54095,1191.5225 791.6328,1190.7612 Q786.7246,1190.0 781.6294,1189.2383 Q776.5342,1188.4766 772.64355,1188.0859 Q768.7529,1187.6953 764.2046,1186.9453 Q759.65625,1186.1953 755.5835,1185.8013 Q751.51074,1185.4072 747.813,1185.0269 Q744.11523,1184.6465 739.73926,1183.8955 Q735.3633,1183.1445 730.9712,1182.3833 Q726.5791,1181.6221 721.6738,1181.2305 Q716.76855,1180.8389 711.499,1180.0869 Q706.2295,1179.335 700.8247,1179.314 Q695.4199,1179.293 689.5835,1179.6636 Q683.7471,1180.0342 678.1367,1181.1523 Q672.52637,1182.2705 666.88574,1184.1572 Q661.2451,1186.044 655.28467,1187.5762 Q649.3242,1189.1084 644.542,1190.2622 Q639.75977,1191.416 634.6577,1193.3042 Q629.55566,1195.1924 625.65674,1196.7256 Q621.7578,1198.2588 618.23975,1199.7793 Q614.7217,1201.2998 611.3721,1203.1968 Q608.02246,1205.0938 604.85156,1206.6279 Q601.68066,1208.1621 598.00586,1210.0552 Q594.33105,1211.9482 591.1587,1214.2197 Q587.9863,1216.4912 583.93896,1219.4146 Q579.8916,1222.3379 574.6787,1226.5962 Q569.4658,1230.8545 565.0415,1234.6826 Q560.6172,1238.5107 556.93164,1241.9263 Q553.2461,1245.3418 550.3872,1248.4204 Q547.5283,1251.499 544.5415,1254.1772 Q541.5547,1256.8555 539.42676,1258.7759 Q537.2988,1260.6963 535.3623,1262.2285 Q533.4258,1263.7607 532.0039,1264.915 Q530.58203,1266.0693 529.6885,1266.4702 Q528.7949,1266.8711 527.7466,1267.2515 Q526.69824,1267.6318 525.4717,1268.3838 Q524.2451,1269.1357 521.4873,1272.477 Q518.7295,1275.8184 513.1675,1281.1143 Q507.60547,1286.4102 507.45508,1286.5527 L507.3047,1286.6953 " fill="none" stroke="#000000" stroke-width="28.0" stroke-linecap="round"/><path d="M325.54688,1491.5977 Q325.54688,1491.5977 325.54688,1491.5977 Q325.54688,1491.5977 325.54688,1491.5977 Q325.54688,1491.5977 325.54688,1491.5977 Q325.54688,1491.5977 325.54688,1491.5977 Q325.54688,1491.5977 325.54688,1491.5977 Q325.54688,1491.5977 325.54688,1491.5977 Q325.54688,1491.5977 325.9077,1498.6313 Q326.26855,1505.665 325.90137,1517.9004 Q325.53418,1530.1357 324.82666,1544.2207 Q324.11914,1558.3055 323.58838,1574.1255 Q323.05762,1589.9454 322.35156,1607.0737 Q321.6455,1624.2021 321.30078,1639.4717 Q320.95605,1654.7412 321.14746,1669.21 Q321.33887,1683.6788 321.51416,1695.7617 Q321.68945,1707.8446 322.04102,1717.5454 Q322.39258,1727.2461 322.56885,1735.7456 Q322.74512,1744.2451 323.10107,1751.0293 Q323.45703,1757.8136 323.62842,1763.1177 Q323.7998,1768.4219 323.9751,1774.523 Q324.1504,1780.624 324.32617,1785.5513 Q324.50195,1790.4785 324.85498,1794.2139 Q325.208,1797.9492 325.56055,1800.602 Q325.9131,1803.2549 326.2671,1805.5469 Q326.6211,1807.8389 326.79004,1809.3232 Q326.95898,1810.8075 327.31787,1811.5669 Q327.67676,1812.3263 327.84766,1812.6963 Q328.01855,1813.0664 328.01855,1813.0664 Q328.01855,1813.0664 329.8164,1813.8359 Q331.61426,1814.6055 334.64746,1815.3706 Q337.68066,1816.1357 347.14844,1816.8564 Q356.6162,1817.5771 362.67285,1817.9629 Q368.7295,1818.3486 374.5127,1818.728 Q380.2959,1819.1075 385.76416,1819.1222 Q391.23242,1819.1368 396.896,1819.1368 Q402.55957,1819.1368 408.02637,1818.7662 Q413.49316,1818.3956 419.60596,1818.0161 Q425.71875,1817.6367 430.85596,1817.2554 Q435.99316,1816.8741 440.76025,1816.1217 Q445.52737,1815.3693 448.03662,1814.6113 Q450.5459,1813.8535 450.6245,1813.8291 L450.70312,1813.8046 " fill="none" stroke="#ff0000" stroke-width="28.0" stroke-linecap="round"/><path d="M576.5625,1530.4453 Q576.5625,1530.4453 576.5625,1530.4453 Q576.5625,1530.4453 576.5625,1530.4453 Q576.5625,1530.4453 576.5625,1530.4453 Q576.5625,1530.4453 576.5625,1530.4453 Q576.5625,1530.4453 576.5625,1530.4453 Q576.5625,1530.4453 576.5625,1530.4453 Q576.5625,1530.4453 570.8789,1527.7515 Q565.1953,1525.0576 558.96826,1522.3618 Q552.7412,1519.666 547.3291,1517.3984 Q541.917,1515.1309 537.35156,1513.6172 Q532.78613,1512.1035 528.3535,1510.5654 Q523.9209,1509.0273 520.97656,1507.897 Q518.0322,1506.7666 515.4077,1505.625 Q512.7832,1504.4834 510.51123,1504.1245 Q508.23926,1503.7656 506.6792,1502.9956 Q505.11914,1502.2255 503.53564,1502.2437 Q501.95215,1502.2618 500.72705,1501.8701 Q499.50195,1501.4785 498.63525,1501.0991 Q497.76855,1500.7197 497.0708,1500.729 Q496.37305,1500.7383 495.85303,1501.126 Q495.333,1501.5137 494.62256,1501.897 Q493.9121,1502.2803 491.3916,1506.5898 Q488.8711,1510.8994 484.79004,1522.9106 Q480.70898,1534.9219 478.10938,1545.9565 Q475.5098,1556.9912 473.26077,1569.8501 Q471.01175,1582.709 469.41797,1594.6763 Q467.8242,1606.6436 466.60498,1618.4565 Q465.38574,1630.2697 464.70068,1639.706 Q464.01562,1649.1426 463.49512,1657.0732 Q462.9746,1665.004 462.80957,1671.8481 Q462.64453,1678.6924 462.6504,1683.5459 Q462.65625,1688.3993 463.01807,1693.353 Q463.37988,1698.3066 463.91162,1702.4722 Q464.44336,1706.6377 465.333,1709.6553 Q466.22266,1712.6729 466.91943,1714.54 Q467.61618,1716.4072 468.68652,1717.9297 Q469.75684,1719.4521 470.44873,1720.5825 Q471.14062,1721.7129 472.20508,1722.4604 Q473.2695,1723.208 475.95068,1725.1445 Q478.63184,1727.0809 481.96582,1728.1919 Q485.2998,1729.3027 489.39697,1730.4565 Q493.49414,1731.6104 498.05664,1731.9653 Q502.61914,1732.3203 507.17578,1732.3105 Q511.73242,1732.3008 516.66016,1732.6904 Q521.5879,1733.0801 525.99023,1733.4624 Q530.3926,1733.8447 534.06006,1734.2251 Q537.72754,1734.6055 541.97754,1734.2256 Q546.22754,1733.8456 546.4453,1733.835 Q546.6631,1733.8242 550.24023,1724.9878 Q553.8174,1716.1514 553.93994,1715.8472 L554.0625,1715.543 " fill="none" stroke="#ff0000" stroke-width="28.0" stroke-linecap="round"/><path d="M481.64062,1603.5703 Q481.64062,1603.5703 481.64062,1603.5703 Q481.64062,1603.5703 481.64062,1603.5703 Q481.64062,1603.5703 481.64062,1603.5703 Q481.64062,1603.5703 481.64062,1603.5703 Q481.64062,1603.5703 481.64062,1603.5703 Q481.64062,1603.5703 481.64062,1603.5703 Q481.64062,1603.5703 484.1787,1603.9629 Q486.71677,1604.3555 492.58737,1605.9058 Q498.45798,1607.456 503.54102,1608.5898 Q508.62402,1609.7235 515.1714,1610.8672 Q521.71875,1612.0107 527.3213,1612.7627 Q532.9238,1613.5146 539.26953,1614.667 Q545.61523,1615.8195 550.6782,1616.1797 Q555.7412,1616.54 561.21045,1615.3545 Q566.6797,1614.169 577.542,1611.8916 L588.4043,1609.6143 " fill="none" stroke="#ff0000" stroke-width="28.0" stroke-linecap="round"/><path d="M601.875,1611.1875 Q601.875,1611.1875 601.875,1611.1875 Q601.875,1611.1875 601.875,1611.1875 Q601.875,1611.1875 601.875,1611.1875 Q601.875,1611.1875 604.2388,1621.4307 Q606.60254,1631.6738 608.87744,1642.3159 Q611.15234,1652.958 614.8667,1666.69 Q618.58105,1680.4219 622.1196,1691.8789 Q625.6582,1703.3358 629.34863,1713.956 Q633.03906,1724.5762 636.1924,1732.8989 Q639.3457,1741.2217 642.3169,1747.6108 Q645.2881,1754.0001 647.709,1758.8574 Q650.1299,1763.7148 651.3501,1765.5815 Q652.5703,1767.4482 653.8003,1768.9604 Q655.0303,1770.4727 656.084,1771.6089 Q657.1377,1772.7451 657.64844,1773.1016 Q658.1592,1773.4579 658.86523,1773.0542 Q659.5713,1772.6504 663.5342,1764.4238 Q667.4971,1756.1974 671.90674,1732.9038 Q676.3164,1709.6104 678.3428,1688.8672 Q680.36914,1668.124 682.49854,1646.1938 Q684.6279,1624.2637 686.8965,1604.7139 Q689.16504,1585.1641 690.9209,1569.1641 Q692.67676,1553.1641 694.6162,1539.1172 Q696.55566,1525.0703 698.31396,1513.686 Q700.07227,1502.3018 701.4492,1495.6777 Q702.8262,1489.0537 703.7031,1485.2695 Q704.5801,1481.4854 705.4595,1478.8481 Q706.33887,1476.2109 707.21924,1474.3262 Q708.0996,1472.4414 708.43506,1472.106 Q708.7705,1471.7705 710.02344,1470.6089 Q711.27637,1469.4473 714.3174,1467.5186 Q717.3584,1465.5898 721.41455,1463.6938 Q725.4707,1461.7979 728.25977,1460.2803 L731.0488,1458.7627 " fill="none" stroke="#ff0000" stroke-width="28.0" stroke-linecap="round"/><path d="M886.28906,1538.8241 Q886.28906,1538.8241 886.28906,1538.8241 Q886.28906,1538.8241 886.28906,1538.8241 Q886.28906,1538.8241 886.28906,1538.8241 Q886.28906,1538.8241 886.28906,1538.8241 Q886.28906,1538.8241 886.28906,1538.8241 Q886.28906,1538.8241 886.28906,1538.8241 Q886.28906,1538.8241 886.28906,1538.8241 Q886.28906,1538.8241 879.23535,1538.4326 Q872.1817,1538.0411 862.51807,1536.8862 Q852.8545,1535.7314 845.0947,1534.5796 Q837.3349,1533.4276 829.0913,1532.2896 Q820.84766,1531.1514 811.8408,1528.832 Q802.834,1526.5126 795.84766,1524.6167 Q788.8614,1522.7207 782.55225,1521.208 Q776.24316,1519.6953 771.3657,1518.9556 Q766.4883,1518.2158 762.67285,1517.8477 Q758.8574,1517.4795 756.41455,1517.4878 Q753.9717,1517.4961 752.23047,1517.8872 Q750.4893,1518.2783 749.0918,1518.6597 Q747.6943,1519.041 746.64844,1519.8145 Q745.60254,1520.5879 744.00244,1522.9209 Q742.40234,1525.2539 738.6494,1538.127 Q734.89655,1551.0 733.92194,1563.5552 Q732.9473,1576.1104 733.1582,1591.4214 Q733.36914,1606.7324 733.9072,1624.3291 Q734.4453,1641.9258 735.51465,1657.8667 Q736.5839,1673.8076 737.81934,1687.8433 Q739.0547,1701.8789 741.4336,1722.4995 Q743.8125,1743.1201 745.3921,1749.6953 Q746.9717,1756.2705 748.7173,1760.148 Q750.4628,1764.0254 752.5591,1767.0981 Q754.6553,1770.1709 758.28955,1773.2168 Q761.9238,1776.2626 769.21484,1778.5874 Q776.50586,1780.9122 783.54785,1781.3506 Q790.58984,1781.7891 797.8926,1780.3379 Q805.1953,1778.8867 811.4575,1776.6089 Q817.7197,1774.331 823.19727,1771.6729 Q828.6748,1769.0145 833.26904,1766.3496 Q837.8633,1763.6846 842.5996,1760.6514 Q847.33594,1757.6182 850.5459,1755.311 Q853.75586,1753.0038 856.4043,1749.2471 Q859.05273,1745.4902 859.64746,1737.9814 Q860.2422,1730.4727 861.2754,1715.5435 Q862.3086,1700.6143 862.3457,1700.0806 L862.3828,1699.5469 " fill="none" stroke="#ff0000" stroke-width="28.0" stroke-linecap="round"/><path d="M760.4297,1685.8359 Q760.4297,1685.8359 760.4297,1685.8359 Q760.4297,1685.8359 760.4297,1685.8359 Q760.4297,1685.8359 760.4297,1685.8359 Q760.4297,1685.8359 760.4297,1685.8359 Q760.4297,1685.8359 760.4297,1685.8359 Q760.4297,1685.8359 761.15283,1685.4443 Q761.8759,1685.0527 768.73047,1683.8877 Q775.58496,1682.7227 781.3623,1681.1875 Q787.1397,1679.6523 795.1094,1676.1694 Q803.0791,1672.6865 808.4502,1669.2627 Q813.8213,1665.8389 824.8291,1658.9146 L835.8369,1651.9904 " fill="none" stroke="#ff0000" stroke-width="28.0" stroke-linecap="round"/><path d="M926.0156,1554.0587 Q926.0156,1554.0587 926.0156,1554.0587 Q926.0156,1554.0587 926.0156,1554.0587 Q926.0156,1554.0587 926.0156,1554.0587 Q926.0156,1554.0587 925.2905,1565.4453 Q924.5654,1576.832 924.04297,1593.3926 Q923.5205,1609.9531 922.63135,1627.0962 Q921.7422,1644.2391 921.04443,1661.7749 Q920.3467,1679.3107 920.0073,1694.8223 Q919.6679,1710.334 919.67773,1724.4102 Q919.6875,1738.4863 919.8672,1751.2896 Q920.0469,1764.0928 920.40283,1775.8989 Q920.7587,1787.7051 921.2925,1796.0386 Q921.8262,1804.3721 922.1738,1810.4141 Q922.5215,1816.4562 922.8701,1820.1636 Q923.21875,1823.8711 923.57227,1825.7451 Q923.92584,1827.6191 924.0967,1828.7432 Q924.2676,1829.8672 924.2627,1830.2266 Q924.2578,1830.5858 924.2578,1830.5858 Q924.2578,1830.5858 924.2578,1830.5858 Q924.2578,1830.5858 923.53516,1829.0083 Q922.8125,1827.4307 919.22656,1813.8018 Q915.64056,1800.1729 912.8364,1782.8779 Q910.0322,1765.583 907.77344,1748.1396 Q905.51465,1730.6963 904.3076,1712.7573 Q903.1005,1694.8185 903.1323,1677.6108 Q903.16406,1660.4032 903.8882,1644.4546 Q904.6123,1628.5059 906.21875,1614.1006 Q907.8252,1599.6953 910.67334,1586.396 Q913.5215,1573.0967 917.05664,1564.0781 Q920.5918,1555.0596 924.09863,1547.8955 Q927.60547,1540.7316 931.3115,1535.8267 Q935.0176,1530.9219 938.88086,1527.1548 Q942.74414,1523.3877 947.5386,1519.9521 Q952.333,1516.5166 957.40576,1514.6743 Q962.47845,1512.832 967.2456,1512.0938 Q972.0127,1511.3555 976.57715,1511.7715 Q981.1416,1512.1875 989.3013,1516.2788 Q997.46094,1520.3701 1001.51904,1524.52 Q1005.57715,1528.6699 1010.4717,1535.4443 Q1015.3662,1542.2188 1019.26953,1549.8213 Q1023.17285,1557.4238 1026.0186,1564.3066 Q1028.8643,1571.1895 1031.502,1579.1436 Q1034.1396,1587.0977 1035.752,1592.8735 Q1037.3643,1598.6495 1038.0938,1604.3584 Q1038.8232,1610.0674 1038.1641,1614.3066 Q1037.5049,1618.5459 1035.9731,1622.6743 Q1034.4414,1626.8027 1032.3276,1630.311 Q1030.2139,1633.8193 1026.7461,1636.876 Q1023.2784,1639.9326 1016.1826,1643.7212 Q1009.0869,1647.5098 1001.6997,1648.7383 Q994.3125,1649.9668 987.126,1649.2651 Q979.93945,1648.5635 973.2241,1646.6924 Q966.50885,1644.8213 961.0742,1643.3008 Q955.63965,1641.7803 950.166,1639.1489 Q944.6924,1636.5176 940.9297,1634.5815 Q937.167,1632.6455 935.20215,1631.917 Q933.2373,1631.1885 932.1201,1630.3569 Q931.0029,1629.5254 930.9702,1629.4971 Q930.9375,1629.4688 930.9375,1629.4688 Q930.9375,1629.4688 930.9375,1629.4688 Q930.9375,1629.4688 930.9375,1629.4688 Q930.9375,1629.4688 934.8579,1637.3799 Q938.7783,1645.2911 944.67725,1652.751 Q950.5762,1660.2108 957.05176,1668.1724 Q963.52734,1676.1339 970.0591,1683.0586 Q976.5908,1689.9834 982.9082,1696.8213 Q989.2255,1703.659 995.86475,1709.3856 Q1002.5039,1715.1122 1008.55566,1719.7627 Q1014.6074,1724.4131 1020.0493,1727.8604 Q1025.4912,1731.3076 1030.2808,1733.6411 Q1035.0703,1735.9745 1038.7803,1737.147 Q1042.4902,1738.3193 1046.1724,1737.9897 Q1049.8545,1737.6602 1051.5117,1736.1772 Q1053.169,1734.6943 1053.2251,1734.6401 L1053.2812,1734.5859 " fill="none" stroke="#ff0000" stroke-width="28.0" stroke-linecap="round"/><path d="M856.0547,2071.2656 Q856.0547,2071.2656 856.0547,2071.2656 Q856.0547,2071.2656 856.0547,2071.2656 Q856.0547,2071.2656 856.0547,2071.2656 Q856.0547,2071.2656 856.0547,2071.2656 Q856.0547,2071.2656 856.0547,2071.2656 Q856.0547,2071.2656 856.0547,2071.2656 Q856.0547,2071.2656 856.0547,2071.2656 Q856.0547,2071.2656 856.0547,2071.2656 Q856.0547,2071.2656 856.0547,2071.2656 Q856.0547,2071.2656 856.0547,2071.2656 Q856.0547,2071.2656 856.0547,2071.2656 Q856.0547,2071.2656 855.33057,2068.913 Q854.60645,2066.5605 853.9004,2064.2651 Q853.1943,2061.9697 852.6738,2059.687 Q852.1533,2057.4043 851.9888,2055.5103 Q851.82416,2053.6162 851.4673,2051.7163 Q851.11035,2049.8164 850.93994,2048.3047 Q850.7695,2046.7928 850.59424,2045.6655 Q850.41895,2044.5381 850.2427,2042.208 Q850.06635,2039.8778 849.89056,2038.3813 Q849.7148,2036.8849 849.7207,2035.3608 Q849.72656,2033.8369 849.72656,2031.9194 Q849.72656,2030.0018 849.72656,2028.4932 Q849.72656,2026.9844 849.72656,2024.7847 Q849.72656,2022.585 849.72656,2021.8091 Q849.72656,2021.0332 849.72656,2020.6436 Q849.72656,2020.2539 849.72656,2020.2422 Q849.72656,2020.2303 849.72656,2020.2303 Q849.72656,2020.2303 849.72656,2020.2303 Q849.72656,2020.2303 849.72656,2020.2303 Q849.72656,2020.2303 849.72656,2020.2303 Q849.72656,2020.2303 849.72656,2020.2303 Q849.72656,2020.2303 849.72656,2020.2303 Q849.72656,2020.2303 849.72656,2020.2303 L849.72656,2020.2303 " fill="none" stroke="#000000" stroke-width="28.0" stroke-linecap="round"/><path d="M213.04688,1879.3125 Q213.04688,1879.3125 213.04688,1879.3125 Q213.04688,1879.3125 213.04688,1879.3125 Q213.04688,1879.3125 213.04688,1879.3125 Q213.04688,1879.3125 213.04688,1879.3125 Q213.04688,1879.3125 213.04688,1879.3125 Q213.04688,1879.3125 213.04688,1879.3125 Q213.04688,1879.3125 213.04688,1879.3125 Q213.04688,1879.3125 213.04688,1879.3125 Q213.04688,1879.3125 213.04688,1879.3125 Q213.04688,1879.3125 213.04688,1879.3125 Q213.04688,1879.3125 213.04688,1879.3125 Q213.04688,1879.3125 204.38623,1880.8062 Q195.72557,1882.2998 190.31006,1884.1772 Q184.89453,1886.0547 178.92285,1888.7026 Q172.95117,1891.3506 166.1294,1894.7529 Q159.30762,1898.1554 152.08105,1902.3394 Q144.85449,1906.5234 139.03174,1910.7036 Q133.20898,1914.8838 128.77588,1918.332 Q124.342766,1921.7803 121.32861,1924.8247 Q118.31445,1927.8691 115.33594,1930.9062 Q112.35742,1933.9434 110.02539,1937.02 Q107.69337,1940.0967 106.440926,1942.023 Q105.188484,1943.9492 104.32422,1945.7988 Q103.45996,1947.6484 102.8999,1949.5981 Q102.33984,1951.5479 101.81006,1953.4609 Q101.28027,1955.374 101.26514,1956.9077 Q101.25,1958.4414 101.76221,1960.3354 Q102.274414,1962.2295 103.313965,1964.5044 Q104.35352,1966.7793 106.41651,1970.148 Q108.4795,1973.5166 112.13916,1978.4468 Q115.79883,1983.3768 119.84961,1989.0928 Q123.90038,1994.8086 127.77832,2000.1592 Q131.65625,2005.5098 135.35156,2010.8418 Q139.04688,2016.1738 143.07812,2021.8726 Q147.10938,2027.5713 150.79492,2031.7817 Q154.48047,2035.9922 158.18213,2040.1934 Q161.88379,2044.3945 165.74658,2048.2124 Q169.60938,2052.0303 174.14551,2055.8252 Q178.68164,2059.62 183.9292,2063.0552 Q189.17676,2066.4902 195.1372,2069.5513 Q201.09766,2072.6123 207.46582,2075.1729 Q213.83398,2077.7334 221.29346,2079.4014 Q228.75293,2081.0693 235.48877,2081.8604 Q242.22461,2082.6514 249.23975,2082.6714 Q256.25488,2082.6914 263.21875,2081.9756 Q270.18262,2081.2598 278.00293,2080.4868 Q285.82324,2079.7139 293.87012,2078.938 Q301.917,2078.162 309.91748,2077.4082 Q317.91797,2076.6543 325.72168,2075.5176 Q333.5254,2074.3809 340.6089,2073.233 Q347.69238,2072.085 354.9004,2070.9414 Q362.1084,2069.7979 369.8086,2068.6587 Q377.5088,2067.5195 384.39355,2066.376 Q391.27832,2065.2324 397.76758,2064.0942 Q404.25684,2062.956 410.6255,2061.064 Q416.99414,2059.1719 422.1167,2056.8984 Q427.23926,2054.625 431.3003,2052.7148 Q435.36133,2050.8047 439.06982,2048.526 Q442.77832,2046.2471 445.78662,2043.9604 Q448.79492,2041.6737 451.61133,2039.0176 Q454.42773,2036.3613 458.09766,2031.0957 Q461.76755,2025.8301 464.58643,2020.1587 Q467.40527,2014.4873 469.71875,2008.002 Q472.03223,2001.5167 473.2871,1993.9448 Q474.542,1986.373 475.0879,1979.5068 Q475.63382,1972.6406 475.47806,1964.6646 Q475.3223,1956.6885 474.1206,1948.6895 Q472.91895,1940.6904 471.51953,1933.4419 Q470.12012,1926.1932 468.7119,1919.6895 Q467.3037,1913.1855 465.38477,1907.4517 Q463.46582,1901.7178 461.18848,1896.3701 Q458.9111,1891.0225 455.93994,1885.6875 Q452.96875,1880.3525 449.63867,1875.0215 Q446.3086,1869.6904 442.96533,1864.7246 Q439.62207,1859.7588 436.292,1855.562 Q432.9619,1851.3652 429.44434,1847.5386 Q425.92676,1843.7119 421.9038,1840.2793 Q417.88086,1836.8467 413.3374,1833.4282 Q408.79395,1830.0098 403.00342,1826.937 Q397.2129,1823.8644 390.38184,1821.9297 Q383.55078,1819.995 376.53613,1819.2056 Q369.52148,1818.416 361.2749,1818.3955 Q353.02832,1818.375 344.5996,1818.375 Q336.1709,1818.375 326.8911,1818.7456 Q317.61133,1819.1162 307.3047,1819.8652 Q296.99805,1820.6143 287.2749,1821.3784 Q277.55176,1822.1426 267.90283,1823.273 Q258.2539,1824.4033 249.07617,1825.1777 Q239.89845,1825.9521 231.89453,1827.0688 Q223.89061,1828.1855 216.38623,1828.9722 Q208.88184,1829.7588 203.03955,1830.1499 Q197.19727,1830.541 192.94873,1830.9209 Q188.70018,1831.3008 185.83496,1831.3125 Q182.96973,1831.3243 182.04346,1830.9572 Q181.11719,1830.59 181.08594,1830.5762 L181.05469,1830.5625 " fill="none" stroke="#000000" stroke-width="28.0" stroke-linecap="round"/><path d="M221.48438,1952.4375 Q221.48438,1952.4375 221.48438,1952.4375 Q221.48438,1952.4375 221.48438,1952.4375 Q221.48438,1952.4375 221.48438,1952.4375 Q221.48438,1952.4375 221.48438,1952.4375 Q221.48438,1952.4375 234.04248,1954.3135 Q246.60059,1956.1895 255.07227,1957.3281 Q263.54395,1958.4668 272.15723,1959.2397 Q280.7705,1960.0127 289.062,1961.1475 Q297.35352,1962.2822 304.38135,1963.0498 Q311.40918,1963.8173 318.1328,1964.5829 Q324.85645,1965.3485 330.16943,1966.1107 Q335.48242,1966.8729 340.02588,1967.6274 Q344.56934,1968.382 347.8081,1968.7788 Q351.04688,1969.1758 353.8711,1969.5571 Q356.6953,1969.9385 356.76562,1969.9478 L356.83594,1969.957 " fill="none" stroke="#000000" stroke-width="28.0" stroke-linecap="round"/><path d="M300.58594,1925.0156 Q300.58594,1925.0156 300.58594,1925.0156 Q300.58594,1925.0156 300.58594,1925.0156 Q300.58594,1925.0156 300.58594,1925.0156 Q300.58594,1925.0156 300.58594,1925.0156 Q300.58594,1925.0156 300.76758,1929.7344 Q300.94922,1934.4531 302.21387,1944.9243 Q303.47852,1955.3955 305.07324,1964.1099 Q306.66797,1972.8242 308.9751,1982.7588 Q311.28223,1992.6934 313.9331,2001.0317 Q316.58398,2009.3701 319.03467,2015.769 Q321.48535,2022.168 323.76807,2027.0767 Q326.05078,2031.9854 327.06445,2033.3945 Q328.07812,2034.8037 328.95215,2035.5415 L329.82617,2036.2793 " fill="none" stroke="#000000" stroke-width="28.0" stroke-linecap="round"/><path d="M466.875,1809.2345 Q466.875,1809.2345 466.875,1809.2345 Q466.875,1809.2345 466.875,1809.2345 Q466.875,1809.2345 466.875,1809.2345 Q466.875,1809.2345 467.4038,1813.0527 Q467.93262,1816.8711 469.19482,1828.206 Q470.457,1839.541 471.6836,1851.3286 Q472.91016,1863.1162 474.29492,1874.709 Q475.6797,1886.3018 477.10596,1897.8877 Q478.53223,1909.4736 479.95654,1920.2593 Q481.38086,1931.0448 482.42236,1941.2997 Q483.4639,1951.5546 483.97412,1959.4717 Q484.48438,1967.3887 485.00928,1973.7842 Q485.53415,1980.1797 485.88232,1985.1069 Q486.23047,1990.0343 486.40234,1993.8384 Q486.57422,1997.6426 486.56836,1999.8599 Q486.5625,2002.0771 486.5625,2003.978 Q486.5625,2005.8789 486.38037,2007.0024 Q486.19824,2008.126 486.02246,2008.4795 Q485.84668,2008.8331 485.84668,2008.8331 Q485.84668,2008.8331 485.84668,2008.8331 Q485.84668,2008.8331 485.12988,2008.8188 Q484.4131,2008.8047 480.97852,2003.6831 Q477.5439,1998.5614 471.49753,1984.2046 Q465.45114,1969.8478 462.37354,1953.7915 Q459.2959,1937.7354 458.12744,1922.1597 Q456.95898,1906.584 456.813,1892.0605 Q456.667,1877.5371 457.76465,1865.8301 Q458.8623,1854.123 460.458,1843.1353 Q462.0537,1832.1475 464.16846,1823.8984 Q466.2832,1815.6493 468.5791,1809.2075 Q470.875,1802.7656 473.3457,1798.2412 Q475.8164,1793.7169 478.09766,1791.1079 Q480.3789,1788.4989 483.39014,1786.2256 Q486.40137,1783.9521 490.1172,1782.8452 Q493.833,1781.7383 498.2544,1782.5625 Q502.67578,1783.3868 507.06885,1786.1152 Q511.46188,1788.8438 515.86035,1793.875 Q520.2588,1798.9062 526.03076,1809.2349 Q531.80273,1819.5635 534.7666,1827.9976 Q537.73047,1836.4316 539.8154,1845.2197 Q541.9004,1854.0077 543.2783,1861.9536 Q544.65625,1869.8994 545.1582,1875.9502 Q545.66016,1882.0011 545.46045,1886.5298 Q545.26074,1891.0586 544.17773,1894.0459 Q543.0947,1897.0332 541.67773,1898.8984 Q540.26074,1900.7635 536.1343,1903.4531 Q532.0078,1906.1426 526.1675,1908.0176 Q520.32715,1909.8927 512.7046,1909.0519 Q505.08203,1908.211 497.13428,1904.6901 Q489.18652,1901.1691 480.21484,1893.8257 Q471.2432,1886.4824 463.34424,1878.4395 Q455.4453,1870.3965 439.4004,1854.1733 L423.35544,1837.9502 " fill="none" stroke="#000000" stroke-width="28.0" stroke-linecap="round"/><path d="M557.5781,2025.5625 Q557.5781,2025.5625 557.5781,2025.5625 Q557.5781,2025.5625 557.5781,2025.5625 Q557.5781,2025.5625 557.5781,2025.5625 Q557.5781,2025.5625 557.5781,2025.5625 Q557.5781,2025.5625 557.5781,2025.5625 Q557.5781,2025.5625 557.5781,2025.5625 Q557.5781,2025.5625 557.5781,2025.5625 Q557.5781,2025.5625 561.0249,2023.9902 Q564.4717,2022.4181 567.81934,2020.1035 Q571.167,2017.7891 576.3169,2011.5737 Q581.4668,2005.3584 587.43555,1994.2192 Q593.4043,1983.0802 596.68066,1970.8384 Q599.95703,1958.5966 601.6655,1945.2631 Q603.374,1931.9296 603.8721,1918.5239 Q604.3701,1905.1182 603.99023,1896.1138 Q603.61035,1887.1094 602.71826,1879.9648 Q601.8262,1872.8204 601.4883,1869.4863 Q601.1504,1866.1523 600.6177,1864.2949 Q600.08496,1862.4375 599.5586,1861.3208 Q599.0322,1860.2041 599.0322,1860.2041 Q599.0322,1860.2041 598.86523,1860.2368 Q598.69824,1860.2695 597.44385,1861.0503 Q596.18945,1861.831 591.8916,1869.2358 Q587.59375,1876.6406 583.3589,1888.6108 Q579.124,1900.5812 577.4346,1912.0269 Q575.7451,1923.4727 574.89453,1935.687 Q574.04395,1947.9012 574.2534,1960.0181 Q574.4629,1972.1348 574.8198,1982.3862 Q575.17676,1992.6377 575.89355,1999.8242 Q576.61035,2007.0107 577.4961,2012.2832 Q578.38184,2017.5557 579.62354,2021.7021 Q580.86523,2025.8486 581.9155,2028.4668 Q582.9658,2031.085 583.65625,2031.7783 Q584.3467,2032.4717 585.04443,2032.8364 Q585.7422,2033.2012 588.2656,2033.1904 Q590.78906,2033.1797 594.52637,2030.4214 Q598.2637,2027.6631 602.65674,2022.27 Q607.0498,2016.877 609.45166,2014.6826 L611.8535,2012.4883 " fill="none" stroke="#000000" stroke-width="28.0" stroke-linecap="round"/><path d="M699.96094,2066.6953 Q699.96094,2066.6953 699.96094,2066.6953 Q699.96094,2066.6953 699.96094,2066.6953 Q699.96094,2066.6953 699.96094,2066.6953 Q699.96094,2066.6953 699.96094,2066.6953 Q699.96094,2066.6953 699.96094,2066.6953 Q699.96094,2066.6953 699.7798,2066.3032 Q699.59863,2065.9111 691.33545,2054.2388 Q683.07227,2042.5664 677.46875,2034.2051 Q671.86523,2025.8438 665.8745,2014.3228 Q659.8838,2002.8018 655.5283,1989.7871 Q651.17285,1976.7726 648.7754,1966.9781 Q646.3779,1957.1837 645.1831,1950.0215 Q643.9883,1942.8594 643.48193,1937.9746 Q642.9756,1933.0898 642.9917,1930.8975 Q643.0078,1928.7051 643.6987,1926.1382 Q644.38965,1923.5713 644.91504,1923.1611 Q645.4404,1922.751 646.9912,1922.001 Q648.542,1921.251 651.3262,1920.4873 Q654.11035,1919.7236 658.2866,1919.7036 Q662.4629,1919.6837 665.9927,1920.4233 Q669.52246,1921.1631 674.7383,1922.293 Q679.9541,1923.4229 683.1792,1924.1953 Q686.4043,1924.9678 689.90625,1925.729 Q693.4082,1926.4902 696.9287,1926.8838 Q700.4492,1927.2772 703.45605,1926.9194 Q706.4629,1926.5615 708.09033,1925.8096 Q709.7178,1925.0577 709.7612,1925.0366 L709.8047,1925.0156 " fill="none" stroke="#000000" stroke-width="28.0" stroke-linecap="round"/><path d="M767.46094,1827.5156 Q767.46094,1827.5156 767.46094,1827.5156 Q767.46094,1827.5156 767.46094,1827.5156 Q767.46094,1827.5156 767.46094,1827.5156 Q767.46094,1827.5156 767.46094,1827.5156 Q767.46094,1827.5156 768.48193,1843.0747 Q769.5029,1858.6338 770.3877,1870.875 Q771.2724,1883.1162 773.1787,1895.3384 Q775.08496,1907.5605 776.6782,1919.3877 Q778.2715,1931.2147 779.6797,1943.368 Q781.08795,1955.5214 782.66797,1967.3633 Q784.24805,1979.2051 785.4917,1987.7002 Q786.73535,1996.1953 787.61426,2002.2871 Q788.49316,2008.3788 789.03516,2012.2852 Q789.5772,2016.1914 789.7632,2017.7773 Q789.94916,2019.3633 790.12646,2020.9004 Q790.3038,2022.4374 790.3081,2023.58 Q790.3125,2024.7225 790.3125,2024.7617 Q790.3125,2024.8008 790.3125,2024.8008 L790.3125,2024.8008 " fill="none" stroke="#000000" stroke-width="28.0" stroke-linecap="round"/><path d="M787.14844,1921.9686 Q787.14844,1921.9686 787.14844,1921.9686 Q787.14844,1921.9686 787.14844,1921.9686 Q787.14844,1921.9686 787.14844,1921.9686 Q787.14844,1921.9686 787.14844,1921.9686 Q787.14844,1921.9686 787.14844,1921.9686 Q787.14844,1921.9686 794.05615,1915.2471 Q800.9638,1908.5254 805.7119,1903.1963 Q810.45996,1897.8672 814.68506,1892.1733 Q818.91016,1886.4795 821.5752,1882.6406 Q824.24023,1878.8018 826.37744,1875.7144 Q828.51465,1872.627 829.9385,1870.3242 Q831.3623,1868.0215 832.76807,1866.1069 Q834.1739,1864.1924 835.2325,1861.9331 Q836.2911,1859.6738 836.8413,1858.481 Q837.3916,1857.2881 837.40674,1857.2554 L837.4219,1857.2227 " fill="none" stroke="#000000" stroke-width="28.0" stroke-linecap="round"/><path d="M773.4375,1900.6406 Q773.4375,1900.6406 773.4375,1900.6406 Q773.4375,1900.6406 773.4375,1900.6406 Q773.4375,1900.6406 773.4375,1900.6406 Q773.4375,1900.6406 778.1543,1913.2183 Q782.8711,1925.7959 786.52686,1935.9971 Q790.1826,1946.1982 794.6045,1958.0679 Q799.02637,1969.9375 802.8745,1979.7739 Q806.72266,1989.6104 810.58887,1999.1172 Q814.455,2008.6239 817.772,2016.9512 Q821.08887,2025.2783 823.53613,2030.5483 Q825.9834,2035.8184 827.5381,2038.7925 Q829.0928,2041.7666 829.5825,2043.2334 L830.07227,2044.7001 " fill="none" stroke="#000000" stroke-width="28.0" stroke-linecap="round"/><path d="M866.9531,1982.1445 Q866.9531,1982.1445 866.9531,1982.1445 Q866.9531,1982.1445 866.9531,1982.1445 Q866.9531,1982.1445 866.9531,1982.1445 Q866.9531,1982.1445 866.9531,1982.1445 Q866.9531,1982.1445 866.9531,1982.1445 Q866.9531,1982.1445 868.042,1982.1445 Q869.1308,1982.1445 873.2705,1982.1445 Q877.41016,1982.1445 880.53906,1981.3599 Q883.66797,1980.5752 887.1914,1978.2456 Q890.71484,1975.916 893.8755,1972.4473 Q897.0361,1968.9785 902.9053,1960.0732 Q908.7744,1951.168 912.3989,1943.5952 Q916.0235,1936.0225 918.45264,1928.398 Q920.88184,1920.7734 922.26074,1915.105 Q923.63965,1909.4365 924.1411,1905.2876 Q924.6426,1901.1387 924.626,1898.521 Q924.6094,1895.9033 924.4287,1894.4224 Q924.24805,1892.9415 923.71094,1891.417 Q923.1738,1889.8926 922.8252,1889.541 Q922.47656,1889.1895 920.8628,1888.4194 Q919.24896,1887.6494 914.94385,1888.063 Q910.63873,1888.4766 905.6988,1890.4268 Q900.75885,1892.377 895.2744,1895.8623 Q889.79004,1899.3477 886.1836,1902.751 Q882.57715,1906.1544 877.1079,1913.0679 Q871.63873,1919.9814 867.9673,1926.8701 Q864.2959,1933.7588 861.8594,1942.9907 Q859.42285,1952.2227 859.4966,1963.2822 Q859.5703,1974.3418 861.3804,1982.6807 Q863.19037,1991.0195 866.37354,1999.728 Q869.55664,2008.4365 873.1006,2015.6812 Q876.64453,2022.9258 879.6172,2027.4194 Q882.58984,2031.9131 885.7451,2036.4634 Q888.9004,2041.0137 891.3667,2043.6587 Q893.833,2046.3038 896.65625,2048.5757 Q899.4795,2050.8477 902.9868,2052.333 Q906.49414,2053.8184 910.2197,2054.5684 Q913.9453,2055.3184 917.61865,2054.9028 Q921.292,2054.4873 925.54297,2053.3193 Q929.794,2052.1514 933.81744,2049.4473 L937.8409,2046.7432 " fill="none" stroke="#000000" stroke-width="28.0" stroke-linecap="round"/><path d="M1043.4375,1951.6759 Q1043.4375,1951.6759 1043.4375,1951.6759 Q1043.4375,1951.6759 1043.4375,1951.6759 Q1043.4375,1951.6759 1043.4375,1951.6759 Q1043.4375,1951.6759 1043.4375,1951.6759 Q1043.4375,1951.6759 1043.4375,1951.6759 Q1043.4375,1951.6759 1043.4375,1951.6759 Q1043.4375,1951.6759 1043.4375,1951.6759 Q1043.4375,1951.6759 1040.7124,1954.8248 Q1037.9873,1957.9738 1032.2847,1965.7134 Q1026.582,1973.4531 1023.4844,1978.3354 Q1020.3867,1983.2178 1018.126,1987.3896 Q1015.86523,1991.5615 1014.3076,1995.7471 Q1012.75,1999.9326 1012.0757,2003.7251 Q1011.40137,2007.5177 1011.42334,2010.94 Q1011.4453,2014.3623 1012.34766,2019.333 Q1013.25,2024.3037 1015.21436,2028.478 Q1017.1787,2032.6523 1018.9331,2036.4536 Q1020.6875,2040.2549 1022.4468,2042.8901 Q1024.206,2045.5254 1025.7681,2047.3892 Q1027.3301,2049.253 1028.7471,2051.1768 Q1030.1641,2053.1006 1031.2114,2054.2236 Q1032.2588,2055.3467 1033.1313,2056.0952 Q1034.0039,2056.8438 1034.0039,2056.8438 Q1034.0039,2056.8438 1034.0039,2056.8438 Q1034.0039,2056.8438 1034.1558,2056.8184 Q1034.3076,2056.793 1038.4409,2048.9683 Q1042.5742,2041.1436 1045.0508,2035.4072 Q1047.5273,2029.6709 1049.6396,2023.6055 Q1051.752,2017.5399 1054.2017,2009.6001 Q1056.6514,2001.6603 1059.2754,1991.106 Q1061.8994,1980.5518 1063.352,1968.3579 Q1064.8047,1956.1641 1065.1855,1943.9849 Q1065.5664,1931.8055 1064.5522,1914.4443 Q1063.5381,1897.083 1061.6274,1882.5073 Q1059.7168,1867.9316 1056.2393,1852.6924 Q1052.7617,1837.4531 1048.5654,1820.0088 Q1044.3691,1802.5646 1040.1484,1788.7441 Q1035.9277,1774.9237 1030.5034,1761.1934 Q1025.0791,1747.4629 1014.35205,1720.4731 Q1003.625,1693.4834 1003.3164,1692.7065 L1003.0078,1691.9297 " fill="none" stroke="#000000" stroke-width="28.0" stroke-linecap="round"/><path d="M1095.8203,2029.3711 Q1095.8203,2029.3711 1095.8203,2029.3711 Q1095.8203,2029.3711 1095.8203,2029.3711 Q1095.8203,2029.3711 1095.8203,2029.3711 Q1095.8203,2029.3711 1095.8203,2029.3711 Q1095.8203,2029.3711 1095.8203,2029.3711 Q1095.8203,2029.3711 1095.8203,2029.3711 Q1095.8203,2029.3711 1097.4492,2028.1948 Q1099.0781,2027.0186 1103.5684,2021.1543 Q1108.0586,2015.29 1113.1694,2002.915 Q1118.2803,1990.5399 1118.8486,1977.9712 Q1119.417,1965.4023 1118.31,1952.4409 Q1117.2031,1939.4795 1114.8774,1926.1147 Q1112.5518,1912.75 1110.2671,1902.5659 Q1107.9824,1892.3818 1106.4229,1885.6348 Q1104.8633,1878.8877 1103.2817,1873.998 Q1101.7002,1869.1084 1101.2046,1867.294 Q1100.709,1865.4795 1100.0039,1863.9775 Q1099.2988,1862.4756 1098.9546,1861.3364 Q1098.6104,1860.1973 1098.6104,1860.1973 Q1098.6104,1860.1973 1098.0767,1860.2334 Q1097.543,1860.2695 1096.6523,1861.0566 Q1095.7617,1861.8439 1090.8926,1874.3965 Q1086.0234,1886.9492 1084.3623,1901.0967 Q1082.7012,1915.2441 1083.666,1929.7715 Q1084.6309,1944.2988 1086.7759,1956.3662 Q1088.9209,1968.4336 1091.75,1980.2046 Q1094.5791,1991.9756 1097.209,2001.4258 Q1099.8389,2010.876 1102.6641,2017.6729 Q1105.4893,2024.4697 1107.9385,2029.752 Q1110.3877,2035.0342 1112.479,2038.3916 Q1114.5703,2041.7491 1116.5073,2044.7988 Q1118.4443,2047.8486 1119.4717,2048.9307 Q1120.499,2050.0127 1122.2759,2051.1528 Q1124.0527,2052.293 1125.9902,2053.042 Q1127.9277,2053.791 1130.4116,2053.3755 Q1132.8955,2052.96 1135.1748,2051.0059 Q1137.4541,2049.0518 1141.9087,2040.8706 Q1146.3633,2032.6896 1149.856,2021.9316 L1153.3486,2011.1737 " fill="none" stroke="#000000" stroke-width="28.0" stroke-linecap="round"/><path d="M1144.3359,1817.6133 Q1144.3359,1817.6133 1144.3359,1817.6133 Q1144.3359,1817.6133 1144.3359,1817.6133 Q1144.3359,1817.6133 1144.3359,1818.0054 Q1144.3359,1818.3975 1148.4819,1831.2744 Q1152.6279,1844.1512 1156.5112,1856.7871 Q1160.3945,1869.4229 1164.0542,1883.0713 Q1167.7139,1896.7197 1170.8823,1911.6807 Q1174.0508,1926.6416 1176.3135,1940.3354 Q1178.5762,1954.0292 1180.3169,1966.1655 Q1182.0576,1978.3018 1183.8145,1987.7368 Q1185.5713,1997.1719 1187.5151,2003.9673 Q1189.459,2010.7628 1191.2095,2015.2563 Q1192.96,2019.75 1194.7158,2022.7466 Q1196.4717,2025.7432 1198.0405,2027.604 Q1199.6094,2029.4648 1201.186,2030.9741 Q1202.7627,2032.4833 1205.6255,2034.02 Q1208.4883,2035.5566 1211.29,2036.2925 Q1214.0918,2037.0284 1216.7466,2036.6143 Q1219.4014,2036.2002 1221.4907,2035.0322 Q1223.5801,2033.8641 1225.6895,2031.147 L1227.7988,2028.4297 " fill="none" stroke="#000000" stroke-width="28.0" stroke-linecap="round"/></svg>