<svg width="1440" height="2616" xmlns="http://www.w3.org/2000/svg"><rect width="1440" height="2616" fill="#ffffff"/><path d="M519.2578,1848.6094 Q519.2578,1848.6094 519.2578,1848.6094 Q519.2578,1848.6094 519.2578,1848.6094 Q519.2578,1848.6094 519.2578,1848.6094 Q519.2578,1848.6094 519.2578,1848.6094 Q519.2578,1848.6094 519.2578,1848.6094 Q519.2578,1848.6094 519.2578,1848.6094 Q519.2578,1848.6094 519.2578,1848.6094 Q519.2578,1848.6094 519.2578,1848.6094 Q519.2578,1848.6094 519.2578,1848.6094 Q519.2578,1848.6094 519.2578,1848.6094 Q519.2578,1848.6094 519.2578,1848.6094 Q519.2578,1848.6094 519.2578,1848.6094 Q519.2578,1848.6094 519.2578,1848.6094 Q519.2578,1848.6094 518.9204,1846.7661 Q518.583,1844.9229 518.3989,1844.1265 Q518.21484,1843.3301 518.0415,1842.5776 Q517.86816,1841.8252 517.68945,1840.3135 Q517.51074,1838.8018 517.33496,1838.0166 Q517.1592,1837.2314 517.1538,1836.102 Q517.14844,1834.9725 517.14844,1833.834 Q517.14844,1832.6953 517.14844,1831.9165 Q517.14844,1831.1377 517.3179,1830.0122 Q517.4873,1828.8866 517.49365,1828.1191 Q517.5,1827.3516 517.5,1826.9478 Q517.5,1826.5438 517.6704,1825.7925 Q517.8408,1825.041 517.8462,1824.2822 Q517.85156,1823.5234 518.0205,1822.7656 Q518.18945,1822.0078 518.35986,1820.915 Q518.5303,1819.8223 518.8799,1819.0127 Q519.2295,1818.2031 519.58105,1817.4414 Q519.9326,1816.6797 520.28613,1815.9131 Q520.63965,1815.1465 520.9922,1814.0137 Q521.3447,1812.8809 521.8667,1811.7383 Q522.3887,1810.5956 522.91064,1808.3695 Q523.4326,1806.1434 524.1279,1803.8604 Q524.82324,1801.5771 525.35986,1798.5522 Q525.8965,1795.5272 526.2539,1792.1255 Q526.6113,1788.7236 527.1333,1784.5469 Q527.6553,1780.37 528.01074,1776.2139 Q528.3662,1772.0576 528.71875,1767.8604 Q529.0713,1763.6631 529.0864,1759.9473 Q529.10156,1756.2314 529.26855,1752.3369 Q529.43555,1748.4424 529.44434,1744.9761 Q529.4531,1741.5098 529.4531,1737.3687 Q529.4531,1733.2277 529.4531,1729.4185 Q529.4531,1725.6094 529.4531,1721.7534 Q529.4531,1717.8975 529.4531,1714.5005 Q529.4531,1711.1035 529.4531,1707.6011 Q529.4531,1704.0986 529.4531,1701.4048 Q529.4531,1698.7109 529.4531,1696.043 Q529.4531,1693.375 529.4531,1691.4463 Q529.4531,1689.5176 529.624,1688.3535 Q529.7949,1687.1895 529.9702,1686.0493 Q530.1455,1684.9092 530.3213,1683.3999 Q530.4971,1681.8906 530.50244,1680.7393 Q530.5078,1679.5879 530.5078,1678.4531 Q530.5078,1677.3184 530.5078,1676.1919 Q530.5078,1675.0654 530.5078,1674.644 Q530.5078,1674.2227 530.5078,1673.4873 Q530.5078,1672.752 530.5078,1672.3442 Q530.5078,1671.9365 530.5078,1671.5532 Q530.5078,1671.1699 530.5078,1670.791 Q530.5078,1670.4121 530.5078,1670.3896 Q530.5078,1670.3672 530.5078,1670.3672 Q530.5078,1670.3672 530.5078,1670.3672 Q530.5078,1670.3672 530.5078,1669.9863 Q530.5078,1669.6056 530.5078,1669.6056 Q530.5078,1669.6056 530.5078,1669.2246 Q530.5078,1668.8436 530.5078,1668.8436 Q530.5078,1668.8436 530.5078,1668.8436 Q530.5078,1668.8436 530.5078,1668.8436 Q530.5078,1668.8436 530.5078,1668.8436 Q530.5078,1668.8436 530.5078,1668.8436 Q530.5078,1668.8436 530.34033,1668.4629 Q530.17285,1668.082 529.8247,1667.7139 Q529.47656,1667.3457 528.9541,1666.2266 Q528.43164,1665.1074 527.57666,1664.3447 Q526.7217,1663.5819 525.7344,1662.521 Q524.7471,1661.46 522.68604,1659.5801 Q520.625,1657.7002 517.9746,1655.7578 Q515.3242,1653.8154 512.5591,1651.9365 Q509.79395,1650.0576 507.00977,1648.5239 Q504.2256,1646.9902 501.53223,1645.4419 Q498.83887,1643.8936 496.34033,1642.3535 Q493.8418,1640.8135 491.58008,1639.312 Q489.31836,1637.8105 486.68896,1635.9194 Q484.0596,1634.0283 481.99808,1632.7363 Q479.93655,1631.4442 477.22266,1629.764 Q474.5088,1628.0839 472.05127,1626.46 Q469.59372,1624.8359 466.61865,1622.936 Q463.64355,1621.036 460.04736,1618.8076 Q456.45117,1616.5791 453.23584,1614.2812 Q450.0205,1611.9833 446.38818,1608.6488 Q442.75586,1605.3143 438.8584,1601.4902 Q434.9609,1597.666 430.3027,1592.4624 Q425.6445,1587.2588 421.24316,1580.8799 Q416.8418,1574.501 412.53418,1568.1543 Q408.22656,1561.8076 404.1494,1554.331 Q400.07224,1546.8545 396.0298,1538.8755 Q391.9873,1530.8965 388.50293,1524.456 Q385.0186,1518.0156 381.43604,1511.0513 Q377.85352,1504.0869 374.9995,1497.9331 Q372.1455,1491.7792 369.5171,1486.8159 Q366.88867,1481.8525 364.10645,1476.9424 Q361.32425,1472.0322 358.3037,1467.0142 Q355.2832,1461.9962 352.12158,1457.0396 Q348.95996,1452.083 345.99756,1446.8203 Q343.03516,1441.5576 340.19678,1435.4575 Q337.3584,1429.3574 334.91553,1424.065 Q332.47266,1418.7725 329.83447,1413.0552 Q327.1963,1407.338 323.68555,1400.4668 Q320.1748,1393.5957 317.23877,1387.2607 Q314.30273,1380.9259 311.38086,1374.5952 Q308.45898,1368.2646 305.92188,1362.0591 Q303.38477,1355.8535 301.4121,1349.7495 Q299.43945,1343.6455 296.98828,1337.1299 Q294.5371,1330.6143 292.36133,1324.3652 Q290.18555,1318.1162 288.2495,1311.2988 Q286.31348,1304.4814 284.2129,1296.5356 Q282.1123,1288.5898 280.51172,1280.2324 Q278.91113,1271.875 276.9922,1263.1328 Q275.07324,1254.3906 273.02637,1243.7266 Q270.9795,1233.0625 268.81055,1220.6074 Q266.6416,1208.1523 265.26367,1196.7866 Q263.88574,1185.4209 262.62695,1172.7603 Q261.36816,1160.0996 260.11523,1147.2993 Q258.8623,1134.499 258.31152,1123.5698 Q257.76074,1112.6406 257.23145,1101.915 Q256.70215,1091.1895 256.5337,1083.9893 Q256.36523,1076.7891 256.0005,1066.8491 Q255.63574,1056.9092 255.44824,1049.5859 Q255.26074,1042.2627 255.7251,1036.2056 Q256.18945,1030.1484 256.37842,1024.7466 Q256.56738,1019.3447 257.083,1013.583 Q257.59863,1007.8212 258.32275,1002.9741 Q259.04688,998.12695 259.74707,992.8447 Q260.44727,987.5625 261.3203,981.48926 Q262.19336,975.416 263.3667,969.53467 Q264.54004,963.6533 266.48242,957.3638 Q268.4248,951.07416 270.83057,945.7793 Q273.23633,940.48444 275.86426,935.1499 Q278.4922,929.8154 281.15137,924.0747 Q283.81055,918.334 286.438,912.28076 Q289.06543,906.22754 292.32422,898.791 Q295.583,891.3545 298.44873,885.1201 Q301.31445,878.8857 304.98193,872.3862 Q308.6494,865.8867 312.20898,858.9824 Q315.76855,852.0781 319.33398,845.4429 Q322.8994,838.8076 326.54736,831.7197 Q330.1953,824.63184 333.89648,818.1123 Q337.59766,811.5928 340.792,804.7246 Q343.98633,797.85645 347.99316,791.7534 Q352.0,785.6504 355.49268,780.71875 Q358.98535,775.7871 362.77002,770.9209 Q366.5547,766.0547 370.50488,761.3633 Q374.45508,756.6719 378.7622,751.4507 Q383.0693,746.22943 386.76318,742.01807 Q390.45703,737.80664 394.25537,733.1289 Q398.0537,728.4512 401.89453,723.9043 Q405.73535,719.3574 409.63477,715.1177 Q413.53418,710.87787 417.375,706.7172 Q421.21582,702.5566 425.78906,698.3383 Q430.36234,694.12006 436.12308,689.9302 Q441.88382,685.74023 447.81982,681.9414 Q453.75586,678.1426 460.22852,673.6094 Q466.7012,669.0762 472.18408,665.6079 Q477.667,662.13965 483.44678,658.3511 Q489.22656,654.5625 495.02686,650.7544 Q500.82712,646.9463 506.60693,642.4253 Q512.3867,637.9043 517.9375,634.2241 Q523.4883,630.54395 530.99365,626.5991 Q538.499,622.6543 546.2114,618.8467 Q553.9238,615.03906 561.27295,611.61523 Q568.6221,608.1914 576.4072,605.0928 Q584.1924,601.99414 590.8091,599.355 Q597.4258,596.7158 606.10693,593.6821 Q614.7881,590.64844 622.1709,588.6504 Q629.5537,586.65234 636.3872,584.75977 Q643.2207,582.8672 649.44434,581.3906 Q655.66797,579.91406 661.8594,578.3081 Q668.0508,576.70215 675.126,575.1548 Q682.2012,573.6074 689.05176,573.1841 Q695.90234,572.76074 702.1636,573.0962 Q708.4248,573.43164 715.29346,574.1865 Q722.16205,574.9414 728.3755,575.7075 Q734.5889,576.47363 741.21875,577.5952 Q747.84863,578.7168 754.6782,579.8291 Q761.5078,580.9414 768.5752,582.48145 Q775.6426,584.0215 782.40283,585.8823 Q789.1631,587.74316 795.522,589.3296 Q801.88086,590.916 807.47705,592.0615 Q813.07324,593.20703 818.53125,594.3501 Q823.98926,595.49316 829.4531,597.00586 Q834.917,598.51855 840.6846,600.40234 Q846.45215,602.28613 851.61035,604.5708 Q856.76855,606.85547 861.0088,609.5039 Q865.249,612.15234 869.6489,615.5615 Q874.0488,618.9707 877.0664,621.647 Q880.08405,624.32324 884.2466,628.0801 Q888.4092,631.8369 892.1543,635.6787 Q895.8994,639.5205 900.4082,643.667 Q904.917,647.8135 910.2007,653.13916 Q915.4844,658.46484 920.52734,663.2119 Q925.5703,667.95905 931.0996,672.9946 Q936.6289,678.0303 941.8784,683.1094 Q947.1279,688.18854 952.35693,693.103 Q957.58594,698.0176 961.3574,702.25684 Q965.1289,706.4961 969.521,711.0762 Q973.9131,715.65625 977.8291,719.20996 Q981.7451,722.7637 986.77686,727.583 Q991.8086,732.40234 996.0532,736.6128 Q1000.29785,740.8233 1004.5161,745.38184 Q1008.7344,749.9404 1012.4292,754.4951 Q1016.124,759.0498 1019.81055,764.7178 Q1023.4971,770.3857 1026.4976,775.34326 Q1029.498,780.3008 1032.3179,785.2529 Q1035.1377,790.205 1037.6221,795.1763 Q1040.1064,800.14746 1042.7227,805.4375 Q1045.3389,810.72754 1048.1509,817.1719 Q1050.9629,823.6162 1053.6074,830.09375 Q1056.252,836.5713 1058.9082,843.8335 Q1061.5645,851.0957 1063.3452,857.2129 Q1065.126,863.3301 1066.3701,869.4116 Q1067.6143,875.49316 1069.0132,881.58057 Q1070.4121,887.66797 1071.1377,893.38184 Q1071.8633,899.0957 1072.7402,905.94385 Q1073.6172,912.792 1074.8276,919.23096 Q1076.0381,925.6699 1077.1025,931.79395 Q1078.167,937.91797 1079.395,943.2959 Q1080.623,948.6739 1081.8389,954.30566 Q1083.0547,959.9375 1083.9609,965.72754 Q1084.8672,971.51764 1086.0776,977.9209 Q1087.2881,984.32416 1088.3579,991.5869 Q1089.4277,998.8496 1090.4839,1005.7251 Q1091.54,1012.6006 1092.2251,1019.8887 Q1092.9102,1027.1768 1093.1279,1035.3833 Q1093.3457,1043.5898 1093.8511,1052.1919 Q1094.3564,1060.794 1094.5537,1069.6631 Q1094.751,1078.5322 1095.2544,1086.4263 Q1095.7578,1094.3203 1096.4692,1102.1616 Q1097.1807,1110.0029 1097.7114,1116.123 Q1098.2422,1122.2432 1098.5957,1127.8916 Q1098.9492,1133.54 1099.648,1140.1011 Q1100.3467,1146.6621 1100.8794,1153.5034 Q1101.4121,1160.3447 1101.4287,1167.167 Q1101.4453,1173.9893 1101.4453,1180.0479 Q1101.4453,1186.1064 1101.4453,1191.5039 Q1101.4453,1196.9014 1101.2764,1202.6187 Q1101.1074,1208.3359 1100.5933,1214.0479 Q1100.0791,1219.7598 1099.5713,1226.3154 Q1099.0635,1232.8711 1098.3457,1239.6304 Q1097.6279,1246.3896 1096.5796,1252.9028 Q1095.5312,1259.416 1094.3228,1265.8032 Q1093.1143,1272.1904 1091.8687,1279.4819 Q1090.623,1286.7734 1089.3975,1293.2476 Q1088.1719,1299.7217 1086.6113,1306.523 Q1085.0508,1313.3242 1083.4619,1319.4746 Q1081.873,1325.6251 1079.4751,1332.3677 Q1077.0771,1339.1104 1075.291,1344.498 Q1073.5049,1349.8857 1071.2632,1355.5386 Q1069.0215,1361.1914 1066.3711,1366.979 Q1063.7207,1372.7666 1061.1382,1378.0073 Q1058.5557,1383.248 1055.7227,1389.3608 Q1052.8896,1395.4735 1050.543,1401.6533 Q1048.1963,1407.833 1045.7163,1413.6235 Q1043.2363,1419.4141 1040.9712,1424.6973 Q1038.706,1429.9803 1036.248,1435.3223 Q1033.79,1440.6641 1031.6724,1445.2529 Q1029.5547,1449.8418 1027.2544,1455.1938 Q1024.9541,1460.5459 1022.916,1464.6201 Q1020.8779,1468.6942 1018.73047,1472.9589 Q1016.58295,1477.2235 1014.4404,1481.4789 Q1012.29785,1485.7343 1010.38086,1489.1489 Q1008.46387,1492.5636 1006.52734,1495.6328 Q1004.59076,1498.7021 1002.6577,1501.748 Q1000.7246,1504.794 998.6294,1508.1943 Q996.5342,1511.5947 994.40625,1514.3218 Q992.2783,1517.0488 989.8501,1520.4199 Q987.4219,1523.7909 984.75586,1527.6362 Q982.08984,1531.4816 979.6787,1534.4844 Q977.26764,1537.4873 974.5967,1541.3169 Q971.9258,1545.1465 969.46924,1548.209 Q967.01263,1551.2715 964.51465,1555.2026 Q962.0166,1559.1339 959.75,1562.4434 Q957.4834,1565.7529 955.3716,1568.8037 Q953.25977,1571.8545 951.47266,1574.5586 Q949.6856,1577.2627 947.5957,1579.5518 Q945.50586,1581.8408 943.57227,1584.1187 Q941.6387,1586.3965 939.87354,1588.3159 Q938.1084,1590.2352 935.83496,1592.515 Q933.5615,1594.7948 931.09814,1597.4565 Q928.63477,1600.1182 926.42676,1602.3325 Q924.21875,1604.5469 921.7158,1606.8823 Q919.2128,1609.2178 916.4033,1611.5137 Q913.59375,1613.8096 910.7749,1616.1001 Q907.95605,1618.3906 904.4175,1621.31 Q900.8789,1624.2294 897.42285,1626.6309 Q893.9668,1629.0322 890.4585,1631.3179 Q886.9502,1633.6035 883.6509,1636.2144 Q880.35156,1638.8252 877.28516,1640.8105 Q874.21875,1642.796 871.24023,1645.0591 Q868.2617,1647.3221 865.5054,1648.8433 Q862.749,1650.3643 860.9048,1651.543 Q859.06055,1652.7218 857.33594,1653.8428 Q855.61127,1654.9637 854.31396,1656.1323 Q853.0166,1657.3008 852.4531,1657.7207 Q851.88965,1658.1406 850.54297,1659.5903 Q849.1963,1661.04 848.77783,1661.4932 Q848.3594,1661.9463 847.3696,1663.0186 Q846.3799,1664.0907 846.126,1664.5493 Q845.8721,1665.0078 845.6963,1665.3887 Q845.5205,1665.7697 845.34424,1666.1514 Q845.168,1666.5332 844.99316,1667.6445 Q844.81836,1668.7559 844.8115,1669.5298 Q844.8047,1670.3038 845.1426,1671.4341 Q845.4804,1672.5643 846.1694,1674.438 Q846.85834,1676.3116 847.8882,1678.5566 Q848.91797,1680.8018 850.3076,1683.4507 Q851.69727,1686.0997 853.0591,1688.3315 Q854.4209,1690.5635 856.0366,1693.2798 Q857.65234,1695.9961 859.3447,1698.5762 Q861.03705,1701.1561 863.0156,1704.2651 Q864.99414,1707.374 866.7456,1710.3945 Q868.4971,1713.415 869.6655,1715.6128 Q870.834,1717.8105 872.68945,1721.0098 Q874.5449,1724.209 875.7959,1726.5195 Q877.0469,1728.8301 878.27637,1730.7495 Q879.50586,1732.669 880.40234,1734.2129 Q881.2989,1735.7568 882.34576,1737.6445 Q883.39264,1739.5321 884.27295,1741.061 Q885.1533,1742.5898 886.2031,1744.4824 Q887.2529,1746.375 888.1411,1747.9185 Q889.0293,1749.4619 889.9053,1752.0718 Q890.78125,1754.6816 891.6616,1756.6226 Q892.542,1758.5635 893.2495,1760.8223 Q893.95703,1763.081 894.66406,1765.0142 Q895.3711,1766.9474 895.9038,1768.8438 Q896.43646,1770.7402 897.1338,1772.6509 Q897.83105,1774.5615 898.53955,1777.2148 Q899.24805,1779.8682 899.77295,1782.1309 Q900.29785,1784.3936 900.93555,1786.4951 Q901.5733,1788.5967 902.3369,1791.8052 Q903.1005,1795.0137 903.95746,1798.0117 Q904.8144,1801.0098 905.54443,1804.126 Q906.2744,1807.2422 906.9761,1809.9175 Q907.67773,1812.5928 908.38525,1814.54 Q909.0927,1816.4873 909.7969,1818.0259 Q910.501,1819.5645 910.8618,1821.0791 Q911.2226,1822.5938 911.74414,1823.7524 Q912.2656,1824.9111 912.45557,1825.3232 Q912.6455,1825.7354 912.9927,1826.4868 Q913.3398,1827.2382 913.3496,1827.2598 Q913.3594,1827.2812 913.3594,1827.2812 Q913.3594,1827.2812 913.3594,1827.6621 Q913.3594,1828.043 913.3594,1828.043 Q913.3594,1828.043 913.3594,1828.4238 Q913.3594,1828.8047 913.3594,1828.8047 Q913.3594,1828.8047 913.3594,1829.1855 Q913.3594,1829.5663 913.3594,1829.5663 Q913.3594,1829.5663 913.3594,1829.5663 Q913.3594,1829.5663 913.3594,1829.5663 Q913.3594,1829.5663 913.3594,1829.5663 Q913.3594,1829.5663 913.3594,1829.5663 Q913.3594,1829.5663 913.3594,1829.5663 Q913.3594,1829.5663 913.3594,1829.5663 Q913.3594,1829.5663 913.3594,1829.5663 Q913.3594,1829.5663 913.3594,1829.5663 Q913.3594,1829.5663 913.3594,1829.5663 Q913.3594,1829.5663 913.3594,1829.5663 Q913.3594,1829.5663 913.3594,1829.5663 Q913.3594,1829.5663 915.1172,1831.4707 L916.875,1833.375 " fill="none" stroke="#000000" stroke-width="29.4" stroke-linecap="round"/><path d="M134.64844,1100.6016 Q134.64844,1100.6016 134.64844,1100.6016 Q134.64844,1100.6016 134.64844,1100.6016 Q134.64844,1100.6016 134.64844,1100.6016 Q134.64844,1100.6016 134.64844,1100.6016 Q134.64844,1100.6016 134.64844,1100.6016 Q134.64844,1100.6016 134.64844,1100.6016 Q134.64844,1100.6016 134.64844,1100.6016 Q134.64844,1100.6016 143.44824,1100.9824 Q152.24805,1101.3633 156.98926,1100.9961 Q161.73047,1100.6289 166.27344,1100.251 Q170.8164,1099.873 176.21484,1099.1294 Q181.61328,1098.3857 187.24512,1097.9868 Q192.87697,1097.5879 196.61525,1097.2104 Q200.35353,1096.833 205.41504,1096.813 Q210.47656,1096.793 214.27686,1096.793 Q218.07715,1096.793 222.09521,1096.793 Q226.11328,1096.793 229.47852,1097.1602 Q232.84375,1097.5273 236.18994,1097.9087 Q239.53613,1098.29 242.32764,1098.6655 Q245.11914,1099.041 248.13135,1099.4263 Q251.14355,1099.8115 253.80127,1100.561 Q256.45898,1101.3105 259.10254,1102.4434 Q261.7461,1103.5762 264.03906,1104.7168 Q266.33203,1105.8574 268.271,1106.9966 Q270.20996,1108.1357 271.13086,1108.9141 Q272.05176,1109.6924 273.1006,1110.8223 Q274.1494,1111.9521 275.71533,1114.2017 Q277.28125,1116.4512 278.68994,1120.2026 Q280.09863,1123.9541 281.33887,1131.0952 Q282.5791,1138.2363 283.29443,1145.4287 Q284.00977,1152.6211 283.69727,1160.5947 Q283.38477,1168.5684 282.86035,1176.9917 Q282.33594,1185.415 281.98096,1194.124 Q281.62598,1202.833 281.11133,1212.207 Q280.59668,1221.581 280.7422,1231.2568 Q280.8877,1240.9326 281.2329,1250.0635 Q281.57812,1259.1943 281.58984,1267.6216 Q281.60156,1276.0488 281.60156,1285.1392 Q281.60156,1294.2295 282.1089,1304.4302 Q282.6162,1314.6309 283.31543,1323.8452 Q284.01465,1333.0596 284.88477,1342.1714 Q285.75488,1351.2833 286.12842,1357.9023 Q286.50195,1364.5215 287.1919,1372.0801 Q287.88184,1379.6387 289.0952,1386.5215 Q290.3086,1393.4043 291.34863,1399.7676 Q292.38867,1406.131 293.63037,1412.7129 Q294.87207,1419.2949 296.07812,1423.8438 Q297.28418,1428.3926 298.35742,1433.3623 Q299.43066,1438.3322 300.49756,1442.6074 Q301.56445,1446.8828 302.4287,1450.9722 Q303.29297,1455.0615 303.85596,1458.9971 Q304.41895,1462.9326 304.60645,1465.6396 Q304.79395,1468.3467 305.13965,1471.0098 Q305.48535,1473.6729 305.6665,1475.231 Q305.84766,1476.7891 306.02344,1477.5752 Q306.19922,1478.3613 306.20508,1478.748 Q306.21094,1479.1348 306.21094,1479.1553 Q306.21094,1479.1758 306.21094,1479.1758 Q306.21094,1479.1758 306.21094,1479.1758 Q306.21094,1479.1758 306.21094,1479.1758 Q306.21094,1479.1758 306.21094,1479.1758 Q306.21094,1479.1758 302.08203,1479.5459 Q297.95312,1479.9161 293.60205,1479.5576 Q289.25098,1479.1991 285.2124,1478.4517 Q281.17383,1477.7041 275.75928,1476.9404 Q270.34473,1476.1766 265.75488,1475.4165 Q261.16504,1474.6562 256.24414,1474.2617 Q251.32324,1473.8673 246.58447,1473.8555 Q241.8457,1473.8438 237.28662,1474.5767 Q232.72752,1475.3096 228.48485,1476.4409 Q224.24217,1477.5723 219.70703,1479.4404 Q215.17188,1481.3087 210.92432,1482.8525 Q206.67676,1484.3965 202.62305,1486.2886 Q198.56934,1488.1807 195.03662,1490.4512 Q191.5039,1492.7217 188.49707,1494.2725 Q185.49022,1495.8231 182.66309,1497.3511 Q179.83594,1498.8789 177.37354,1500.0293 Q174.91113,1501.1797 172.95166,1501.9585 Q170.99219,1502.7372 169.05762,1503.1313 Q167.12305,1503.5254 165.35156,1504.2773 Q163.58008,1505.0293 162.00244,1505.0518 Q160.4248,1505.0742 159.34619,1505.0742 Q158.26758,1505.0742 156.87207,1504.3359 Q155.47656,1503.5977 154.25293,1502.8433 Q153.0293,1502.0889 151.10449,1500.581 Q149.17969,1499.0732 145.74316,1495.3677 Q142.30664,1491.6621 139.271,1485.9727 Q136.23535,1480.2831 132.93018,1473.1445 Q129.625,1466.0059 126.63965,1458.0801 Q123.6543,1450.1542 121.15381,1442.8345 Q118.65332,1435.5146 115.8418,1427.1431 Q113.03027,1418.7715 109.4082,1409.0278 Q105.78613,1399.2842 102.73486,1387.0615 Q99.68359,1374.8389 97.23242,1363.8765 Q94.78125,1352.9141 92.8208,1340.7495 Q90.86036,1328.585 88.91748,1314.1343 Q86.97461,1299.6836 85.88965,1287.4297 Q84.80469,1275.1758 83.75098,1264.4678 Q82.697266,1253.7598 81.808105,1242.3125 Q80.918945,1230.8652 80.38086,1219.4639 Q79.84277,1208.0625 79.65381,1198.4531 Q79.46484,1188.8438 79.458984,1180.4341 Q79.453125,1172.0244 79.453125,1162.5752 Q79.453125,1153.126 79.62305,1142.4502 Q79.79297,1131.7744 80.13818,1122.2305 Q80.4834,1112.6865 80.83154,1105.0742 Q81.17969,1097.4619 81.535645,1091.2275 Q81.8916,1084.9932 82.24463,1079.6138 Q82.59766,1074.2344 82.60742,1070.8076 Q82.61719,1067.3809 82.44678,1063.9106 Q82.27637,1060.4404 82.100586,1058.4893 Q81.924805,1056.5381 81.75049,1055.0137 Q81.57617,1053.4893 81.569336,1052.7017 Q81.5625,1051.9141 81.5625,1051.5254 Q81.5625,1051.1367 81.5625,1051.1133 Q81.5625,1051.0898 81.5625,1051.0898 Q81.5625,1051.0898 81.5625,1051.0898 Q81.5625,1051.0898 81.5625,1051.0898 Q81.5625,1051.0898 81.5625,1051.0898 Q81.5625,1051.0898 81.5625,1051.0898 Q81.5625,1051.0898 81.5625,1051.0898 Q81.5625,1051.0898 81.5625,1051.0898 Q81.5625,1051.0898 81.5625,1051.0898 Q81.5625,1051.0898 81.5625,1051.0898 Q81.5625,1051.0898 81.5625,1051.0898 Q81.5625,1051.0898 85.31445,1049.6079 Q89.06641,1048.126 93.45264,1048.0845 Q97.83886,1048.043 103.26318,1048.4136 Q108.6875,1048.7842 112.745605,1049.1626 Q116.80371,1049.541 120.67041,1050.6567 Q124.53711,1051.7725 129.44727,1052.5513 Q134.35742,1053.3301 137.74072,1053.7217 Q141.12402,1054.1133 142.74463,1054.4907 Q144.36523,1054.8682 144.42871,1054.8833 L144.49219,1054.8984 " fill="none" stroke="#000000" stroke-width="29.4" stroke-linecap="round"/><path d="M175.42969,1087.6523 Q175.42969,1087.6523 175.42969,1087.6523 Q175.42969,1087.6523 175.42969,1087.6523 Q175.42969,1087.6523 175.42969,1087.6523 Q175.42969,1087.6523 175.42969,1087.6523 Q175.42969,1087.6523 175.42969,1087.6523 Q175.42969,1087.6523 175.42969,1087.6523 Q175.42969,1087.6523 175.42969,1087.6523 Q175.42969,1087.6523 175.42969,1087.6523 Q175.42969,1087.6523 175.42969,1087.6523 Q175.42969,1087.6523 175.42969,1087.6523 Q175.42969,1087.6523 175.42969,1087.6523 Q175.42969,1087.6523 175.42969,1087.6523 Q175.42969,1087.6523 175.42969,1087.6523 Q175.42969,1087.6523 175.42969,1087.6523 Q175.42969,1087.6523 175.42969,1087.6523 Q175.42969,1087.6523 175.42969,1087.6523 Q175.42969,1087.6523 175.42969,1087.6523 Q175.42969,1087.6523 175.42969,1087.6523 Q175.42969,1087.6523 175.42969,1087.6523 Q175.42969,1087.6523 175.42969,1087.6523 Q175.42969,1087.6523 175.42969,1087.6523 Q175.42969,1087.6523 175.42969,1087.6523 Q175.42969,1087.6523 175.42969,1087.6523 Q175.42969,1087.6523 175.42969,1087.6523 Q175.42969,1087.6523 175.42969,1087.6523 Q175.42969,1087.6523 175.42969,1087.6523 Q175.42969,1087.6523 175.42969,1087.6523 Q175.42969,1087.6523 175.42969,1087.6523 Q175.42969,1087.6523 175.42969,1087.6523 Q175.42969,1087.6523 175.42969,1087.6523 Q175.42969,1087.6523 175.42969,1087.6523 Q175.42969,1087.6523 175.42969,1087.6523 Q175.42969,1087.6523 175.42969,1087.6523 Q175.42969,1087.6523 175.42969,1087.6523 Q175.42969,1087.6523 175.42969,1087.6523 Q175.42969,1087.6523 175.42969,1087.6523 Q175.42969,1087.6523 175.42969,1087.6523 Q175.42969,1087.6523 175.42969,1087.6523 Q175.42969,1087.6523 175.42969,1087.6523 Q175.42969,1087.6523 175.42969,1087.6523 Q175.42969,1087.6523 175.42969,1087.6523 Q175.42969,1087.6523 175.42969,1087.6523 Q175.42969,1087.6523 175.42969,1087.6523 Q175.42969,1087.6523 175.42969,1087.6523 Q175.42969,1087.6523 175.42969,1087.6523 Q175.42969,1087.6523 175.42969,1087.6523 Q175.42969,1087.6523 175.42969,1087.6523 Q175.42969,1087.6523 175.42969,1087.6523 Q175.42969,1087.6523 175.42969,1087.6523 Q175.42969,1087.6523 175.42969,1087.6523 Q175.42969,1087.6523 175.42969,1087.6523 Q175.42969,1087.6523 175.42969,1087.6523 Q175.42969,1087.6523 175.42969,1087.6523 Q175.42969,1087.6523 175.42969,1087.6523 Q175.42969,1087.6523 175.42969,1087.6523 Q175.42969,1087.6523 175.42969,1087.6523 Q175.42969,1087.6523 175.42969,1087.6523 Q175.42969,1087.6523 175.42969,1087.6523 Q175.42969,1087.6523 175.42969,1087.6523 Q175.42969,1087.6523 175.42969,1087.6523 Q175.42969,1087.6523 175.42969,1087.6523 Q175.42969,1087.6523 175.42969,1087.6523 Q175.42969,1087.6523 175.42969,1087.6523 Q175.42969,1087.6523 175.42969,1087.6523 Q175.42969,1087.6523 175.60547,1087.2715 Q175.78125,1086.8906 175.78125,1086.8906 Q175.78125,1086.8906 175.78125,1086.8906 Q175.78125,1086.8906 175.78125,1086.5098 Q175.78125,1086.1289 175.78125,1086.1289 Q175.78125,1086.1289 175.95703,1085.3784 Q176.13281,1084.6279 176.13281,1084.6167 Q176.13281,1084.6055 176.13281,1084.6055 Q176.13281,1084.6055 176.13281,1084.6055 Q176.13281,1084.6055 176.47949,1083.4834 Q176.82617,1082.3613 176.83105,1082.3408 Q176.83594,1082.3203 176.83594,1082.3203 Q176.83594,1082.3203 177.01172,1081.1909 Q177.1875,1080.0615 177.35498,1079.686 Q177.52246,1079.3105 177.53076,1078.5566 Q177.53906,1077.8027 177.70898,1077.041 Q177.8789,1076.2793 177.88477,1075.8843 Q177.89062,1075.4893 177.89062,1075.1084 Q177.89062,1074.7275 177.89062,1073.978 Q177.89062,1073.2285 177.89062,1072.8359 Q177.89062,1072.4434 177.89062,1072.065 Q177.89062,1071.6865 177.89062,1070.9336 Q177.89062,1070.1807 177.89062,1069.4175 Q177.89062,1068.6543 177.89062,1067.8936 Q177.89062,1067.1328 177.72021,1066.0024 Q177.5498,1064.8721 177.54443,1064.4673 Q177.53906,1064.0625 177.36914,1062.9468 Q177.19922,1061.831 177.02393,1060.6909 Q176.84863,1059.5508 176.84229,1059.1421 Q176.83594,1058.7334 176.66553,1057.6128 Q176.49512,1056.4922 176.48975,1056.457 Q176.48438,1056.4219 176.48438,1056.4219 Q176.48438,1056.4219 176.3086,1055.292 Q176.13281,1054.1621 176.13281,1053.7827 Q176.13281,1053.4033 175.96582,1052.6646 Q175.79883,1051.9258 175.6211,1050.7896 Q175.44336,1049.6533 175.43652,1048.8789 Q175.42969,1048.1045 175.26025,1046.6074 Q175.09082,1045.1104 175.08447,1043.9604 Q175.07812,1042.8105 175.07812,1041.2891 Q175.07812,1039.7676 174.90869,1037.5137 Q174.73926,1035.2598 174.73291,1033.7026 Q174.72656,1032.1455 174.72656,1029.5127 Q174.72656,1026.8799 174.89502,1023.87744 Q175.06348,1020.875 175.24023,1017.8154 Q175.41699,1014.7559 175.42334,1010.2739 Q175.42969,1005.79193 175.42969,1001.17236 Q175.42969,996.55273 175.42969,991.9863 Q175.42969,987.4199 175.42969,982.12354 Q175.42969,976.8271 175.6001,971.834 Q175.77051,966.8408 176.11328,961.5718 Q176.45605,956.30273 177.14307,951.3511 Q177.83008,946.3995 178.36377,942.18506 Q178.89746,937.9707 179.59521,933.7671 Q180.29297,929.5635 180.83203,925.70654 Q181.37111,921.8497 182.0669,918.0503 Q182.7627,914.251 183.29785,910.7998 Q183.83301,907.34863 184.18945,903.1953 Q184.5459,899.042 184.89893,896.3096 Q185.25195,893.5772 185.604,890.9087 Q185.95605,888.24023 186.30664,884.84375 Q186.65723,881.44727 187.00146,878.81006 Q187.34572,876.17285 188.02882,872.43555 Q188.71193,868.69824 189.25049,865.95996 Q189.78905,863.22174 190.82372,860.17285 Q191.85838,857.124 192.91307,853.3501 Q193.96776,849.5762 195.00047,845.4917 Q196.03319,841.4072 197.10985,837.49414 Q198.18651,833.5811 199.76025,828.9995 Q201.33398,824.41797 202.8628,819.29346 Q204.3916,814.16895 205.98438,809.51465 Q207.57715,804.86035 209.33838,800.6133 Q211.09961,796.3662 212.5415,792.4917 Q213.9834,788.6172 215.20752,785.57275 Q216.43166,782.5283 217.84863,779.0713 Q219.26562,775.6143 220.46631,772.64355 Q221.667,769.6728 222.94482,766.5088 Q224.22266,763.3447 225.10938,761.04346 Q225.9961,758.7422 227.20996,755.7324 Q228.42383,752.72266 229.15137,750.39355 Q229.87892,748.06445 230.75049,745.04834 Q231.62207,742.0322 232.84375,738.978 Q234.06543,735.9238 235.2915,731.416 Q236.51758,726.9082 237.75244,722.32324 Q238.9873,717.73834 240.72314,712.4458 Q242.45898,707.1533 244.52588,701.5366 Q246.59277,695.9199 248.72119,690.15576 Q250.84961,684.39154 252.94824,679.43555 Q255.04688,674.4795 256.8286,670.23584 Q258.61035,665.9922 260.5454,661.41797 Q262.48047,656.84375 264.0835,653.35645 Q265.68652,649.86914 267.09326,646.08496 Q268.5,642.3008 269.73877,639.22266 Q270.97754,636.14453 272.38086,633.83105 Q273.78418,631.5176 275.69922,628.1289 Q277.61426,624.74023 279.7212,621.67676 Q281.82812,618.6133 284.27588,615.5698 Q286.72363,612.52637 289.33545,609.50244 Q291.94727,606.4785 294.58984,603.792 Q297.23242,601.10547 300.05322,598.4258 Q302.87402,595.7461 305.5044,593.4595 Q308.13477,591.17285 310.95605,589.2451 Q313.77734,587.3174 316.59033,585.04297 Q319.40332,582.76855 322.21143,580.85596 Q325.01953,578.94336 328.85303,576.30176 Q332.68652,573.66016 337.2583,571.3511 Q341.83008,569.042 345.18896,567.5049 Q348.54785,565.9678 353.06348,563.71436 Q357.5791,561.46094 362.15527,559.541 Q366.73145,557.6211 372.32373,556.0845 Q377.916,554.54785 381.91406,553.06104 Q385.9121,551.5742 391.39746,549.6509 Q396.8828,547.72754 402.19727,545.0708 Q407.51172,542.41406 413.23975,539.042 Q418.96777,535.6699 424.68066,532.29443 Q430.39355,528.91895 435.99463,525.77686 Q441.5957,522.63477 448.5752,519.2212 Q455.55472,515.8076 462.0806,512.37646 Q468.60648,508.9453 474.41748,506.26172 Q480.2285,503.57812 486.20752,501.27832 Q492.18652,498.97852 497.98682,496.6958 Q503.78708,494.4131 509.2163,492.5078 Q514.6455,490.6025 520.2803,488.69287 Q525.91504,486.7832 532.06494,485.6123 Q538.21484,484.44138 544.68896,483.6704 Q551.1631,482.8994 556.62354,482.1411 Q562.084,481.3828 567.72656,480.2495 Q573.36914,479.1162 579.84424,477.2378 Q586.31934,475.35938 592.14795,473.4536 Q597.97656,471.54785 604.646,469.63818 Q611.3154,467.72852 618.50244,466.56348 Q625.68945,465.39844 632.8794,463.89014 Q640.06934,462.38184 647.2622,461.229 Q654.4551,460.07617 661.395,458.5874 Q668.33496,457.09863 675.3115,455.18164 Q682.2881,453.26465 689.0864,452.18506 Q695.88477,451.10547 703.4614,450.24707 Q711.0381,449.38864 718.11084,448.9917 Q725.1836,448.59473 732.2085,448.58252 Q739.2334,448.5703 746.4404,448.20166 Q753.64746,447.83304 760.3208,447.45312 Q766.9941,447.07324 774.04297,447.4292 Q781.0918,447.78516 788.125,448.16602 Q795.15826,448.5469 801.6758,449.29688 Q808.19336,450.04684 813.5005,451.17676 Q818.8076,452.30664 824.19775,452.708 Q829.5878,453.10934 834.3867,454.22607 Q839.18555,455.34277 844.63135,456.12158 Q850.0772,456.9004 855.88184,458.40283 Q861.6865,459.90527 867.459,461.4214 Q873.23145,462.9375 878.3799,464.46875 Q883.5283,466.0 889.13086,467.52148 Q894.7334,469.04297 899.64795,470.55762 Q904.5625,472.07227 909.8374,473.6001 Q915.1123,475.12793 921.06055,477.38525 Q927.0088,479.64258 932.48584,481.93213 Q937.9629,484.22168 942.5586,486.87305 Q947.15424,489.5244 952.2422,492.19434 Q957.3301,494.86426 961.2422,497.16504 Q965.15436,499.46582 968.50586,501.74805 Q971.8574,504.03027 975.66943,507.3872 Q979.48145,510.74414 982.70996,513.47217 Q985.9385,516.2002 988.92676,519.59814 Q991.91504,522.9961 995.33545,527.0674 Q998.75586,531.1387 1001.9956,535.40283 Q1005.23535,539.667 1008.0786,543.5137 Q1010.92194,547.36035 1013.0542,551.541 Q1015.1865,555.7217 1017.8047,560.6455 Q1020.42285,565.56934 1023.0576,570.88525 Q1025.6924,576.2012 1028.333,582.6494 Q1030.9736,589.09766 1033.2578,596.2749 Q1035.542,603.45215 1037.3228,610.70557 Q1039.1035,617.959 1040.5122,624.4175 Q1041.9209,630.876 1043.1572,636.978 Q1044.3936,643.0801 1045.2944,649.59814 Q1046.1953,656.1162 1047.2437,661.479 Q1048.292,666.8418 1049.52,672.5581 Q1050.748,678.2744 1052.1494,683.61816 Q1053.5508,688.9619 1053.9326,692.8086 Q1054.3145,696.6553 1054.665,700.45605 Q1055.0156,704.25684 1055.3657,706.58203 Q1055.7158,708.9072 1056.0698,711.57764 Q1056.4238,714.24805 1056.7744,715.8008 Q1057.125,717.3535 1057.646,719.24365 Q1058.167,721.1337 1058.6943,722.6704 Q1059.2217,724.20703 1060.0864,725.36084 Q1060.9512,726.51465 1061.666,727.6655 Q1062.3809,728.81635 1062.5718,729.21924 Q1062.7627,729.6221 1063.7905,731.10986 Q1064.8184,732.59766 1065.873,733.75244 Q1066.9277,734.9072 1068.3228,736.41797 Q1069.7178,737.92865 1071.1221,739.45013 Q1072.5264,740.9716 1074.104,742.86523 Q1075.6816,744.7588 1077.605,747.40234 Q1079.5283,750.0459 1080.9473,751.6001 Q1082.3662,753.1543 1084.2803,755.4121 Q1086.1943,757.66986 1088.1372,760.33594 Q1090.0801,763.00195 1091.1616,764.18994 Q1092.2432,765.3779 1093.6396,766.8911 Q1095.0361,768.4043 1095.7588,769.5571 Q1096.4814,770.70996 1097.355,771.85205 Q1098.2285,772.99414 1098.7656,773.7661 Q1099.3027,774.5381 1100.0015,775.3008 Q1100.7002,776.06354 1101.0615,776.4551 Q1101.4229,776.8466 1101.9463,777.59814 Q1102.4697,778.3496 1102.8262,778.3721 Q1103.1826,778.39453 1103.7002,779.12744 Q1104.2178,779.86035 1105.2559,780.9922 Q1106.294,782.124 1107.8594,784.3716 Q1109.4248,786.61914 1110.8418,788.9126 Q1112.2588,791.20605 1113.833,794.2246 Q1115.4072,797.24316 1116.8154,801.7529 Q1118.2236,806.2627 1119.6382,810.4907 Q1121.0527,814.71875 1122.1182,820.3921 Q1123.1836,826.06537 1124.4067,830.65765 Q1125.6299,835.24994 1126.8618,840.56635 Q1128.0938,845.88275 1128.8115,850.10205 Q1129.5293,854.32135 1130.5742,858.1426 Q1131.6191,861.96387 1132.499,865.3877 Q1133.3789,868.8115 1133.919,871.5078 Q1134.459,874.2041 1134.9873,877.2451 Q1135.5156,880.28613 1136.0415,882.95557 Q1136.5674,885.625 1137.2666,890.14453 Q1137.9658,894.66406 1139.0044,899.9453 Q1140.043,905.22656 1140.0801,905.41406 L1140.1172,905.60156 " fill="none" stroke="#000000" stroke-width="29.4" stroke-linecap="round"/><path d="M1084.5703,955.1133 Q1084.5703,955.1133 1084.5703,955.1133 Q1084.5703,955.1133 1084.5703,955.1133 Q1084.5703,955.1133 1084.5703,955.1133 Q1084.5703,955.1133 1084.5703,955.1133 Q1084.5703,955.1133 1084.5703,955.1133 Q1084.5703,955.1133 1084.5703,955.1133 Q1084.5703,955.1133 1090.2402,954.74414 Q1095.9102,954.375 1099.2773,954.3633 Q1102.6445,954.35156 1106.1553,954.35156 Q1109.666,954.35156 1112.6484,954.7178 Q1115.6309,955.084 1119.6543,955.4668 Q1123.6777,955.8497 1126.7031,955.8623 Q1129.7285,955.875 1133.7104,956.60693 Q1137.6924,957.33887 1141.69,958.0923 Q1145.6875,958.8457 1149.5977,959.61426 Q1153.5078,960.3828 1156.7207,961.5166 Q1159.9336,962.65045 1163.0181,964.1221 Q1166.1025,965.59375 1168.5107,966.79443 Q1170.919,967.9951 1173.0288,969.5034 Q1175.1387,971.0117 1177.4106,973.26514 Q1179.6826,975.5186 1182.8262,979.6548 Q1185.9697,983.791 1188.624,988.71924 Q1191.2783,993.64746 1194.0703,1000.03955 Q1196.8623,1006.43164 1198.667,1012.19824 Q1200.4717,1017.96484 1202.2212,1025.4844 Q1203.9707,1033.0039 1205.2285,1041.0361 Q1206.4863,1049.0684 1207.7119,1057.7705 Q1208.9375,1066.4727 1209.6606,1075.6235 Q1210.3838,1084.7744 1210.5776,1094.687 Q1210.7715,1104.5996 1210.9473,1113.3887 Q1211.123,1122.1777 1211.4683,1132.3926 Q1211.8135,1142.6074 1212.6729,1151.751 Q1213.5322,1160.8945 1213.7324,1170.7725 Q1213.9326,1180.6504 1214.2788,1188.7275 Q1214.625,1196.8047 1215.3198,1204.4702 Q1216.0146,1212.1357 1216.5464,1218.6372 Q1217.0781,1225.1387 1217.7754,1230.1318 Q1218.4727,1235.125 1219.0063,1239.7124 Q1219.54,1244.2998 1220.5791,1248.8711 Q1221.6182,1253.4424 1222.331,1258.0093 Q1223.044,1262.5762 1224.4268,1266.7686 Q1225.8096,1270.9609 1227.0469,1275.1558 Q1228.2842,1279.3506 1229.6855,1283.5405 Q1231.0869,1287.7305 1232.4888,1291.5391 Q1233.8906,1295.3477 1235.3018,1298.4302 Q1236.7129,1301.5127 1237.9517,1304.5669 Q1239.1904,1307.6211 1239.9077,1309.5557 Q1240.625,1311.4902 1240.9854,1312.2822 Q1241.3457,1313.0743 1241.3564,1313.4668 Q1241.3672,1313.8594 1241.1978,1314.9731 Q1241.0283,1316.0869 1241.022,1316.1274 Q1241.0156,1316.168 1241.0156,1316.168 Q1241.0156,1316.168 1235.8716,1319.145 Q1230.7275,1322.1221 1226.1743,1323.2979 Q1221.6211,1324.4735 1216.896,1325.2451 Q1212.1709,1326.0166 1207.4243,1326.4111 Q1202.6777,1326.8058 1198.2471,1327.1885 Q1193.8164,1327.5713 1189.6128,1328.6855 Q1185.4092,1329.7998 1181.3647,1330.5737 Q1177.3203,1331.3477 1173.4609,1332.4727 Q1169.6016,1333.5977 1165.5264,1335.1206 Q1161.4512,1336.6436 1156.56,1338.1655 Q1151.669,1339.6875 1147.7705,1340.8418 Q1143.8721,1341.996 1140.5093,1343.5107 Q1137.1465,1345.0254 1134.8262,1345.8105 Q1132.5059,1346.5957 1130.2251,1346.9863 Q1127.9443,1347.3771 1127.0269,1347.7568 Q1126.1094,1348.1367 1124.5479,1347.7793 Q1122.9863,1347.4219 1121.4121,1346.6753 Q1119.8379,1345.9288 1116.04,1340.3735 Q1112.2422,1334.8182 1108.5684,1324.0151 Q1104.8945,1313.2119 1102.8862,1299.1895 Q1100.8779,1285.167 1099.6191,1270.2935 Q1098.3604,1255.4199 1095.9292,1226.0723 Q1093.498,1196.7246 1093.4287,1195.8896 L1093.3594,1195.0547 " fill="none" stroke="#000000" stroke-width="29.4" stroke-linecap="round"/><path d="M1185.5631,431.11377 Q1185.5631,431.11377 1185.5631,431.11377 Q1185.5631,431.11377 1185.5631,431.11377 Q1185.5631,431.11377 1185.5631,431.11377 Q1185.5631,431.11377 1185.5631,431.11377 Q1185.5631,431.11377 1185.5631,431.11377 Q1185.5631,431.11377 1185.5631,431.11377 Q1185.5631,431.11377 1195.0178,431.5578 Q1204.4725,432.00183 1208.1707,432.00183 Q1211.8688,432.00183 1216.6565,432.00183 Q1221.4442,432.00183 1225.2904,431.5749 Q1229.1366,431.14795 1232.8501,430.27023 Q1236.5637,429.39252 1239.2482,428.93713 Q1241.9326,428.48175 1246.1818,427.17993 Q1250.4309,425.8781 1254.9521,424.97083 Q1259.4734,424.06354 1263.3657,423.18008 Q1267.258,422.29663 1271.3718,421.83444 Q1275.4856,421.37225 1279.9835,420.92825 Q1284.4814,420.48425 1288.9646,420.47116 Q1293.4476,420.45807 1296.9847,420.45807 Q1300.5219,420.45807 1303.8086,420.45807 Q1307.0952,420.45807 1310.1285,420.88272 Q1313.1619,421.30737 1316.283,421.75818 Q1319.4039,422.20898 1321.8698,422.2215 Q1324.3356,422.234 1326.7871,422.66208 Q1329.2388,423.09015 1332.0876,423.53357 Q1334.9366,423.977 1337.1703,424.4124 Q1339.4039,424.84784 1341.646,425.289 Q1343.8882,425.73016 1345.3898,426.1793 Q1346.8914,426.62842 1348.3474,426.65118 Q1349.8035,426.67395 1350.5896,426.67395 Q1351.3756,426.67395 1352.4373,427.09686 Q1353.4988,427.51978 1353.9417,427.54083 Q1354.3845,427.5619 1354.7886,427.5619 Q1355.1927,427.5619 1355.4045,427.5619 Q1355.6163,427.5619 1355.6306,427.5619 Q1355.6448,427.5619 1355.6448,427.5619 Q1355.6448,427.5619 1355.8496,427.5619 Q1356.0546,427.5619 1356.0546,427.5619 Q1356.0546,427.5619 1357.2705,427.5619 Q1358.4863,427.5619 1358.5,427.5619 Q1358.5137,427.5619 1358.5137,427.5619 Q1358.5137,427.5619 1359.1062,427.5619 Q1359.6987,427.5619 1360.9124,427.99222 Q1362.1259,428.42255 1362.1641,428.43622 Q1362.2021,428.4499 1362.2021,428.4499 Q1362.2021,428.4499 1364.0111,428.4499 Q1365.8201,428.4499 1366.4451,428.4499 Q1367.0701,428.4499 1367.876,428.4499 Q1368.682,428.4499 1370.1096,428.87964 Q1371.5372,429.3094 1372.5681,429.3236 Q1373.599,429.33783 1374.8285,429.7676 Q1376.058,430.1974 1377.283,430.2116 Q1378.5079,430.22583 1379.936,430.22583 Q1381.3643,430.22583 1382.4059,430.65558 Q1383.4475,431.08533 1384.2717,431.09955 Q1385.096,431.11377 1385.5093,431.11377 Q1385.9225,431.11377 1386.1445,431.11377 Q1386.3665,431.11377 1386.7695,431.11377 Q1387.1725,431.11377 1387.3853,431.11377 Q1387.5981,431.11377 1387.605,431.11377 Q1387.6119,431.11377 1387.6119,431.11377 Q1387.6119,431.11377 1387.6119,431.11377 Q1387.6119,431.11377 1388.0217,431.11377 Q1388.4316,431.11377 1388.4316,431.11377 Q1388.4316,431.11377 1388.4316,431.11377 Q1388.4316,431.11377 1388.4316,431.11377 Q1388.4316,431.11377 1388.4316,431.11377 Q1388.4316,431.11377 1388.4316,431.11377 Q1388.4316,431.11377 1388.4316,431.11377 Q1388.4316,431.11377 1388.4316,431.11377 Q1388.4316,431.11377 1388.4316,431.11377 Q1388.4316,431.11377 1388.4316,431.11377 Q1388.4316,431.11377 1389.8364,431.11377 Q1391.2412,431.11377 1392.2493,431.11377 Q1393.2573,431.11377 1393.6951,431.11377 Q1394.1328,431.11377 1394.5461,431.11377 Q1394.9594,431.11377 1395.9657,431.11377 Q1396.972,431.11377 1397.4012,431.11377 Q1397.8304,431.11377 1398.2397,431.11377 Q1398.649,431.11377 1398.6633,431.11377 Q1398.6775,431.11377 1398.6775,431.11377 Q1398.6775,431.11377 1398.6775,431.11377 Q1398.6775,431.11377 1398.6775,431.11377 Q1398.6775,431.11377 1398.6775,431.11377 Q1398.6775,431.11377 1399.0804,431.11377 Q1399.4834,431.11377 1399.6877,431.11377 Q1399.8922,431.11377 1399.8997,431.11377 Q1399.907,431.11377 1399.907,431.11377 Q1399.907,431.11377 1400.3169,431.11377 Q1400.7267,431.11377 1400.7267,431.11377 Q1400.7267,431.11377 1400.7267,431.11377 Q1400.7267,431.11377 1400.7267,431.11377 Q1400.7267,431.11377 1400.7267,431.11377 Q1400.7267,431.11377 1400.7267,431.11377 Q1400.7267,431.11377 1400.7267,431.11377 Q1400.7267,431.11377 1400.7267,431.11377 Q1400.7267,431.11377 1400.7267,431.11377 Q1400.7267,431.11377 1400.7267,431.11377 Q1400.7267,431.11377 1400.7267,431.11377 Q1400.7267,431.11377 1400.7267,431.11377 Q1400.7267,431.11377 1400.7267,431.11377 Q1400.7267,431.11377 1400.7267,431.11377 Q1400.7267,431.11377 1400.7267,431.11377 Q1400.7267,431.11377 1393.3064,431.11377 Q1385.886,431.11377 1380.3704,431.11377 Q1374.8547,431.11377 1368.5706,430.68686 Q1362.2864,430.25995 1355.9419,429.39078 Q1349.5974,428.5216 1343.438,428.0594 Q1337.2784,427.59717 1331.9199,426.72684 Q1326.5613,425.8565 1320.888,424.97595 Q1315.2146,424.0954 1310.518,423.25464 Q1305.8213,422.41388 1299.4353,421.47354 Q1293.0492,420.5332 1287.138,420.07327 Q1281.2267,419.61334 1276.4868,419.5917 Q1271.747,419.57007 1267.155,419.99643 Q1262.5632,420.4228 1259.2675,421.70636 Q1255.9717,422.98993 1252.102,424.74655 Q1248.2325,426.50317 1244.9021,428.29108 Q1241.5717,430.07898 1237.9116,433.122 Q1234.2516,436.16504 1231.3474,438.84775 Q1228.4432,441.53046 1225.5676,443.77545 Q1222.6919,446.02045 1220.419,449.0805 Q1218.1461,452.14056 1215.8823,454.83636 Q1213.6187,457.53217 1212.3447,459.348 Q1211.0708,461.16382 1210.041,462.51 Q1209.0114,463.8562 1208.3733,464.77097 Q1207.7352,465.68573 1206.5269,467.8601 Q1205.3184,470.0345 1204.4839,471.82806 Q1203.6494,473.62164 1202.6306,476.68918 Q1201.6117,479.7567 1200.7856,482.8635 Q1199.9597,485.97028 1199.3375,489.081 Q1198.7153,492.1917 1197.5046,496.59235 Q1196.294,500.99298 1195.2632,506.2952 Q1194.2323,511.5974 1193.2242,516.4136 Q1192.2162,521.22974 1191.1755,527.9129 Q1190.135,534.59607 1189.5095,541.23254 Q1188.8839,547.869 1188.4661,554.1139 Q1188.0483,560.35876 1187.6384,566.1499 Q1187.2286,571.9411 1186.8188,576.8489 Q1186.409,581.75665 1185.7971,587.10156 Q1185.1852,592.44653 1184.188,597.2644 Q1183.1907,602.0822 1182.749,605.7417 Q1182.3073,609.4012 1181.8975,613.81494 Q1181.4875,618.22864 1181.277,621.80554 Q1181.0664,625.3825 1181.2599,627.6417 Q1181.4534,629.901 1181.6582,631.68604 Q1181.8632,633.47107 1181.8689,634.81836 Q1181.8746,636.1657 1181.8746,636.63074 Q1181.8746,637.0958 1181.8746,637.11005 Q1181.8746,637.12427 1181.8746,637.12427 Q1181.8746,637.12427 1182.0796,638.00037 Q1182.2844,638.8764 1182.2844,638.8883 Q1182.2844,638.90027 1182.2844,638.90027 Q1182.2844,638.90027 1182.6943,639.7882 Q1183.1041,640.6762 1183.1041,640.6762 Q1183.1041,640.6762 1186.9099,643.71295 Q1190.7157,646.7497 1193.7849,648.97424 Q1196.8541,651.1987 1200.1254,652.9872 Q1203.3966,654.7757 1206.6799,656.12305 Q1209.9631,657.4704 1213.2429,658.80286 Q1216.5228,660.1354 1220.7998,661.4685 Q1225.0769,662.80164 1229.3728,663.70044 Q1233.6686,664.5992 1238.7773,665.0568 Q1243.8861,665.51447 1249.773,665.9562 Q1255.6598,666.3979 1261.6194,665.9824 Q1267.5791,665.5669 1273.729,665.5532 Q1279.8788,665.53955 1286.5886,665.53955 Q1293.2986,665.53955 1299.4836,665.53955 Q1305.6687,665.53955 1311.4236,665.53955 Q1317.1783,665.53955 1322.2722,665.11316 Q1327.3661,664.6868 1332.946,664.25305 Q1338.5261,663.81934 1343.4766,663.3771 Q1348.4271,662.93475 1353.525,662.90515 Q1358.6229,662.8756 1364.1858,662.8756 Q1369.7488,662.8756 1375.2827,662.8756 Q1380.8167,662.8756 1386.4963,663.29004 Q1392.1759,663.7044 1397.1343,664.5605 Q1402.0928,665.41656 1406.8395,665.893 Q1411.5862,666.36945 1415.9275,667.23065 Q1420.2689,668.09186 1423.7866,668.56146 Q1427.3044,669.03107 1430.8472,669.9043 Q1434.3899,670.77747 1437.6697,671.66315 Q1440.9496,672.5488 1444.033,673.0161 Q1447.1165,673.48346 1450.3389,674.335 Q1453.5612,675.1866 1456.7078,676.0917 Q1459.8544,676.99677 1462.7836,677.90063 Q1465.7128,678.80457 1468.3481,680.1052 Q1470.9836,681.4059 1473.272,682.31946 Q1475.5602,683.23303 1477.2223,684.1216 Q1478.8844,685.01013 1479.7285,685.0426 Q1480.5726,685.075 1481.0035,685.50305 Q1481.4344,685.93115 1481.4492,685.947 Q1481.464,685.96295 1481.464,685.96295 Q1481.464,685.96295 1481.464,685.96295 Q1481.464,685.96295 1481.464,685.96295 Q1481.464,685.96295 1481.464,685.96295 Q1481.464,685.96295 1482.2598,685.519 Q1483.0555,685.075 1486.5347,678.8364 Q1490.0137,672.5978 1492.3384,665.17523 Q1494.663,657.7527 1496.1635,648.9264 Q1497.664,640.10016 1498.7437,630.55615 Q1499.8235,621.0121 1501.436,611.69855 Q1503.0487,602.385 1504.5065,593.8246 Q1505.9642,585.2642 1507.587,576.8808 Q1509.2098,568.4974 1510.457,560.90173 Q1511.7042,553.30615 1512.7379,545.31665 Q1513.7716,537.3271 1514.7957,529.7656 Q1515.8197,522.2042 1516.4481,515.5222 Q1517.0765,508.84015 1517.4927,503.04782 Q1517.9087,497.2555 1518.3123,492.8321 Q1518.7158,488.4087 1518.9349,484.7544 Q1519.154,481.1001 1519.1615,478.4333 Q1519.169,475.76648 1519.169,474.3702 Q1519.169,472.97394 1519.169,472.07397 Q1519.169,471.174 1519.169,470.70215 Q1519.169,470.2303 1518.9766,469.37476 Q1518.784,468.51923 1518.5763,467.617 Q1518.3685,466.71478 1517.7749,464.98666 Q1517.1812,463.25854 1516.563,461.89758 Q1515.9448,460.53662 1514.7568,458.80048 Q1513.569,457.06433 1512.7134,455.68683 Q1511.8579,454.30933 1510.436,452.9654 Q1509.014,451.62146 1507.3844,449.8632 Q1505.7548,448.10492 1503.5127,446.3221 Q1501.2705,444.5393 1495.6494,440.61853 Q1490.0284,436.69775 1485.0786,434.4181 Q1480.1287,432.13843 1475.0051,429.91562 Q1469.8816,427.6928 1464.3671,426.33636 Q1458.8525,424.97992 1453.1558,424.51147 Q1447.4591,424.04303 1441.0815,423.1647 Q1434.7041,422.28638 1428.1484,421.82877 Q1421.5929,421.37115 1415.0902,421.78607 Q1408.5875,422.201 1400.1956,422.63815 Q1391.8036,423.07532 1383.7059,423.94794 Q1375.6083,424.82056 1368.751,426.14114 Q1361.8937,427.46173 1355.2207,428.77603 Q1348.5479,430.09033 1341.9756,431.00165 Q1335.4034,431.91296 1329.392,433.65536 Q1323.3805,435.39777 1318.5911,437.60858 Q1313.8018,439.8194 1308.923,442.4492 Q1304.0442,445.07898 1298.8677,448.20453 Q1293.6913,451.33008 1288.5496,454.01846 Q1283.4078,456.70685 1273.3134,461.95618 Q1263.2189,467.2055 1262.9155,467.3632 L1262.6122,467.52087 " fill="none" stroke="#000000" stroke-width="34.273155" stroke-linecap="round"/><path d="M1289.6613,997.64264 Q1289.6613,997.64264 1289.6613,997.64264 Q1289.6613,997.64264 1289.6613,997.64264 Q1289.6613,997.64264 1289.6613,997.64264 Q1289.6613,997.64264 1289.6613,997.64264 Q1289.6613,997.64264 1289.6613,997.64264 Q1289.6613,997.64264 1296.4634,998.9484 Q1303.2655,1000.2542 1307.2085,1000.7113 Q1311.1514,1001.1684 1317.0149,1001.18146 Q1322.8784,1001.1945 1327.8323,1001.6243 Q1332.7863,1002.05414 1338.1061,1002.06836 Q1343.4259,1002.0826 1348.698,1002.50775 Q1353.9701,1002.9329 1358.9673,1003.3826 Q1363.9645,1003.83234 1368.4863,1004.7078 Q1373.0082,1005.5833 1377.312,1006.4701 Q1381.6157,1007.3569 1384.9149,1007.8128 Q1388.2141,1008.26874 1392.6921,1009.14417 Q1397.1702,1010.0196 1400.4973,1010.91046 Q1403.8243,1011.80133 1406.5048,1012.25726 Q1409.1852,1012.7132 1412.2429,1014.01843 Q1415.3008,1015.32367 1418.1793,1016.6579 Q1421.0579,1017.9921 1423.9187,1019.32007 Q1426.7795,1020.648 1428.6575,1022.4121 Q1430.5354,1024.1761 1432.3842,1026.8208 Q1434.2329,1029.4653 1436.874,1035.5833 Q1439.5151,1041.7012 1440.9797,1048.763 Q1442.4443,1055.8246 1442.8832,1065.0549 Q1443.322,1074.2853 1442.5393,1086.6726 Q1441.7567,1099.0598 1440.9376,1114.5015 Q1440.1185,1129.9432 1439.0985,1144.6381 Q1438.0785,1159.3329 1437.2543,1175.6814 Q1436.43,1192.0298 1436.2075,1207.5768 Q1435.9849,1223.1238 1435.7822,1237.6245 Q1435.5796,1252.1254 1435.769,1266.9192 Q1435.9586,1281.7131 1436.36,1295.442 Q1436.7614,1309.1709 1437.1705,1323.3535 Q1437.5797,1337.5361 1438.7797,1352.6157 Q1439.9796,1367.6954 1441.4158,1380.7401 Q1442.8519,1393.7848 1444.6836,1407.9497 Q1446.5154,1422.1147 1448.1587,1434.1526 Q1449.802,1446.1903 1451.6366,1459.0159 Q1453.4712,1471.8414 1455.1106,1482.5278 Q1456.7499,1493.2142 1458.4785,1503.2478 Q1460.2073,1513.2814 1462.561,1523.3081 Q1464.9147,1533.335 1467.3584,1543.0543 Q1469.802,1552.7737 1471.8818,1561.7529 Q1473.9618,1570.7323 1476.192,1580.3971 Q1478.4222,1590.0619 1480.2954,1599.4698 Q1482.1687,1608.8778 1483.6134,1617.325 Q1485.0581,1625.772 1486.2893,1633.7468 Q1487.5205,1641.7216 1488.3555,1648.0063 Q1489.1906,1654.291 1489.617,1658.8083 Q1490.0432,1663.3256 1489.8611,1666.0237 Q1489.679,1668.7218 1489.4735,1670.5404 Q1489.2681,1672.359 1489.0631,1672.8582 Q1488.8582,1673.3573 1488.8496,1673.375 Q1488.8411,1673.3927 1488.8411,1673.3927 Q1488.8411,1673.3927 1485.6934,1675.5182 Q1482.5455,1677.6437 1478.8832,1679.0137 Q1475.2208,1680.3838 1471.8147,1681.2683 Q1468.4086,1682.1528 1464.0386,1683.0659 Q1459.6687,1683.9789 1455.1582,1684.8691 Q1450.6478,1685.7595 1446.1392,1686.22 Q1441.6304,1686.6804 1437.9271,1687.5485 Q1434.2239,1688.4165 1429.6433,1689.7047 Q1425.0629,1690.9929 1420.5057,1692.3357 Q1415.9486,1693.6783 1411.2793,1695.4185 Q1406.61,1697.1586 1401.5896,1699.8322 Q1396.5691,1702.5057 1391.6357,1705.1782 Q1386.7023,1707.8507 1382.2073,1710.4987 Q1377.7122,1713.1466 1372.7617,1716.6997 Q1367.8112,1720.2528 1362.9381,1723.7722 Q1358.0651,1727.2916 1353.5176,1730.8618 Q1348.9701,1734.432 1344.2776,1737.9736 Q1339.585,1741.5153 1336.2687,1744.6266 Q1332.9524,1747.7379 1329.6782,1750.4155 Q1326.4042,1753.0931 1323.327,1755.7526 Q1320.2499,1758.412 1318.787,1759.35 Q1317.3241,1760.288 1316.0331,1761.2101 Q1314.7421,1762.1322 1314.5037,1762.5905 Q1314.2651,1763.0487 1313.861,1763.0635 Q1313.4568,1763.0782 1313.4443,1763.0782 Q1313.4318,1763.0782 1313.4318,1763.0782 Q1313.4318,1763.0782 1312.0332,1763.5223 Q1310.6346,1763.9664 1309.405,1762.6736 Q1308.1755,1761.3807 1301.9865,1749.2998 Q1295.7974,1737.2189 1290.2385,1717.4739 Q1284.6796,1697.729 1280.3234,1671.2086 Q1275.9672,1644.6882 1272.4739,1612.9932 Q1268.9805,1581.2981 1265.2959,1545.0038 Q1261.6115,1508.7095 1258.7136,1467.085 Q1255.8158,1425.4606 1253.7449,1381.2103 Q1251.6741,1336.9601 1251.6104,1291.2715 Q1251.5466,1245.5828 1253.334,1202.8392 Q1255.1212,1160.0957 1258.1562,1120.5051 Q1261.1914,1080.9144 1265.6614,1047.3722 Q1270.1315,1013.83 1275.4064,988.84827 Q1280.6813,963.8665 1285.6067,947.1663 Q1290.5322,930.4661 1294.2799,920.8464 Q1298.0276,911.2266 1305.2937,892.86035 Q1312.5597,874.4941 1312.7908,873.91003 L1313.0219,873.326 " fill="none" stroke="#000000" stroke-width="34.273155" stroke-linecap="round"/><path d="M278.98657,1906.1892 Q278.98657,1906.1892 278.98657,1906.1892 Q278.98657,1906.1892 278.98657,1906.1892 Q278.98657,1906.1892 278.98657,1906.1892 Q278.98657,1906.1892 278.98657,1906.1892 Q278.98657,1906.1892 278.98657,1906.1892 Q278.98657,1906.1892 278.98657,1906.1892 Q278.98657,1906.1892 278.75714,1906.1892 Q278.5277,1906.1892 268.9202,1908.6692 Q259.31268,1911.1492 252.45993,1914.0608 Q245.6072,1916.9724 237.07693,1922.3579 Q228.54668,1927.7434 220.73392,1934.0685 Q212.92116,1940.3936 204.85477,1948.6936 Q196.78836,1956.9937 188.30212,1967.1978 Q179.81587,1977.4019 174.34668,1984.0406 Q168.8775,1990.6794 165.55904,1996.5015 Q162.24057,2002.3235 160.5066,2005.1298 Q158.77264,2007.936 157.44302,2010.346 Q156.11342,2012.7559 155.46844,2014.6642 Q154.82347,2016.5725 154.37881,2017.5238 Q153.93417,2018.4751 153.94844,2019.4375 Q153.9627,2020.3999 153.9627,2020.8738 Q153.9627,2021.3477 154.19092,2021.8264 Q154.41914,2022.3052 155.55032,2023.2788 Q156.68149,2024.2524 160.47995,2026.6686 Q164.27841,2029.0847 172.76527,2033.0568 Q181.25214,2037.0288 189.74335,2039.9021 Q198.23457,2042.7754 206.97198,2045.6852 Q215.7094,2048.595 224.39532,2051.989 Q233.08125,2055.383 239.9309,2058.2637 Q246.78053,2061.1445 253.02676,2063.5552 Q259.273,2065.9656 265.2811,2069.3733 Q271.28918,2072.781 276.1804,2076.1743 Q281.0716,2079.5679 285.22418,2082.8994 Q289.37677,2086.231 292.2828,2089.643 Q295.18884,2093.0552 298.09802,2097.9353 Q301.0072,2102.8154 302.2872,2107.0884 Q303.5672,2111.361 303.32596,2116.3118 Q303.08472,2121.2625 301.48224,2126.0928 Q299.87976,2130.9233 296.72748,2135.7307 Q293.5752,2140.538 288.6282,2145.3691 Q283.6812,2150.2002 276.19156,2156.5781 Q268.7019,2162.9558 260.64978,2168.7412 Q252.59764,2174.5266 245.01062,2178.8418 Q237.4236,2183.1567 230.53984,2186.0059 Q223.65608,2188.8547 215.87619,2190.746 Q208.0963,2192.6377 202.33504,2193.0898 Q196.57378,2193.542 191.9108,2193.5315 Q187.24783,2193.521 183.69557,2192.5312 L180.14331,2191.5413 " fill="none" stroke="#000000" stroke-width="37.34047" stroke-linecap="round"/><path d="M441.96417,2017.4456 Q441.96417,2017.4456 441.96417,2017.4456 Q441.96417,2017.4456 441.96417,2017.4456 Q441.96417,2017.4456 441.96417,2017.4456 Q441.96417,2017.4456 441.96417,2017.4456 Q441.96417,2017.4456 441.96417,2017.4456 Q441.96417,2017.4456 441.96417,2017.4456 Q441.96417,2017.4456 441.52512,2030.1582 Q441.08606,2042.8708 441.51273,2050.7424 Q441.9394,2058.614 443.24728,2065.8481 Q444.55518,2073.0825 446.10684,2078.9207 Q447.6585,2084.7588 449.225,2089.6401 Q450.7915,2094.5212 452.3518,2097.9502 Q453.9121,2101.379 455.04456,2103.366 Q456.177,2105.353 457.72678,2106.8223 Q459.27655,2108.2913 462.99625,2111.6116 Q466.71594,2114.932 472.01767,2117.848 Q477.3194,2120.764 481.13028,2121.7878 Q484.94116,2122.8118 488.54614,2123.3203 Q492.15112,2123.8286 494.87485,2123.379 Q497.59857,2122.9294 500.9406,2121.0342 Q504.28265,2119.1392 506.74222,2116.7563 Q509.20178,2114.3738 514.2511,2104.478 Q519.3004,2094.582 522.7243,2083.4453 Q526.1482,2072.3083 527.2577,2062.81 Q528.3671,2053.3118 529.1218,2042.0714 Q529.8766,2030.831 529.902,2022.4415 Q529.9274,2014.052 529.9274,2007.2401 Q529.9274,2000.4282 529.9274,1995.5383 Q529.9274,1990.6484 529.7116,1987.2295 Q529.4958,1983.8105 529.4884,1983.6978 L529.48096,1983.585 " fill="none" stroke="#000000" stroke-width="37.34047" stroke-linecap="round"/><path d="M608.0674,2012.6084 Q608.0674,2012.6084 608.0674,2012.6084 Q608.0674,2012.6084 608.0674,2012.6084 Q608.0674,2012.6084 608.0674,2012.6084 Q608.0674,2012.6084 608.0674,2012.6084 Q608.0674,2012.6084 607.38336,2017.5498 Q606.69934,2022.4912 605.8014,2036.2264 Q604.9034,2049.9617 604.463,2061.617 Q604.0227,2073.2722 603.5762,2086.37 Q603.1297,2099.4678 603.3716,2112.4902 Q603.6134,2125.513 604.2943,2138.067 Q604.9752,2150.6208 606.5641,2161.2368 Q608.15295,2171.8525 609.71826,2181.0186 Q611.2835,2190.1843 613.06396,2197.8303 Q614.8444,2205.4763 617.0956,2212.2515 Q619.3468,2219.0266 621.35486,2223.8247 Q623.363,2228.623 625.8356,2233.4683 Q628.3081,2238.3137 630.2988,2241.6475 L632.2895,2244.9814 " fill="none" stroke="#000000" stroke-width="37.34047" stroke-linecap="round"/><path d="M611.63947,1959.3987 Q611.63947,1959.3987 611.63947,1959.3987 Q611.63947,1959.3987 611.63947,1959.3987 Q611.63947,1959.3987 611.63947,1959.3987 Q611.63947,1959.3987 611.63947,1959.3987 Q611.63947,1959.3987 611.63947,1959.3987 Q611.63947,1959.3987 611.63947,1959.3987 Q611.63947,1959.3987 611.63947,1959.3987 Q611.63947,1959.3987 611.63947,1959.3987 Q611.63947,1959.3987 611.63947,1959.3987 Q611.63947,1959.3987 611.63947,1959.3987 Q611.63947,1959.3987 611.63947,1959.3987 Q611.63947,1959.3987 611.63947,1959.3987 Q611.63947,1959.3987 611.63947,1959.3987 Q611.63947,1959.3987 611.63947,1959.3987 Q611.63947,1959.3987 615.77966,1958.4021 Q619.91986,1957.4055 625.3084,1957.4347 Q630.69696,1957.4639 635.6005,1958.4598 Q640.5041,1959.4558 645.42566,1960.9237 Q650.3473,1962.3916 655.01337,1964.8325 Q659.67944,1967.2734 664.374,1969.6958 Q669.06866,1972.1182 673.5115,1974.5281 Q677.9543,1976.938 682.40393,1979.8428 Q686.8535,1982.7476 690.4281,1985.1705 Q694.00275,1987.5935 697.11035,1990.0078 Q700.21796,1992.4221 703.5705,1995.3363 Q706.92303,1998.2505 708.897,2000.1593 Q710.871,2002.0681 712.8747,2004.4923 Q714.8784,2006.9165 716.66016,2009.337 Q718.4419,2011.7576 720.00903,2015.1876 Q721.5762,2018.6177 722.21924,2021.5057 Q722.86237,2024.3938 722.8419,2027.2787 Q722.8215,2030.1636 722.59076,2032.591 Q722.36005,2035.0183 721.22394,2037.4165 Q720.0878,2039.8147 718.04126,2042.2518 Q715.99475,2044.689 712.8357,2047.605 Q709.6766,2050.521 705.17053,2053.9214 Q700.6644,2057.3218 695.74225,2060.7053 Q690.82007,2064.0889 685.48236,2068.4443 Q680.14465,2072.7996 675.23175,2077.1636 Q670.31885,2081.5278 660.4286,2090.2944 L650.5383,2099.0608 " fill="none" stroke="#000000" stroke-width="37.34047" stroke-linecap="round"/><path d="M787.566,2001.9663 Q787.566,2001.9663 787.566,2001.9663 Q787.566,2001.9663 787.566,2001.9663 Q787.566,2001.9663 787.566,2001.9663 Q787.566,2001.9663 787.566,2001.9663 Q787.566,2001.9663 788.48505,2007.9403 Q789.4041,2013.9143 790.52966,2026.7225 Q791.6553,2039.5308 792.7697,2050.5862 Q793.88416,2061.6416 794.3114,2072.7842 Q794.7387,2083.9265 795.6454,2095.5547 Q796.55206,2107.1826 797.1964,2116.5308 Q797.84076,2125.879 799.20386,2136.1938 Q800.56696,2146.509 801.6857,2156.2363 Q802.8045,2165.9634 804.3766,2175.6216 Q805.94867,2185.28 807.2895,2192.0168 Q808.6303,2198.7537 810.1974,2204.5225 Q811.7645,2210.2913 813.0935,2216.078 Q814.42255,2221.8645 814.84607,2224.688 Q815.26965,2227.5117 815.25977,2229.441 L815.2498,2231.3704 " fill="none" stroke="#000000" stroke-width="37.34047" stroke-linecap="round"/><path d="M777.29614,1941.9846 Q777.29614,1941.9846 777.29614,1941.9846 Q777.29614,1941.9846 777.29614,1941.9846 Q777.29614,1941.9846 777.29614,1941.9846 Q777.29614,1941.9846 777.29614,1941.9846 Q777.29614,1941.9846 777.29614,1941.9846 Q777.29614,1941.9846 777.52625,1941.9846 Q777.7563,1941.9846 781.427,1938.4988 Q785.0977,1935.013 792.45654,1930.2123 Q799.81537,1925.4116 807.0669,1922.49 Q814.31836,1919.5684 820.7407,1918.6611 Q827.1631,1917.7539 834.5901,1918.7716 Q842.01715,1919.7893 849.771,1922.227 Q857.5248,1924.6648 863.79895,1928.5953 Q870.07306,1932.5259 876.56177,1937.3967 Q883.05054,1942.2676 889.53735,1948.6099 Q896.0242,1954.9521 903.6565,1964.241 Q911.2888,1973.5298 916.6947,1980.579 Q922.10065,1987.6282 926.4219,1994.0463 Q930.7431,2000.4644 933.59644,2004.7478 Q936.4498,2009.0312 938.1931,2013.3717 Q939.93634,2017.7122 941.02783,2020.5587 Q942.1193,2023.4053 942.0896,2026.2853 Q942.0598,2029.1653 940.90814,2032.1042 Q939.7565,2035.0432 937.9481,2036.9489 Q936.1398,2038.8545 929.9729,2042.2885 Q923.806,2045.7224 913.93494,2049.0823 Q904.0639,2052.4421 884.34845,2055.6794 Q864.633,2058.9167 852.80164,2060.858 Q840.9703,2062.7988 831.12585,2065.1929 Q821.2815,2067.5867 813.1444,2070.4863 Q805.0073,2073.3862 796.8144,2077.199 Q788.62146,2081.0117 782.0676,2084.8896 Q775.5138,2088.7676 770.3771,2091.6785 Q765.2403,2094.5894 755.16766,2100.2825 Q745.09503,2105.9756 744.67456,2106.213 L744.25415,2106.4504 " fill="none" stroke="#000000" stroke-width="37.34047" stroke-linecap="round"/><path d="M993.40894,1978.7476 Q993.40894,1978.7476 993.40894,1978.7476 Q993.40894,1978.7476 993.40894,1978.7476 Q993.40894,1978.7476 993.40894,1978.7476 Q993.40894,1978.7476 992.0328,1983.2208 Q990.6566,1987.6941 987.7264,1999.4423 Q984.79614,2011.1904 983.4851,2019.8721 Q982.1741,2028.5537 981.5248,2038.7139 Q980.8755,2048.874 981.57623,2058.5398 Q982.277,2068.2056 984.0947,2077.4124 Q985.9125,2086.6191 987.92487,2093.3193 Q989.93726,2100.0195 991.70966,2104.2925 Q993.48206,2108.5654 996.4328,2112.4587 Q999.38354,2116.352 1002.06134,2118.733 Q1004.73914,2121.1138 1012.46265,2125.018 Q1020.18616,2128.9226 1025.447,2130.2957 Q1030.7078,2131.6687 1036.3362,2130.6406 Q1041.9647,2129.6123 1046.6184,2126.6572 Q1051.2721,2123.7021 1057.2783,2116.396 Q1063.2847,2109.09 1070.9807,2093.8008 Q1078.6769,2078.5112 1082.1367,2064.0068 Q1085.5967,2049.5027 1087.3257,2033.0505 Q1089.0547,2016.5984 1088.3198,2000.597 Q1087.5848,1984.5957 1086.4536,1971.0968 Q1085.3225,1957.5979 1082.8252,1946.0474 Q1080.3278,1934.4968 1076.2688,1923.4071 Q1072.2098,1912.3174 1068.2197,1903.7432 Q1064.2297,1895.169 1059.8335,1889.0443 Q1055.4371,1882.9197 1051.7671,1878.4495 Q1048.0969,1873.9792 1044.7605,1871.129 Q1041.4241,1868.2788 1037.6113,1866.3718 Q1033.7986,1864.4648 1031.1648,1864.0295 L1028.531,1863.5942 " fill="none" stroke="#000000" stroke-width="37.34047" stroke-linecap="round"/><path d="M1159.9586,2067.7527 Q1159.9586,2067.7527 1159.9586,2067.7527 Q1159.9586,2067.7527 1159.9586,2067.7527 Q1159.9586,2067.7527 1159.9586,2067.7527 Q1159.9586,2067.7527 1159.9586,2067.7527 Q1159.9586,2067.7527 1159.9586,2067.7527 Q1159.9586,2067.7527 1154.9321,2059.832 Q1149.9058,2051.9114 1145.4338,2043.1486 Q1140.9619,2034.3857 1137.189,2026.6809 Q1133.4159,2018.9761 1130.9873,2012.207 Q1128.5587,2005.438 1126.8049,2000.197 Q1125.0511,1994.956 1123.9423,1991.5911 Q1122.8334,1988.2261 1122.1829,1985.8595 Q1121.5323,1983.4929 1121.5454,1981.5475 Q1121.5583,1979.602 1121.5583,1978.1658 Q1121.5583,1976.7295 1121.5583,1975.2778 Q1121.5583,1973.8262 1122.0173,1972.8735 Q1122.4763,1971.9209 1123.1454,1970.9634 Q1123.8145,1970.0059 1124.4861,1969.0359 Q1125.1577,1968.0659 1127.1826,1966.6135 Q1129.2074,1965.1611 1132.8502,1962.696 Q1136.493,1960.231 1141.6677,1958.311 Q1146.8423,1956.3911 1152.6147,1954.9658 Q1158.3871,1953.5405 1164.4814,1953.5673 Q1170.5757,1953.594 1177.9872,1954.59 Q1185.3987,1955.5859 1191.8663,1956.5565 Q1198.334,1957.5271 1211.4769,1959.4911 L1224.6199,1961.4551 " fill="none" stroke="#000000" stroke-width="37.34047" stroke-linecap="round"/><path d="M1273.8196,1838.4678 Q1273.8196,1838.4678 1273.8196,1838.4678 Q1273.8196,1838.4678 1273.8196,1838.4678 Q1273.8196,1838.4678 1273.8196,1838.4678 Q1273.8196,1838.4678 1273.8196,1838.4678 Q1273.8196,1838.4678 1273.8196,1838.4678 Q1273.8196,1838.4678 1275.2031,1849.9612 Q1276.5867,1861.4546 1277.9237,1873.0577 Q1279.2607,1884.6609 1281.2875,1897.2439 Q1283.3142,1909.8269 1285.3186,1921.3793 Q1287.323,1932.9316 1289.3353,1943.565 Q1291.3477,1954.1982 1294.2916,1966.9001 Q1297.2356,1979.602 1300.8138,1991.6221 Q1304.3921,2003.6421 1307.9717,2015.262 Q1311.5513,2026.8818 1315.1271,2035.5077 Q1318.7029,2044.1335 1322.5033,2051.836 Q1326.3037,2059.538 1329.8727,2065.2876 Q1333.4417,2071.037 1336.076,2074.8213 Q1338.7104,2078.6055 1340.6998,2080.9832 Q1342.6892,2083.3608 1344.4747,2084.7905 Q1346.2603,2086.22 1348.5052,2087.1724 Q1350.7502,2088.125 1353.2153,2087.5984 Q1355.6804,2087.0718 1357.4485,2085.5898 L1359.2166,2084.1077 " fill="none" stroke="#000000" stroke-width="37.34047" stroke-linecap="round"/><path d="M1253.28,1987.4546 Q1253.28,1987.4546 1253.28,1987.4546 Q1253.28,1987.4546 1253.28,1987.4546 Q1253.28,1987.4546 1253.28,1987.4546 Q1253.28,1987.4546 1253.28,1987.4546 Q1253.28,1987.4546 1253.28,1987.4546 Q1253.28,1987.4546 1253.28,1987.4546 Q1253.28,1987.4546 1258.0894,1989.9359 Q1262.8987,1992.4172 1270.8,1995.3345 Q1278.7014,1998.2517 1286.5222,2001.1565 Q1294.343,2004.0613 1301.6901,2005.9677 Q1309.0371,2007.874 1316.4214,2008.8179 Q1323.8057,2009.7617 1329.8007,2010.2318 Q1335.7957,2010.7019 1339.7542,2010.6876 L1343.7126,2010.6733 " fill="none" stroke="#000000" stroke-width="37.34047" stroke-linecap="round"/><path d="M366.94983,2297.0376 Q366.94983,2297.0376 366.94983,2297.0376 Q366.94983,2297.0376 366.94983,2297.0376 Q366.94983,2297.0376 366.94983,2297.0376 Q366.94983,2297.0376 366.94983,2297.0376 Q366.94983,2297.0376 366.94983,2297.0376 Q366.94983,2297.0376 366.94983,2297.0376 Q366.94983,2297.0376 366.94983,2297.0376 Q366.94983,2297.0376 365.33618,2306.5273 Q363.72253,2316.017 363.31262,2328.7012 Q362.9027,2341.3853 364.53,2354.462 Q366.1573,2367.5383 368.17715,2378.5771 Q370.19702,2389.6162 373.1254,2401.2378 Q376.05377,2412.8596 378.95984,2423.486 Q381.8659,2434.1125 384.77072,2444.7625 Q387.67554,2455.4124 389.8864,2464.0562 Q392.0973,2472.7 394.5599,2480.9072 Q397.02252,2489.1143 399.01575,2494.837 Q401.00897,2500.5598 402.78882,2505.8677 Q404.56866,2511.1758 405.66446,2514.503 Q406.76025,2517.83 407.87222,2520.2085 Q408.9842,2522.5867 409.8716,2525.0078 Q410.75903,2527.429 411.65146,2529.8462 Q412.54388,2532.2637 413.20993,2534.1917 Q413.87598,2536.1196 414.77582,2539.0522 Q415.67566,2541.985 416.1073,2544.8801 Q416.53894,2547.7751 416.98608,2550.68 Q417.43323,2553.5847 417.64966,2556.4897 Q417.8661,2559.3945 417.6304,2561.7856 Q417.3947,2564.177 417.17273,2566.0903 Q416.95074,2568.0034 416.95508,2568.4617 Q416.9594,2568.92 416.9594,2569.4038 Q416.9594,2569.8875 416.9594,2569.8875 Q416.9594,2569.8875 416.9594,2569.8875 Q416.9594,2569.8875 416.9594,2569.8875 Q416.9594,2569.8875 415.35568,2569.8726 Q413.75195,2569.8577 409.6459,2566.363 Q405.53986,2562.8684 396.9178,2550.0051 Q388.29572,2537.1418 380.5096,2520.0889 Q372.7235,2503.0356 365.6351,2483.2134 Q358.5467,2463.3914 353.44342,2442.4846 Q348.34015,2421.578 344.5801,2402.2505 Q340.82007,2382.9233 338.40704,2364.086 Q335.99402,2345.2488 334.9168,2330.3623 Q333.8396,2315.476 334.33325,2302.98 Q334.8269,2290.484 336.1776,2281.502 Q337.52832,2272.5203 339.80304,2264.7168 Q342.07776,2256.9136 345.2201,2250.1904 Q348.36243,2243.467 351.49176,2238.1785 Q354.6211,2232.89 358.21243,2229.0537 Q361.80377,2225.2173 368.39294,2220.3296 Q374.98212,2215.4421 383.51736,2212.6118 Q392.0526,2209.7815 401.2359,2208.8755 Q410.4192,2207.9692 420.73926,2208.5015 Q431.05933,2209.0334 440.64075,2211.5195 Q450.22217,2214.0059 460.2576,2216.917 Q470.29303,2219.828 480.75446,2224.2095 Q491.21588,2228.5908 500.15488,2232.9697 Q509.09387,2237.3486 517.7798,2243.1929 Q526.4657,2249.0374 533.618,2254.7056 Q540.77026,2260.3738 547.39545,2267.3203 Q554.0206,2274.2666 559.7949,2282.0273 Q565.5692,2289.7878 569.53015,2296.5278 Q573.491,2303.2678 576.56885,2309.997 Q579.6467,2316.7263 580.7208,2322.5479 Q581.795,2328.3694 581.75903,2333.1755 Q581.7231,2337.9817 580.8021,2341.8162 Q579.88116,2345.6506 578.0659,2349.0244 Q576.25073,2352.398 572.61475,2357.2915 Q568.9788,2362.1853 562.1943,2367.5068 Q555.4097,2372.8284 546.18555,2377.1497 Q536.9613,2381.471 525.7258,2384.831 Q514.4904,2388.1912 503.562,2390.0796 Q492.6336,2391.9678 481.23386,2394.4014 Q469.8341,2396.8347 460.0387,2398.7593 Q450.2433,2400.6836 441.81036,2402.6167 Q433.37744,2404.5496 425.11884,2406.4856 Q416.86023,2408.4216 411.13986,2408.857 Q405.4195,2409.2925 399.8362,2409.7773 Q394.25293,2410.2625 390.29382,2409.7466 Q386.33472,2409.2305 384.3893,2408.246 Q382.4439,2407.262 377.6668,2401.7974 L372.8897,2396.3325 " fill="none" stroke="#000000" stroke-width="37.34047" stroke-linecap="round"/><path d="M602.2627,2292.2004 Q602.2627,2292.2004 602.2627,2292.2004 Q602.2627,2292.2004 602.2627,2292.2004 Q602.2627,2292.2004 602.2627,2292.2004 Q602.2627,2292.2004 602.2627,2292.2004 Q602.2627,2292.2004 602.2627,2292.2004 Q602.2627,2292.2004 603.1836,2295.692 Q604.10455,2299.1833 606.38116,2312.059 Q608.6578,2324.9348 610.42706,2336.4995 Q612.19635,2348.0642 613.9793,2361.6426 Q615.76227,2375.221 616.86304,2387.3147 Q617.96387,2399.4084 619.7722,2413.0042 Q621.5806,2426.5999 623.598,2438.6519 Q625.6154,2450.704 627.62036,2462.2688 Q629.6253,2473.8335 631.6365,2483.9558 Q633.6477,2494.0781 635.4201,2501.713 Q637.1925,2509.3477 638.9835,2516.1118 Q640.77454,2522.8757 642.2988,2528.5342 Q643.8232,2534.1924 644.9531,2537.607 Q646.08307,2541.0215 647.1969,2543.9048 Q648.31067,2546.7878 649.6564,2549.6914 Q651.00214,2552.595 651.65515,2554.5068 Q652.3082,2556.419 652.7473,2556.861 Q653.1864,2557.3032 653.1864,2557.3032 Q653.1864,2557.3032 653.1864,2557.3032 Q653.1864,2557.3032 653.1864,2557.3032 Q653.1864,2557.3032 653.1864,2557.3032 Q653.1864,2557.3032 653.1864,2557.3032 Q653.1864,2557.3032 653.1864,2557.3032 Q653.1864,2557.3032 653.1864,2557.3032 Q653.1864,2557.3032 653.1864,2557.3032 Q653.1864,2557.3032 653.1864,2557.3032 Q653.1864,2557.3032 653.1864,2557.3032 Q653.1864,2557.3032 653.1864,2557.3032 Q653.1864,2557.3032 652.485,2556.2942 Q651.78357,2555.2852 650.88306,2552.3213 Q649.9826,2549.3577 648.8613,2545.9617 Q647.7401,2542.5657 647.5436,2539.1816 Q647.347,2535.7974 647.35376,2532.4126 Q647.3606,2529.0278 647.8201,2526.1401 Q648.27966,2523.2527 649.4133,2520.8525 Q650.547,2518.4526 651.4363,2517.0232 Q652.32556,2515.5938 653.6813,2513.6409 Q655.0369,2511.688 656.60535,2509.755 Q658.1737,2507.822 659.9647,2505.889 Q661.75574,2503.9558 664.4584,2501.028 Q667.161,2498.1003 669.8457,2494.6934 Q672.53033,2491.2861 675.66833,2487.4033 Q678.8064,2483.5205 684.84607,2475.0994 Q690.8858,2466.6782 693.3869,2463.6914 Q695.888,2460.7048 698.55286,2457.811 Q701.21765,2454.9175 705.2003,2452.0095 Q709.1829,2449.1016 713.1985,2447.1394 Q717.214,2445.1772 721.4503,2444.1794 Q725.6866,2443.1816 730.1337,2443.6196 Q734.5809,2444.0574 739.26306,2445.477 Q743.9453,2446.8965 747.7853,2449.7627 Q751.6253,2452.6292 756.92957,2458.3403 Q762.23376,2464.0513 768.47565,2472.224 Q774.7175,2480.3972 779.6565,2487.665 Q784.5954,2494.9326 789.0785,2502.1965 Q793.56165,2509.4604 797.1611,2515.7798 Q800.7605,2522.0994 804.11365,2526.975 Q807.46686,2531.8506 810.16516,2537.1567 Q812.86346,2542.4626 814.4591,2544.9663 Q816.0548,2547.47 817.3987,2549.8848 Q818.7426,2552.2996 819.6493,2553.7805 Q820.5559,2555.2615 820.582,2555.3037 Q820.60803,2555.346 820.60803,2555.346 Q820.60803,2555.346 820.60803,2555.346 L820.60803,2555.346 " fill="none" stroke="#000000" stroke-width="37.34047" stroke-linecap="round"/><path d="M867.49194,2333.8008 Q867.49194,2333.8008 867.49194,2333.8008 Q867.49194,2333.8008 867.49194,2333.8008 Q867.49194,2333.8008 867.49194,2333.8008 Q867.49194,2333.8008 867.49194,2333.8008 Q867.49194,2333.8008 867.49194,2334.2998 Q867.49194,2334.799 869.79333,2350.2422 Q872.0948,2365.6855 874.0979,2377.6924 Q876.101,2389.6992 879.2657,2405.3047 Q882.43036,2420.9104 885.3184,2435.357 Q888.2065,2449.8037 891.5752,2462.3452 Q894.94385,2474.8867 898.06573,2485.4783 Q901.1876,2496.0698 904.0807,2504.207 Q906.9737,2512.3442 909.17773,2518.0532 Q911.3818,2523.7625 912.69714,2526.5842 Q914.01245,2529.406 915.12445,2531.814 Q916.23645,2534.2222 916.8901,2535.1406 Q917.5437,2536.059 917.5437,2536.059 L917.5437,2536.059 " fill="none" stroke="#000000" stroke-width="37.34047" stroke-linecap="round"/><path d="M850.97095,2178.0417 Q850.97095,2178.0417 850.97095,2178.0417 Q850.97095,2178.0417 850.97095,2178.0417 Q850.97095,2178.0417 850.97095,2178.0417 Q850.97095,2178.0417 850.97095,2178.0417 Q850.97095,2178.0417 850.97095,2178.0417 Q850.97095,2178.0417 850.97095,2178.0417 Q850.97095,2178.0417 850.97095,2178.0417 Q850.97095,2178.0417 850.97095,2178.0417 L850.97095,2178.0417 " fill="none" stroke="#000000" stroke-width="37.34047" stroke-linecap="round"/><path d="M1033.5951,2225.4465 Q1033.5951,2225.4465 1033.5951,2225.4465 Q1033.5951,2225.4465 1033.5951,2225.4465 Q1033.5951,2225.4465 1033.5951,2225.4465 Q1033.5951,2225.4465 1033.5951,2225.4465 Q1033.5951,2225.4465 1033.5951,2225.4465 Q1033.5951,2225.4465 1033.5951,2225.4465 Q1033.5951,2225.4465 1033.5951,2225.4465 Q1033.5951,2225.4465 1033.5951,2225.4465 Q1033.5951,2225.4465 1036.1254,2236.909 Q1038.6556,2248.3713 1041.1152,2260.013 Q1043.5748,2271.6545 1046.4852,2283.7383 Q1049.3956,2295.8223 1052.0715,2308.4282 Q1054.7476,2321.0342 1057.6542,2334.0996 Q1060.5608,2347.165 1063.6945,2361.725 Q1066.8281,2376.2852 1069.2592,2389.278 Q1071.6902,2402.271 1073.9215,2415.8623 Q1076.1528,2429.4539 1078.3829,2441.9878 Q1080.613,2454.5217 1082.3861,2466.6 Q1084.1592,2478.6785 1085.9446,2488.7764 Q1087.73,2498.8743 1089.2742,2506.4805 Q1090.8184,2514.087 1091.9341,2520.897 Q1093.0497,2527.7068 1094.1665,2532.4858 Q1095.2834,2537.2646 1095.939,2540.6055 Q1096.5945,2543.9463 1097.0354,2547.3403 Q1097.4764,2550.7344 1097.9216,2552.6167 Q1098.367,2554.4988 1098.367,2554.4988 L1098.367,2554.4988 " fill="none" stroke="#000000" stroke-width="37.34047" stroke-linecap="round"/><path d="M1119.3258,2204.1626 Q1119.3258,2204.1626 1119.3258,2204.1626 Q1119.3258,2204.1626 1119.3258,2204.1626 Q1119.3258,2204.1626 1119.3258,2204.1626 Q1119.3258,2204.1626 1119.3258,2204.1626 Q1119.3258,2204.1626 1119.5565,2208.1597 Q1119.7872,2212.1565 1120.24,2225.9922 Q1120.6926,2239.8281 1122.2914,2253.3828 Q1123.8901,2266.9377 1126.3765,2282.4937 Q1128.8627,2298.0498 1131.5436,2314.4946 Q1134.2245,2330.9392 1136.9017,2346.873 Q1139.579,2362.8066 1142.9514,2378.7869 Q1146.3237,2394.767 1149.2068,2409.7068 Q1152.09,2424.6465 1154.988,2438.6255 Q1157.886,2452.6042 1161.0233,2466.1572 Q1164.1606,2479.7102 1166.5955,2490.7595 Q1169.0303,2501.8088 1171.256,2511.4412 Q1173.4817,2521.0735 1175.0265,2527.7676 Q1176.5713,2534.4614 1177.6746,2539.2412 L1178.7778,2544.0208 " fill="none" stroke="#000000" stroke-width="37.34047" stroke-linecap="round"/><path d="M1240.331,2368.6287 Q1240.331,2368.6287 1240.331,2368.6287 Q1240.331,2368.6287 1240.331,2368.6287 Q1240.331,2368.6287 1240.331,2368.6287 Q1240.331,2368.6287 1240.331,2368.6287 Q1240.331,2368.6287 1242.736,2386.147 Q1245.1409,2403.6653 1246.7037,2412.9373 Q1248.2666,2422.2092 1249.6111,2430.45 Q1250.9556,2438.6907 1252.5116,2446.4487 Q1254.0676,2454.2068 1255.4183,2459.1567 Q1256.769,2464.107 1257.4598,2466.6006 Q1258.1506,2469.0942 1258.6008,2470.566 Q1259.051,2472.0376 1259.2836,2473.0261 Q1259.5161,2474.0146 1259.5236,2474.0476 L1259.531,2474.0806 " fill="none" stroke="#000000" stroke-width="37.34047" stroke-linecap="round"/><path d="M1197.0193,2213.8374 Q1197.0193,2213.8374 1197.0193,2213.8374 Q1197.0193,2213.8374 1197.0193,2213.8374 Q1197.0193,2213.8374 1197.0193,2213.8374 Q1197.0193,2213.8374 1197.0193,2213.8374 Q1197.0193,2213.8374 1197.0193,2213.8374 Q1197.0193,2213.8374 1197.0193,2212.8428 Q1197.0193,2211.848 1198.396,2206.4072 L1199.7727,2200.9666 " fill="none" stroke="#000000" stroke-width="37.34047" stroke-linecap="round"/><path d="M1436.8933,2551.501 Q1436.8933,2551.501 1436.8933,2551.501 Q1436.8933,2551.501 1436.8933,2551.501 Q1436.8933,2551.501 1436.8933,2551.501 Q1436.8933,2551.501 1436.8933,2551.501 Q1436.8933,2551.501 1436.8933,2551.501 Q1436.8933,2551.501 1434.1475,2543.0723 Q1431.4016,2534.6433 1427.1351,2519.0337 Q1422.8687,2503.4243 1418.6338,2484.5046 Q1414.3989,2465.585 1409.9271,2444.7305 Q1405.4553,2423.8762 1401.0082,2399.6938 Q1396.561,2375.5112 1391.867,2353.8071 Q1387.1729,2332.103 1382.9745,2311.977 Q1378.7761,2291.8513 1376.1492,2274.6123 Q1373.5222,2257.3733 1371.5221,2244.3723 Q1369.522,2231.3713 1368.1957,2221.7598 Q1366.8694,2212.1484 1365.9888,2205.4585 Q1365.1082,2198.7686 1364.4447,2194.481 Q1363.7812,2190.1936 1363.3425,2187.3389 Q1362.9038,2184.4841 1362.6865,2182.0835 Q1362.4692,2179.683 1362.4755,2178.2578 Q1362.4817,2176.8325 1362.4817,2176.3784 Q1362.4817,2175.924 1362.4817,2175.924 Q1362.4817,2175.924 1362.4817,2175.924 Q1362.4817,2175.924 1362.4817,2175.924 Q1362.4817,2175.924 1362.4817,2175.924 Q1362.4817,2175.924 1362.4817,2175.924 Q1362.4817,2175.924 1362.4817,2175.924 Q1362.4817,2175.924 1362.4817,2175.924 Q1362.4817,2175.924 1362.4817,2175.924 Q1362.4817,2175.924 1362.4817,2175.924 Q1362.4817,2175.924 1362.4817,2175.924 Q1362.4817,2175.924 1362.4817,2175.924 Q1362.4817,2175.924 1362.4817,2175.924 Q1362.4817,2175.924 1364.3203,2176.934 Q1366.1589,2177.9438 1369.0948,2179.4102 Q1372.0308,2180.8762 1375.3794,2182.3206 Q1378.728,2183.765 1383.4288,2184.216 Q1388.1296,2184.6672 1394.2063,2184.6543 Q1400.283,2184.6414 1407.4481,2184.6414 Q1414.6133,2184.6414 1422.6757,2184.6414 Q1430.738,2184.6414 1437.8401,2184.6414 Q1444.9421,2184.6414 1451.5968,2184.6414 Q1458.2515,2184.6414 1464.0272,2185.639 Q1469.803,2186.6365 1475.3468,2187.5981 Q1480.8906,2188.5598 1484.3896,2190.0198 Q1487.8887,2191.4797 1491.2373,2193.4316 Q1494.5859,2195.3835 1496.544,2197.3105 Q1498.502,2199.2378 1502.0913,2204.121 Q1505.6807,2209.0046 1508.5769,2216.8374 Q1511.4731,2224.6704 1512.5376,2232.4097 Q1513.602,2240.1492 1513.3379,2248.8716 Q1513.0737,2257.5938 1511.472,2266.782 Q1509.8704,2275.9702 1507.1604,2285.6436 Q1504.4504,2295.317 1500.8685,2303.9475 Q1497.2866,2312.5781 1493.0363,2320.27 Q1488.7859,2327.9617 1483.416,2335.6729 Q1478.0461,2343.3838 1472.7722,2350.0234 Q1467.4983,2356.6633 1461.4169,2362.4985 Q1455.3354,2368.3335 1447.7179,2373.6377 Q1440.1003,2378.9421 1434.1154,2381.7847 Q1428.1304,2384.627 1422.7698,2386.0474 Q1417.4092,2387.4675 1413.4312,2387.9219 Q1409.4531,2388.376 1404.5276,2387.3647 Q1399.602,2386.3535 1389.7908,2384.421 L1379.9795,2382.488 " fill="none" stroke="#000000" stroke-width="21.292717" stroke-linecap="round"/></svg>