<svg width="1080" height="2018" xmlns="http://www.w3.org/2000/svg"><rect width="1080" height="2018" fill="#ffffff"/><path d="M679.0,448.0 Q679.0,448.0 678.5,447.0 Q678.0,446.0 677.0,445.0 Q676.0,444.0 675.5,443.0 Q675.0,442.0 674.4612,440.92242 Q673.9224,439.84485 672.8349,439.92242 Q671.7474,440.0 670.75037,438.8767 Q669.7534,437.75342 668.74084,436.17285 Q667.7282,434.5923 666.1583,433.65897 Q664.5885,432.72565 663.09094,431.72726 Q661.5934,430.72888 660.09485,430.29715 Q658.59625,429.86542 656.88416,428.6567 Q655.172,427.448 654.31177,427.724 Q653.45154,428.0 651.8208,426.73004 Q650.1901,425.46008 648.6987,424.46582 Q647.20734,423.47156 645.693,423.09888 Q644.17865,422.7262 643.318,421.59174 Q642.4573,420.45728 641.4527,420.72864 Q640.4481,421.0 638.8221,421.0 Q637.19604,421.0 636.326,421.0 Q635.45593,421.0 633.8173,420.36313 Q632.1787,419.72626 630.04614,418.59152 Q627.9136,417.4568 627.1842,416.4558 Q626.45483,415.45483 625.4553,416.36343 Q624.4559,417.27203 623.468,415.87613 Q622.4802,414.48022 621.4751,414.10757 Q620.4699,413.73492 618.82996,413.23245 Q617.18994,412.72998 616.48303,411.75302 Q615.77606,410.77606 614.5773,410.88803 Q613.37854,411.0 611.77686,410.36252 Q610.1752,409.72504 608.69995,409.2333 Q607.22473,408.74158 605.7083,407.6014 Q604.1919,406.46124 602.68506,405.45667 Q601.17816,404.4521 600.3237,404.72604 Q599.46936,405.0 597.8428,403.73874 Q596.21625,402.47748 594.70374,402.73874 Q593.1912,403.0 591.69696,402.36713 Q590.2027,401.73425 588.70624,400.6037 Q587.2098,399.47314 586.33386,399.10104 Q585.45795,398.72894 583.19763,398.23163 Q580.9373,397.7343 579.56793,397.23358 Q578.19855,396.73285 576.705,396.23502 Q575.2115,395.73718 573.69385,395.8686 Q572.17615,396.0 571.3235,396.0 Q570.47076,396.0 569.4746,396.0 Q568.4785,396.0 566.84204,396.0 Q565.20557,396.0 563.69196,396.0 Q562.17834,396.0 560.7013,395.3707 Q559.22424,394.7414 558.33936,394.8707 Q557.4544,395.0 555.8274,394.36673 Q554.2004,393.73346 553.33014,393.86673 Q552.4599,394.0 550.19604,394.0 Q547.9321,394.0 547.1987,394.63367 Q546.46533,395.26733 544.8371,395.76553 Q543.20886,396.26373 541.7115,395.5009 Q540.2141,394.73804 539.3777,395.4837 Q538.5412,396.22937 536.8601,395.47787 Q535.1791,394.72638 533.70154,394.8632 Q532.22394,395.0 530.7643,395.6159 Q529.3046,396.2318 527.10645,396.1159 Q524.9083,396.0 522.9263,396.0 Q520.94415,396.0 518.9319,397.27008 Q516.9197,398.54016 513.70337,398.89615 Q510.4871,399.25214 508.72318,399.12607 Q506.95926,399.0 503.6563,399.0 Q500.3534,399.0 498.0033,399.0 Q495.65317,399.0 493.17862,399.0 Q490.70407,399.0 489.4398,399.63742 Q488.1755,400.27484 486.05533,400.13742 Q483.93515,400.0 482.55292,400.0 Q481.17065,400.0 479.05188,399.36664 Q476.93307,398.73328 475.57532,398.86664 Q474.2176,399.0 472.7048,399.0 Q471.19202,399.0 469.69403,399.0 Q468.19604,399.0 466.3376,398.4349 Q464.47913,397.8698 462.77106,398.5911 Q461.06296,399.31238 459.00092,399.1562 Q456.93884,399.0 453.66986,397.7335 Q450.40085,396.46698 448.66388,397.3676 Q446.92688,398.26825 444.30035,397.5015 Q441.67383,396.73474 439.18683,396.86737 Q436.69983,397.0 434.8834,397.0 Q433.06696,397.0 430.36987,396.36728 Q427.6728,395.73456 425.22214,395.24442 Q422.77148,394.75427 421.47736,395.51328 Q420.18323,396.27228 418.69177,396.13614 Q417.20032,396.0 415.08307,395.37073 Q412.96585,394.74146 411.5603,394.87073 Q410.15472,395.0 408.6697,394.3641 Q407.1847,393.7282 406.34354,394.48853 Q405.50238,395.24884 403.83984,395.76154 Q402.17734,396.27423 400.66684,396.13712 Q399.15634,396.0 397.0811,396.0 Q395.00583,396.0 393.6358,396.62238 Q392.2658,397.24475 390.07983,398.39893 Q387.89383,399.5531 385.9183,399.9087 Q383.94278,400.26428 381.3496,400.7565 Q378.75647,401.24872 376.20676,402.39294 Q373.65704,403.53717 371.79517,405.1686 Q369.9333,406.80005 367.92618,407.67026 Q365.91907,408.54047 363.30014,409.534 Q360.6812,410.52753 359.46423,412.14014 Q358.24725,413.75275 356.7249,414.00928 Q355.20255,414.2658 353.69415,415.4043 Q352.1858,416.5428 351.3265,416.90457 Q350.46722,417.26636 348.83643,419.03036 Q347.20563,420.79437 346.32843,421.0344 Q345.4512,421.2744 343.83612,421.76703 Q342.22104,422.25964 340.71515,422.7616 Q339.2093,423.26355 338.3368,423.7657 Q337.4643,424.26782 337.09824,426.03564 Q336.73218,427.80347 335.5974,429.30475 Q334.46265,430.80603 333.47037,431.03348 Q332.4781,431.26093 332.11307,433.0084 Q331.74805,434.75586 330.6128,435.63916 Q329.47754,436.52246 329.1128,438.13916 Q328.74805,439.75586 327.62238,441.8812 Q326.49673,444.00653 325.48013,445.4056 Q324.46353,446.8047 324.09332,448.95612 Q323.7231,451.10754 321.97083,451.81424 Q320.21857,452.52094 319.354,454.771 Q318.48947,457.02106 318.1084,459.05588 Q317.72733,461.0907 315.32986,461.81226 Q312.9324,462.5338 312.21042,464.15057 Q311.48843,465.76733 311.11383,467.27478 Q310.73926,468.78223 310.2447,470.26593 Q309.75012,471.74963 308.60138,473.9222 Q307.4526,476.0948 306.45755,476.81616 Q305.4625,477.53754 304.4624,479.17203 Q303.4623,480.80652 303.09268,482.95715 Q302.72305,485.1078 302.228,487.08804 Q301.73294,489.0683 300.6863,489.7143 Q299.63968,490.3603 299.21643,492.5938 Q298.79318,494.82733 298.3048,495.59723 Q297.81644,496.36713 297.27448,499.35226 Q296.7325,502.3374 296.2235,503.59686 Q295.71454,504.85632 295.22528,505.69214 Q294.736,506.52795 294.23517,508.16254 Q293.7343,509.79712 293.86716,511.24384 Q294.0,512.69055 293.37253,513.6002 Q292.74506,514.5099 292.87253,515.4623 Q293.0,516.41473 293.0,518.11035 Q293.0,519.80597 291.86163,521.67975 Q290.72324,523.5535 290.86163,525.18823 Q291.0,526.82294 291.0,528.323 Q291.0,529.823 291.0,531.30994 Q291.0,532.7969 291.0,534.3131 Q291.0,535.8293 290.3707,536.6732 Q289.7414,537.5172 289.8707,539.6523 Q290.0,541.78735 288.7174,543.31757 Q287.4348,544.8478 287.08472,545.6893 Q286.73465,546.53076 286.23157,548.1726 Q285.7285,549.8145 284.59045,550.0442 Q283.4524,550.2738 283.7262,552.64294 Q284.0,555.012 283.36707,555.7719 Q282.7341,556.5318 282.86707,558.07825 Q283.0,559.62463 283.0,561.17944 Q283.0,562.73425 282.37024,563.62665 Q281.74048,564.51904 281.87024,567.2875 Q282.0,570.0559 281.365,571.433 Q280.73,572.81 280.27356,573.5879 Q279.8171,574.3658 279.26758,576.10583 Q278.71805,577.8458 278.859,579.29236 Q279.0,580.7389 278.3747,582.2453 Q277.74942,583.7517 277.2512,584.6229 Q276.75296,585.4941 276.87646,587.1353 Q277.0,588.77655 277.0,590.25793 Q277.0,591.7393 277.0,593.2577 Q277.0,594.776 275.73975,595.0181 Q274.47946,595.26025 274.73975,597.03125 Q275.0,598.80225 274.3758,599.64954 Q273.7516,600.4968 273.8758,601.5053 Q274.0,602.5138 274.0,604.16547 Q274.0,605.81714 274.0,607.2838 Q274.0,608.7505 274.0,609.6366 Q274.0,610.52277 274.0,611.51733 Q274.0,612.51184 273.37036,613.51514 Q272.74075,614.5185 272.87036,616.156 Q273.0,617.7935 273.0,618.67346 Q273.0,619.55347 272.37427,621.1539 Q271.74857,622.7543 271.2362,624.2914 Q270.72388,625.8284 270.86194,626.6748 Q271.0,627.5212 269.8694,629.5218 Q268.7388,631.5224 268.251,632.498 Q267.7632,633.4736 267.8816,634.50684 Q268.0,635.5401 268.0,637.0089 Q268.0,638.4777 268.0,639.53595 Q268.0,640.5942 267.37878,641.53955 Q266.75754,642.4849 266.87878,643.4763 Q267.0,644.4677 265.7687,644.2339 Q264.5374,644.0 264.7687,645.24536 Q265.0,646.49066 265.57,647.3854 Q266.14,648.28 266.07,649.4178 Q266.0,650.55554 266.0,652.1511 Q266.0,653.74664 266.0,654.64246 Q266.0,655.53827 266.62744,657.15137 Q267.25485,658.7645 267.12744,659.59717 Q267.0,660.42975 267.0,662.12354 Q267.0,663.8174 267.0,664.6732 Q267.0,665.5291 267.0,667.1736 Q267.0,668.818 267.0,669.6709 Q267.0,670.52386 267.0,672.14746 Q267.0,673.7711 267.0,675.2356 Q267.0,676.7001 267.0,678.1575 Q267.0,679.61487 266.35925,680.589 Q265.71848,681.56305 265.85925,682.5504 Q266.0,683.5377 266.0,684.5346 Q266.0,685.5315 265.36975,686.52625 Q264.7395,687.521 264.25488,688.49023 Q263.77023,689.45953 263.3344,690.8819 Q262.89856,692.30426 262.94928,693.4402 Q263.0,694.57605 263.0,696.167 Q263.0,697.758 262.3806,698.6178 Q261.76123,699.47754 261.24826,700.5035 Q260.7353,701.5294 260.86765,703.15344 Q261.0,704.7775 260.4054,705.57794 Q259.81082,706.37836 259.9054,708.07947 Q260.0,709.7805 260.0,710.6581 Q260.0,711.5357 260.0,712.5398 Q260.0,713.54395 259.37744,714.5171 Q258.75488,715.49023 258.24622,716.50757 Q257.73752,717.52496 257.22858,719.183 Q256.71964,720.84106 256.8598,722.9198 Q257.0,724.99854 257.0,725.77515 Q257.0,726.5518 257.0,727.5373 Q257.0,728.52277 256.37817,729.505 Q255.75635,730.4873 255.87817,732.1634 Q256.0,733.8395 256.6361,734.69196 Q257.27222,735.54443 257.1361,737.17975 Q257.0,738.81506 257.0,739.6674 Q257.0,740.5198 257.0,742.13556 Q257.0,743.75134 257.0,744.651 Q257.0,745.5507 256.36243,747.188 Q255.72488,748.8253 255.86244,749.6843 Q256.0,750.54333 256.0,751.54626 Q256.0,752.54913 255.37259,754.1568 Q254.74518,755.76447 254.23834,757.2849 Q253.73152,758.8054 253.86575,760.2919 Q254.0,761.77826 254.0,763.29987 Q254.0,764.8215 253.36127,766.32697 Q252.72252,767.83246 252.2204,768.698 Q251.71826,769.5635 251.85913,772.1338 Q252.0,774.7041 251.3477,775.6567 Q250.6954,776.60925 250.21175,778.2125 Q249.72809,779.8158 250.50098,781.9556 Q251.27386,784.09546 250.50052,785.457 Q249.72717,786.8185 249.86359,788.9498 Q250.0,791.0812 250.0,792.4453 Q250.0,793.80945 250.0,795.3006 Q250.0,796.79175 250.0,798.3038 Q250.0,799.8158 250.0,801.31323 Q250.0,802.81067 249.36185,804.31976 Q248.7237,805.82886 248.86185,807.32117 Q249.0,808.8135 248.36942,809.6679 Q247.73883,810.52234 247.86942,813.44434 Q248.0,816.36633 247.36304,817.59406 Q246.72609,818.8218 246.22821,820.3154 Q245.73032,821.8091 245.29675,823.67816 Q244.86319,825.54724 244.29472,826.54736 Q243.72626,827.5475 243.86313,828.5413 Q244.0,829.53516 244.0,830.53876 Q244.0,831.54236 243.36171,832.5477 Q242.72342,833.5531 241.72453,834.9823 Q240.72565,836.4115 240.22281,838.1258 Q239.71997,839.8401 239.29225,841.691 Q238.86453,843.5419 238.43227,844.27094 Q238.0,845.0 237.43196,846.13605 Q236.86392,847.2721 236.2962,848.4076 Q235.72847,849.5431 234.86423,850.27155 Q234.0,851.0 233.0,852.0 Q232.0,853.0 230.8647,853.5676 Q229.7294,854.13525 229.2962,855.20465 Q228.86299,856.27405 227.93149,856.637 Q227.0,857.0 226.0,858.0 Q225.0,859.0 224.0,859.5 Q223.0,860.0 223.5,861.0 Q223.99998,862.0 225.0,861.5 Q226.0,861.0 227.699,859.8673 Q229.39803,858.7346 229.949,857.3673 L230.5,856.0 " fill="none" stroke="#000000" stroke-width="19.949999" stroke-linecap="round"/><path d="M451.0,558.0 Q451.0,558.0 452.0,558.5 Q453.0,559.0 454.14175,559.0 Q455.2835,559.0 456.43048,559.0 Q457.57742,559.0 459.22327,559.0 Q460.86908,559.0 462.98615,558.36206 Q465.1032,557.7242 467.61835,557.2488 Q470.13345,556.7733 473.74884,556.2892 Q477.36423,555.8051 480.3968,555.28345 Q483.42932,554.7618 487.21518,554.2379 Q491.00104,553.7141 494.47073,553.21844 Q497.94043,552.7228 501.26862,551.0192 Q504.59677,549.3157 508.2786,549.0178 Q511.96042,548.7199 514.78235,548.86 Q517.60425,549.0 520.6,547.734 Q523.59576,546.4681 525.35095,546.09576 Q527.1061,545.72345 529.64734,546.4806 Q532.18854,547.23773 534.1441,547.1189 Q536.0997,547.0 538.02637,547.0 Q539.95306,547.0 541.37537,546.36707 Q542.7977,545.7341 543.675,546.5051 Q544.55225,547.2761 546.1917,547.13806 Q547.8312,547.0 549.3251,546.3635 Q550.819,545.727 552.95776,545.8635 Q555.0965,546.0 556.45593,546.0 Q557.81537,546.0 559.3119,544.7306 Q560.80835,543.4611 562.9457,544.36597 Q565.08307,545.27075 566.4582,545.7743 Q567.8333,546.2778 569.95544,546.1389 Q572.07764,546.0 573.4419,546.0 Q574.8061,546.0 576.3023,546.63306 Q577.7985,547.2662 579.30347,546.49835 Q580.8085,545.7305 582.2981,546.4966 Q583.78766,547.2626 585.28564,547.1313 Q586.78357,547.0 588.9281,547.63403 Q591.0726,548.2681 592.4224,548.7628 Q593.7723,549.25745 594.64734,548.49817 Q595.5224,547.73883 597.1643,548.5038 Q598.8062,549.26874 600.92004,549.7636 Q603.03394,550.2585 604.4412,550.7706 Q605.8485,551.28284 607.32227,551.77405 Q608.79596,552.2653 610.2788,552.1327 Q611.76166,552.0 613.94385,552.0 Q616.126,552.0 617.46564,552.0 Q618.8053,552.0 620.3163,552.0 Q621.82733,552.0 623.963,553.27466 Q626.09863,554.5493 628.08075,554.90753 Q630.06287,555.26575 631.39197,555.1329 Q632.7211,555.0 634.9246,555.0 Q637.1281,555.0 639.7399,556.2704 Q642.35175,557.5407 644.2096,557.2704 Q646.0675,557.0 647.4406,557.0 Q648.8137,557.0 650.31415,557.0 Q651.8146,557.0 653.9464,557.0 Q656.0782,557.0 656.8063,557.0 Q657.5344,557.0 659.80164,557.6336 Q662.0688,558.2672 663.43884,558.76843 Q664.80884,559.2696 665.66943,559.13477 Q666.5301,559.0 668.17285,559.0 Q669.81555,559.0 671.3148,559.6357 Q672.81415,560.27136 674.30414,561.4004 Q675.7941,562.5294 676.6476,561.63947 Q677.501,560.7495 678.52686,561.51294 Q679.5527,562.27637 680.97345,561.5725 Q682.3942,560.8686 683.3328,560.9343 Q684.2714,561.0 683.63574,560.0 Q683.0,559.0 682.0,559.0 L681.0,559.0 " fill="none" stroke="#000000" stroke-width="19.949999" stroke-linecap="round"/><path d="M677.0,563.0 Q677.0,563.0 676.5,564.0 Q676.0,565.0 675.5,566.0 Q675.0,567.0 675.0,568.68384 Q675.0,570.3677 675.0,572.063 Q675.0,573.75824 675.0,575.9045 Q675.0,578.0507 675.0,580.68506 Q675.0,583.3194 675.6361,585.84033 Q676.2723,588.36127 676.7721,590.8606 Q677.272,593.35986 676.5183,596.386 Q675.76465,599.4122 675.242,600.627 Q674.71936,601.84186 674.8597,603.95276 Q675.0,606.0637 675.0,608.4076 Q675.0,610.7515 673.6966,611.6792 Q672.3932,612.6068 672.06055,614.2114 Q671.72797,615.8161 671.864,617.29626 Q672.0,618.7764 672.0,620.938 Q672.0,623.09955 672.0,625.7291 Q672.0,628.35876 671.3645,628.95044 Q670.72894,629.5421 670.2256,630.54877 Q669.7223,631.5554 669.86115,634.448 Q670.0,637.3406 669.368,639.8303 Q668.73596,642.32007 668.868,644.1885 Q669.0,646.0568 668.3639,647.43665 Q667.72784,648.8165 667.2302,650.3094 Q666.73254,651.80225 666.8663,654.55817 Q667.0,657.3141 667.0,659.83936 Q667.0,662.3647 666.3652,664.2217 Q665.73035,666.0787 665.2376,669.3048 Q664.7449,672.5309 664.87244,675.5758 Q665.0,678.6207 663.7313,680.3478 Q662.4626,682.0749 662.09106,684.7388 Q661.7195,687.4026 661.2284,689.2266 Q660.7373,691.05066 660.86865,693.0435 Q661.0,695.0364 660.36414,697.6975 Q659.7283,700.3587 659.86414,702.86414 Q660.0,705.36957 659.36426,707.2276 Q658.7286,709.08563 658.86426,710.44495 Q659.0,711.8043 659.0,714.58264 Q659.0,717.361 659.0,718.58484 Q659.0,719.80865 658.3663,720.67175 Q657.73254,721.5349 656.5996,723.1674 Q655.4667,724.7999 655.0992,726.3025 Q654.7317,727.805 654.2355,730.5542 Q653.7393,733.30347 652.60645,735.8097 Q651.47363,738.31586 651.10144,738.9287 Q650.72925,739.5415 651.4962,741.79706 Q652.2632,744.0526 651.4994,746.05505 Q650.7356,748.05756 650.23413,750.06323 Q649.7327,752.069 649.23,754.0801 Q648.72723,756.0911 648.23004,757.4463 Q647.73285,758.8014 647.86646,760.3098 Q648.0,761.8183 648.0,762.68536 Q648.0,763.5524 646.86365,764.9808 Q645.72723,766.4091 645.22784,768.1118 Q644.72845,769.8146 644.30347,772.21094 Q643.87854,774.6073 643.28455,776.2677 Q642.6906,777.9281 641.578,779.36505 Q640.46533,780.802 639.47076,782.9248 Q638.4762,785.0476 638.1042,786.4254 Q637.7322,787.8032 637.2347,789.9272 Q636.7372,792.05115 636.2342,794.0632 Q635.7312,796.0752 635.2337,797.4333 Q634.7362,798.7914 633.60315,800.2931 Q632.4701,801.7948 631.4748,802.65765 Q630.4795,803.5205 630.11176,804.51624 Q629.744,805.51196 629.24,807.1521 Q628.7359,808.79224 628.8679,810.29 Q629.0,811.7877 628.3644,812.6651 Q627.72876,813.5425 626.7285,816.1109 Q625.7283,818.6793 625.23303,820.2331 Q624.73773,821.78687 623.7384,822.5239 Q622.739,823.261 622.2345,825.0355 Q621.73,826.81006 620.16516,826.405 Q618.60034,826.0 617.6677,828.265 Q616.73505,830.53 616.23645,832.7894 Q615.7378,835.0488 615.23206,836.4348 Q614.7264,837.8208 614.2322,839.3035 Q613.7379,840.78625 613.86896,842.2915 Q614.0,843.79675 612.73145,845.3012 Q611.46295,846.80566 610.0314,847.5362 Q608.59985,848.2667 608.1689,849.39545 Q607.7379,850.5242 607.23535,851.52924 Q606.73285,852.5343 605.7346,854.5308 Q604.7363,856.52734 603.16736,858.5314 Q601.59845,860.5354 600.66504,862.5361 Q599.7316,864.53674 598.59467,865.53955 Q597.4577,866.54236 596.0241,867.40765 Q594.5905,868.27295 593.5233,868.77246 Q592.4561,869.272 590.839,869.7657 Q589.22186,870.2594 588.3452,870.7626 Q587.4685,871.26575 585.8336,872.39996 Q584.1988,873.5342 583.3319,873.9008 Q582.465,874.26746 580.8295,874.76807 Q579.19403,875.2687 578.33966,875.763 Q577.4853,876.2573 576.4663,876.76685 Q575.44727,877.27637 574.45123,877.77435 Q573.4552,878.27234 572.4656,878.76715 Q571.47595,879.26196 570.5037,879.7481 Q569.5315,880.23425 567.879,882.00385 Q566.2266,883.77344 565.33154,883.3867 Q564.43646,883.0 562.1913,884.2634 Q559.94617,885.52686 559.84064,887.16077 Q559.7351,888.7947 558.6007,889.66425 Q557.46625,890.5338 556.456,890.90546 Q555.44574,891.2771 554.45874,891.7706 Q553.4717,892.26416 552.6051,892.69745 Q551.7386,893.13074 551.23315,894.33765 Q550.7277,895.54456 549.58875,895.2723 Q548.4498,895.0 548.0907,896.2685 Q547.7315,897.537 546.72974,897.2685 Q545.7279,897.0 544.5917,897.0 Q543.45544,897.0 543.16113,898.13324 Q542.86676,899.2665 541.2322,899.13324 Q539.59766,899.0 538.2988,898.5 Q537.0,898.0 535.86597,898.0 Q534.7319,898.0 533.75323,898.0 Q532.7746,898.0 531.1876,898.0 Q529.6007,898.0 528.6647,898.0 Q527.7287,898.0 526.73267,898.0 Q525.73663,898.0 524.1705,898.0 Q522.6043,898.0 521.8021,897.5 Q521.0,897.0 519.8674,897.0 Q518.73474,897.0 517.1656,897.0 Q515.59644,897.0 514.09985,897.0 Q512.6032,897.0 511.66528,897.0 Q510.7274,897.0 509.72815,896.43225 Q508.72894,895.8645 507.161,895.93225 Q505.5931,896.0 504.66174,896.0 Q503.73035,896.0 502.73083,896.0 Q501.73135,896.0 500.16296,895.43243 Q498.59457,894.86487 497.2973,894.93243 Q496.0,895.0 495.0,895.0 Q494.0,895.0 493.0,894.5 Q492.0,894.0 491.0,893.5 Q490.0,893.0 489.43243,891.86487 Q488.86484,890.72974 487.93243,890.36487 Q487.0,890.0 486.0,889.0 Q484.99997,888.0 484.0,887.5 Q483.0,887.0 482.4343,885.8686 Q481.8686,884.7372 480.9343,884.3686 Q480.0,884.0 479.5,883.0 Q479.0,882.0 478.5,881.0 Q478.0,880.0 477.0,879.0 Q476.0,878.0 475.4325,876.8649 Q474.86496,875.72986 474.3636,874.7271 Q473.86218,873.72437 472.79688,873.2951 Q471.7316,872.86584 471.36578,871.9329 Q471.0,871.0 470.0,870.5 Q469.0,870.0 468.5,869.0 Q468.0,868.0 468.0,867.0 Q468.0,866.0 468.62958,864.74084 Q469.2592,863.4817 470.39807,863.10657 Q471.537,862.73145 471.2685,859.0543 L471.0,855.3772 " fill="none" stroke="#000000" stroke-width="19.949999" stroke-linecap="round"/><path d="M484.99997,544.0 Q484.99997,544.0 484.5,543.0 Q484.0,542.0 483.5,543.0 Q483.0,544.0 483.0,545.1599 Q483.0,546.31976 484.12625,548.41235 Q485.2525,550.505 485.12622,551.2525 Q484.99997,552.0 484.0,552.5 Q483.0,553.0 483.0,554.0 Q483.0,555.0 483.0,556.13916 Q483.0,557.27826 483.0,558.4136 Q483.0,559.5488 483.0,560.2744 Q483.0,561.0 483.0,562.1265 Q483.0,563.25305 482.5,564.1265 Q482.0,565.0 481.5,566.0 Q481.0,567.0 481.0,568.2726 Q481.0,569.5451 481.0,570.2726 Q481.0,571.0 481.0,572.1373 Q481.0,573.2747 481.0,574.8368 Q481.0,576.3988 481.0,578.4724 Q481.0,580.5461 480.36383,582.18164 Q479.72763,583.81714 479.23038,585.30884 Q478.73312,586.8006 478.86658,588.9319 Q479.0,591.0631 479.0,593.0778 Q479.0,595.0925 479.0,597.07404 Q479.0,599.05554 479.63855,601.7206 Q480.2771,604.38556 479.50287,606.2355 Q478.72867,608.0853 478.86432,609.9342 Q479.0,611.78314 479.0,614.4717 Q479.0,617.16016 479.0,619.7682 Q479.0,622.3763 477.73755,624.213 Q476.4751,626.0498 476.12973,628.56396 Q475.78436,631.0782 475.89218,634.3719 Q476.0,637.6656 476.0,639.6794 Q476.0,641.6932 476.65063,645.9009 Q477.30124,650.10864 477.15063,653.5366 Q477.0,656.96454 476.36578,659.7875 Q475.7316,662.6104 476.50278,666.26404 Q477.27396,669.91766 477.77606,673.4322 Q478.27814,676.9467 478.13907,679.7998 Q478.0,682.65295 478.0,685.001 Q478.0,687.34894 478.0,689.2186 Q478.0,691.0884 477.3672,693.0754 Q476.7344,695.0624 476.8672,697.7044 Q477.0,700.34644 476.3669,702.2056 Q475.73383,704.0648 475.8669,707.3548 Q476.0,710.6448 475.36523,712.99634 Q474.73044,715.34784 474.86523,717.8258 Q475.0,720.3037 475.0,722.18884 Q475.0,724.07404 473.73596,726.0651 Q472.4719,728.0562 472.1036,730.6898 Q471.73532,733.3234 471.23477,735.8262 Q470.73422,738.329 470.2444,740.77814 Q469.75455,743.2273 469.87726,745.135 Q470.0,747.0427 470.0,749.05585 Q470.0,751.069 469.36444,752.44116 Q468.72888,753.81335 468.86444,755.9238 Q469.0,758.03436 468.36267,760.0665 Q467.7253,762.09875 467.23383,763.4359 Q466.74234,764.773 466.23743,766.2877 Q465.73254,767.8024 465.23242,769.9365 Q464.73233,772.0707 464.86615,774.08746 Q465.0,776.10425 464.36838,777.447 Q463.73676,778.7898 463.86838,780.29443 Q464.0,781.7991 463.36438,783.3064 Q462.72876,784.8137 463.49786,786.3074 Q464.267,787.801 462.86566,788.0344 Q461.4643,788.2678 461.16504,789.8352 Q460.86575,791.4026 461.56622,793.1013 Q462.26666,794.80005 461.4982,795.6703 Q460.72974,796.5405 460.86487,797.53107 Q461.0,798.5216 459.8675,800.52576 Q458.73502,802.5299 458.2307,803.5386 Q457.72638,804.54724 457.2358,805.5284 Q456.74524,806.5095 455.60022,807.52716 Q454.45517,808.5448 454.7276,810.1765 Q455.0,811.8082 454.36646,812.6712 Q453.73294,813.5342 452.60242,813.8991 Q451.4719,814.26404 451.73596,816.6747 Q452.0,819.0853 451.3664,819.8099 Q450.7328,820.5344 450.7354,821.5292 Q450.738,822.5239 450.236,823.528 Q449.73398,824.5321 448.73108,824.834 Q447.72818,825.13586 448.49893,826.3376 Q449.26968,827.5393 448.4953,828.54877 Q447.7209,829.5582 446.59357,829.2791 Q445.46622,829.0 445.7331,830.9107 Q446.0,832.8214 445.43195,834.1148 Q444.86392,835.4082 444.93195,836.3386 Q445.0,837.26904 444.5,838.1345 Q444.0,839.0 443.5,840.5 Q443.0,842.0 443.0,843.135 Q443.0,844.27 442.5,845.135 Q442.0,846.0 441.5,847.0 Q441.0,848.0 439.86902,849.131 Q438.73804,850.26196 438.2308,851.4074 Q437.72357,852.55286 436.16235,853.40936 Q434.60117,854.26587 434.16486,855.40436 Q433.72858,856.54285 432.5972,857.5385 Q431.46582,858.5342 430.461,859.539 Q429.45618,860.5438 428.4641,862.1679 Q427.47202,863.792 427.09918,864.6697 Q426.72632,865.54736 426.2255,866.549 Q425.72467,867.55066 424.58694,867.2753 Q423.44922,867.0 423.1586,868.132 Q422.86798,869.26404 421.6646,869.132 Q420.4612,869.0 419.7306,870.0 Q419.0,871.0 418.5,872.0 Q418.0,873.0 416.86386,874.13617 Q415.72772,875.27234 414.5967,875.7698 Q413.4657,876.2672 412.59854,877.2679 Q411.73138,878.26855 411.22925,879.4072 Q410.72708,880.5459 409.5929,880.90826 Q408.4587,881.2706 407.4684,881.7658 Q406.47812,882.261 405.03506,883.8345 Q403.592,885.40796 402.54956,886.45044 Q401.50708,887.4929 400.4854,888.5146 Q399.46375,889.53625 397.8484,890.5238 Q396.233,891.51135 394.71005,892.5266 Q393.1871,893.5419 391.70398,894.53064 Q390.2209,895.5194 389.33386,896.53625 Q388.44687,897.5531 386.81012,897.9143 Q385.1734,898.2755 383.68884,898.13776 Q382.2043,898.0 380.70258,899.26636 Q379.20084,900.5327 377.33154,900.26636 Q375.46225,900.0 374.4653,900.0 Q373.46835,900.0 372.47632,900.6289 Q371.4843,901.2578 370.47794,901.76105 Q369.47156,902.2643 367.46555,902.13214 Q365.45953,902.0 364.46124,902.6343 Q363.46292,903.26855 362.46246,903.1343 Q361.46204,903.0 360.46777,903.0 Q359.47348,903.0 358.46954,903.6336 Q357.46564,904.2672 356.59686,904.7016 Q355.7281,905.136 354.59625,905.068 Q353.4644,905.0 352.03558,905.0 Q350.6068,905.0 349.6748,905.0 Q348.74277,905.0 347.7395,905.5659 Q346.7362,906.13184 345.8681,906.0659 Q345.0,906.0 344.0,905.5 Q343.0,905.0 342.0,905.0 Q341.0,905.0 340.0,905.0 Q339.0,905.0 338.0,905.0 Q337.0,905.0 336.0,906.0 Q335.0,907.0 334.0,907.0 Q333.0,907.0 331.86545,907.0 Q330.7309,907.0 329.1618,906.4321 Q327.5927,905.86426 326.52905,905.9321 Q325.46536,906.0 324.4687,906.0 Q323.47205,906.0 321.82657,906.6365 Q320.1811,907.27295 318.06186,907.1365 Q315.94263,907.0 313.92853,907.0 Q311.91443,907.0 309.9278,907.0 Q307.9412,907.0 306.57294,907.63257 Q305.20468,908.26514 303.06598,908.13257 Q300.9273,908.0 299.5692,908.0 Q298.21112,908.0 296.08063,908.0 Q293.95016,908.0 292.58118,908.0 Q291.21216,908.0 289.07275,908.0 Q286.93332,908.0 285.58426,908.0 Q284.2352,908.0 282.70087,908.0 Q281.16656,908.0 279.6836,908.0 Q278.20062,908.0 277.33167,907.36566 Q276.46268,906.7313 274.82834,906.2313 Q273.194,905.7313 271.69012,905.23004 Q270.18625,904.72876 268.6774,905.5029 Q267.16855,906.2771 265.66528,906.13855 Q264.16202,906.0 263.31076,906.0 Q262.4595,906.0 260.8145,906.0 Q259.16953,906.0 258.3219,905.3686 Q257.4743,904.7372 256.4722,904.23615 Q255.47011,903.7351 254.60197,902.7345 Q253.73384,901.7339 253.23206,899.96234 Q252.73027,898.1908 252.86514,894.83514 L253.0,891.4795 " fill="none" stroke="#000000" stroke-width="19.949999" stroke-linecap="round"/><path d="M477.0,898.0 Q477.0,898.0 476.0,898.0 Q475.0,898.0 475.0,899.0 Q475.0,900.0 475.0,901.12115 Q475.0,902.2423 475.0,903.3893 Q475.0,904.53625 475.0,905.97217 Q475.0,907.4081 475.0,909.11346 Q475.0,910.81885 475.0,912.1104 Q475.0,913.402 475.0,914.201 Q475.0,915.0 475.0,916.2821 Q475.0,917.5642 475.0,918.2821 Q475.0,919.0 475.0,920.2779 Q475.0,921.5558 475.0,922.42065 Q475.0,923.2855 475.0,924.2802 Q475.0,925.2749 475.0,926.414 Q475.0,927.5531 475.56677,928.41003 Q476.1335,929.26697 476.63538,930.2707 Q477.13724,931.2744 477.5686,932.1372 Q478.0,933.0 479.7031,931.8646 Q481.4062,930.72925 482.471,928.9627 L483.53586,927.19617 " fill="none" stroke="#000000" stroke-width="19.949999" stroke-linecap="round"/><path d="M510.0,894.0 Q510.0,894.0 510.0,895.0 Q510.0,896.0 510.0,897.0 Q510.0,898.0 510.5,899.0 Q511.0,900.0 512.12585,901.12585 Q513.2517,902.2517 514.25586,903.2559 Q515.2601,904.26013 515.76465,905.39935 Q516.2693,906.5386 516.13464,907.5375 Q516.0,908.5364 516.6429,909.55396 Q517.28577,910.57153 517.7792,911.5583 Q518.2725,912.54504 518.1362,913.399 Q518.0,914.2529 518.0,915.12646 Q518.0,916.0 518.0,917.0 Q518.0,918.0 518.0,919.0 Q518.0,920.0 518.0,921.13947 Q518.0,922.27893 518.0,923.2788 Q518.0,924.2787 518.0,925.84753 Q518.0,927.4164 518.0,928.34735 Q518.0,929.2783 518.0,930.41864 Q518.0,931.55896 518.5,930.2795 L519.0,929.0 " fill="none" stroke="#000000" stroke-width="19.949999" stroke-linecap="round"/><path d="M563.0,932.0 Q563.0,932.0 562.0,932.0 Q561.0,932.0 560.0,932.0 Q559.0,932.0 557.5,932.0 Q556.0,932.0 555.0,932.0 Q554.0,932.0 553.0,932.5 Q552.00006,933.0 551.0,933.5 Q550.0,934.0 549.0,934.0 Q548.0,934.0 547.0,934.0 Q546.0,934.0 545.0,934.0 Q544.0,934.0 543.0,934.0 Q542.0,934.0 541.5,933.0 Q541.0,932.0 540.0,932.0 Q539.0,932.0 538.0,932.0 Q537.0,932.0 536.0,932.0 Q535.0,932.0 534.0,932.0 Q533.0,932.0 532.0,931.5 Q531.0,931.0 530.0,930.5 Q529.0,930.0 528.0,930.5 Q527.0,931.0 526.0,931.0 Q525.0,931.0 524.0,931.5 Q523.0,932.0 522.0,932.0 Q521.0,932.0 520.0,931.5 Q519.0,931.0 518.0,931.5 Q517.0,932.0 516.0,932.0 Q515.0,932.0 513.86487,932.0 Q512.72974,932.0 511.86487,932.0 Q511.0,932.0 509.86804,932.0 Q508.73608,932.0 507.86804,932.0 Q507.0,932.0 506.0,932.0 Q505.0,932.0 504.0,932.0 Q503.0,932.0 502.0,932.5 Q501.0,933.0 499.8681,933.5659 Q498.7362,934.13184 497.8681,934.0659 Q497.00003,934.0 495.8648,934.0 Q494.72958,934.0 493.8648,934.0 Q493.0,934.0 492.0,934.0 Q491.0,934.0 490.0,934.0 Q489.0,934.0 488.0,934.0 Q487.0,934.0 486.0,934.0 Q484.99997,934.0 484.5,933.0 Q484.0,932.0 482.86414,932.0 Q481.72827,932.0 480.86414,932.0 Q480.0,932.0 479.0,932.0 Q478.0,932.0 477.0,932.0 Q476.0,932.0 475.0,932.0 Q474.0,932.0 473.0,932.0 Q472.0,932.0 471.0,932.0 Q470.0,932.0 468.86868,932.0 Q467.73737,932.0 466.73663,932.0 Q465.73593,932.0 464.59692,932.0 Q463.45792,932.0 462.6001,932.0 Q461.74225,932.0 460.87115,932.0 Q460.00003,932.0 459.0,932.0 Q458.0,932.0 457.0,932.0 Q456.0,932.0 455.0,932.0 Q454.0,932.0 453.0,932.0 Q452.0,932.0 451.0,931.5 Q450.0,931.0 448.73444,931.0 Q447.46887,931.0 447.23444,932.0 Q447.0,933.0 445.86035,933.0 Q444.72067,933.0 443.86035,933.0 Q443.0,933.0 442.0,933.5 Q441.0,934.0 441.0,935.0 Q441.0,936.0 441.0,937.27893 Q441.0,938.55786 441.0,939.4143 Q441.0,940.27075 441.56775,942.4064 Q442.1355,944.542 443.2027,945.40594 Q444.26987,946.2699 444.13495,947.40454 Q444.0,948.5392 445.70084,949.97046 Q447.40167,951.40173 447.76874,952.3367 Q448.13583,953.2716 448.70374,954.4075 Q449.27167,955.54333 449.76984,956.5397 Q450.268,957.536 450.134,958.53204 Q450.0,959.5281 450.6393,960.54266 Q451.27863,961.55725 451.7754,962.5508 Q452.27213,963.5443 453.4015,965.1703 Q454.53085,966.79626 454.90128,967.6698 Q455.2717,968.54333 455.77484,969.5496 Q456.27795,970.5559 456.77145,971.5429 Q457.26495,972.5299 457.69836,973.3967 Q458.13177,974.26355 459.16418,975.23004 Q460.19656,976.19653 461.2431,977.2431 Q462.28967,978.2897 463.27374,979.27374 Q464.25784,980.2578 465.3982,980.76355 Q466.53857,981.2693 467.406,982.27136 Q468.27347,983.27344 468.7732,984.4096 Q469.2729,985.5458 470.40994,985.2729 Q471.547,985.0 472.95135,985.55927 Q474.3557,986.1185 475.8866,987.1984 Q477.41748,988.2783 478.4808,988.7752 Q479.54413,989.2721 480.54132,989.13605 Q481.53854,989.0 482.88312,989.0 Q484.22766,989.0 485.42648,989.6563 Q486.6253,990.3126 488.20697,990.1563 Q489.7886,990.0 491.29974,990.0 Q492.81088,990.0 494.3281,990.0 Q495.8453,990.0 497.32886,990.0 Q498.81238,990.0 500.3142,990.0 Q501.81604,990.0 503.9209,990.62823 Q506.02573,991.2565 507.41815,991.12823 Q508.8106,991.0 510.30414,991.0 Q511.79767,991.0 513.29895,991.0 Q514.8002,991.0 516.9486,991.0 Q519.097,991.0 519.8081,990.3702 Q520.51917,989.74036 522.17285,988.59467 Q523.8265,987.449 525.30566,986.4629 Q526.78485,985.4768 527.6611,985.10406 Q528.5373,984.7313 529.5331,984.86566 Q530.5289,985.0 531.5299,983.73456 Q532.53094,982.4691 533.5327,981.4673 Q534.53455,980.46545 535.5402,979.4598 Q536.5459,978.4541 537.9729,977.02704 Q539.39996,975.6 540.90234,974.09766 Q542.40466,972.59534 542.83875,970.8885 Q543.27277,969.18164 544.41296,968.9525 Q545.5532,968.7234 545.9132,967.5885 Q546.2732,966.4536 547.4126,966.0888 Q548.55206,965.724 548.90894,964.5961 Q549.26587,963.46826 549.7679,961.8293 Q550.2699,960.1903 550.76874,959.3276 Q551.2676,958.46484 552.3979,958.10034 Q553.5282,957.73584 553.89343,956.6092 Q554.2587,955.48254 554.69574,954.6085 Q555.13275,953.7345 556.0664,953.36725 Q557.0,953.0 558.2785,952.3607 Q559.557,951.72144 560.4149,950.72437 Q561.27277,949.7273 562.2729,948.1589 Q563.273,946.59045 565.0504,946.1572 Q566.8279,945.724 566.98096,944.728 Q567.134,943.73206 567.6345,942.73096 Q568.1351,941.72986 567.0675,941.3649 Q566.0,941.0 564.09326,941.0 Q562.18646,941.0 561.327,941.0 Q560.4676,941.0 558.8316,941.0 Q557.1956,941.0 555.16736,941.0 Q553.13904,941.0 550.59607,941.0 Q548.05304,941.0 545.5862,941.5881 Q543.1193,942.17615 541.22455,942.0881 Q539.3298,942.0 536.79297,943.1488 Q534.2561,944.2976 531.7936,944.1488 Q529.331,944.0 527.7966,944.0 Q526.26215,944.0 524.73096,944.0 Q523.1997,944.0 522.325,944.0 Q521.4503,944.0 519.8279,942.73517 Q518.2055,941.47034 518.02563,942.88947 Q517.8457,944.3086 516.7776,942.43634 Q515.7094,940.5641 515.85474,938.8666 Q516.0,937.16907 516.0,935.67755 L516.0,934.18604 " fill="none" stroke="#000000" stroke-width="19.949999" stroke-linecap="round"/><path d="M431.0,924.0 Q431.0,924.0 430.0,923.0 Q429.0,922.0 428.0,922.0 Q427.0,922.0 426.0,922.0 Q425.0,922.0 423.73895,921.3695 Q422.4779,920.739 421.73895,921.8695 Q421.0,923.0 420.0,923.5 Q419.0,924.0 418.0,924.0 Q417.0,924.0 415.86316,924.0 Q414.72632,924.0 413.86316,924.0 Q413.0,924.0 411.8628,924.0 Q410.7256,924.0 409.8628,924.0 Q409.0,924.0 407.86404,924.0 Q406.7281,924.0 405.86404,924.5 Q405.0,925.0 404.0,925.0 Q403.0,925.0 402.0,925.0 Q401.0,925.0 400.0,925.0 Q398.99997,925.0 398.0,925.5 Q397.0,926.0 396.0,925.5 Q395.0,925.0 394.0,925.0 Q393.0,925.0 392.0,925.0 Q391.0,925.0 390.5,926.0 Q390.0,927.0 390.0,928.0 Q390.0,929.0 390.0,930.0 Q390.0,931.0 391.12482,931.5624 Q392.24963,932.12476 392.12482,933.0624 Q392.0,934.0 392.5,935.0 Q393.0,936.0 393.0,937.12256 Q393.0,938.2451 393.0,939.12256 Q393.0,940.0 393.0,941.0 Q393.0,942.0 393.0,943.0 Q393.0,944.0 392.5,945.0 Q392.0,946.0 392.0,947.1392 Q392.0,948.27844 392.0,949.28125 Q392.0,950.28406 391.0,951.142 Q390.0,952.0 390.0,953.5 Q390.0,955.0 389.5,956.0 Q389.0,957.0 389.0,958.0 Q389.0,959.0 387.86313,959.0 Q386.72626,959.0 386.86313,960.0 Q387.0,961.0 387.0,962.0 Q387.0,963.0 386.5,964.0 Q386.0,965.0 385.0,965.0 Q384.0,965.0 383.42963,966.7112 Q382.85922,968.42236 381.92963,969.2112 Q381.0,970.0 380.467,971.066 Q379.93402,972.13196 379.40363,973.7561 Q378.87326,975.38025 377.93665,975.6901 Q377.0,976.0 376.5,977.5 Q376.0,979.0 376.0,980.1384 Q376.0,981.27686 375.0,982.1384 Q374.0,983.0 373.0,984.0 Q372.0,985.0 372.0,986.1378 Q372.0,987.27563 370.86133,988.2765 Q369.72263,989.27734 369.29224,990.8459 Q368.86188,992.4144 368.93094,993.3418 Q369.0,994.26917 368.36017,995.4142 Q367.72037,996.5592 367.29285,997.9816 Q366.86533,999.40405 365.79858,1000.9032 Q364.7318,1002.40234 364.8659,1003.3397 Q365.0,1004.2771 363.72644,1004.7753 Q362.45285,1005.27356 362.15906,1006.2715 Q361.8653,1007.2694 361.93268,1008.4066 Q362.00003,1009.5438 361.3617,1010.5485 Q360.7234,1011.5532 359.72662,1012.9791 Q358.72986,1014.4051 358.29858,1015.9016 Q357.8673,1017.3981 357.93365,1018.4769 Q358.0,1019.55585 357.4422,1020.39355 Q356.88437,1021.23126 356.2882,1023.07764 Q355.69205,1024.924 355.846,1025.7213 Q356.0,1026.5187 355.36554,1027.5283 Q354.73105,1028.5378 353.73065,1029.9712 Q352.73026,1031.4047 352.8651,1032.3386 Q353.0,1033.2726 352.43433,1034.2676 Q351.86868,1035.2626 351.93433,1036.4028 Q352.0,1037.5431 351.43347,1038.4045 Q350.86697,1039.2661 349.80325,1041.3936 Q348.73953,1043.5209 348.86975,1044.529 Q349.0,1045.5372 348.3662,1047.1699 Q347.73245,1048.8027 347.8662,1050.2909 Q348.0,1051.779 347.36444,1053.9318 Q346.72888,1056.0845 346.2287,1056.8137 Q345.72855,1057.543 345.86426,1059.8202 Q346.0,1062.0974 344.73944,1062.179 Q343.4789,1062.2605 343.73944,1064.0437 Q344.0,1065.8268 343.3639,1067.3218 Q342.72775,1068.8168 342.8639,1070.3193 Q343.0,1071.822 343.0,1073.9355 Q343.0,1076.049 342.36398,1077.4325 Q341.72797,1078.816 341.22763,1080.3171 Q340.7273,1081.8181 340.86365,1082.648 Q341.0,1083.4777 339.72394,1085.1528 Q338.4479,1086.8281 338.72394,1088.3145 Q339.0,1089.8009 338.36755,1091.2979 Q337.73508,1092.7948 337.86755,1094.9392 Q338.0,1097.0836 336.77484,1098.3796 Q335.54965,1099.6755 335.1371,1101.251 Q334.72455,1102.8264 334.23328,1104.9292 Q333.74197,1107.0321 332.59824,1109.0615 Q331.4545,1111.091 331.09705,1112.436 Q330.73956,1113.7812 329.59882,1115.9325 Q328.4581,1118.0837 328.0949,1119.4443 Q327.7317,1120.8049 326.604,1122.2952 Q325.47635,1123.7855 325.10962,1125.907 Q324.74292,1128.0283 324.23145,1129.4343 Q323.71994,1130.8402 323.86,1132.1663 Q324.0,1133.4923 324.0,1135.0856 Q324.0,1136.6788 322.74203,1138.2263 Q321.48407,1139.7739 322.3599,1141.8584 Q323.23572,1143.9429 322.48407,1144.739 Q321.73245,1145.5352 321.23154,1146.5369 Q320.73062,1147.5387 318.9605,1148.5393 Q317.19037,1149.5398 315.7132,1151.1519 L314.236,1152.764 " fill="none" stroke="#000000" stroke-width="19.949999" stroke-linecap="round"/><path d="M563.0,951.0 Q563.0,951.0 562.0,950.0 Q561.0,949.0 562.0,948.5 Q563.0,948.0 564.70667,948.0 Q566.41327,948.0 567.4826,948.0 Q568.55194,948.0 569.5431,948.0 Q570.53424,948.0 571.976,948.0 Q573.4178,948.0 574.3498,948.0 Q575.2818,948.0 576.282,947.42944 Q577.28217,946.8589 578.8474,946.36066 Q580.4127,945.8624 581.3457,945.9312 Q582.2787,946.0 583.27527,946.0 Q584.2718,946.0 585.4116,946.0 Q586.55145,946.0 587.4139,946.0 Q588.2763,946.0 589.2765,946.56915 Q590.2766,947.1383 591.84436,947.6378 Q593.41205,948.1373 594.3436,948.06866 Q595.2752,948.0 596.27594,948.56915 Q597.2767,949.1383 597.6383,950.06915 Q598.0,951.0 599.13525,951.0 Q600.2705,951.0 601.13525,951.0 Q602.0,951.0 603.0,951.0 Q604.0,951.0 605.0,951.5 Q606.0,952.0 607.0,952.0 Q608.0,952.0 609.1315,952.0 Q610.26294,952.0 611.1315,951.5 Q612.0,951.0 613.1341,950.433 Q614.2682,949.86597 615.1341,949.933 Q616.0,950.0 617.0,950.0 Q618.0,950.0 618.5,951.0 Q619.0,952.0 619.5,953.0 Q620.0,954.0 620.5,955.0 Q621.0,956.0 621.0,957.26196 Q621.0,958.5239 621.0,959.5335 Q621.0,960.5431 621.0,962.1732 Q621.0,963.80334 621.62726,965.2834 Q622.2545,966.7634 622.12726,968.2906 Q622.0,969.81775 622.6338,971.944 Q623.2675,974.0702 623.7672,974.80206 Q624.26697,975.53394 624.1335,977.81506 Q624.0,980.0962 624.6349,982.08765 Q625.2698,984.0791 625.1349,985.446 Q625.0,986.81287 625.0,988.31635 Q625.0,989.8198 625.0,990.67554 Q625.0,991.53125 625.0,993.12427 Q625.0,994.7173 625.6377,996.27167 Q626.2753,997.82605 626.13763,998.6821 Q625.99994,999.5382 625.99994,1000.9713 Q625.99994,1002.4044 626.6366,1003.47546 Q627.27325,1004.5465 627.1366,1006.1735 Q627.0,1007.80054 627.0,1008.6718 Q627.0,1009.5431 627.0,1010.5508 Q627.0,1011.55853 627.634,1012.5472 Q628.26794,1013.5358 628.134,1015.53973 Q628.0,1017.54364 628.0,1018.532 Q628.0,1019.52026 628.5669,1020.9609 Q629.13385,1022.4015 629.70447,1023.47577 Q630.275,1024.55 630.7727,1025.5454 Q631.27045,1026.5409 631.77,1028.1748 Q632.26953,1029.8086 632.13477,1030.6719 Q632.0,1031.535 632.63306,1033.1667 Q633.2662,1034.7986 633.76404,1035.6611 Q634.2619,1036.5238 634.76807,1037.5361 Q635.2743,1038.5486 635.13715,1039.5337 Q635.0,1040.5189 636.1376,1041.9658 Q637.2752,1043.4127 637.771,1044.4731 Q638.2667,1045.5334 638.76953,1047.175 Q639.2723,1048.8168 640.40106,1049.6733 Q641.52985,1050.5298 641.90094,1051.5369 Q642.27203,1052.5441 642.7732,1054.1836 Q643.27435,1055.823 643.77124,1056.6796 Q644.26807,1057.5361 644.76965,1059.1748 Q645.2712,1060.8135 645.77136,1061.6783 Q646.2716,1062.5432 647.4015,1064.1702 Q648.53143,1065.7971 649.5416,1066.6744 Q650.5518,1067.5518 651.54846,1069.1848 Q652.5451,1070.8177 652.9049,1071.6736 Q653.2647,1072.5294 654.35547,1074.0994 Q655.4462,1075.6693 655.86584,1076.6201 Q656.2855,1077.571 656.775,1078.55 Q657.26447,1079.5289 658.3733,1080.5055 Q659.48206,1081.482 660.3747,1083.5083 Q661.26733,1085.5347 661.69977,1086.9656 Q662.1322,1088.3965 662.0661,1089.4745 Q662.0,1090.5525 663.8954,1092.8035 Q665.79083,1095.0544 666.0343,1095.8049 Q666.2777,1096.5554 666.7726,1098.179 Q667.26746,1099.8024 667.7737,1100.6812 Q668.2799,1101.5598 668.13995,1102.5386 Q668.0,1103.5172 668.0,1105.1643 Q668.0,1106.8115 668.6354,1107.6765 Q669.27075,1108.5415 669.703,1109.406 Q670.1352,1110.2704 670.0676,1111.4019 Q670.0,1112.5334 670.56726,1113.4011 Q671.13446,1114.2689 671.63513,1115.2703 Q672.13586,1116.2717 672.7041,1117.4082 Q673.27234,1118.5447 674.2696,1119.4058 Q675.26685,1120.2668 675.1334,1121.1334 L675.0,1122.0 " fill="none" stroke="#000000" stroke-width="19.949999" stroke-linecap="round"/><path d="M390.0,1178.0 Q390.0,1178.0 389.5,1177.0 Q389.0,1176.0 388.0,1175.0 Q387.0,1174.0 387.0,1173.0 Q387.0,1172.0 387.0,1171.0 Q387.0,1170.0 387.0,1168.8589 Q387.0,1167.7179 386.4317,1166.7224 Q385.86337,1165.7268 385.9317,1164.7349 Q386.0,1163.7429 386.0,1162.8715 Q386.0,1162.0 387.0,1161.0 Q388.0,1160.0 388.5675,1158.2975 Q389.135,1156.595 389.6371,1155.6583 Q390.1392,1154.7217 390.63892,1153.1528 Q391.13864,1151.5841 391.67746,1150.5758 Q392.21628,1149.5675 392.67822,1148.0735 Q393.1402,1146.5795 393.7029,1144.8914 Q394.26562,1143.2031 395.3545,1142.3799 Q396.44336,1141.5566 397.51324,1139.8411 Q398.5831,1138.1254 399.55307,1136.6704 Q400.52304,1135.2155 401.53772,1133.0553 Q402.55243,1130.8951 403.54486,1128.276 Q404.53726,1125.6569 405.54514,1124.4136 Q406.553,1123.1704 407.5496,1121.6755 Q408.54617,1120.1807 409.51575,1118.7263 Q410.48535,1117.272 410.87634,1115.1013 Q411.26736,1112.9305 412.3744,1112.2246 Q413.48138,1111.5187 413.87997,1109.2021 Q414.27856,1106.8857 414.77194,1106.1775 Q415.26532,1105.4694 416.378,1103.8667 Q417.49063,1102.264 417.2453,1100.0891 Q417.0,1097.9142 417.6314,1097.1943 Q418.26285,1096.4744 418.1314,1094.8423 Q418.0,1093.2102 419.2661,1091.7059 Q420.5322,1090.2017 420.2661,1087.4255 Q420.0,1084.6495 420.63492,1084.0549 Q421.26984,1083.4603 422.39954,1082.4656 Q423.5292,1081.4708 423.89673,1080.4712 Q424.26425,1079.4714 424.77112,1077.1797 Q425.27798,1074.8881 426.84088,1073.1748 Q428.40378,1071.4617 429.33676,1068.8937 Q430.26974,1066.3257 430.70264,1065.5273 Q431.13553,1064.729 431.06775,1062.9592 Q431.0,1061.1896 431.0,1059.6887 Q431.0,1058.1877 431.0,1057.3223 Q431.0,1056.4569 432.2787,1056.7285 Q433.55734,1057.0 433.84534,1055.8667 Q434.1333,1054.7334 434.6338,1053.7324 Q435.13425,1052.7316 435.06714,1051.7329 Q435.0,1050.7341 435.5,1049.8671 Q436.0,1049.0 436.5,1048.0 Q437.0,1047.0 437.0,1048.0 Q437.0,1049.0 436.5,1048.0 Q436.0,1047.0 435.371,1045.742 L434.742,1044.484 " fill="none" stroke="#000000" stroke-width="19.949999" stroke-linecap="round"/><path d="M458.0,1116.0 Q458.0,1116.0 458.0,1115.0 Q458.0,1114.0 458.0,1113.0 Q458.0,1112.0 458.0,1111.0 Q458.0,1110.0 459.0,1109.5 Q460.00003,1109.0 461.0,1108.5 Q462.0,1108.0 463.27502,1108.0 Q464.55005,1108.0 464.8129,1106.9243 Q465.07574,1105.8485 466.03787,1104.9243 Q467.0,1104.0 468.13956,1103.4302 Q469.2791,1102.8605 470.2791,1102.3605 Q471.2791,1101.8605 472.84564,1101.9302 Q474.41214,1102.0 475.70605,1101.0 Q477.0,1100.0 478.70813,1099.4307 Q480.41626,1098.8612 481.3498,1097.789 Q482.28333,1096.7167 483.414,1096.2222 Q484.54468,1095.7277 484.82812,1094.7523 Q485.11154,1093.777 485.5558,1092.8884 Q486.0,1092.0 486.5,1091.0 Q487.0,1090.0 487.5681,1088.8638 Q488.13623,1087.7275 488.70682,1086.5864 Q489.2774,1085.4452 490.27557,1084.5857 Q491.27377,1083.7262 491.1369,1082.5854 Q491.0,1081.4448 491.56683,1080.0219 Q492.1337,1078.5989 492.63495,1077.0952 Q493.1362,1075.5914 493.63416,1074.0977 Q494.1321,1072.6038 494.70148,1071.531 Q495.27087,1070.4583 495.13544,1069.0309 Q495.0,1067.6035 495.0,1066.5304 Q495.0,1065.4573 495.6352,1064.4583 Q496.27036,1063.4592 496.1352,1062.4622 Q496.0,1061.4652 496.0,1060.4614 Q496.0,1059.4578 496.0,1058.4658 Q496.0,1057.474 496.56793,1056.6011 Q497.13583,1055.7283 496.4323,1053.9574 Q495.72882,1052.1865 495.8644,1049.7555 Q496.0,1047.3245 495.43286,1045.9607 Q494.8657,1044.597 494.93286,1043.0945 Q495.0,1041.5919 495.0,1040.5232 Q495.0,1039.4543 494.36438,1038.456 Q493.7288,1037.4576 493.22943,1035.8239 Q492.73007,1034.1901 491.73517,1033.4651 Q490.7403,1032.7402 490.2354,1031.6006 Q489.7305,1030.4609 488.73248,1029.5977 Q487.73444,1028.7344 486.86722,1027.3672 Q486.0,1026.0 486.0,1024.73 Q486.0,1023.4601 485.3661,1022.4622 Q484.73218,1021.46436 484.23135,1019.8279 Q483.73053,1018.19147 482.609,1016.7113 Q481.48746,1015.2312 481.11176,1013.7197 Q480.73608,1012.2083 480.234,1010.702 Q479.73193,1009.1958 478.73126,1007.8959 Q477.73062,1006.59595 476.8653,1005.298 Q476.0,1004.0 475.3629,1002.0887 L474.7258,1000.17737 " fill="none" stroke="#000000" stroke-width="19.949999" stroke-linecap="round"/><path d="M554.0,1118.0 Q554.0,1118.0 553.4387,1116.8774 Q552.8774,1115.7548 552.9387,1114.8774 Q553.0,1114.0 553.5,1113.0 Q554.0,1112.0 555.0,1111.0 Q556.0,1110.0 557.697,1109.4343 Q559.3941,1108.8687 560.46387,1108.3009 Q561.5337,1107.7332 562.5305,1106.603 Q563.5273,1105.4728 564.6605,1105.2363 Q565.7937,1105.0 567.2904,1105.0 Q568.7872,1105.0 569.641,1103.7526 Q570.4949,1102.5051 572.1631,1102.114 Q573.8313,1101.7229 573.9828,1100.1599 Q574.1343,1098.5969 574.06714,1096.887 Q574.0,1095.1771 575.2823,1094.3063 Q576.5646,1093.4354 576.922,1091.7985 Q577.2795,1090.1615 579.00977,1088.7107 Q580.74,1087.26 581.0065,1085.7207 Q581.2729,1084.1814 582.36426,1082.135 Q583.4557,1080.0886 584.5104,1078.6204 Q585.5651,1077.1522 585.91504,1075.6788 Q586.2649,1074.2054 586.77026,1073.327 Q587.2757,1072.4486 587.7738,1070.8167 Q588.27185,1069.1846 589.4067,1067.6862 Q590.5415,1066.1877 590.9029,1065.3296 Q591.2643,1064.4714 591.7665,1062.8325 Q592.26874,1061.1937 592.77295,1060.3196 Q593.2772,1059.4456 593.7697,1058.4606 Q594.2622,1057.4756 594.7667,1054.5596 Q595.27124,1051.6437 595.1356,1049.1716 Q595.0,1046.6996 595.0,1044.8083 Q595.0,1042.9171 594.36523,1040.9197 Q593.7305,1038.9222 594.49927,1038.1931 Q595.268,1037.464 595.13403,1036.0281 Q595.0,1034.592 595.0,1033.296 Q595.0,1032.0 594.3613,1030.7227 Q593.72266,1029.4453 593.8613,1028.4456 Q594.0,1027.4457 594.62946,1026.4639 Q595.2589,1025.4822 595.12946,1024.4738 Q595.0,1023.4654 595.0,1022.0318 Q595.0,1020.5982 594.36346,1019.526 Q593.7269,1018.4538 593.2295,1016.82513 Q592.7321,1015.1965 592.8661,1014.32715 Q593.0,1013.4579 592.5,1012.229 Q592.0,1011.00006 591.5,1010.0 Q591.0,1009.0 590.432,1007.29596 Q589.86395,1005.5919 588.7991,1004.0966 Q587.7342,1002.6013 587.86707,1001.5393 Q588.0,1000.4773 588.0,999.6049 Q588.0,998.73254 588.0,997.59705 Q588.0,996.46155 588.0,995.60126 Q588.0,994.74097 587.3612,993.5929 L586.7224,992.4448 " fill="none" stroke="#000000" stroke-width="19.949999" stroke-linecap="round"/><path d="M552.00006,1101.0 Q552.00006,1101.0 552.00006,1102.0 Q552.00006,1103.0 552.00006,1104.0 Q552.00006,1105.0 552.00006,1106.0 Q552.00006,1107.0 552.5702,1108.7104 Q553.14026,1110.4209 553.71136,1111.4929 Q554.2825,1112.5648 554.782,1114.2047 Q555.28156,1115.8446 555.70886,1117.6946 Q556.13617,1119.5447 557.381,1121.8982 Q558.6258,1124.2516 558.95337,1125.5472 Q559.28094,1126.8429 560.41046,1128.9614 Q561.54,1131.08 562.54333,1133.7233 Q563.54663,1136.3666 563.9166,1136.9698 Q564.28656,1137.5731 565.40814,1139.8163 Q566.5297,1142.0594 566.9013,1144.7119 Q567.2729,1147.3644 568.4026,1150.4807 Q569.53235,1153.597 569.2662,1155.3671 Q569.0,1157.1371 569.0,1159.7683 Q569.0,1162.3994 569.6361,1165.5164 Q570.2723,1168.6332 570.1361,1170.3799 Q570.0,1172.1266 570.0,1173.4563 Q570.0,1174.786 570.636,1176.9368 Q571.2719,1179.0876 571.77,1181.7139 Q572.26807,1184.3402 572.7722,1185.5846 Q573.27637,1186.829 573.1382,1188.9451 Q573.0,1191.0613 573.6372,1193.0793 Q574.27435,1195.0974 574.1372,1197.09 Q574.0,1199.0825 575.2666,1201.0745 Q576.5332,1203.0664 576.9001,1205.7006 Q577.26697,1208.3347 577.1335,1209.5715 Q577.0,1210.8085 577.63367,1212.9391 Q578.2674,1215.0697 580.03644,1217.0719 Q581.8055,1219.0741 582.0386,1220.4443 Q582.2716,1221.8147 583.41113,1223.3203 Q584.55066,1224.826 584.9143,1226.3298 Q585.2779,1227.8337 586.2757,1229.6904 Q587.2735,1231.547 587.7727,1232.5454 Q588.27185,1233.5437 588.1359,1234.5358 Q588.0,1235.5278 589.27734,1237.1799 Q590.5547,1238.832 590.91034,1240.315 Q591.266,1241.7979 591.7677,1242.6683 Q592.2694,1243.5388 592.76904,1245.1726 Q593.26874,1246.8063 593.77026,1247.675 Q594.27185,1248.5437 594.7721,1249.5442 Q595.27234,1250.5447 595.13617,1251.5461 Q595.0,1252.5475 596.26746,1253.5413 Q597.5349,1254.5349 597.26746,1255.5342 Q597.0,1256.5333 597.6328,1257.5322 Q598.2656,1258.5312 598.1328,1259.9623 Q598.0,1261.3933 598.0,1262.4692 Q598.0,1263.5452 598.0,1264.9712 Q598.0,1266.3973 598.0,1268.1016 Q598.0,1269.8059 598.0,1271.1051 Q598.0,1272.4043 598.0,1273.4636 Q598.0,1274.5231 598.0,1275.5331 Q598.0,1276.5431 598.0,1277.7715 Q598.0,1279.0 598.0,1280.133 Q598.0,1281.2661 597.5,1282.133 Q597.0,1283.0 597.0,1284.0 L597.0,1285.0 " fill="none" stroke="#000000" stroke-width="19.949999" stroke-linecap="round"/><path d="M431.0,1106.0 Q431.0,1106.0 430.5,1107.0 Q430.0,1108.0 430.0,1109.0 Q430.0,1110.0 430.0,1111.0 Q430.0,1112.0 430.0,1113.1305 Q430.0,1114.261 430.0,1115.2576 Q430.0,1116.2542 429.36008,1117.4069 Q428.72015,1118.5596 429.4274,1119.4144 Q430.13464,1120.2693 430.06732,1121.1346 Q430.0,1122.0 430.0,1123.0 Q430.0,1124.0 430.0,1125.1401 Q430.0,1126.2802 430.0,1127.1401 Q430.0,1128.0 430.0,1129.1428 Q430.0,1130.2856 429.43073,1131.2814 Q428.86145,1132.2771 428.3623,1133.2754 Q427.8632,1134.2737 427.36212,1135.2758 Q426.86105,1136.2778 426.36206,1137.8442 Q425.8631,1139.4108 425.36212,1140.9137 Q424.8611,1142.4166 424.36298,1143.3435 Q423.86487,1144.2703 423.93243,1146.0441 Q424.0,1147.8179 423.36554,1149.3123 Q422.73108,1150.8068 422.86554,1152.2876 Q423.0,1153.7686 422.35797,1155.9524 Q421.71594,1158.1362 421.85797,1160.1128 Q422.0,1162.0892 421.36682,1164.0774 Q420.7336,1166.0656 420.23065,1168.0774 Q419.7277,1170.0892 419.86383,1170.804 Q420.0,1171.5186 419.36523,1173.7983 Q418.73044,1176.0782 418.22852,1177.4492 Q417.72656,1178.8203 417.2271,1180.9548 Q416.72763,1183.0895 416.22577,1184.459 Q415.72388,1185.8284 414.5822,1187.9736 Q413.44055,1190.1189 413.0847,1192.1018 Q412.72882,1194.0847 411.59247,1195.4502 Q410.45612,1196.8158 410.08832,1198.3271 Q409.72055,1199.8384 409.2394,1201.2817 Q408.75827,1202.7252 408.23956,1204.2814 Q407.72083,1205.8375 407.22864,1207.3142 Q406.73642,1208.7908 406.23578,1209.6602 Q405.73517,1210.5297 405.86758,1212.1709 Q406.0,1213.8123 406.0,1215.314 Q406.0,1216.8157 405.3614,1218.3237 Q404.72275,1219.8318 404.2254,1221.3237 Q403.7281,1222.8157 403.86404,1224.3099 Q404.0,1225.8042 403.36456,1227.3085 Q402.7291,1228.8127 402.86456,1230.3108 Q403.0,1231.809 402.36584,1232.6729 Q401.73172,1233.5366 401.2291,1234.5419 Q400.72647,1235.5471 400.86322,1237.1665 Q401.0,1238.7859 399.86334,1239.5295 Q398.72665,1240.2733 398.8633,1241.2725 Q398.99997,1242.2715 397.72693,1243.4088 Q396.45386,1244.5461 396.22693,1245.2731 Q396.0,1246.0 396.0,1247.0 Q396.0,1248.0 395.0,1249.0 Q394.0,1250.0 393.5,1251.0 Q393.0,1252.0 392.5,1253.0 Q392.0,1254.0 391.5,1255.0 Q391.0,1256.0 392.0,1256.5 Q393.0,1257.0 394.69476,1257.565 Q396.38956,1258.1299 397.2259,1258.5806 Q398.06226,1259.0311 399.65488,1259.0156 Q401.2475,1259.0 402.7232,1259.5332 Q404.19894,1260.0663 405.36566,1260.0332 Q406.5324,1260.0 407.9641,1260.0 Q409.39584,1260.0 410.4836,1260.0 Q411.57138,1260.0 413.211,1260.6418 Q414.8506,1261.2836 416.3438,1261.7812 Q417.83704,1262.279 419.98016,1262.78 Q422.12332,1263.2809 424.12354,1263.1404 Q426.12372,1263.0 427.49152,1263.0 Q428.85934,1263.0 431.62036,1263.6382 Q434.38135,1264.2762 436.25342,1264.7788 Q438.12552,1265.2814 440.7565,1265.1406 Q443.38748,1265.0 445.87836,1265.0 Q448.36926,1265.0 450.2318,1265.0 Q452.09433,1265.0 453.45126,1264.3652 Q454.8082,1263.7306 456.94937,1263.8652 Q459.09055,1264.0 460.4586,1264.0 Q461.82663,1264.0 463.30588,1264.0 Q464.78513,1264.0 466.29666,1264.0 Q467.8082,1264.0 468.6906,1264.0 Q469.57306,1264.0 470.55902,1264.0 Q471.54498,1264.0 473.81854,1264.6365 Q476.09207,1265.2731 476.8164,1265.7717 Q477.54077,1266.2704 479.17242,1267.4032 Q480.80408,1268.536 481.66653,1268.2681 Q482.529,1268.0 484.19287,1268.6428 Q485.85678,1269.2856 487.3418,1269.1428 Q488.82684,1269.0 490.3248,1269.0 Q491.82275,1269.0 493.31903,1269.6359 Q494.81534,1270.2717 496.93848,1270.1359 Q499.06165,1270.0 500.3282,1270.0 Q501.59473,1270.0 503.2364,1270.0 Q504.87808,1270.0 506.98492,1270.0 Q509.0918,1270.0 509.82086,1269.3625 Q510.5499,1268.7251 512.17596,1268.8625 Q513.802,1269.0 515.9434,1269.0 Q518.08484,1269.0 519.43225,1269.0 Q520.7797,1269.0 522.3003,1269.0 Q523.8209,1269.0 524.6554,1269.0 Q525.48987,1269.0 526.5205,1269.0 Q527.5511,1269.0 528.5413,1268.3672 Q529.53156,1267.7343 531.16406,1267.8672 Q532.79663,1268.0 534.10095,1267.4324 Q535.4052,1266.8649 536.33545,1266.366 Q537.2656,1265.8672 538.40515,1265.9336 Q539.5447,1266.0 540.97003,1266.0 Q542.3954,1266.0 544.44946,1266.0 Q546.5036,1266.0 547.534,1266.0 Q548.5644,1266.0 549.54926,1266.0 Q550.5341,1266.0 551.5419,1266.0 Q552.5497,1266.0 553.4065,1265.4342 Q554.2633,1264.8684 555.4075,1264.9342 L556.5516,1265.0 " fill="none" stroke="#000000" stroke-width="19.949999" stroke-linecap="round"/><path d="M527.0,1266.0 Q527.0,1266.0 528.0,1266.0 Q529.0,1266.0 530.705,1267.1367 Q532.41003,1268.2733 534.1107,1268.1367 Q535.8114,1268.0 536.6105,1268.6023 Q537.4095,1269.2047 538.9931,1269.1023 Q540.5767,1269.0 541.9147,1269.0 Q543.25256,1269.0 544.2975,1269.0 Q545.34235,1269.0 546.9123,1269.0 Q548.48224,1269.0 550.50134,1269.0 Q552.5204,1269.0 553.51935,1269.0 Q554.5183,1269.0 556.77234,1269.0 Q559.0263,1269.0 560.4176,1268.3652 Q561.8089,1267.7303 562.688,1267.8652 Q563.56714,1268.0 565.82935,1268.0 Q568.09155,1268.0 569.46106,1268.0 Q570.83057,1268.0 571.6953,1268.0 Q572.56006,1268.0 574.2058,1268.0 Q575.8515,1268.0 576.70886,1267.3584 Q577.5663,1266.7168 579.19946,1266.8584 Q580.8326,1267.0 582.32715,1267.0 Q583.8217,1267.0 584.6931,1267.0 Q585.56445,1267.0 586.5515,1267.0 Q587.5385,1267.0 588.5409,1267.0 Q589.5432,1267.0 590.5482,1267.0 Q591.5532,1267.0 592.5517,1267.0 Q593.5502,1267.0 593.90295,1265.7443 Q594.25574,1264.4885 595.265,1264.1758 Q596.2743,1263.8629 597.27325,1263.3634 Q598.2722,1262.8639 597.1361,1262.4319 L596.0,1262.0 " fill="none" stroke="#000000" stroke-width="19.949999" stroke-linecap="round"/><path d="M373.0,1255.0 Q373.0,1255.0 372.0,1254.0 Q371.0,1253.0 371.5,1252.0 Q372.0,1251.0 372.56393,1249.8721 Q373.12787,1248.7443 374.7717,1249.4414 Q376.41553,1250.1385 376.20776,1248.9365 Q376.0,1247.7345 376.56714,1246.733 Q377.13425,1245.7316 378.06714,1245.8657 Q379.0,1246.0 379.56912,1247.1382 Q380.13824,1248.2765 381.06912,1248.1382 Q382.0,1248.0 381.0,1248.0 Q380.0,1248.0 380.5,1247.0 Q381.0,1246.0 382.1458,1246.0 Q383.29166,1246.0 383.1458,1244.7144 Q383.0,1243.4287 383.60846,1242.4976 Q384.2169,1241.5663 384.7016,1240.5968 L385.18634,1239.6273 " fill="none" stroke="#000000" stroke-width="19.949999" stroke-linecap="round"/><path d="M398.0,1234.0 Q398.0,1234.0 398.0,1235.0 Q398.0,1236.0 398.0,1237.0 Q398.0,1238.0 397.5,1239.0 Q397.0,1240.0 396.5,1241.0 Q396.0,1242.0 394.86786,1242.566 Q393.73575,1243.1321 392.16187,1244.772 Q390.58798,1246.412 388.87784,1248.1221 Q387.1677,1249.8323 385.67242,1251.9647 Q384.17715,1254.0972 381.4057,1256.7314 Q378.63422,1259.3658 376.7735,1261.2266 Q374.91278,1263.0873 372.27655,1266.3594 Q369.64032,1269.6316 368.40857,1270.7274 Q367.17682,1271.8232 365.67505,1273.325 Q364.1733,1274.8267 363.95,1275.6865 Q363.72675,1276.5465 363.22717,1277.5457 Q362.7276,1278.5448 362.8638,1279.4089 Q363.0,1280.273 363.0,1281.2744 Q363.0,1282.276 364.0,1283.138 Q365.0,1284.0 366.70905,1284.5697 Q368.4181,1285.1394 370.47925,1285.0697 Q372.54037,1285.0 374.20023,1285.0 Q375.86008,1285.0 377.9912,1285.0 Q380.12238,1285.0 383.38855,1283.7242 Q386.6547,1282.4485 389.0306,1282.0836 Q391.40652,1281.7188 394.51575,1281.8594 Q397.62494,1282.0 400.62793,1280.7281 Q403.63092,1279.4563 407.8965,1279.7281 Q412.1621,1280.0 415.54504,1279.3623 Q418.92798,1278.7246 422.39117,1278.8623 Q425.8544,1279.0 428.7312,1277.7319 Q431.60803,1276.464 433.9378,1276.7319 Q436.26755,1277.0 439.4084,1277.0 Q442.54922,1277.0 444.94357,1277.6338 Q447.33792,1278.2676 449.84625,1278.1338 Q452.35458,1278.0 454.21875,1278.6354 Q456.0829,1279.2708 458.64542,1279.1354 Q461.20795,1279.0 463.1601,1279.0 Q465.11227,1279.0 467.74963,1279.6387 Q470.38702,1280.2773 473.50665,1280.1387 Q476.62625,1280.0 478.9799,1280.6333 Q481.33353,1281.2667 483.85367,1281.7708 Q486.3738,1282.2748 489.45624,1282.1375 Q492.5387,1282.0 494.93842,1282.6338 Q497.3381,1283.2676 500.47186,1283.7676 Q503.60562,1284.2676 505.319,1284.7628 Q507.03238,1285.258 510.30145,1285.129 Q513.5705,1285.0 515.2677,1285.0 Q516.9649,1285.0 519.6538,1285.6343 Q522.3428,1286.2686 524.2062,1286.1343 Q526.06964,1286.0 528.68805,1286.6306 Q531.30646,1287.2612 533.20374,1288.4059 Q535.101,1289.5505 537.7256,1289.9103 Q540.3502,1290.27 542.20105,1290.135 Q544.0519,1290.0 546.6391,1290.6226 Q549.2263,1291.2452 551.7998,1291.76 Q554.37335,1292.2747 556.1622,1292.1373 Q557.951,1292.0 560.0425,1292.6417 Q562.134,1293.2834 564.7497,1293.1417 Q567.3654,1293.0 569.23004,1293.0 Q571.09467,1293.0 572.449,1293.6338 Q573.8033,1294.2677 575.3042,1294.7681 Q576.80505,1295.2683 577.66943,1295.7676 Q578.53375,1296.2668 580.142,1296.1334 Q581.7503,1296.0 583.26794,1296.6309 Q584.7855,1297.2618 585.6711,1297.77 Q586.55664,1298.2783 587.5439,1298.1392 Q588.5311,1298.0 589.53125,1298.0 Q590.5313,1298.0 591.96466,1298.5664 Q593.398,1299.1327 594.3352,1299.6345 Q595.2724,1300.1362 596.2709,1301.2028 Q597.2693,1302.2693 598.83923,1303.271 Q600.4092,1304.2728 600.7046,1305.1365 Q601.0,1306.0 601.5,1305.0 Q602.0,1304.0 602.0,1302.863 Q602.0,1301.7262 602.0,1300.7275 Q602.0,1299.7289 602.0,1298.5901 Q602.0,1297.4513 602.0,1296.4556 Q602.0,1295.46 602.0,1293.8337 Q602.0,1292.2074 602.0,1291.3357 Q602.0,1290.4639 602.0,1288.8329 Q602.0,1287.2019 601.3616,1284.4089 Q600.7232,1281.6161 600.8616,1279.1486 Q601.0,1276.681 601.0,1274.154 Q601.0,1271.6272 601.0,1269.148 Q601.0,1266.6688 601.0,1264.1777 Q601.0,1261.6866 600.37286,1259.8347 Q599.7457,1257.9828 599.87286,1256.585 Q600.0,1255.1873 599.36224,1254.3181 Q598.7245,1253.449 598.23175,1252.4635 Q597.739,1251.478 596.8695,1251.239 Q596.0,1251.0 595.0,1250.0 Q594.0,1249.0 592.30316,1249.0 Q590.6063,1249.0 588.9011,1249.0 L587.196,1249.0 " fill="none" stroke="#000000" stroke-width="19.949999" stroke-linecap="round"/><path d="M378.0,1279.0 Q378.0,1279.0 377.0,1278.0 Q376.0,1277.0 376.0,1278.0 Q376.0,1279.0 374.8705,1280.6942 Q373.74103,1282.3884 373.24805,1284.6841 Q372.75504,1286.9799 371.0084,1290.2283 Q369.26175,1293.4766 368.37192,1295.8857 Q367.4821,1298.2948 364.55145,1302.1128 Q361.62085,1305.9308 360.39825,1309.4271 Q359.17563,1312.9235 357.04352,1317.6864 Q354.9114,1322.4493 354.1831,1326.315 Q353.45483,1330.1807 352.46762,1333.4996 Q351.4804,1336.8186 349.80362,1339.7825 Q348.12683,1342.7463 347.9272,1345.0544 Q347.7275,1347.3625 346.58725,1350.5107 Q345.447,1353.659 343.81567,1356.6451 Q342.1844,1359.6312 341.31393,1362.6504 Q340.44348,1365.6696 339.44095,1368.6772 Q338.43842,1371.6848 336.79633,1375.9701 Q335.1542,1380.2554 334.93924,1382.9548 Q334.72427,1385.6543 332.9619,1389.261 Q331.1996,1392.8677 330.3186,1395.7773 Q329.43765,1398.687 328.4583,1400.9948 Q327.47897,1403.3025 327.099,1405.2131 Q326.71906,1407.1238 326.22235,1409.1106 Q325.72565,1411.0974 325.86282,1411.8254 Q326.0,1412.5535 326.0,1413.5424 Q326.0,1414.5312 326.5663,1415.3982 Q327.13263,1416.2653 327.69946,1417.3989 Q328.26633,1418.5327 329.83517,1418.8337 Q331.40402,1419.1346 333.46997,1419.6343 Q335.5359,1420.1339 337.80713,1420.7017 Q340.07834,1421.2695 342.08258,1421.1348 Q344.08682,1421.0 346.72174,1421.0 Q349.35663,1421.0 351.85376,1421.0 Q354.35086,1421.0 358.14404,1420.3616 Q361.9372,1419.7233 365.99615,1419.8616 Q370.05508,1420.0 373.4688,1420.0 Q376.8825,1420.0 382.274,1419.3667 Q387.6655,1418.7334 392.0468,1417.5969 Q396.42813,1416.4604 400.9376,1415.4583 Q405.44705,1414.4562 410.4713,1413.4785 Q415.49554,1412.5009 420.58447,1412.1167 Q425.67343,1411.7327 430.0608,1410.5942 Q434.44815,1409.4559 438.90573,1409.0967 Q443.3633,1408.7374 448.45544,1408.2413 Q453.54758,1407.7452 457.80164,1408.4868 Q462.0557,1409.2284 466.78418,1409.7538 Q471.51263,1410.2792 475.93024,1411.4004 Q480.3478,1412.5217 484.24103,1413.5276 Q488.13425,1414.5336 491.50745,1414.9011 Q494.88065,1415.2687 499.63956,1415.7676 Q504.39847,1416.2665 508.15497,1417.3722 Q511.9115,1418.4779 516.6583,1419.5062 Q521.4052,1420.5345 525.28125,1422.1718 Q529.15735,1423.809 533.15283,1425.3073 Q537.14825,1426.8055 540.5035,1428.301 Q543.8587,1429.7966 548.02893,1431.3107 Q552.1991,1432.8247 555.5111,1433.6729 Q558.82306,1434.5209 562.93494,1434.8884 Q567.0468,1435.2559 571.1178,1435.7646 Q575.18884,1436.2736 578.5323,1436.7708 Q581.87573,1437.268 586.01855,1438.404 Q590.1613,1439.5403 592.8839,1439.904 Q595.60657,1440.2678 599.8576,1441.3975 Q604.10864,1442.5271 606.8478,1442.8958 Q609.5869,1443.2645 613.2324,1443.7664 Q616.878,1444.2683 620.3738,1444.7677 Q623.8696,1445.2671 626.65405,1445.7534 Q629.4384,1446.2397 633.1824,1446.1199 Q636.92633,1446.0 639.7533,1446.6317 Q642.5802,1447.2634 644.9606,1447.1317 Q647.3409,1447.0 650.4763,1447.6343 Q653.6118,1448.2687 656.63654,1448.7727 Q659.66125,1449.2769 661.38403,1449.1384 Q663.10675,1449.0 665.7338,1449.6361 Q668.3609,1450.2722 669.56396,1450.1361 Q670.7671,1450.0 672.2571,1450.6245 Q673.7471,1451.249 675.27783,1451.1245 Q676.80853,1451.0 677.6719,1450.3662 Q678.53516,1449.7324 680.5365,1448.1646 Q682.53784,1446.5967 683.9742,1445.6615 Q685.4105,1444.7263 685.20526,1443.5945 Q685.0,1442.4628 685.5668,1440.4641 Q686.1336,1438.4653 686.0668,1437.4663 Q686.0,1436.4673 685.36566,1434.8306 Q684.7313,1433.1938 683.60376,1431.0731 Q682.4762,1428.9524 682.10626,1426.9487 Q681.7363,1424.9452 680.5921,1421.6443 Q679.4479,1418.3435 677.81805,1414.0895 Q676.18823,1409.8354 674.6925,1403.9452 Q673.1968,1398.0549 671.068,1391.3037 Q668.9393,1384.5526 666.29913,1376.7649 Q663.659,1368.977 661.1633,1361.49 Q658.6676,1354.0028 656.2216,1349.1545 Q653.77563,1344.3064 651.8512,1339.3115 Q649.9267,1334.3167 647.9413,1331.8752 Q645.9558,1329.4337 644.577,1327.0487 Q643.1982,1324.6637 641.68866,1323.4214 Q640.17914,1322.1792 638.687,1319.4187 Q637.19495,1316.6583 635.7118,1314.1863 Q634.2286,1311.7142 633.97864,1309.8147 Q633.72876,1307.915 632.60974,1304.6936 Q631.49066,1301.472 631.1214,1299.1163 Q630.75214,1296.7606 630.8761,1294.2096 Q631.0,1291.6586 631.6269,1289.1948 Q632.2538,1286.7312 632.7644,1283.5403 L633.2751,1280.3494 " fill="none" stroke="#000000" stroke-width="19.949999" stroke-linecap="round"/><path d="M379.0,1429.0 Q379.0,1429.0 379.0,1430.0 Q379.0,1431.0 379.0,1432.1228 Q379.0,1433.2456 379.0,1435.0045 Q379.0,1436.7634 379.0,1438.2544 Q379.0,1439.7454 378.3661,1441.9084 Q377.73215,1444.0714 377.23236,1447.338 Q376.73257,1450.6046 376.86627,1453.5681 Q377.0,1456.5315 376.36337,1458.949 Q375.72675,1461.3663 375.22522,1464.5122 Q374.72366,1467.658 374.2286,1471.2615 Q373.73355,1474.865 373.23022,1479.0249 Q372.72687,1483.1849 371.59296,1487.8096 Q370.45905,1492.4342 369.4461,1496.3507 Q368.4332,1500.2672 368.08276,1505.472 Q367.7323,1510.6769 366.59448,1515.0609 Q365.4567,1519.445 365.09552,1524.5505 Q364.73438,1529.6562 364.23407,1534.0261 Q363.73376,1538.3961 363.22498,1542.3333 Q362.7162,1546.2704 362.21857,1550.2516 Q361.72092,1554.2328 361.86047,1558.2085 Q362.00003,1562.1841 360.72632,1566.8237 Q359.4526,1571.4634 359.72632,1575.363 Q360.0,1579.2627 359.36743,1583.1919 Q358.73486,1587.1211 358.23358,1591.1313 Q357.7323,1595.1416 357.86615,1599.7485 Q358.0,1604.3553 358.0,1608.1624 Q358.0,1611.9694 357.3645,1615.4331 Q356.72903,1618.8969 356.22855,1623.6721 Q355.72806,1628.4474 355.22882,1631.67 Q354.72958,1634.8927 353.62994,1638.8857 Q352.53027,1642.8789 352.1311,1647.0116 Q351.73196,1651.1443 350.59766,1655.1455 Q349.46332,1659.1467 349.0979,1662.5096 Q348.73248,1665.8726 347.60376,1668.7238 Q346.47504,1671.575 346.10175,1675.2378 Q345.7285,1678.9006 345.23056,1680.4851 Q344.73264,1682.0695 344.25452,1683.9819 Q343.77643,1685.8943 343.25864,1687.3359 Q342.74084,1688.7775 342.87042,1689.6587 Q343.0,1690.5398 343.0,1691.5344 Q343.0,1692.5292 343.0,1693.5317 Q343.0,1694.5344 344.12894,1695.3961 Q345.25787,1696.2578 345.77042,1697.4119 Q346.28296,1698.5659 347.14148,1698.783 Q348.0,1699.0 349.13702,1698.4314 Q350.27408,1697.8629 351.41843,1697.9314 Q352.56277,1698.0 352.9168,1696.0938 Q353.27084,1694.1875 355.0448,1693.9573 Q356.81873,1693.727 358.32214,1693.8635 Q359.8256,1694.0 361.95203,1692.7305 Q364.07843,1691.4608 367.35022,1691.7305 Q370.62204,1692.0 373.62714,1691.364 Q376.6322,1690.7279 378.94727,1689.6116 Q381.2623,1688.4951 384.41486,1688.117 Q387.56738,1687.7388 390.49634,1686.6318 Q393.42526,1685.5249 395.89874,1685.1252 Q398.3722,1684.7256 400.8449,1684.8628 Q403.3176,1685.0 405.20773,1685.0 Q407.09787,1685.0 408.4458,1685.6323 Q409.7937,1686.2645 410.66644,1686.1323 Q411.53918,1686.0 412.5354,1686.0 Q413.53162,1686.0 414.5295,1686.6318 Q415.5274,1687.2637 416.52942,1687.7646 Q417.5314,1688.2657 418.7657,1688.1328 Q420.0,1688.0 421.705,1688.5684 Q423.40997,1689.1366 424.705,1688.0684 Q426.0,1687.0 426.6371,1685.7258 Q427.27417,1684.4517 427.77295,1682.1824 Q428.27176,1679.913 428.76978,1676.6531 Q429.26782,1673.3931 429.76645,1669.7688 Q430.26508,1666.1444 430.7705,1661.9683 Q431.27597,1657.7922 432.39517,1653.2388 Q433.51437,1648.6854 433.82425,1644.7391 Q434.13412,1640.7928 434.7124,1635.5884 Q435.29068,1630.3839 437.0263,1625.4221 Q438.76196,1620.4602 439.646,1614.1399 Q440.53006,1607.8197 441.5104,1600.6923 Q442.49075,1593.5648 443.5174,1586.3783 Q444.54404,1579.1918 446.18433,1572.1716 Q447.82465,1565.1516 449.29205,1558.3037 Q450.7595,1551.4557 452.92755,1542.3997 Q455.09558,1533.3438 456.4549,1524.2292 Q457.8142,1515.1147 459.9301,1507.4653 Q462.046,1499.816 463.3706,1492.67 Q464.6952,1485.524 466.91214,1479.5684 Q469.1291,1473.6128 469.20374,1468.9147 Q469.27835,1464.2166 470.4168,1461.1365 Q471.5553,1458.0564 471.91132,1455.8597 Q472.26736,1453.6631 472.7642,1451.8096 Q473.26102,1449.9559 474.41083,1448.5575 Q475.5606,1447.159 475.88788,1445.7568 Q476.21518,1444.3545 477.4024,1442.7351 Q478.58963,1441.1156 478.2948,1438.3712 Q478.0,1435.6268 479.2691,1431.237 L480.5382,1426.8472 " fill="none" stroke="#000000" stroke-width="19.949999" stroke-linecap="round"/><path d="M488.0,1413.0 Q488.0,1413.0 487.5,1414.0 Q487.0,1415.0 487.0,1416.5 Q487.0,1418.0 487.0,1419.1344 Q487.0,1420.2688 487.0,1421.4005 Q487.0,1422.5322 487.6374,1424.1783 Q488.2748,1425.8245 488.1374,1426.6797 Q488.0,1427.5348 488.0,1428.5398 Q488.0,1429.5449 488.0,1430.9742 Q488.0,1432.4036 488.6333,1434.1016 Q489.26657,1435.7997 489.1333,1437.3047 Q489.0,1438.8098 489.0,1440.9585 Q489.0,1443.1073 489.0,1445.0938 Q489.0,1447.0801 489.6334,1449.707 Q490.26678,1452.334 490.76804,1455.4747 Q491.2693,1458.6155 491.13464,1462.2776 Q491.0,1465.9396 491.63422,1469.4092 Q492.2684,1472.8788 492.13422,1475.7546 Q492.0,1478.6306 492.63837,1482.2839 Q493.27673,1485.9371 493.13837,1488.7631 Q493.0,1491.589 493.0,1493.9746 Q493.0,1496.3602 493.63477,1498.854 Q494.26953,1501.3477 494.7694,1503.2124 Q495.26926,1505.077 495.13464,1507.0564 Q495.0,1509.0356 495.0,1512.3164 Q495.0,1515.5973 495.0,1518.6013 Q495.0,1521.6053 495.0,1525.2715 Q495.0,1528.9377 495.0,1532.4023 Q495.0,1535.867 495.0,1539.3733 Q495.0,1542.8796 494.36462,1546.3875 Q493.72928,1549.8951 493.2256,1552.1428 Q492.72186,1554.3906 492.86093,1557.4905 Q493.0,1560.5902 493.0,1563.5859 Q493.0,1566.5818 492.364,1568.9707 Q491.72806,1571.3597 491.864,1575.7561 Q492.0,1580.1523 492.0,1584.1277 Q492.0,1588.103 492.0,1592.1211 Q492.0,1596.1393 492.0,1600.1445 Q492.0,1604.1499 491.36218,1607.5398 Q490.72437,1610.9296 489.596,1614.3962 Q488.46768,1617.863 488.09973,1622.0045 Q487.73175,1626.146 487.23273,1629.5051 Q486.73367,1632.8643 486.235,1636.355 Q485.7363,1639.8458 485.2344,1643.3591 Q484.7325,1646.8724 484.86624,1649.7467 Q484.99997,1652.621 484.36737,1655.6063 Q483.73474,1658.5917 483.86737,1660.9822 Q484.0,1663.3727 484.0,1666.4974 Q484.0,1669.6222 482.72815,1671.3547 Q481.45633,1673.0874 481.72815,1675.101 Q482.0,1677.1145 482.0,1678.4624 Q482.0,1679.8103 482.0,1681.9414 Q482.0,1684.0726 481.4303,1685.2454 Q480.8606,1686.4182 480.9303,1687.4818 Q481.0,1688.5454 480.43335,1689.9727 Q479.8667,1691.3999 480.49994,1692.8997 Q481.13315,1694.3995 481.0666,1695.4728 Q481.0,1696.546 481.0,1697.5405 Q481.0,1698.5352 481.0,1699.2676 Q481.0,1700.0 482.5,1701.0 Q484.0,1702.0 485.0,1702.0 Q486.0,1702.0 487.2705,1702.0 Q488.54102,1702.0 489.53952,1702.0 Q490.53802,1702.0 492.17004,1702.0 Q493.8021,1702.0 495.9458,1702.6362 Q498.08948,1703.2723 500.71637,1702.5018 Q503.34326,1701.7313 506.47943,1701.8657 Q509.6156,1702.0 512.59247,1702.0 Q515.56934,1702.0 518.56384,1701.3701 Q521.5583,1700.7402 524.49194,1700.8701 Q527.42566,1701.0 530.548,1701.0 Q533.67035,1701.0 535.97375,1701.0 Q538.27716,1701.0 541.40857,1699.7434 Q544.54,1698.4867 547.57214,1698.7434 Q550.6043,1699.0 552.97253,1698.366 Q555.3408,1697.7318 557.8467,1696.5955 Q560.3525,1695.459 562.2257,1695.092 Q564.0989,1694.7252 567.3403,1694.8625 Q570.58167,1695.0 571.6985,1695.0 Q572.8153,1695.0 574.9406,1695.0 Q577.0659,1695.0 577.79504,1695.0 Q578.5242,1695.0 580.1737,1695.0 Q581.82324,1695.0 582.5438,1695.0 Q583.26447,1695.0 584.27,1695.0 Q585.2756,1695.0 586.275,1695.0 Q587.2744,1695.0 587.6372,1693.0 Q588.0,1691.0 588.0,1687.8181 Q588.0,1684.6361 588.0,1681.4956 Q588.0,1678.3551 589.2705,1674.0957 Q590.54095,1669.8362 590.2705,1665.8828 Q590.0,1661.9296 589.3676,1656.6409 Q588.7352,1651.352 588.8677,1645.7025 Q589.00006,1640.053 589.00006,1633.2495 Q589.00006,1626.4459 589.00006,1618.1581 Q589.00006,1609.8702 587.745,1599.3848 Q586.4899,1588.8994 586.11255,1580.0669 Q585.7352,1571.2345 585.8676,1563.4924 Q586.0,1555.7505 584.7446,1549.0878 Q583.4893,1542.425 583.7446,1536.6697 Q584.0,1530.9142 583.3643,1524.8289 Q582.72864,1518.7434 581.6003,1514.0515 Q580.4719,1509.3596 580.11584,1505.7189 Q579.75977,1502.0781 579.24304,1497.3071 Q578.72626,1492.536 578.256,1489.518 Q577.78577,1486.4999 577.2523,1481.4852 Q576.71893,1476.4706 576.8595,1472.0067 Q577.0,1467.5428 577.63635,1461.7712 Q578.27277,1455.9995 578.13635,1451.7659 Q578.0,1447.5321 578.63446,1444.3251 Q579.2689,1441.118 579.7755,1438.2125 Q580.28217,1435.307 580.1411,1434.8835 Q580.0,1434.4601 580.0,1432.8059 Q580.0,1431.1517 580.6355,1429.6694 L581.271,1428.187 " fill="none" stroke="#000000" stroke-width="19.949999" stroke-linecap="round"/><path d="M335.0,1679.0 Q335.0,1679.0 334.0,1679.0 Q333.0,1679.0 332.0,1679.0 Q331.0,1679.0 332.0,1679.0 Q333.0,1679.0 334.91827,1679.0 Q336.83652,1679.0 338.34875,1679.6436 Q339.86096,1680.287 340.56708,1680.1436 Q341.2732,1680.0 342.413,1680.0 Q343.5528,1680.0 345.1757,1680.0 Q346.79858,1680.0 348.94025,1680.0 Q351.08194,1680.0 353.713,1680.0 Q356.3441,1680.0 358.2118,1680.0 Q360.07953,1680.0 363.3573,1680.0 Q366.6351,1680.0 368.9789,1679.3677 Q371.32272,1678.7355 374.45142,1678.8677 Q377.58014,1679.0 379.958,1678.3665 Q382.3359,1677.7328 384.85376,1677.8665 Q387.3716,1678.0 390.41467,1678.0 Q393.45776,1678.0 396.5721,1678.0 Q399.68646,1678.0 402.0177,1678.6349 Q404.34894,1679.2698 407.38504,1679.7533 Q410.42114,1680.2368 412.89728,1680.7557 Q415.3734,1681.2747 418.47177,1681.1373 Q421.57013,1681.0 423.28937,1681.6261 Q425.00858,1682.2522 427.64813,1683.3837 Q430.28772,1684.5151 432.1681,1684.8887 Q434.0485,1685.2621 436.07715,1685.7693 Q438.1058,1686.2765 440.0896,1687.4066 Q442.07343,1688.5367 444.07938,1688.904 Q446.08533,1689.2714 448.70236,1690.3995 Q451.3194,1691.5277 453.20044,1692.5342 Q455.08145,1693.5408 458.3507,1694.5404 Q461.62,1695.54 463.32977,1697.1599 Q465.03952,1698.7797 467.61957,1700.2498 Q470.1996,1701.7197 472.7588,1703.2552 Q475.31802,1704.7908 477.16016,1705.646 Q479.00232,1706.5012 481.0396,1707.5198 Q483.0769,1708.5385 484.38007,1709.497 Q485.6832,1710.4554 487.25,1710.8638 Q488.81677,1711.2722 490.31635,1712.4081 Q491.8159,1713.544 492.66745,1715.1613 Q493.519,1716.7786 495.15594,1718.2856 Q496.79288,1719.7928 498.28488,1721.2849 Q499.7769,1722.7769 500.65118,1724.2825 Q501.52545,1725.7882 502.52118,1727.9109 Q503.51688,1730.0337 504.5301,1731.4243 Q505.54333,1732.8151 506.52673,1734.29 Q507.51013,1735.7651 508.3902,1737.6528 Q509.27026,1739.5405 509.7656,1741.1616 Q510.26093,1742.7827 510.13046,1744.2466 Q510.0,1745.7103 510.6176,1747.8257 Q511.23523,1749.9409 511.74246,1752.5947 Q512.2497,1755.2484 512.1249,1757.1853 Q512.0,1759.1221 511.36942,1760.4528 Q510.73883,1761.7834 510.86942,1763.9116 Q511.0,1766.0398 511.0,1767.4229 Q511.0,1768.806 511.0,1769.6719 Q511.0,1770.5378 510.35947,1771.55 Q509.71893,1772.5621 509.2287,1773.5427 Q508.73843,1774.5232 508.8692,1775.533 Q509.0,1776.5426 508.436,1777.3993 Q507.872,1778.256 506.66187,1778.7651 Q505.4517,1779.2742 504.22583,1779.6371 Q503.0,1780.0 501.86752,1778.8674 Q500.73505,1777.735 499.7266,1777.2971 Q498.71814,1776.8591 497.58698,1776.9296 Q496.45578,1777.0 495.4574,1776.3647 Q494.459,1775.7295 493.45612,1775.8647 Q492.45322,1776.0 490.8255,1775.3662 Q489.1978,1774.7325 487.0699,1774.234 Q484.942,1773.7355 482.931,1773.2327 Q480.92,1772.73 477.662,1772.2319 Q474.40396,1771.734 470.2924,1771.2533 Q466.18082,1770.7726 461.94592,1770.8862 Q457.71106,1771.0 453.15442,1770.3665 Q448.59778,1769.733 444.08795,1769.8665 Q439.57812,1770.0 435.04935,1769.3623 Q430.52057,1768.7245 425.45496,1768.8623 Q420.3893,1769.0 415.3833,1769.0 Q410.3773,1769.0 405.3968,1769.0 Q400.41626,1769.0 396.61255,1769.0 Q392.80887,1769.0 388.84454,1769.0 Q384.88025,1769.0 381.52325,1769.0 Q378.16623,1769.0 374.64706,1769.6338 Q371.1279,1770.2675 368.907,1770.1338 Q366.68613,1770.0 363.54797,1770.6326 Q360.40982,1771.265 358.0544,1771.1326 Q355.699,1771.0 353.82013,1771.0 Q351.94125,1771.0 349.9325,1771.0 Q347.92374,1771.0 346.0097,1771.613 Q344.0957,1772.2261 343.27765,1772.748 Q342.45963,1773.2701 341.48413,1773.135 Q340.50867,1773.0 339.61676,1773.0 Q338.72482,1773.0 338.36243,1772.0 Q338.0,1771.0 338.0,1769.7333 Q338.0,1768.4666 338.0,1766.8235 Q338.0,1765.1803 338.61432,1762.5186 Q339.22864,1759.8568 339.11432,1757.2202 Q339.0,1754.5837 339.0,1750.8192 Q339.0,1747.0547 339.0,1743.59 Q339.0,1740.1252 338.3764,1734.8265 Q337.7528,1729.5278 337.8764,1724.6108 Q338.0,1719.6937 338.0,1713.7614 Q338.0,1707.829 338.63123,1703.7334 Q339.26248,1699.6378 339.7713,1695.0583 Q340.28015,1690.4788 340.77313,1686.6749 Q341.2661,1682.8711 341.75372,1680.8323 Q342.2413,1678.7935 344.02264,1676.2268 Q345.80396,1673.66 347.30548,1669.8885 L348.807,1666.1171 " fill="none" stroke="#000000" stroke-width="19.949999" stroke-linecap="round"/><path d="M489.0,1681.0 Q489.0,1681.0 490.0,1681.0 Q491.0,1681.0 492.12994,1681.0 Q493.25986,1681.0 494.2658,1681.0 Q495.27176,1681.0 496.2514,1681.5579 Q497.23108,1682.1156 498.29248,1682.0579 Q499.35388,1682.0 500.91022,1682.5778 Q502.46652,1683.1555 504.5419,1683.6549 Q506.61728,1684.1543 509.71466,1684.6448 Q512.8121,1685.1354 517.4222,1685.6947 Q522.0323,1686.254 527.34155,1687.3921 Q532.65076,1688.5302 538.3607,1688.9047 Q544.0707,1689.2792 550.1385,1689.7732 Q556.2063,1690.2672 562.90784,1691.4113 Q569.6093,1692.5553 575.4436,1694.1874 Q581.2779,1695.8195 587.2184,1697.3047 Q593.15894,1698.7898 597.25964,1700.2883 Q601.3604,1701.7869 604.63794,1702.667 Q607.9155,1703.5472 612.06165,1705.8256 Q616.2077,1708.1039 619.56726,1708.8271 Q622.9268,1709.5505 625.7959,1710.5527 Q628.66504,1711.555 632.312,1712.5574 Q635.959,1713.5597 638.08704,1713.9014 Q640.21515,1714.243 643.4338,1715.397 Q646.6524,1716.5508 649.0027,1716.9106 Q651.353,1717.2706 653.8337,1718.3982 Q656.31433,1719.5258 658.1946,1719.8972 Q660.07477,1720.2687 662.0768,1722.0388 Q664.07874,1723.8091 665.4489,1724.041 Q666.8191,1724.2731 668.29724,1725.395 Q669.77545,1726.517 670.65125,1727.522 Q671.527,1728.527 671.89526,1729.5271 Q672.26355,1730.5271 673.3501,1732.0911 Q674.4367,1733.6552 674.8556,1734.602 Q675.2744,1735.5488 675.774,1736.548 Q676.27356,1737.5471 676.1368,1739.813 Q676.0,1742.079 676.0,1742.8105 Q676.0,1743.5421 676.0,1745.1362 Q676.0,1746.7305 675.35706,1748.9373 Q674.71405,1751.1439 673.5917,1752.47 Q672.46924,1753.7961 672.09845,1754.6704 Q671.72766,1755.5447 671.2317,1756.5366 Q670.7358,1757.5284 670.247,1759.1268 Q669.75824,1760.7252 668.1846,1762.0571 Q666.61096,1763.389 665.53265,1764.4673 Q664.45435,1765.5457 663.454,1767.1826 Q662.45355,1768.8197 661.4573,1770.949 Q660.46094,1773.0781 660.09875,1775.0658 Q659.73663,1777.0535 658.5995,1779.0645 Q657.46234,1781.0753 657.10315,1783.0498 Q656.74396,1785.0243 655.58984,1785.7943 Q654.43567,1786.5643 653.5842,1787.4158 Q652.7327,1788.2672 652.22876,1789.4089 Q651.72473,1790.5505 650.8624,1790.7753 Q650.00006,1791.0 648.3008,1791.0 Q646.60144,1791.0 645.5286,1790.364 Q644.4558,1789.7279 642.8313,1789.864 Q641.2067,1790.0 639.70654,1790.6323 Q638.2063,1791.2645 635.42633,1791.1323 Q632.64636,1791.0 630.1471,1791.0 Q627.64777,1791.0 625.1388,1791.0 Q622.6298,1791.0 620.1633,1791.6304 Q617.69684,1792.2607 615.18524,1792.7631 Q612.67365,1793.2654 609.53406,1793.1327 Q606.3945,1793.0 603.4031,1793.0 Q600.4117,1793.0 597.442,1793.0 Q594.4723,1793.0 591.4352,1793.0 Q588.3981,1793.0 584.8025,1792.372 Q581.207,1791.7439 577.67395,1791.2391 Q574.1409,1790.7344 571.27954,1790.8672 Q568.41815,1791.0 565.4171,1791.0 Q562.4161,1791.0 560.0435,1791.0 Q557.67096,1791.0 555.1503,1791.6371 Q552.6297,1792.2742 550.7705,1792.7732 Q548.9114,1793.2722 546.9303,1793.1361 Q544.9492,1793.0 542.9684,1793.0 Q540.98755,1793.0 539.57947,1793.0 Q538.17145,1793.0 536.685,1793.6335 Q535.19855,1794.2671 533.062,1793.4993 L530.9255,1792.7314 " fill="none" stroke="#000000" stroke-width="19.949999" stroke-linecap="round"/><path d="M307.0,1170.0 Q307.0,1170.0 308.0,1170.0 Q309.0,1170.0 310.26337,1170.0 Q311.52676,1170.0 312.9579,1170.0 Q314.389,1170.0 315.47104,1170.0 Q316.55307,1170.0 318.83575,1170.0 Q321.11847,1170.0 323.73608,1170.6354 Q326.3537,1171.2708 330.12805,1171.1354 Q333.90237,1171.0 338.05368,1172.2756 Q342.205,1173.5513 346.70035,1173.8977 Q351.1957,1174.244 355.8623,1175.4031 Q360.52893,1176.562 365.59802,1177.5477 Q370.66714,1178.5334 374.32556,1179.5146 Q377.98398,1180.496 382.76508,1180.8894 Q387.54614,1181.283 391.40405,1180.5001 L395.262,1179.7173 " fill="none" stroke="#000000" stroke-width="19.949999" stroke-linecap="round"/><path d="M658.0,1120.0 Q658.0,1120.0 659.0,1119.5 Q660.0,1119.0 661.0,1119.0 Q662.0,1119.0 663.0,1119.5 Q664.0,1120.0 664.58105,1121.1621 Q665.1622,1122.3243 665.6491,1123.2982 Q666.13605,1124.2721 667.3264,1125.3944 Q668.5167,1126.5167 669.52716,1128.1616 Q670.5376,1129.8064 671.5409,1131.9474 Q672.5442,1134.0884 672.9017,1135.4329 Q673.25916,1136.7775 673.76733,1138.9397 Q674.27545,1141.1018 674.77545,1143.1018 Q675.27545,1145.1018 675.1377,1147.7211 Q675.0,1150.3403 675.6358,1152.2134 Q676.2716,1154.0863 676.1358,1156.092 Q676.0,1158.0977 676.6357,1160.0916 Q677.27136,1162.0854 677.77563,1162.8228 Q678.27997,1163.56 678.14,1164.5417 Q678.0,1165.5236 678.0,1166.5352 Q678.0,1167.5468 678.5673,1168.9753 Q679.13464,1170.4039 680.20447,1171.9077 Q681.27435,1173.4116 681.7057,1174.9114 Q682.137,1176.411 682.0685,1177.2056 Q682.0,1178.0 681.0,1178.0 Q680.0,1178.0 678.5,1178.0 Q677.0,1178.0 675.72485,1178.0 Q674.44977,1178.0 673.53613,1178.0 Q672.62256,1178.0 671.6338,1178.0 Q670.645,1178.0 669.09094,1179.1543 Q667.53687,1180.3087 665.98535,1180.7488 Q664.4339,1181.1887 661.7981,1181.0944 Q659.1623,1181.0 657.2777,1182.1517 Q655.3931,1183.3035 653.39465,1184.3027 Q651.3962,1185.3019 648.5774,1185.7751 Q645.75867,1186.2483 643.84955,1186.7566 Q641.9404,1187.2649 639.29926,1187.7666 Q636.6581,1188.2684 634.808,1189.3948 Q632.9578,1190.521 630.2792,1190.9004 Q627.6006,1191.2799 625.75085,1192.4147 Q623.90106,1193.5494 621.25934,1193.913 Q618.6176,1194.2765 616.7675,1194.7736 Q614.9174,1195.2706 612.2929,1195.7686 Q609.6684,1196.2664 608.4259,1196.7693 Q607.1835,1197.2722 606.321,1197.7715 Q605.4585,1198.2708 604.471,1198.7644 Q603.4835,1199.2582 602.4753,1199.7623 Q601.46704,1200.2665 600.4553,1200.1333 Q599.4436,1200.0 598.5863,1200.0 Q597.729,1200.0 596.1638,1200.0 Q594.5987,1200.0 594.7993,1199.0 Q595.0,1198.0 594.0,1196.5 Q593.0,1195.0 593.0,1193.7346 Q593.0,1192.4694 591.8685,1191.0376 Q590.7371,1189.6057 590.23315,1188.5321 Q589.72925,1187.4585 587.96216,1186.4609 Q586.195,1185.4633 584.05237,1182.5502 L581.9097,1179.6371 " fill="none" stroke="#000000" stroke-width="19.949999" stroke-linecap="round"/><path d="M427.0,1135.0 Q427.0,1135.0 428.0,1135.5 Q429.0,1136.0 430.36542,1136.0 Q431.7308,1136.0 433.41223,1136.6823 Q435.09363,1137.3645 436.129,1137.1823 Q437.16437,1137.0 439.166,1137.521 Q441.1676,1138.0419 444.0519,1138.6145 Q446.93622,1139.1873 448.80322,1138.5098 Q450.6702,1137.8324 452.93726,1138.4366 Q455.2043,1139.0409 458.01498,1139.0205 Q460.82565,1139.0 463.5618,1139.0 Q466.29794,1139.0 468.7924,1139.0 Q471.28683,1139.0 473.81274,1139.6338 Q476.33862,1140.2677 477.55148,1140.7612 Q478.76434,1141.2548 480.9399,1141.7668 Q483.11548,1142.2789 485.12018,1142.1394 Q487.12485,1142.0 489.14023,1142.6445 Q491.1556,1143.289 493.1117,1143.1445 Q495.06775,1143.0 497.07623,1143.6355 Q499.08472,1144.2711 501.0904,1144.1355 Q503.09607,1144.0 504.45673,1144.6362 Q505.81738,1145.2725 507.95227,1145.1362 Q510.0872,1145.0 511.45044,1145.0 Q512.8137,1145.0 514.9591,1145.0 Q517.10455,1145.0 519.09143,1145.0 Q521.07837,1145.0 522.43884,1145.0 Q523.7994,1145.0 525.94525,1145.6365 Q528.0911,1146.2728 528.7892,1146.1365 Q529.4872,1146.0 531.80066,1146.6393 Q534.11414,1147.2786 534.82654,1147.1393 Q535.539,1147.0 537.1128,1147.0 Q538.68665,1147.0 540.2618,1147.0 Q541.8369,1147.0 543.18396,1148.177 Q544.53094,1149.354 546.2136,1149.8264 Q547.89624,1150.2987 549.33124,1150.7771 Q550.76624,1151.2554 552.28516,1151.7617 Q553.804,1152.2681 554.6721,1150.864 Q555.5402,1149.4598 557.15295,1149.73 Q558.7656,1150.0 560.2595,1150.0 Q561.7535,1150.0 563.2637,1148.7421 Q564.7738,1147.4841 566.2959,1147.1057 Q567.81793,1146.7273 569.9407,1146.8636 Q572.0635,1147.0 574.70935,1148.271 Q577.35516,1149.5421 577.953,1149.271 Q578.5508,1149.0 580.82513,1149.0 Q583.0995,1149.0 585.0786,1149.6322 Q587.05774,1150.2644 587.8027,1149.4954 Q588.5476,1148.7262 590.17664,1149.4973 Q591.8056,1150.2686 592.65485,1150.1343 Q593.5041,1150.0 593.7521,1149.0 Q594.0,1148.0 593.36816,1146.7363 L592.73627,1145.4725 " fill="none" stroke="#000000" stroke-width="19.949999" stroke-linecap="round"/><path d="M449.0,1149.0 Q449.0,1149.0 450.0,1149.5 Q451.0,1150.0 451.0,1151.2644 Q451.0,1152.5288 451.533,1153.8634 Q452.06598,1155.198 453.09387,1157.7512 Q454.1218,1160.3044 454.5664,1162.1742 Q455.011,1164.044 455.60114,1167.596 Q456.1913,1171.1478 456.6818,1173.5046 Q457.17227,1175.8615 457.66376,1178.8964 Q458.1552,1181.9313 459.21448,1184.8762 Q460.2737,1187.821 460.7677,1190.5647 Q461.26166,1193.3083 461.7697,1195.8484 Q462.27774,1198.3885 463.4195,1200.2556 Q464.56128,1202.1226 464.92212,1203.4857 Q465.28296,1204.8489 466.4175,1206.9766 Q467.55206,1209.1041 467.9194,1211.769 Q468.28674,1214.4338 469.4298,1216.933 Q470.57288,1219.4321 471.57245,1221.2881 Q472.57202,1223.144 472.92676,1224.4941 Q473.28146,1225.8444 474.41907,1227.3396 Q475.55667,1228.835 475.91516,1230.328 Q476.27368,1231.821 477.8404,1233.6819 Q479.40714,1235.5428 480.4789,1236.5468 Q481.5507,1237.5507 482.5558,1238.5557 Q483.56085,1239.5608 484.5564,1239.2804 Q485.55197,1239.0 486.5557,1239.0 Q487.55942,1239.0 489.1825,1240.2686 Q490.80557,1241.537 492.30295,1241.2686 Q493.80032,1241.0 495.9436,1241.0 Q498.08688,1241.0 500.07892,1241.6338 Q502.07092,1242.2677 502.80017,1241.5015 Q503.5294,1240.7354 505.79446,1240.8677 Q508.05954,1241.0 509.4272,1240.3676 Q510.79483,1239.7351 512.906,1239.2405 Q515.0172,1238.7457 516.4204,1237.5984 Q517.82367,1236.4509 519.3018,1236.7255 Q520.77997,1237.0 522.281,1235.7393 Q523.78204,1234.4786 525.2883,1234.1069 Q526.7947,1233.7351 528.27234,1232.6176 Q529.75,1231.5 531.27136,1230.4858 Q532.7927,1229.4716 533.6687,1228.4634 Q534.54474,1227.4552 535.5353,1225.2017 Q536.5259,1222.9482 536.8957,1222.2086 Q537.2655,1221.469 538.4016,1220.4656 Q539.5378,1219.4622 540.9511,1218.6096 Q542.36444,1217.7571 543.3081,1215.6267 Q544.25183,1213.4963 544.76575,1211.1888 Q545.27966,1208.8813 546.41406,1208.1665 Q547.5484,1207.4517 549.1946,1205.1653 Q550.84076,1202.8789 550.4204,1200.884 Q550.0,1198.889 551.2695,1196.9055 Q552.53894,1194.9221 553.53485,1193.563 Q554.53076,1192.2037 555.52545,1190.0818 Q556.52014,1187.9598 556.8961,1185.2996 Q557.27216,1182.6392 558.4022,1179.5212 Q559.5322,1176.4033 560.5382,1174.6575 Q561.54425,1172.9115 561.90546,1171.5557 Q562.26666,1170.2 562.7653,1168.072 Q563.264,1165.9441 565.67004,1164.5685 Q568.0762,1163.1929 569.442,1158.5193 L570.80786,1153.8457 " fill="none" stroke="#000000" stroke-width="19.949999" stroke-linecap="round"/></svg>