<svg width="1440" height="2616" xmlns="http://www.w3.org/2000/svg"><rect width="1440" height="2616" fill="#ffffff"/><path d="M421.17188,1052.6133 Q421.17188,1052.6133 421.17188,1052.6133 Q421.17188,1052.6133 421.17188,1052.6133 Q421.17188,1052.6133 421.17188,1052.6133 Q421.17188,1052.6133 421.17188,1052.6133 Q421.17188,1052.6133 421.17188,1052.6133 Q421.17188,1052.6133 421.17188,1052.6133 Q421.17188,1052.6133 421.17188,1052.6133 Q421.17188,1052.6133 421.17188,1052.6133 Q421.17188,1052.6133 421.17188,1052.6133 Q421.17188,1052.6133 421.17188,1052.6133 Q421.17188,1052.6133 419.3506,1052.6133 Q417.5293,1052.6133 412.67627,1052.6133 Q407.82324,1052.6133 405.62988,1052.6133 Q403.43652,1052.6133 398.96484,1052.6133 Q394.49316,1052.6133 391.02197,1052.2202 Q387.55078,1051.8271 383.85303,1051.8394 Q380.15527,1051.8516 377.01074,1051.8516 Q373.8662,1051.8516 370.1416,1051.8516 Q366.417,1051.8516 363.13086,1052.2412 Q359.84473,1052.6309 356.49707,1053.0127 Q353.1494,1053.3945 349.0874,1053.3848 Q345.0254,1053.375 340.98145,1053.7656 Q336.9375,1054.1562 333.25586,1054.5371 Q329.57422,1054.918 325.34082,1054.9082 Q321.10742,1054.8984 317.60986,1054.8984 Q314.1123,1054.8984 311.13867,1054.8984 Q308.16504,1054.8984 305.5371,1054.8984 Q302.90918,1054.8984 299.9121,1055.2891 Q296.91504,1055.6797 294.11328,1056.06 Q291.31152,1056.4404 288.85547,1056.8218 Q286.3994,1057.2031 284.12402,1057.583 Q281.84863,1057.9629 279.55713,1058.3447 Q277.26562,1058.7266 275.34033,1059.4985 Q273.41504,1060.2705 270.94043,1060.6411 Q268.46582,1061.0117 266.36768,1061.3926 Q264.26953,1061.7734 261.98047,1062.5444 Q259.6914,1063.3154 257.4121,1063.6855 Q255.13281,1064.0557 253.021,1064.8281 Q250.90918,1065.6006 249.16553,1065.9707 Q247.42188,1066.3408 245.11865,1067.1133 Q242.81543,1067.8857 241.06836,1068.6484 Q239.32127,1069.4111 237.21533,1070.1685 Q235.10938,1070.9258 233.34912,1072.082 Q231.58885,1073.2383 230.19287,1074.3804 Q228.79688,1075.5225 226.30957,1078.2266 Q223.82228,1080.9307 221.18115,1084.377 Q218.54004,1087.8232 216.08691,1091.2466 Q213.63379,1094.6699 210.99023,1098.1011 Q208.34668,1101.5322 205.88818,1105.3535 Q203.4297,1109.1748 200.79053,1113.3706 Q198.15137,1117.5664 195.87549,1120.9741 Q193.59961,1124.3818 191.49365,1128.2012 Q189.3877,1132.0205 187.46094,1135.4346 Q185.53416,1138.8486 183.58008,1141.5249 Q181.62598,1144.2012 179.87158,1146.8711 Q178.11719,1149.541 176.18018,1152.5967 Q174.24316,1155.6523 172.67236,1158.3066 Q171.10156,1160.9609 169.15723,1164.8066 Q167.21289,1168.6523 165.64307,1172.8545 Q164.07324,1177.0566 162.49023,1180.8545 Q160.90723,1184.6523 159.69336,1188.4468 Q158.47949,1192.2412 157.06592,1196.0547 Q155.65234,1199.8682 154.79053,1203.6753 Q153.92871,1207.4824 153.4126,1211.6826 Q152.89648,1215.8828 152.55078,1219.6763 Q152.20508,1223.4697 151.67969,1227.999 Q151.1543,1232.5283 150.80273,1236.356 Q150.45117,1240.1836 150.27979,1244.77 Q150.1084,1249.3564 150.1128,1253.148 Q150.11719,1256.9395 150.29736,1261.1372 Q150.47754,1265.335 150.83398,1269.1426 Q151.19043,1272.9502 151.72314,1276.7637 Q152.25586,1280.5771 152.78223,1283.9888 Q153.3086,1287.4004 154.37402,1291.208 Q155.43945,1295.0156 156.31787,1298.0581 Q157.19629,1301.1006 158.6128,1305.3086 Q160.0293,1309.5165 161.06592,1312.1216 Q162.10254,1314.7267 163.72266,1318.624 Q165.34277,1322.5215 166.74268,1325.1484 Q168.14258,1327.7754 169.91211,1330.4414 Q171.68164,1333.1074 173.43848,1335.7715 Q175.19531,1338.4357 176.77148,1340.7081 Q178.34766,1342.9806 180.47559,1345.2666 Q182.60353,1347.5527 184.88965,1350.2261 Q187.17578,1352.8994 189.46533,1355.1768 Q191.75488,1357.454 195.30566,1360.1284 Q198.85645,1362.8027 202.01074,1365.0767 Q205.16504,1367.3506 208.33545,1369.2466 Q211.50584,1371.1426 214.66943,1373.0464 Q217.83301,1374.9502 220.81592,1376.4609 Q223.79883,1377.9717 227.51416,1379.8892 Q231.22948,1381.8066 234.74023,1383.7114 Q238.25098,1385.6162 241.94824,1387.1265 Q245.6455,1388.6367 248.60889,1389.7656 Q251.57227,1390.8945 254.9248,1392.0376 Q258.27734,1393.1807 261.79834,1394.3228 Q265.31934,1395.4648 269.7456,1396.6079 Q274.17188,1397.751 278.0205,1398.8936 Q281.86914,1400.0361 285.55518,1401.5732 Q289.2412,1403.1104 292.56885,1403.8452 Q295.89648,1404.5801 299.4048,1406.1245 Q302.9131,1407.669 305.71582,1408.4102 Q308.51855,1409.1514 311.14697,1410.3066 Q313.7754,1411.4619 316.77637,1411.8164 Q319.77734,1412.1709 322.94727,1412.9458 Q326.1172,1413.7208 328.91846,1414.0885 Q331.71973,1414.4562 335.2588,1414.8369 Q338.79785,1415.2178 343.0298,1415.5977 Q347.26172,1415.9775 350.93262,1416.3579 Q354.60352,1416.7383 358.83838,1417.5117 Q363.07324,1418.2852 366.73633,1418.6533 Q370.3994,1419.0215 373.56885,1419.4048 Q376.73828,1419.7882 379.89404,1419.7749 Q383.04977,1419.7616 386.03564,1420.1548 Q389.0215,1420.5479 392.19336,1420.5356 Q395.36523,1420.5236 398.52295,1420.1309 Q401.68066,1419.7383 404.67188,1419.75 Q407.66306,1419.7616 410.64938,1419.368 Q413.6357,1418.9745 416.26172,1418.5938 Q418.8877,1418.2129 422.0669,1417.8325 Q425.2461,1417.452 428.5962,1417.0708 Q431.9463,1416.6895 434.55908,1416.3081 Q437.17188,1415.9268 439.62646,1415.94 Q442.08105,1415.9531 444.8999,1415.56 Q447.71875,1415.167 449.8081,1415.1792 Q451.89746,1415.1915 454.0083,1415.5851 Q456.11914,1415.9786 458.04736,1416.3599 Q459.9756,1416.7412 462.27246,1417.1221 Q464.56934,1417.5029 466.12598,1417.8833 Q467.68262,1418.2637 469.44873,1418.645 Q471.21484,1419.0264 473.14844,1419.4062 Q475.08203,1419.7861 476.83496,1420.167 Q478.5879,1420.5479 480.34375,1421.3208 Q482.0996,1422.0936 483.47998,1422.0703 Q484.86035,1422.0469 486.81445,1422.8276 Q488.76855,1423.6084 491.2417,1423.9795 Q493.71484,1424.3506 495.4546,1424.7314 Q497.19434,1425.1123 499.49268,1425.4932 Q501.79102,1425.8741 504.97656,1426.645 Q508.16208,1427.416 510.96582,1427.7876 Q513.76953,1428.1592 516.583,1428.1499 Q519.3965,1428.1406 521.8696,1428.5342 Q524.3428,1428.9277 526.98535,1428.915 Q529.6279,1428.9023 532.083,1428.9023 Q534.5381,1428.9023 536.0908,1428.9023 Q537.64355,1428.9023 539.58887,1428.9023 Q541.5342,1428.9023 543.104,1428.9023 Q544.6738,1428.9023 546.2471,1429.2935 Q547.8203,1429.6846 549.9365,1429.6743 Q552.05273,1429.6641 553.8013,1430.0537 Q555.5498,1430.4434 557.84717,1430.4346 Q560.14453,1430.4258 561.7095,1430.8154 Q563.2744,1431.2051 565.57666,1431.1963 Q567.8789,1431.1874 569.625,1431.5771 Q571.3711,1431.9668 573.667,1431.958 Q575.9629,1431.9492 577.708,1431.9492 Q579.4531,1431.9492 581.95654,1431.9492 Q584.45996,1431.9492 587.0679,1431.9492 Q589.6758,1431.9492 592.1284,1432.3369 Q594.58105,1432.7245 596.8657,1433.106 Q599.1504,1433.4873 600.7368,1433.48 Q602.32324,1433.4727 604.6372,1433.4727 Q606.9512,1433.4727 608.3237,1433.4727 Q609.6963,1433.4727 611.28613,1433.0796 Q612.876,1432.6865 614.4595,1432.3052 Q616.04297,1431.9238 617.624,1431.9365 Q619.2051,1431.9492 620.9707,1431.1616 Q622.7363,1430.3739 624.4678,1430.0117 Q626.1992,1429.6494 628.86475,1428.4873 Q631.5303,1427.3252 633.9951,1425.7876 Q636.45996,1424.25 638.9165,1423.1201 Q641.37305,1421.9904 644.1924,1420.0679 Q647.0117,1418.1455 649.46387,1416.2417 Q651.916,1414.3379 655.104,1412.0386 Q658.292,1409.7393 661.27295,1407.0654 Q664.2539,1404.3916 666.8804,1402.1172 Q669.50684,1399.8428 671.96533,1397.165 Q674.4238,1394.4873 677.2344,1391.0532 Q680.0449,1387.6191 682.6758,1383.8052 Q685.30664,1379.9912 687.2241,1376.5737 Q689.1416,1373.1562 690.7217,1370.4976 Q692.30176,1367.8389 693.88525,1365.1699 Q695.46875,1362.5011 696.8677,1359.8413 Q698.2666,1357.1816 699.4956,1354.5093 Q700.7246,1351.8369 701.9541,1349.563 Q703.1836,1347.2891 704.41406,1344.6143 Q705.64453,1341.9395 706.875,1339.2734 Q708.10547,1336.6074 709.52734,1333.1338 Q710.9492,1329.6602 711.99316,1325.4453 Q713.0371,1321.2305 713.7295,1316.25 Q714.4219,1311.2697 714.39844,1307.1099 Q714.375,1302.9502 714.375,1296.0024 Q714.375,1289.0547 714.0122,1282.9912 Q713.6494,1276.9277 713.29785,1270.833 Q712.9463,1264.7383 712.7803,1258.7827 Q712.61426,1252.8271 712.43555,1245.8643 Q712.25684,1238.9014 711.90137,1232.0498 Q711.5459,1225.1982 711.374,1219.1221 Q711.20215,1213.0459 710.30664,1207.3408 Q709.41113,1201.6357 708.7119,1197.0913 Q708.0127,1192.5469 707.3096,1189.5381 Q706.60645,1186.5293 706.0835,1183.8726 Q705.56055,1181.2158 705.03516,1179.7256 Q704.50977,1178.2354 703.7949,1176.6943 Q703.0801,1175.1533 702.02344,1173.2529 Q700.9668,1171.3525 699.375,1169.0625 Q697.7832,1166.7725 696.0127,1164.0845 Q694.2422,1161.3965 691.94824,1158.3467 Q689.6543,1155.2969 687.36816,1152.2485 Q685.08203,1149.2002 682.438,1145.375 Q679.79395,1141.5498 677.5166,1138.9106 Q675.23926,1136.2715 672.4155,1132.0469 Q669.5918,1127.8223 667.49756,1124.8003 Q665.4033,1121.7783 663.1138,1118.7314 Q660.8242,1115.6846 658.8989,1113.0273 Q656.97363,1110.3701 655.0415,1107.3164 Q653.1094,1104.2627 651.896,1102.7759 Q650.6826,1101.2891 649.45654,1099.771 Q648.23047,1098.2529 647.35596,1097.1152 Q646.48145,1095.9775 644.70264,1094.0547 Q642.9238,1092.1318 641.166,1090.6177 Q639.4082,1089.1035 636.75,1086.7998 Q634.0918,1084.4961 630.91895,1082.2134 Q627.7461,1079.9307 624.93945,1078.4233 Q622.1328,1076.916 619.15137,1075.3984 Q616.1699,1073.8809 613.7207,1072.7466 Q611.2715,1071.6123 607.91406,1070.4692 Q604.55664,1069.3262 601.56885,1068.9595 Q598.58105,1068.5928 595.22266,1067.8203 Q591.86426,1067.0479 588.31396,1066.2798 Q584.7637,1065.5117 581.6128,1065.1436 Q578.4619,1064.7754 574.5698,1064.001 Q570.67773,1063.2266 567.3545,1062.8584 Q564.03125,1062.4902 560.50977,1062.1094 Q556.9883,1061.7285 553.8379,1061.7412 Q550.6875,1061.7539 545.93066,1061.7539 Q541.1738,1061.7539 536.6138,1061.7539 Q532.0537,1061.7539 527.8379,1061.7539 Q523.6221,1061.7539 519.22266,1062.5342 Q514.82324,1063.3145 510.61084,1063.686 Q506.39844,1064.0576 502.5464,1064.0483 Q498.69434,1064.0391 495.02246,1064.0391 Q491.35056,1064.0391 488.1748,1063.6489 Q484.99902,1063.2588 482.01758,1062.8779 Q479.03613,1062.4971 476.58057,1062.5063 Q474.125,1062.5156 471.2832,1062.5156 Q468.4414,1062.5156 465.80957,1062.5156 Q463.1777,1062.5156 460.1792,1062.5156 Q457.1807,1062.5156 454.00977,1062.5156 Q450.83887,1062.5156 447.68213,1062.9087 Q444.5254,1063.3018 441.54248,1063.2896 Q438.55957,1063.2773 434.47266,1062.8833 Q430.38574,1062.4893 427.43896,1062.5024 Q424.4922,1062.5156 420.77246,1062.5156 Q417.05273,1062.5156 414.08887,1062.1221 Q411.125,1061.7285 407.95264,1061.7412 Q404.78027,1061.7539 401.97998,1061.7539 Q399.1797,1061.7539 396.91846,1061.3608 Q394.65723,1060.9678 393.27686,1060.98 Q391.89648,1060.9922 390.854,1060.9922 Q389.81152,1060.9922 389.4834,1060.9922 Q389.15527,1060.9922 389.15527,1060.9922 Q389.15527,1060.9922 389.15527,1060.9922 Q389.15527,1060.9922 389.15527,1060.9922 Q389.15527,1060.9922 388.8042,1061.3857 Q388.45312,1061.7793 386.82812,1063.3428 L385.2031,1064.9062 " fill="none" stroke="#000000" stroke-width="16.8" stroke-linecap="round"/><path d="M321.6797,1236.9492 Q321.6797,1236.9492 321.6797,1236.9492 Q321.6797,1236.9492 321.6797,1236.9492 Q321.6797,1236.9492 321.6797,1236.9492 Q321.6797,1236.9492 321.6797,1236.9492 Q321.6797,1236.9492 321.6797,1236.9492 Q321.6797,1236.9492 321.6797,1236.9492 Q321.6797,1236.9492 321.6797,1236.9492 Q321.6797,1236.9492 321.6797,1236.9492 Q321.6797,1236.9492 321.6797,1236.9492 Q321.6797,1236.9492 321.6797,1236.9492 Q321.6797,1236.9492 321.6797,1236.9492 Q321.6797,1236.9492 321.6797,1236.9492 Q321.6797,1236.9492 327.0288,1238.0713 Q332.37793,1239.1934 335.55225,1239.584 Q338.72656,1239.9746 342.7456,1240.3555 Q346.76465,1240.7363 351.1548,1241.1177 Q355.54492,1241.499 359.76953,1241.8799 Q363.99414,1242.2607 368.8838,1242.271 Q373.77344,1242.2812 378.1914,1242.2812 Q382.6094,1242.2812 386.49414,1242.2812 Q390.3789,1242.2812 395.1001,1242.2812 Q399.8213,1242.2812 403.88135,1242.2812 Q407.9414,1242.2812 411.64502,1241.9106 Q415.34866,1241.54 418.8755,1241.5298 Q422.40234,1241.5195 426.08252,1241.1489 Q429.76273,1240.7783 433.10352,1240.3984 Q436.44434,1240.0186 440.47217,1239.6372 Q444.5,1239.2559 448.0332,1239.2451 Q451.5664,1239.2344 455.03906,1238.8687 Q458.5117,1238.5029 461.81885,1238.4878 Q465.12598,1238.4727 468.67432,1238.1069 Q472.22263,1237.7412 475.37988,1237.7261 Q478.5371,1237.7109 481.53223,1237.7109 Q484.5273,1237.7109 487.68652,1238.0747 Q490.8457,1238.4385 493.80273,1238.4556 Q496.7598,1238.4727 499.80273,1238.8384 Q502.8457,1239.2041 505.3418,1239.5869 Q507.83792,1239.9697 509.938,1240.3467 Q512.0381,1240.7236 513.98047,1240.7407 Q515.92285,1240.7578 517.8657,1241.1235 Q519.8086,1241.4893 521.9004,1241.8682 Q523.9922,1242.2471 526.0864,1242.6255 Q528.18066,1243.0039 530.791,1243.0234 Q533.40137,1243.043 535.54395,1243.4053 Q537.6865,1243.7676 539.3086,1244.1519 Q540.93066,1244.5361 542.5044,1244.915 Q544.0781,1245.294 545.83594,1245.311 Q547.59375,1245.3281 548.84326,1245.6934 Q550.0928,1246.0586 551.3096,1246.0742 Q552.52637,1246.0898 553.0952,1246.0898 Q553.66406,1246.0898 554.86035,1246.0898 Q556.05664,1246.0898 556.61914,1246.0898 Q557.18164,1246.0898 557.874,1245.727 Q558.5664,1245.3643 558.7671,1245.3462 Q558.9678,1245.3281 559.14453,1245.3281 Q559.3213,1245.3281 560.1758,1245.3281 Q561.0303,1245.3281 564.083,1244.9644 Q567.13574,1244.6006 567.2788,1244.5835 L567.4219,1244.5664 " fill="none" stroke="#000000" stroke-width="16.8" stroke-linecap="round"/><path d="M433.47656,1152.3984 Q433.47656,1152.3984 433.47656,1152.3984 Q433.47656,1152.3984 433.47656,1152.3984 Q433.47656,1152.3984 433.47656,1152.3984 Q433.47656,1152.3984 433.47656,1152.3984 Q433.47656,1152.3984 433.47656,1152.3984 Q433.47656,1152.3984 433.47656,1152.3984 Q433.47656,1152.3984 433.47656,1152.3984 Q433.47656,1152.3984 433.47656,1152.3984 Q433.47656,1152.3984 433.47656,1152.3984 Q433.47656,1152.3984 433.47656,1152.3984 Q433.47656,1152.3984 433.47656,1152.3984 Q433.47656,1152.3984 433.47656,1152.3984 Q433.47656,1152.3984 433.47656,1152.7817 Q433.47656,1153.165 434.35547,1158.8755 Q435.23438,1164.5859 435.7666,1168.8154 Q436.29886,1173.0449 437.0044,1178.7764 Q437.70996,1184.5078 438.41113,1189.4365 Q439.1123,1194.3652 439.45996,1199.3008 Q439.80762,1204.2363 440.5205,1209.2476 Q441.23337,1214.2588 441.5791,1218.4312 Q441.9248,1222.6035 442.2749,1226.7769 Q442.625,1230.9502 442.9756,1234.3599 Q443.3262,1237.7695 443.6787,1240.8203 Q444.03125,1243.8711 444.20605,1246.9341 Q444.3809,1249.9971 444.55762,1253.8418 Q444.73438,1257.6865 445.0879,1260.6973 Q445.4414,1263.708 445.79346,1267.147 Q446.1455,1270.5859 446.31787,1273.627 Q446.49026,1276.668 446.6641,1280.063 Q446.83792,1283.458 447.18018,1289.7686 Q447.52246,1296.0791 448.03564,1298.7725 Q448.54883,1301.4658 449.07324,1304.4805 Q449.59766,1307.4951 449.95752,1309.8174 Q450.3174,1312.1396 450.5005,1314.4097 Q450.6836,1316.6798 451.02637,1318.248 Q451.36914,1319.8164 451.71875,1321.3315 Q452.06836,1322.8467 452.25488,1323.6538 Q452.4414,1324.4609 452.45117,1324.8647 Q452.46094,1325.2687 452.46094,1325.651 Q452.46094,1326.0333 452.46094,1326.0518 Q452.46094,1326.0702 452.46094,1326.0702 Q452.46094,1326.0702 452.46094,1326.0702 L452.46094,1326.0702 " fill="none" stroke="#000000" stroke-width="16.8" stroke-linecap="round"/><path d="M789.15295,1438.4258 Q789.15295,1438.4258 789.15295,1438.4258 Q789.15295,1438.4258 789.15295,1438.4258 Q789.15295,1438.4258 789.15295,1438.4258 Q789.15295,1438.4258 789.15295,1438.4258 Q789.15295,1438.4258 789.15295,1438.4258 Q789.15295,1438.4258 789.15295,1438.4258 Q789.15295,1438.4258 789.15295,1438.4258 Q789.15295,1438.4258 789.15295,1438.4258 Q789.15295,1438.4258 789.15295,1438.4258 Q789.15295,1438.4258 789.15295,1438.4258 Q789.15295,1438.4258 789.15295,1438.4258 Q789.15295,1438.4258 789.15295,1438.4258 Q789.15295,1438.4258 789.15295,1438.4258 Q789.15295,1438.4258 789.15295,1438.4258 Q789.15295,1438.4258 789.15295,1438.4258 Q789.15295,1438.4258 789.15295,1438.4258 Q789.15295,1438.4258 789.15295,1438.4258 Q789.15295,1438.4258 789.15295,1438.4258 Q789.15295,1438.4258 789.15295,1438.4258 Q789.15295,1438.4258 789.15295,1438.4258 Q789.15295,1438.4258 789.15295,1438.4258 Q789.15295,1438.4258 789.15295,1437.9496 Q789.15295,1437.4734 789.15295,1437.2274 Q789.15295,1436.9814 789.15295,1436.7365 Q789.15295,1436.4915 789.15295,1436.4785 Q789.15295,1436.4657 789.15295,1436.4657 Q789.15295,1436.4657 789.15295,1435.9756 Q789.15295,1435.4856 789.15295,1435.4856 Q789.15295,1435.4856 789.2601,1434.7632 Q789.3672,1434.0408 789.3731,1433.564 Q789.379,1433.087 789.379,1432.5955 Q789.379,1432.1039 789.379,1431.6157 Q789.379,1431.1277 789.379,1430.8691 Q789.379,1430.6106 789.379,1430.1318 Q789.379,1429.6531 789.379,1429.3977 Q789.379,1429.1425 789.48584,1428.8977 Q789.59265,1428.6531 789.59894,1428.1719 Q789.6052,1427.6906 789.6052,1427.1984 Q789.6052,1426.7062 789.7136,1426.4508 Q789.822,1426.1954 789.93414,1425.7205 Q790.04626,1425.2455 790.05194,1424.9901 Q790.0576,1424.7347 790.0576,1424.4888 Q790.0576,1424.2429 790.0576,1423.9963 Q790.0576,1423.7498 790.0576,1423.507 Q790.0576,1423.2642 790.0576,1423.0172 Q790.0576,1422.7703 790.0576,1422.7578 Q790.0576,1422.7452 790.0576,1422.7452 Q790.0576,1422.7452 790.16534,1422.0334 Q790.2731,1421.3217 790.3865,1421.0645 Q790.4999,1420.8071 790.5049,1420.3278 Q790.5099,1419.8484 790.5099,1419.3577 Q790.5099,1418.8671 790.5099,1418.6133 Q790.5099,1418.3595 790.5099,1417.8839 Q790.5099,1417.4083 790.5099,1417.1482 Q790.5099,1416.8882 790.5099,1416.4116 Q790.5099,1415.9352 790.5099,1415.6776 Q790.5099,1415.42 790.5099,1414.709 Q790.5099,1413.9978 790.5099,1413.498 Q790.5099,1412.9982 790.5099,1411.8071 Q790.5099,1410.616 790.5099,1410.0917 Q790.5099,1409.5674 790.40247,1408.6096 Q790.29504,1407.652 790.18164,1406.9031 Q790.06824,1406.1543 789.9558,1405.424 Q789.8434,1404.6936 789.7297,1403.7211 Q789.61597,1402.7485 789.39667,1401.5424 Q789.17737,1400.3362 788.94995,1399.1042 Q788.72253,1397.8723 788.6051,1396.891 Q788.4877,1395.9097 788.3733,1394.9192 Q788.2589,1393.9288 788.1468,1393.187 Q788.03467,1392.4451 787.92126,1391.7085 Q787.80786,1390.9718 787.58795,1389.774 Q787.36804,1388.5763 787.2484,1387.5786 Q787.1288,1386.581 787.0151,1385.5955 Q786.90137,1384.6097 786.78955,1383.6398 Q786.67773,1382.6698 786.564,1381.4519 Q786.4503,1380.2341 786.3375,1379.0125 Q786.22473,1377.7909 786.1113,1376.564 Q785.9979,1375.337 785.8845,1374.1079 Q785.7711,1372.8788 785.7658,1371.6415 Q785.7605,1370.4042 785.7605,1368.958 Q785.7605,1367.5118 785.7605,1366.0386 Q785.7605,1364.5654 785.8673,1363.1111 Q785.9741,1361.6567 785.98035,1359.244 Q785.9866,1356.8313 785.9866,1354.6033 Q785.9866,1352.3752 785.87915,1350.419 Q785.7717,1348.4626 785.659,1346.5042 Q785.54626,1344.5457 785.4335,1342.3597 Q785.3207,1340.1738 785.3144,1337.9644 Q785.3081,1335.7548 785.414,1334.2605 Q785.5199,1332.7664 785.6348,1331.0391 Q785.74976,1329.3116 785.7551,1328.0627 Q785.7605,1326.8138 785.8682,1324.8896 Q785.97595,1322.9653 786.08905,1321.471 Q786.20215,1319.9767 786.4201,1318.5277 Q786.63806,1317.0787 786.75903,1315.5927 Q786.88,1314.1066 786.8856,1312.3909 Q786.89124,1310.6753 787.10864,1308.9546 Q787.32605,1307.2338 787.33484,1304.581 Q787.3436,1301.9283 787.3436,1299.7065 Q787.3436,1297.4849 787.45166,1295.0527 Q787.5597,1292.6205 787.6731,1289.9266 Q787.7865,1287.2328 787.7912,1285.0269 Q787.7959,1282.8208 787.7959,1280.8544 Q787.7959,1278.888 787.68787,1276.4453 Q787.57983,1274.0028 787.5748,1272.4904 Q787.5698,1270.9779 787.5698,1269.2805 Q787.5698,1267.583 787.46173,1266.0901 Q787.35364,1264.597 787.2412,1262.9031 Q787.1288,1261.209 787.016,1259.4971 Q786.9032,1257.7852 786.7901,1256.3029 Q786.677,1254.8206 786.56396,1253.8167 Q786.4509,1252.8126 786.2295,1251.5935 Q786.00806,1250.3745 785.67535,1248.9209 Q785.34265,1247.4672 785.21893,1246.0093 Q785.0952,1244.5514 784.8744,1243.3047 Q784.65356,1242.058 784.42834,1241.0686 Q784.2031,1240.0791 783.9769,1238.8676 Q783.75073,1237.656 783.4159,1236.4247 Q783.08105,1235.1934 782.6353,1233.5062 Q782.1896,1231.8191 781.84406,1230.3346 Q781.49854,1228.8501 781.0324,1225.6357 Q780.5663,1222.4214 780.4529,1220.7133 Q780.3395,1219.0051 780.336,1217.3374 Q780.3325,1215.6698 780.2245,1213.6934 Q780.11646,1211.717 780.00244,1210.2134 Q779.8884,1208.7097 779.88434,1207.2396 Q779.88025,1205.7695 779.88025,1204.533 Q779.88025,1203.2963 779.88025,1201.8322 Q779.88025,1200.368 779.88025,1199.3729 Q779.88025,1198.3778 779.88025,1196.9165 Q779.88025,1195.4553 779.88025,1193.7496 Q779.88025,1192.044 779.88025,1190.5667 Q779.88025,1189.0895 779.88025,1187.62 Q779.88025,1186.1505 779.88025,1184.6812 Q779.88025,1183.2117 779.9889,1182.4617 Q780.09753,1181.7115 780.102,1180.494 Q780.10645,1179.2765 780.21606,1178.292 Q780.3257,1177.3076 780.4387,1176.5645 Q780.55176,1175.8212 780.77386,1174.6134 Q780.996,1173.4056 781.2225,1171.9431 Q781.449,1170.4806 781.5658,1169.7197 Q781.6826,1168.959 782.01526,1167.5103 Q782.3479,1166.0616 782.68713,1164.8301 Q783.02637,1163.5984 783.14606,1162.8489 Q783.26575,1162.0994 783.37946,1161.8384 Q783.49316,1161.5773 783.60565,1161.3333 Q783.71814,1161.0892 783.9418,1160.6052 Q784.1654,1160.1211 784.2813,1159.8699 Q784.3972,1159.6185 784.5103,1159.135 Q784.6234,1158.6516 784.73645,1158.1614 Q784.8495,1157.671 784.9626,1157.1816 Q785.0757,1156.6923 785.07886,1156.2047 Q785.08203,1155.7172 785.1907,1155.4653 Q785.2993,1155.2134 785.63135,1154.2578 Q785.9634,1153.3022 786.3004,1152.3281 Q786.63745,1151.3541 786.75995,1150.844 Q786.88245,1150.3339 787.2098,1149.6143 Q787.5371,1148.8947 787.767,1148.3965 Q787.99695,1147.8982 788.334,1147.1682 Q788.671,1146.4382 788.901,1145.7067 Q789.131,1144.9751 789.46735,1143.9991 Q789.8037,1143.0232 790.13983,1142.0529 Q790.47595,1141.0825 790.9207,1139.8748 Q791.3655,1138.667 791.8197,1137.6697 Q792.2739,1136.6724 792.4037,1135.9263 Q792.53345,1135.1803 792.8601,1134.4471 Q793.18677,1133.714 793.5273,1132.9762 Q793.8678,1132.2384 793.9915,1131.9701 Q794.11523,1131.7018 794.1219,1131.4558 Q794.12854,1131.21 794.12854,1131.1968 Q794.12854,1131.1835 794.12854,1131.1835 Q794.12854,1131.1835 794.3547,1130.6935 Q794.5808,1130.2035 794.5808,1130.2035 Q794.5808,1130.2035 794.91565,1129.2329 Q795.2505,1128.2622 795.4719,1127.7826 Q795.69336,1127.303 795.81116,1126.8126 Q795.92896,1126.3223 796.15137,1125.8307 Q796.3738,1125.3391 796.708,1124.1436 Q797.04224,1122.9481 797.27246,1122.4307 Q797.5027,1121.9133 797.7292,1121.1868 Q797.9557,1120.4603 798.17993,1119.9646 Q798.4042,1119.4689 798.52264,1119.2126 Q798.6411,1118.9563 798.97314,1118.2366 Q799.3052,1117.517 799.4258,1117.256 Q799.5464,1116.995 799.5514,1116.7534 Q799.5564,1116.5118 799.7659,1116.0432 Q799.97546,1115.5746 799.99207,1115.5388 Q800.00867,1115.5029 800.00867,1115.5029 Q800.00867,1115.5029 800.00867,1115.5029 Q800.00867,1115.5029 800.00867,1115.5029 Q800.00867,1115.5029 800.00867,1115.5029 Q800.00867,1115.5029 800.337,1115.0249 Q800.6653,1114.5468 800.8902,1114.3032 Q801.1151,1114.0598 801.2357,1113.8118 Q801.3563,1113.5636 801.46906,1113.3192 Q801.5818,1113.0748 802.12335,1112.5989 Q802.6649,1112.123 802.9102,1111.6293 Q803.1555,1111.1355 803.2717,1111.1141 Q803.38794,1111.0928 803.71716,1110.8596 Q804.0464,1110.6266 804.38434,1110.1504 Q804.7223,1109.6742 805.38226,1109.1848 Q806.04224,1108.6954 806.4038,1108.4343 Q806.7654,1108.1733 807.4294,1107.459 Q808.0934,1106.7448 808.7675,1106.2476 Q809.44165,1105.7502 810.22314,1105.2631 Q811.00464,1104.7759 811.6863,1104.5186 Q812.3679,1104.2614 813.2732,1103.7783 Q814.17847,1103.2952 815.19214,1102.8048 Q816.2058,1102.3145 817.21063,1102.0619 Q818.21545,1101.8093 819.5445,1101.3363 Q820.87354,1100.8633 822.69226,1100.5979 Q824.511,1100.3324 825.6534,1100.3223 Q826.7958,1100.3123 828.2665,1100.0776 Q829.7372,1099.843 830.87775,1099.5989 Q832.0183,1099.3549 833.6822,1099.3435 Q835.34607,1099.3323 837.0473,1099.0989 Q838.74854,1098.8655 840.33075,1098.8539 Q841.91296,1098.8423 843.618,1098.8423 Q845.323,1098.8423 846.9058,1098.8423 Q848.48865,1098.8423 850.062,1098.8423 Q851.6354,1098.8423 853.28705,1098.8423 Q854.9387,1098.8423 856.13544,1098.8423 Q857.33215,1098.8423 858.3581,1098.8423 Q859.38403,1098.8423 860.40173,1098.8423 Q861.41943,1098.8423 862.3301,1098.8423 Q863.2407,1098.8423 864.3656,1098.8423 Q865.4905,1098.8423 866.5154,1098.6082 Q867.5403,1098.3741 868.55896,1098.3633 Q869.57764,1098.3523 871.1275,1098.3523 Q872.67737,1098.3523 874.05383,1098.3523 Q875.4303,1098.3523 877.00366,1098.3523 Q878.577,1098.3523 879.61707,1098.5863 Q880.6571,1098.8203 882.08636,1098.8313 Q883.5156,1098.8423 884.7887,1099.0759 Q886.06177,1099.3097 887.4084,1099.5537 Q888.755,1099.7977 890.2166,1100.2747 Q891.6782,1100.7515 893.27325,1101.2471 Q894.8683,1101.7428 895.9068,1102.2316 Q896.9453,1102.7203 898.7175,1103.4437 Q900.48975,1104.1671 902.2953,1104.6669 Q904.1008,1105.1666 905.91675,1105.6584 Q907.73267,1106.1504 909.11005,1106.4061 Q910.4874,1106.6619 911.95087,1107.1409 Q913.4143,1107.6199 914.8457,1108.0969 Q916.2771,1108.5741 917.99976,1109.0764 Q919.7224,1109.5787 921.1014,1110.0713 Q922.48035,1110.5637 924.0528,1111.0532 Q925.62524,1111.5426 926.6669,1111.798 Q927.7085,1112.0533 929.3761,1112.533 Q931.0437,1113.0127 932.091,1113.5033 Q933.1383,1113.9939 934.55804,1114.4733 Q935.9778,1114.9526 936.82153,1115.2158 Q937.6653,1115.479 938.45593,1115.7236 Q939.2466,1115.9684 939.82043,1116.2124 Q940.3943,1116.4565 941.06525,1116.7009 Q941.7362,1116.9453 941.88196,1116.9591 Q942.0277,1116.9729 942.78284,1117.4369 Q943.53796,1117.9009 944.4401,1118.3928 Q945.3423,1118.8846 945.49365,1119.1406 Q945.645,1119.3967 946.61725,1120.1075 Q947.5895,1120.8184 948.6069,1121.7855 Q949.62427,1122.7527 950.3229,1123.2698 Q951.0215,1123.7867 951.59033,1124.2751 Q952.1592,1124.7637 952.9451,1125.4917 Q953.7311,1126.2198 954.41455,1126.9548 Q955.098,1127.69 955.77496,1128.6571 Q956.4519,1129.6243 957.3452,1130.8367 Q958.2385,1132.0492 958.7113,1132.8062 Q959.1841,1133.5632 960.0677,1135.2324 Q960.9513,1136.9017 961.4246,1137.916 Q961.89795,1138.9302 962.6729,1140.6091 Q963.4479,1142.2882 963.9143,1143.5305 Q964.38074,1144.7728 964.72626,1145.5349 Q965.0718,1146.2969 965.62933,1147.5046 Q966.1869,1148.7124 966.643,1149.7007 Q967.0991,1150.6888 967.3369,1151.438 Q967.5747,1152.1871 967.9108,1152.9265 Q968.24695,1153.666 968.5849,1154.6328 Q968.92285,1155.5997 969.04474,1156.1067 Q969.1666,1156.6136 969.27875,1157.0996 Q969.39087,1157.5856 969.6126,1158.0806 Q969.83435,1158.5757 969.95245,1158.832 Q970.07056,1159.0883 970.29297,1159.5696 Q970.5154,1160.0508 970.7428,1160.544 Q970.9702,1161.0371 970.979,1161.2915 Q970.9878,1161.5459 971.0965,1161.7909 Q971.2052,1162.0359 971.3183,1162.5168 Q971.4314,1162.9977 971.5448,1163.2524 Q971.6582,1163.5072 971.88184,1164.2294 Q972.10547,1164.9515 972.222,1165.6873 Q972.3385,1166.4229 972.4513,1167.1572 Q972.5641,1167.8917 972.6772,1168.3889 Q972.7903,1168.8861 972.7937,1169.3767 Q972.7971,1169.8674 972.7971,1170.1194 Q972.7971,1170.3713 972.90704,1170.8545 Q973.01697,1171.3375 973.02014,1171.5894 Q973.0233,1171.8413 973.0233,1172.8007 Q973.0233,1173.76 973.0233,1174.2622 Q973.0233,1174.7645 973.1323,1175.4879 Q973.24133,1176.2113 973.3541,1176.9441 Q973.4669,1177.677 973.6893,1178.4142 Q973.9116,1179.1514 974.13745,1180.1213 Q974.3633,1181.0914 974.4808,1182.0724 Q974.59827,1183.0533 974.60236,1183.7981 Q974.60645,1184.5428 974.60645,1185.041 Q974.60645,1185.5393 974.49744,1186.9745 Q974.3884,1188.4097 974.38434,1189.4058 Q974.38025,1190.4019 974.38025,1190.6748 Q974.38025,1190.9478 974.2713,1191.9011 Q974.16235,1192.8544 974.15826,1193.3617 Q974.1542,1193.869 974.1542,1194.36 Q974.1542,1194.851 974.1542,1195.1047 Q974.1542,1195.3585 974.1542,1195.3673 Q974.1542,1195.3761 974.1542,1195.3761 Q974.1542,1195.3761 974.1542,1196.1017 Q974.1542,1196.8273 974.1542,1197.311 Q974.1542,1197.7948 974.1542,1198.0483 Q974.1542,1198.3018 974.1542,1198.5471 Q974.1542,1198.7925 974.1542,1199.0375 Q974.1542,1199.2825 974.0442,1199.7656 Q973.9342,1200.2487 973.9311,1200.2625 Q973.928,1200.2762 973.928,1200.2762 Q973.928,1200.2762 973.8149,1201.0112 Q973.7018,1201.7463 973.7018,1201.7463 Q973.7018,1201.7463 973.5887,1202.4719 Q973.4756,1203.1975 973.4756,1203.4417 Q973.4756,1203.6857 973.36725,1204.1656 Q973.2589,1204.6456 973.2542,1204.666 Q973.2495,1204.6865 973.2495,1204.6865 Q973.2495,1204.6865 973.2495,1205.1671 Q973.2495,1205.6477 973.2495,1205.8923 Q973.2495,1206.1371 973.2495,1206.1467 Q973.2495,1206.1565 973.2495,1206.1565 Q973.2495,1206.1565 973.2495,1206.6371 Q973.2495,1207.1177 973.2495,1207.1272 Q973.2495,1207.1366 973.2495,1207.1366 Q973.2495,1207.1366 973.2495,1207.3816 Q973.2495,1207.6266 973.2495,1207.6266 Q973.2495,1207.6266 973.2495,1207.6266 Q973.2495,1207.6266 973.2495,1207.8716 Q973.2495,1208.1166 973.2495,1208.1166 Q973.2495,1208.1166 973.2495,1208.1166 Q973.2495,1208.1166 973.2495,1208.6067 Q973.2495,1209.0967 973.2495,1209.0967 Q973.2495,1209.0967 973.1364,1209.5791 Q973.0233,1210.0616 972.9137,1210.3066 Q972.8041,1210.5516 972.8006,1210.7938 Q972.7971,1211.036 972.7971,1211.0464 Q972.7971,1211.0568 972.7971,1211.0568 Q972.7971,1211.0568 972.7971,1211.0568 Q972.7971,1211.0568 972.7971,1211.3018 Q972.7971,1211.5468 972.7971,1211.5468 Q972.7971,1211.5468 972.7971,1211.7917 Q972.7971,1212.0367 972.7971,1212.0367 Q972.7971,1212.0367 972.7971,1212.2817 Q972.7971,1212.5267 972.7971,1212.5267 Q972.7971,1212.5267 972.7971,1212.5267 Q972.7971,1212.5267 972.7971,1213.2617 Q972.7971,1213.9968 972.7971,1213.9968 Q972.7971,1213.9968 972.7971,1214.4749 Q972.7971,1214.953 972.7971,1215.1968 Q972.7971,1215.4406 972.7971,1215.4537 Q972.7971,1215.4669 972.7971,1215.4669 Q972.7971,1215.4669 972.7971,1215.4669 Q972.7971,1215.4669 972.7971,1215.4669 Q972.7971,1215.4669 972.7971,1215.4669 Q972.7971,1215.4669 972.7971,1215.4669 Q972.7971,1215.4669 972.7971,1215.4669 Q972.7971,1215.4669 972.7971,1215.4669 Q972.7971,1215.4669 972.7971,1215.4669 Q972.7971,1215.4669 972.7971,1215.4669 Q972.7971,1215.4669 972.7971,1215.9463 Q972.7971,1216.4255 972.7971,1216.4363 Q972.7971,1216.4469 972.7971,1216.4469 Q972.7971,1216.4469 972.7971,1216.4469 Q972.7971,1216.4469 972.7971,1216.4469 Q972.7971,1216.4469 972.7971,1216.6919 Q972.7971,1216.937 972.7971,1216.937 Q972.7971,1216.937 972.7971,1216.937 Q972.7971,1216.937 972.7971,1216.937 Q972.7971,1216.937 972.7971,1216.937 Q972.7971,1216.937 972.7971,1216.937 Q972.7971,1216.937 972.7971,1216.937 Q972.7971,1216.937 972.7971,1216.937 Q972.7971,1216.937 972.7971,1216.937 Q972.7971,1216.937 972.7971,1216.937 Q972.7971,1216.937 972.7971,1216.937 Q972.7971,1216.937 972.7971,1216.937 Q972.7971,1216.937 972.7971,1216.937 Q972.7971,1216.937 972.7971,1216.937 Q972.7971,1216.937 972.7971,1216.937 Q972.7971,1216.937 972.7971,1217.182 Q972.7971,1217.427 972.7971,1217.427 Q972.7971,1217.427 972.7971,1217.427 Q972.7971,1217.427 972.7971,1217.917 Q972.7971,1218.407 972.7971,1218.407 Q972.7971,1218.407 972.6841,1219.361 Q972.57104,1220.315 972.57104,1220.3411 Q972.57104,1220.3671 972.57104,1220.3671 Q972.57104,1220.3671 972.57104,1220.3671 Q972.57104,1220.3671 972.57104,1220.3671 Q972.57104,1220.3671 972.57104,1220.3671 Q972.57104,1220.3671 972.4636,1220.8445 Q972.3562,1221.322 972.2431,1221.8008 Q972.13,1222.2794 972.1243,1222.5352 Q972.11865,1222.7908 972.11865,1222.804 Q972.11865,1222.8173 972.11865,1222.8173 Q972.11865,1222.8173 972.00555,1223.3073 Q971.89246,1223.7972 971.89246,1223.7972 Q971.89246,1223.7972 971.89246,1224.0422 Q971.89246,1224.2872 971.89246,1224.2872 Q971.89246,1224.2872 971.89246,1224.2872 Q971.89246,1224.2872 971.89246,1224.5322 Q971.89246,1224.7773 971.89246,1224.7773 Q971.89246,1224.7773 971.89246,1225.0223 Q971.89246,1225.2673 971.89246,1225.2673 Q971.89246,1225.2673 971.7844,1225.9813 Q971.6764,1226.6953 971.6714,1226.9485 Q971.6664,1227.2017 971.6664,1227.2146 Q971.6664,1227.2274 971.6664,1227.2274 Q971.6664,1227.2274 971.6664,1227.2274 Q971.6664,1227.2274 971.44586,1227.7056 Q971.22534,1228.1836 971.11224,1228.6616 Q970.99915,1229.1396 970.99347,1229.3992 Q970.9878,1229.6587 970.9878,1229.9009 Q970.9878,1230.143 970.9878,1230.3883 Q970.9878,1230.6337 970.9878,1230.6455 Q970.9878,1230.6575 970.9878,1230.6575 Q970.9878,1230.6575 970.9878,1230.6575 Q970.9878,1230.6575 970.9878,1230.6575 Q970.9878,1230.6575 970.9878,1230.6575 Q970.9878,1230.6575 970.9878,1230.6575 Q970.9878,1230.6575 970.9878,1230.6575 Q970.9878,1230.6575 970.9878,1230.9026 Q970.9878,1231.1476 970.9878,1231.1476 Q970.9878,1231.1476 970.9878,1231.1476 Q970.9878,1231.1476 970.9878,1231.1476 Q970.9878,1231.1476 970.9878,1231.1476 Q970.9878,1231.1476 970.9878,1231.3926 Q970.9878,1231.6376 970.9878,1231.6376 Q970.9878,1231.6376 970.9878,1231.6376 Q970.9878,1231.6376 970.87476,1232.1276 Q970.7617,1232.6176 970.7617,1232.6176 Q970.7617,1232.6176 970.7617,1232.6176 Q970.7617,1232.6176 970.7617,1232.6176 Q970.7617,1232.6176 970.7617,1232.6176 Q970.7617,1232.6176 970.7617,1232.6176 Q970.7617,1232.6176 970.7617,1232.8625 Q970.7617,1233.1077 970.7617,1233.1077 Q970.7617,1233.1077 970.7617,1233.1077 Q970.7617,1233.1077 970.4344,1234.0493 Q970.10706,1234.9911 970.09515,1235.0294 Q970.08325,1235.0677 970.08325,1235.0677 Q970.08325,1235.0677 969.85706,1235.5577 Q969.63086,1236.0477 969.63086,1236.0477 Q969.63086,1236.0477 969.4047,1236.5378 Q969.1786,1237.0278 969.1786,1237.0278 Q969.1786,1237.0278 969.1786,1237.2728 Q969.1786,1237.5178 969.1786,1237.5178 Q969.1786,1237.5178 969.0655,1237.7628 Q968.9524,1238.0078 968.9524,1238.0078 Q968.9524,1238.0078 968.9524,1238.0078 Q968.9524,1238.0078 968.9524,1238.0078 Q968.9524,1238.0078 968.9524,1238.0078 Q968.9524,1238.0078 968.9524,1238.0078 Q968.9524,1238.0078 968.9524,1238.0078 Q968.9524,1238.0078 968.9524,1238.0078 Q968.9524,1238.0078 968.9524,1238.0078 Q968.9524,1238.0078 968.9524,1238.0078 Q968.9524,1238.0078 968.9524,1238.0078 Q968.9524,1238.0078 968.73254,1238.4844 Q968.5127,1238.9608 968.50635,1238.9744 Q968.5,1238.9878 968.5,1238.9878 Q968.5,1238.9878 968.38696,1239.2329 Q968.2739,1239.4779 968.2739,1239.4779 Q968.2739,1239.4779 968.1652,1240.1934 Q968.0565,1240.9089 968.0521,1240.9285 Q968.0477,1240.9479 968.0477,1240.9479 Q968.0477,1240.9479 968.0477,1240.9479 Q968.0477,1240.9479 968.0477,1241.1929 Q968.0477,1241.438 968.0477,1241.438 Q968.0477,1241.438 968.0477,1241.438 Q968.0477,1241.438 967.8216,1242.173 Q967.59546,1242.908 967.59546,1242.908 Q967.59546,1242.908 967.37396,1243.8569 Q967.15247,1244.8059 966.7168,1245.7705 Q966.2811,1246.7351 965.9365,1247.4817 Q965.5919,1248.2284 965.4676,1248.7332 Q965.34326,1249.238 965.01276,1249.7288 Q964.68225,1250.2194 964.56104,1250.4719 Q964.4398,1250.7244 964.1122,1251.2021 Q963.78455,1251.6799 963.6589,1251.9395 Q963.5332,1252.199 963.31274,1252.4426 Q963.0923,1252.6864 962.8674,1252.9302 Q962.64246,1253.174 961.98846,1253.6504 Q961.3345,1254.127 960.7631,1254.617 Q960.1918,1255.1069 960.0545,1255.3652 Q959.91724,1255.6234 959.26984,1255.8678 Q958.62244,1256.1122 958.368,1256.3613 Q958.1135,1256.6104 957.3471,1257.0887 Q956.5807,1257.5671 956.0065,1258.0562 Q955.43225,1258.5453 954.8681,1258.8007 Q954.30396,1259.056 953.6264,1259.3026 Q952.94885,1259.5492 952.3809,1260.0278 Q951.813,1260.5066 951.2479,1260.762 Q950.68286,1261.0173 949.68146,1261.7332 Q948.68005,1262.4491 947.771,1262.9492 Q946.86194,1263.4492 945.4139,1263.9396 Q943.9658,1264.4299 942.9299,1264.9199 Q941.8939,1265.4099 940.4405,1265.9003 Q938.98706,1266.3906 937.63446,1266.6438 Q936.28186,1266.897 934.809,1267.3785 Q933.3362,1267.8601 932.29987,1268.3503 Q931.26355,1268.8407 929.48944,1269.3295 Q927.71533,1269.8182 926.56476,1270.3044 Q925.4142,1270.7908 923.6379,1271.281 Q921.8616,1271.7714 920.26807,1272.4941 Q918.67456,1273.2169 917.52734,1273.7164 Q916.3801,1274.216 914.9255,1274.7069 Q913.4708,1275.1979 912.5376,1275.6873 Q911.6044,1276.1765 910.5901,1276.6678 Q909.5758,1277.1592 908.1243,1277.6506 Q906.67285,1278.1422 905.21094,1278.6294 Q903.749,1279.1167 902.1552,1279.3774 Q900.5614,1279.6381 898.78253,1279.8806 Q897.00366,1280.123 895.3298,1280.3638 Q893.6559,1280.6044 892.03784,1280.8538 Q890.4198,1281.1031 888.50183,1281.1163 Q886.58386,1281.1295 885.0928,1281.1295 Q883.6017,1281.1295 881.9262,1281.1295 Q880.25073,1281.1295 878.65625,1281.1295 Q877.06177,1281.1295 875.799,1281.1295 Q874.53625,1281.1295 873.18243,1281.1295 Q871.8286,1281.1295 870.25995,1280.8965 Q868.6913,1280.6635 867.3252,1280.4187 Q865.9591,1280.1741 864.4897,1279.9285 Q863.02026,1279.6827 861.9915,1279.44 Q860.96277,1279.1971 859.83826,1278.9524 Q858.71375,1278.7078 857.5754,1278.6936 Q856.437,1278.6794 855.2079,1278.4485 Q853.97876,1278.2177 852.4324,1277.9751 Q850.886,1277.7327 849.267,1277.7161 Q847.6481,1277.6995 845.9644,1277.4667 Q844.28076,1277.2339 842.4777,1277.2217 Q840.6747,1277.2094 839.0843,1276.9773 Q837.4939,1276.7451 835.79486,1276.7322 Q834.0958,1276.7194 832.509,1276.7194 Q830.9221,1276.7194 829.02136,1276.4869 Q827.1206,1276.2545 825.2086,1276.011 Q823.29663,1275.7676 821.7794,1275.5188 Q820.2622,1275.27 818.69385,1275.0266 Q817.1255,1274.7832 815.5436,1274.5385 Q813.9617,1274.2937 812.6946,1274.2815 Q811.4275,1274.2693 810.0868,1274.2693 Q808.7461,1274.2693 807.81793,1274.2693 Q806.8898,1274.2693 805.9882,1274.2693 Q805.0867,1274.2693 804.1874,1274.2693 Q803.2881,1274.2693 802.26154,1274.2693 Q801.235,1274.2693 800.3285,1274.2693 Q799.422,1274.2693 798.51514,1274.0361 Q797.6083,1273.8031 796.6015,1273.7913 Q795.5947,1273.7793 794.8977,1273.5475 Q794.2007,1273.3157 793.8423,1273.3025 Q793.4839,1273.2893 793.3583,1273.2893 Q793.23267,1273.2893 793.1199,1273.2893 Q793.0071,1273.2893 793.0024,1273.2893 Q792.9977,1273.2893 792.9977,1273.2893 Q792.9977,1273.2893 792.9977,1273.2893 Q792.9977,1273.2893 792.9977,1273.2893 Q792.9977,1273.2893 792.9977,1273.2893 Q792.9977,1273.2893 792.9977,1273.2893 Q792.9977,1273.2893 792.9977,1273.2893 L792.9977,1273.2893 " fill="none" stroke="#000000" stroke-width="10.8075695" stroke-linecap="round"/><path d="M1008.5394,1350.9131 Q1008.5394,1350.9131 1008.5394,1350.9131 Q1008.5394,1350.9131 1008.5394,1350.9131 Q1008.5394,1350.9131 1008.5394,1350.9131 Q1008.5394,1350.9131 1008.5394,1350.9131 Q1008.5394,1350.9131 1008.5394,1350.9131 Q1008.5394,1350.9131 1008.5394,1350.9131 Q1008.5394,1350.9131 1008.5394,1350.9131 Q1008.5394,1350.9131 1008.5394,1350.9131 Q1008.5394,1350.9131 1008.5394,1350.9131 Q1008.5394,1350.9131 1008.5394,1350.9131 Q1008.5394,1350.9131 1008.5394,1350.9131 Q1008.5394,1350.9131 1008.5394,1350.9131 Q1008.5394,1350.9131 1008.5394,1350.9131 Q1008.5394,1350.9131 1008.5394,1350.9131 Q1008.5394,1350.9131 1008.5394,1350.9131 Q1008.5394,1350.9131 1008.5394,1350.9131 Q1008.5394,1350.9131 1008.9215,1350.9131 Q1009.3036,1350.9131 1010.3556,1350.9131 Q1011.40765,1350.9131 1012.9901,1350.9131 Q1014.57263,1350.9131 1016.0505,1350.9131 Q1017.5283,1350.9131 1019.2949,1350.9131 Q1021.0616,1350.9131 1022.7473,1350.9131 Q1024.433,1350.9131 1026.1182,1350.9131 Q1027.8032,1350.9131 1029.6758,1350.9131 Q1031.5483,1350.9131 1033.8853,1351.116 Q1036.2223,1351.3188 1038.2256,1351.3306 Q1040.229,1351.3424 1042.3213,1351.3424 Q1044.4136,1351.3424 1046.3021,1351.3424 Q1048.1907,1351.3424 1050.137,1351.1415 Q1052.0834,1350.9406 1053.9816,1350.9268 Q1055.8798,1350.9131 1057.5029,1350.7085 Q1059.1261,1350.504 1060.904,1350.4939 Q1062.6819,1350.4838 1064.4551,1350.28 Q1066.2284,1350.0763 1068.0154,1350.0653 Q1069.8024,1350.0543 1071.7784,1350.0543 Q1073.7545,1350.0543 1075.5481,1350.0543 Q1077.3417,1350.0543 1078.9304,1350.2583 Q1080.5193,1350.4623 1082.3894,1350.473 Q1084.2595,1350.4838 1086.0608,1350.6893 Q1087.8622,1350.8949 1089.5442,1351.1088 Q1091.2263,1351.3226 1092.8099,1351.3325 Q1094.3936,1351.3424 1095.9851,1351.5472 Q1097.5767,1351.7521 1099.07,1351.762 Q1100.5632,1351.7719 1101.8583,1351.7719 Q1103.1533,1351.7719 1104.4391,1351.7719 Q1105.7249,1351.7719 1107.083,1351.9725 Q1108.4412,1352.1732 1109.8698,1352.1873 Q1111.2983,1352.2013 1112.6732,1352.4064 Q1114.0481,1352.6115 1115.5306,1352.8262 Q1117.0132,1353.0408 1118.2131,1353.0505 Q1119.413,1353.0602 1120.5979,1353.2642 Q1121.783,1353.4681 1122.7946,1353.685 Q1123.8062,1353.9019 1124.405,1353.9104 Q1125.004,1353.919 1125.603,1354.1226 Q1126.2019,1354.3263 1126.3269,1354.3373 Q1126.4519,1354.3483 1126.4563,1354.3483 Q1126.4607,1354.3483 1126.4607,1354.3483 Q1126.4607,1354.3483 1126.4607,1354.3483 Q1126.4607,1354.3483 1126.4607,1354.3483 Q1126.4607,1354.3483 1126.4607,1354.3483 Q1126.4607,1354.3483 1126.4607,1354.3483 Q1126.4607,1354.3483 1126.4607,1354.3483 Q1126.4607,1354.3483 1126.4607,1354.3483 Q1126.4607,1354.3483 1126.4607,1354.3483 Q1126.4607,1354.3483 1126.4607,1354.3483 Q1126.4607,1354.3483 1126.2716,1351.8416 Q1126.0825,1349.3347 1125.6952,1347.8313 Q1125.3079,1346.3278 1124.7233,1344.2129 Q1124.1387,1342.0981 1123.2631,1339.5481 Q1122.3875,1336.9982 1121.4961,1334.6277 Q1120.6049,1332.2572 1119.7292,1330.1384 Q1118.8536,1328.0197 1118.0403,1325.8352 Q1117.2268,1323.6508 1116.2441,1321.7036 Q1115.2615,1319.7565 1114.4597,1318.2334 Q1113.6578,1316.7103 1112.9551,1315.1986 Q1112.2523,1313.6869 1111.6636,1312.8147 Q1111.0748,1311.9424 1110.2778,1310.6536 Q1109.481,1309.3649 1109.166,1308.9047 Q1108.8512,1308.4445 1108.3654,1307.8108 Q1107.8795,1307.1771 1107.2932,1306.5366 Q1106.707,1305.896 1105.8301,1305.2507 Q1104.953,1304.6056 1103.6816,1303.5513 Q1102.4102,1302.4971 1100.7405,1301.4207 Q1099.0707,1300.3441 1097.4921,1299.2786 Q1095.9135,1298.213 1093.7458,1297.1296 Q1091.5781,1296.0461 1089.2239,1294.7759 Q1086.8696,1293.5055 1084.5759,1292.6208 Q1082.2821,1291.7361 1080.1045,1290.8804 Q1077.9269,1290.0245 1075.457,1289.163 Q1072.987,1288.3014 1070.7897,1287.6462 Q1068.5923,1286.9912 1066.51,1286.5525 Q1064.4276,1286.1136 1062.2468,1285.8882 Q1060.0659,1285.6627 1057.9861,1286.0621 Q1055.9061,1286.4615 1053.8335,1286.6857 Q1051.7607,1286.9098 1049.5688,1287.5367 Q1047.377,1288.1637 1045.2087,1288.6001 Q1043.0405,1289.0364 1041.4231,1289.4666 Q1039.8057,1289.8969 1038.226,1290.3246 Q1036.6462,1290.7523 1035.0618,1291.1814 Q1033.4774,1291.6106 1031.9065,1291.8345 Q1030.3357,1292.0582 1029.1047,1292.0714 Q1027.8737,1292.0846 1026.6848,1292.0846 Q1025.496,1292.0846 1024.4946,1292.2897 Q1023.4932,1292.4948 1022.5089,1292.9115 Q1021.52454,1293.3282 1020.72,1293.5544 Q1019.9154,1293.7808 1019.2168,1294.1995 Q1018.5182,1294.618 1017.9148,1294.8448 Q1017.3114,1295.0717 1016.61804,1295.4941 Q1015.9247,1295.9167 1015.2291,1296.5544 Q1014.5335,1297.1923 1013.9313,1297.6321 Q1013.329,1298.0719 1012.8324,1298.5002 Q1012.3358,1298.9286 1011.74817,1299.3552 Q1011.1605,1299.7819 1010.7534,1300.0066 Q1010.3463,1300.2312 1009.8519,1300.8647 Q1009.35754,1301.4984 1008.7652,1301.9336 Q1008.17285,1302.3688 1007.6743,1303.0085 Q1007.1758,1303.6482 1006.3019,1304.4935 Q1005.428,1305.3389 1004.63245,1306.4047 Q1003.8369,1307.4705 1003.14026,1308.3359 Q1002.4436,1309.2013 1001.6506,1310.4807 Q1000.85754,1311.7601 1000.3524,1312.6333 Q999.8473,1313.5065 999.35156,1314.5745 Q998.85583,1315.6425 998.16907,1317.1302 Q997.4823,1318.618 996.9797,1319.9161 Q996.47705,1321.2142 996.0782,1322.293 Q995.6793,1323.3717 995.3818,1324.4366 Q995.0842,1325.5016 994.6917,1326.7805 Q994.2992,1328.0593 993.9983,1329.1409 Q993.69745,1330.2223 993.59143,1331.4978 Q993.4855,1332.7734 993.38586,1334.2747 Q993.28625,1335.776 993.18713,1336.6571 Q993.088,1337.5382 992.9892,1338.8098 Q992.8904,1340.0815 992.79047,1341.5869 Q992.69055,1343.0924 992.59143,1344.5936 Q992.4924,1346.0948 992.39355,1347.3883 Q992.29474,1348.6818 992.19507,1349.9766 Q992.09546,1351.2714 991.9006,1352.7642 Q991.7057,1354.257 991.3148,1355.5537 Q990.92395,1356.8505 990.7208,1358.1337 Q990.5177,1359.4169 990.31836,1360.2944 Q990.1191,1361.172 989.8246,1362.4475 Q989.53,1363.7231 989.4257,1364.5908 Q989.3214,1365.4584 989.31836,1367.7751 Q989.3153,1370.092 989.5077,1371.6238 Q989.70013,1373.1556 989.89856,1374.6592 Q990.09705,1376.1626 990.295,1377.4563 Q990.4929,1378.7501 990.8824,1380.2417 Q991.27185,1381.7334 991.6707,1383.0367 Q992.0696,1384.3401 992.27246,1385.208 Q992.47534,1386.0758 992.8626,1387.341 Q993.2499,1388.6061 993.4558,1389.6895 Q993.6617,1390.7728 993.9524,1391.6305 Q994.24304,1392.4882 994.5431,1393.3545 Q994.84314,1394.2208 995.1407,1395.2874 Q995.43823,1396.354 995.8302,1397.219 Q996.22217,1398.0839 996.5233,1398.9424 Q996.82446,1399.8009 997.2169,1400.8665 Q997.60944,1401.9319 998.09937,1403.4131 Q998.58936,1404.8942 999.27783,1406.4034 Q999.96625,1407.9127 1000.56433,1409.209 Q1001.1625,1410.5052 1001.56354,1411.5796 Q1001.9646,1412.6538 1002.46313,1413.5347 Q1002.9616,1414.4155 1003.6509,1415.6936 Q1004.3401,1416.9716 1004.6478,1417.6327 Q1004.95557,1418.2938 1005.6341,1419.1416 Q1006.3126,1419.9894 1006.9972,1420.8369 Q1007.68176,1421.6844 1008.1935,1422.3479 Q1008.7052,1423.0114 1009.5874,1424.0747 Q1010.4696,1425.138 1011.2645,1426.0022 Q1012.05945,1426.8666 1012.8519,1427.7251 Q1013.6444,1428.5836 1014.2445,1429.2335 Q1014.84454,1429.8834 1015.7196,1430.7285 Q1016.59467,1431.5735 1017.2977,1432.4343 Q1018.00073,1433.295 1018.60187,1433.7423 Q1019.203,1434.1896 1019.8845,1434.8188 Q1020.5661,1435.448 1021.3575,1436.0946 Q1022.14886,1436.7412 1022.9413,1437.385 Q1023.73376,1438.0289 1024.5276,1438.6738 Q1025.3215,1439.3187 1026.2092,1439.7567 Q1027.0969,1440.1947 1027.9841,1440.6218 Q1028.8712,1441.049 1029.7549,1441.2715 Q1030.6384,1441.4939 1031.4424,1441.7102 Q1032.2465,1441.9265 1033.0376,1442.345 Q1033.8286,1442.7633 1034.5358,1442.9912 Q1035.2429,1443.2191 1036.0251,1443.4319 Q1036.8075,1443.6447 1037.5059,1443.8594 Q1038.2042,1444.0741 1039.0862,1444.2888 Q1039.968,1444.5035 1040.7607,1444.7168 Q1041.5536,1444.9302 1042.4395,1445.1445 Q1043.3252,1445.359 1044.5991,1445.7793 Q1045.8729,1446.1997 1047.4468,1446.6299 Q1049.0208,1447.0602 1050.4191,1447.285 Q1051.8174,1447.5099 1053.1946,1447.7229 Q1054.5717,1447.936 1055.7771,1448.1519 Q1056.9824,1448.3676 1057.9833,1448.5823 Q1058.9841,1448.7971 1059.8801,1448.8073 Q1060.7761,1448.8174 1061.5746,1448.8174 Q1062.373,1448.8174 1063.165,1448.8174 Q1063.9569,1448.8174 1064.56,1448.8174 Q1065.1631,1448.8174 1065.8531,1448.8174 Q1066.5432,1448.8174 1067.2361,1448.8174 Q1067.929,1448.8174 1068.8134,1448.6125 Q1069.6978,1448.4078 1070.4979,1448.1924 Q1071.2981,1447.9768 1072.1833,1447.7627 Q1073.0686,1447.5485 1073.8633,1447.3346 Q1074.658,1447.1207 1075.3552,1446.7024 Q1076.0524,1446.2839 1076.847,1446.0566 Q1077.6417,1445.8292 1078.2449,1445.4083 Q1078.8479,1444.9874 1079.061,1444.765 Q1079.274,1444.5426 1079.5659,1444.3287 Q1079.8577,1444.1149 1080.2505,1443.8997 Q1080.6432,1443.6844 1080.9429,1443.4711 Q1081.2427,1443.2577 1081.7268,1442.8405 Q1082.211,1442.4232 1082.4272,1442.1951 Q1082.6433,1441.9668 1083.313,1441.5479 Q1083.9827,1441.1288 1084.2036,1440.905 Q1084.4247,1440.6813 1084.72,1440.4641 Q1085.0154,1440.247 1085.406,1440.0331 Q1085.7966,1439.8192 1085.8145,1439.8096 Q1085.8324,1439.7999 1085.8324,1439.7999 Q1085.8324,1439.7999 1085.8324,1439.7999 Q1085.8324,1439.7999 1086.2258,1439.5852 Q1086.6191,1439.3705 1086.6221,1439.3705 Q1086.6251,1439.3705 1086.6251,1439.3705 Q1086.6251,1439.3705 1086.6251,1439.3705 Q1086.6251,1439.3705 1086.6251,1439.3705 Q1086.6251,1439.3705 1087.9106,1438.9412 Q1089.196,1438.5117 1089.1987,1438.5117 L1089.2015,1438.5117 " fill="none" stroke="#000000" stroke-width="9.470694" stroke-linecap="round"/><path d="M1167.9178,1445.814 Q1167.9178,1445.814 1167.9178,1445.814 Q1167.9178,1445.814 1167.9178,1445.814 Q1167.9178,1445.814 1167.9178,1445.814 Q1167.9178,1445.814 1167.9178,1445.814 Q1167.9178,1445.814 1167.9178,1445.814 Q1167.9178,1445.814 1167.9178,1445.814 Q1167.9178,1445.814 1167.9178,1445.814 Q1167.9178,1445.814 1167.9178,1445.814 Q1167.9178,1445.814 1167.9178,1445.814 Q1167.9178,1445.814 1167.9178,1445.814 Q1167.9178,1445.814 1167.9178,1445.814 Q1167.9178,1445.814 1167.9178,1445.814 Q1167.9178,1445.814 1167.2764,1439.3282 Q1166.6349,1432.8425 1166.3088,1429.9951 Q1165.9828,1427.1477 1165.758,1424.0701 Q1165.5334,1420.9926 1165.4193,1418.3728 Q1165.3052,1415.7532 1165.1958,1413.3718 Q1165.0865,1410.9904 1165.0813,1409.3009 Q1165.0762,1407.6115 1165.0762,1406.1824 Q1165.0762,1404.7534 1165.0762,1403.5571 Q1165.0762,1402.361 1165.0762,1401.3975 Q1165.0762,1400.4338 1165.0762,1399.2628 Q1165.0762,1398.0918 1165.0762,1397.134 Q1165.0762,1396.1763 1165.0762,1395.0026 Q1165.0762,1393.8289 1165.0762,1392.4159 Q1165.0762,1391.0029 1165.0762,1389.5891 Q1165.0762,1388.1753 1165.18,1386.5298 Q1165.2839,1384.8843 1165.3932,1383.2263 Q1165.5024,1381.5684 1165.5079,1379.4688 Q1165.5134,1377.369 1165.6194,1374.956 Q1165.7253,1372.5431 1165.7286,1370.3933 Q1165.7319,1368.2437 1165.7319,1366.1143 Q1165.7319,1363.9849 1165.7319,1362.0856 Q1165.7319,1360.1863 1165.7319,1358.2909 Q1165.7319,1356.3955 1165.8385,1354.7316 Q1165.9451,1353.0676 1165.9478,1351.409 Q1165.9506,1349.7505 1166.0571,1348.0935 Q1166.1637,1346.4364 1166.1665,1345.0098 Q1166.1692,1343.5833 1166.1692,1342.3932 Q1166.1692,1341.2031 1166.1692,1340.2505 Q1166.1692,1339.2977 1166.1692,1338.5818 Q1166.1692,1337.866 1166.1692,1337.1553 Q1166.1692,1336.4445 1166.1692,1335.9651 Q1166.1692,1335.4857 1166.1692,1335.0122 Q1166.1692,1334.5386 1166.1692,1334.065 Q1166.1692,1333.5914 1166.1692,1332.8867 Q1166.1692,1332.182 1166.1692,1331.9337 Q1166.1692,1331.6854 1166.3821,1330.5266 Q1166.5948,1329.3677 1166.7072,1328.6443 Q1166.8195,1327.9209 1167.0354,1326.9795 Q1167.2512,1326.038 1167.3613,1325.56 Q1167.4716,1325.0822 1167.6826,1324.3923 Q1167.8936,1323.7026 1168.2166,1322.7645 Q1168.5397,1321.8264 1168.7644,1321.3279 Q1168.989,1320.8295 1169.2079,1320.13 Q1169.4268,1319.4305 1169.751,1318.7161 Q1170.0752,1318.0017 1170.4089,1317.2786 Q1170.7426,1316.5554 1171.1724,1315.8525 Q1171.6023,1315.1498 1171.9326,1314.6698 Q1172.263,1314.1898 1172.3807,1313.9438 Q1172.4985,1313.698 1172.9218,1313.0079 Q1173.345,1312.3179 1173.7815,1311.608 Q1174.218,1310.8982 1174.7584,1310.4155 Q1175.2988,1309.9329 1175.6346,1309.4626 Q1175.9705,1308.9923 1176.1975,1308.74 Q1176.4246,1308.4877 1177.063,1308.0232 Q1177.7015,1307.5587 1177.9375,1307.3127 Q1178.1733,1307.0669 1178.8115,1306.6028 Q1179.4496,1306.1385 1179.6868,1305.8911 Q1179.9238,1305.6436 1180.5708,1305.404 Q1181.2178,1305.1646 1181.8672,1304.7017 Q1182.5166,1304.2386 1183.0593,1303.9971 Q1183.6022,1303.7554 1184.3602,1303.5173 Q1185.1183,1303.2792 1185.7753,1303.0437 Q1186.4323,1302.8081 1187.302,1302.7963 Q1188.1719,1302.7844 1189.0347,1302.5609 Q1189.8975,1302.3374 1190.8894,1302.3241 Q1191.8812,1302.3108 1193.2795,1302.3108 Q1194.678,1302.3108 1195.787,1302.3108 Q1196.896,1302.3108 1198.6067,1302.3108 Q1200.3175,1302.3108 1201.7681,1302.3108 Q1203.2186,1302.3108 1204.3201,1302.3108 Q1205.4215,1302.3108 1206.5176,1302.3108 Q1207.6135,1302.3108 1208.8066,1302.5374 Q1209.9998,1302.7638 1211.09,1302.7742 Q1212.1802,1302.7844 1213.1785,1302.7844 Q1214.1766,1302.7844 1215.6836,1303.0112 Q1217.1907,1303.2379 1218.5049,1303.4739 Q1219.8192,1303.7097 1221.0288,1303.7207 Q1222.2383,1303.7316 1223.6443,1303.9568 Q1225.0502,1304.1821 1226.157,1304.1936 Q1227.2639,1304.2052 1228.679,1304.432 Q1230.0941,1304.6588 1231.0255,1304.6688 Q1231.9569,1304.6788 1233.2063,1304.6788 Q1234.4556,1304.6788 1235.4398,1304.6788 Q1236.4241,1304.6788 1237.3267,1304.9056 Q1238.2292,1305.1324 1238.9949,1305.1425 Q1239.7605,1305.1525 1240.7402,1305.1525 Q1241.72,1305.1525 1242.3784,1305.3756 Q1243.0369,1305.5988 1244.3226,1305.8376 Q1245.6084,1306.0765 1246.6135,1306.0881 Q1247.6188,1306.0996 1249.3356,1306.0996 Q1251.0524,1306.0996 1252.1726,1306.3264 Q1253.293,1306.5532 1254.4967,1306.5632 Q1255.7004,1306.5732 1256.7935,1306.5732 Q1257.8864,1306.5732 1258.7622,1306.5732 Q1259.6381,1306.5732 1260.517,1306.5732 Q1261.3959,1306.5732 1262.0605,1306.5732 Q1262.7251,1306.5732 1263.2751,1306.5732 Q1263.8252,1306.5732 1264.6875,1306.7998 Q1265.5497,1307.0262 1265.9009,1307.0366 Q1266.2522,1307.0469 1266.8949,1307.0469 Q1267.5376,1307.0469 1267.5659,1307.0469 Q1267.5941,1307.0469 1267.5941,1307.0469 Q1267.5941,1307.0469 1267.9167,1307.0469 Q1268.2395,1307.0469 1268.2446,1307.0469 Q1268.2499,1307.0469 1268.2499,1307.0469 Q1268.2499,1307.0469 1268.2499,1307.0469 Q1268.2499,1307.0469 1268.2499,1307.0469 L1268.2499,1307.0469 " fill="none" stroke="#000000" stroke-width="10.4456005" stroke-linecap="round"/><path d="M1297.322,1447.0582 Q1297.322,1447.0582 1297.322,1447.0582 Q1297.322,1447.0582 1297.322,1447.0582 Q1297.322,1447.0582 1297.322,1447.0582 Q1297.322,1447.0582 1297.322,1447.0582 Q1297.322,1447.0582 1297.322,1447.0582 Q1297.322,1447.0582 1297.322,1447.0582 Q1297.322,1447.0582 1297.322,1447.0582 Q1297.322,1447.0582 1297.322,1447.0582 Q1297.322,1447.0582 1297.322,1447.0582 Q1297.322,1447.0582 1298.7706,1436.1167 Q1300.2192,1425.1753 1300.8225,1419.6621 Q1301.4259,1414.149 1301.8018,1408.0568 Q1302.1775,1401.9645 1302.662,1394.3455 Q1303.1465,1386.7266 1303.2776,1378.3223 Q1303.4086,1369.918 1303.4124,1361.9692 Q1303.416,1354.0206 1303.5342,1346.8918 Q1303.6523,1339.7632 1303.5378,1331.5945 Q1303.4233,1323.4259 1302.9514,1315.0669 Q1302.4795,1306.7079 1302.2269,1300.0557 Q1301.9744,1293.4033 1301.7306,1287.0549 Q1301.4868,1280.7067 1301.0142,1273.927 Q1300.5416,1267.1475 1300.0547,1260.2903 Q1299.5679,1253.4332 1299.4264,1247.561 Q1299.2849,1241.6887 1299.1627,1236.3645 Q1299.0405,1231.0403 1299.0344,1226.7646 Q1299.0283,1222.489 1298.7957,1217.4927 Q1298.5631,1212.4962 1298.3224,1209.0315 Q1298.0817,1205.5667 1297.8354,1202.353 Q1297.5894,1199.1394 1297.4628,1196.4943 Q1297.3362,1193.8491 1297.2136,1191.4447 Q1297.0911,1189.0403 1296.9692,1187.167 Q1296.8473,1185.2937 1296.8408,1183.6937 Q1296.8345,1182.0938 1296.8345,1180.5239 Q1296.8345,1178.954 1296.8345,1177.5981 Q1296.8345,1176.2422 1297.066,1175.1757 Q1297.2976,1174.1091 1297.4259,1173.0511 Q1297.5542,1171.9932 1297.6758,1171.1904 Q1297.7974,1170.3878 1298.0347,1169.5969 Q1298.272,1168.806 1298.4003,1168.2623 Q1298.5286,1167.7186 1298.5347,1167.6929 Q1298.5408,1167.6672 1298.5408,1167.6672 Q1298.5408,1167.6672 1298.5408,1167.6672 Q1298.5408,1167.6672 1298.5408,1167.6672 Q1298.5408,1167.6672 1298.5408,1167.6672 Q1298.5408,1167.6672 1298.5408,1167.6672 Q1298.5408,1167.6672 1299.3878,1167.9313 Q1300.2349,1168.1953 1300.241,1168.1953 L1300.2471,1168.1953 " fill="none" stroke="#000000" stroke-width="11.6485405" stroke-linecap="round"/><path d="M1319.9944,1381.3108 Q1319.9944,1381.3108 1319.9944,1381.3108 Q1319.9944,1381.3108 1319.9944,1381.3108 Q1319.9944,1381.3108 1319.9944,1381.3108 Q1319.9944,1381.3108 1319.9944,1381.3108 Q1319.9944,1381.3108 1319.9944,1381.3108 Q1319.9944,1381.3108 1319.9944,1381.3108 Q1319.9944,1381.3108 1319.9944,1381.3108 Q1319.9944,1381.3108 1319.9944,1381.3108 Q1319.9944,1381.3108 1319.9944,1381.3108 Q1319.9944,1381.3108 1319.9944,1381.3108 Q1319.9944,1381.3108 1319.9944,1381.3108 Q1319.9944,1381.3108 1319.9944,1381.3108 Q1319.9944,1381.3108 1319.9944,1381.3108 Q1319.9944,1381.3108 1322.058,1378.9934 Q1324.1216,1376.6759 1325.6478,1375.0999 Q1327.1741,1373.5238 1328.3247,1372.2815 Q1329.4755,1371.0393 1331.2029,1369.168 Q1332.9304,1367.2968 1333.9109,1366.2344 Q1334.8914,1365.1721 1336.5481,1363.4604 Q1338.2048,1361.7487 1339.2654,1360.6858 Q1340.3259,1359.6229 1341.5048,1358.2678 Q1342.6836,1356.9127 1343.8164,1355.681 Q1344.9492,1354.4493 1345.8351,1353.5719 Q1346.721,1352.6945 1348.0454,1351.3456 Q1349.37,1349.9967 1350.6528,1348.7755 Q1351.9357,1347.5543 1353.0525,1346.5157 Q1354.1693,1345.4772 1355.6008,1344.2653 Q1357.0323,1343.0533 1358.2502,1341.9995 Q1359.4681,1340.9456 1360.5066,1340.0786 Q1361.5449,1339.2115 1362.5724,1338.5184 Q1363.5999,1337.8253 1364.5667,1337.2943 Q1365.5334,1336.7633 1366.2651,1336.2438 Q1366.9967,1335.7242 1367.6406,1335.3689 Q1368.2844,1335.0137 1368.7709,1334.668 Q1369.2573,1334.3221 1369.8125,1333.976 Q1370.3678,1333.6298 1370.8485,1333.2854 Q1371.3292,1332.9409 1371.9556,1332.5972 Q1372.5819,1332.2534 1373.2261,1331.9045 Q1373.8701,1331.5558 1374.359,1331.3738 Q1374.8479,1331.1918 1375.2506,1330.8531 Q1375.6533,1330.5145 1375.8976,1330.3357 Q1376.1418,1330.1569 1376.3035,1329.986 Q1376.465,1329.8151 1376.7024,1329.8044 Q1376.9397,1329.7937 1376.9517,1329.7937 Q1376.9636,1329.7937 1376.9636,1329.7937 Q1376.9636,1329.7937 1376.9636,1329.7937 Q1376.9636,1329.7937 1376.9636,1329.7937 Q1376.9636,1329.7937 1376.9636,1329.7937 Q1376.9636,1329.7937 1376.9636,1329.7937 Q1376.9636,1329.7937 1376.9636,1329.7937 Q1376.9636,1329.7937 1376.9636,1329.7937 Q1376.9636,1329.7937 1376.9636,1329.7937 Q1376.9636,1329.7937 1376.9636,1329.7937 Q1376.9636,1329.7937 1377.0435,1329.6208 Q1377.1233,1329.448 1377.1233,1329.448 Q1377.1233,1329.448 1377.1233,1329.448 Q1377.1233,1329.448 1377.1233,1329.448 L1377.1233,1329.448 " fill="none" stroke="#000000" stroke-width="7.625698" stroke-linecap="round"/><path d="M1317.4412,1371.6298 Q1317.4412,1371.6298 1317.4412,1371.6298 Q1317.4412,1371.6298 1317.4412,1371.6298 Q1317.4412,1371.6298 1317.4412,1371.6298 Q1317.4412,1371.6298 1317.4412,1371.6298 Q1317.4412,1371.6298 1317.4412,1371.6298 Q1317.4412,1371.6298 1317.4412,1371.6298 Q1317.4412,1371.6298 1317.4412,1371.6298 Q1317.4412,1371.6298 1317.4412,1371.6298 Q1317.4412,1371.6298 1317.4412,1371.6298 Q1317.4412,1371.6298 1317.4412,1371.6298 Q1317.4412,1371.6298 1320.7936,1374.4971 Q1324.146,1377.3644 1325.8278,1378.7593 Q1327.5095,1380.1543 1329.2473,1381.5261 Q1330.9852,1382.8981 1332.6613,1384.4418 Q1334.3373,1385.9855 1336.4641,1387.8667 Q1338.591,1389.748 1340.8225,1391.6514 Q1343.0542,1393.5548 1344.9838,1395.2905 Q1346.9133,1397.0261 1348.8137,1398.904 Q1350.714,1400.782 1352.6467,1402.5376 Q1354.5793,1404.2931 1356.282,1405.8713 Q1357.9845,1407.4496 1359.8118,1409.1699 Q1361.6389,1410.8904 1363.2527,1412.2952 Q1364.8663,1413.6998 1366.3138,1415.0874 Q1367.7614,1416.4751 1369.2893,1417.8716 Q1370.8173,1419.2682 1372.0984,1420.481 Q1373.3794,1421.6937 1374.571,1422.8966 Q1375.7628,1424.0995 1377.1096,1425.4723 Q1378.4565,1426.8451 1379.7292,1428.2206 Q1381.002,1429.5961 1382.3547,1430.979 Q1383.7076,1432.3619 1384.9043,1433.7366 Q1386.1008,1435.1112 1387.3008,1436.333 Q1388.5007,1437.5549 1389.544,1438.7633 Q1390.5872,1439.9717 1391.5352,1441.0029 Q1392.483,1442.0343 1393.3822,1443.0911 Q1394.2814,1444.1478 1395.2354,1445.0195 Q1396.1892,1445.8911 1396.6832,1446.4188 Q1397.1772,1446.9465 1397.5775,1447.2991 Q1397.9778,1447.6517 1398.0029,1447.6735 L1398.028,1447.6952 " fill="none" stroke="#000000" stroke-width="7.625698" stroke-linecap="round"/><path d="M1441.0056,1369.7332 Q1441.0056,1369.7332 1441.0056,1369.7332 Q1441.0056,1369.7332 1441.0056,1369.7332 Q1441.0056,1369.7332 1441.0056,1369.7332 Q1441.0056,1369.7332 1441.0056,1369.7332 Q1441.0056,1369.7332 1441.0056,1369.7332 Q1441.0056,1369.7332 1441.0056,1369.7332 Q1441.0056,1369.7332 1441.0056,1369.7332 Q1441.0056,1369.7332 1441.0056,1369.7332 Q1441.0056,1369.7332 1444.502,1369.2214 Q1447.9984,1368.7097 1450.2607,1368.5232 Q1452.523,1368.3365 1455.1038,1368.1609 Q1457.6846,1367.9851 1460.241,1367.9749 Q1462.7974,1367.9647 1465.4778,1367.9647 Q1468.1582,1367.9647 1471.0577,1367.7986 Q1473.9573,1367.6323 1477.0293,1367.6216 Q1480.1013,1367.611 1483.2438,1367.611 Q1486.3862,1367.611 1489.479,1367.277 Q1492.5718,1366.943 1495.3088,1366.7549 Q1498.0459,1366.5668 1500.6558,1366.0546 Q1503.2656,1365.5424 1505.5708,1365.1792 Q1507.8759,1364.8159 1510.1611,1364.4622 Q1512.4463,1364.1085 1514.7356,1363.5859 Q1517.0248,1363.0634 1518.6035,1362.8704 Q1520.1821,1362.6774 1521.4314,1362.4994 Q1522.6807,1362.3214 1523.9014,1361.9768 Q1525.1221,1361.6322 1526.0276,1361.4482 Q1526.9332,1361.2644 1527.6013,1361.0874 Q1528.2695,1360.9103 1528.539,1360.9005 Q1528.8083,1360.8907 1528.8196,1360.8907 Q1528.8309,1360.8907 1528.8309,1360.8907 Q1528.8309,1360.8907 1528.8309,1360.8907 Q1528.8309,1360.8907 1528.8309,1360.8907 Q1528.8309,1360.8907 1528.8309,1360.8907 Q1528.8309,1360.8907 1528.8309,1360.8907 Q1528.8309,1360.8907 1528.8309,1360.8907 Q1528.8309,1360.8907 1528.8309,1360.8907 Q1528.8309,1360.8907 1528.8309,1360.8907 Q1528.8309,1360.8907 1528.8309,1360.8907 Q1528.8309,1360.8907 1528.8309,1360.8907 Q1528.8309,1360.8907 1528.1943,1359.1697 Q1527.5576,1357.4486 1526.8317,1355.8635 Q1526.1057,1354.2784 1525.2129,1352.1731 Q1524.3201,1350.0677 1523.185,1347.9446 Q1522.05,1345.8215 1520.7498,1343.3579 Q1519.4495,1340.8943 1518.0677,1338.5946 Q1516.686,1336.2949 1514.823,1333.6506 Q1512.96,1331.0062 1511.0072,1328.5286 Q1509.0544,1326.0509 1507.014,1323.7426 Q1504.9736,1321.4342 1502.5403,1319.1364 Q1500.1068,1316.8385 1497.4998,1314.8802 Q1494.8926,1312.922 1492.4412,1311.4907 Q1489.9897,1310.0593 1487.7766,1309.156 Q1485.5636,1308.2528 1483.1177,1307.7084 Q1480.6716,1307.164 1478.6198,1306.9756 Q1476.5679,1306.7872 1474.6879,1306.9518 Q1472.8079,1307.1163 1471.0947,1307.6323 Q1469.3816,1308.1484 1467.8246,1308.509 Q1466.2676,1308.8695 1464.4647,1309.7412 Q1462.6619,1310.6129 1461.3362,1311.3282 Q1460.0105,1312.0436 1458.6356,1313.0874 Q1457.2607,1314.1313 1456.0339,1315.1897 Q1454.8071,1316.248 1453.0322,1318.6724 Q1451.2573,1321.0968 1449.7877,1323.3845 Q1448.3181,1325.6722 1447.071,1328.1642 Q1445.824,1330.6561 1444.8348,1332.7932 Q1443.8457,1334.9304 1442.871,1337.3826 Q1441.8962,1339.8346 1440.9127,1342.3207 Q1439.9292,1344.8068 1439.1862,1347.454 Q1438.4431,1350.1012 1437.9459,1353.433 Q1437.4487,1356.7648 1437.1956,1359.9501 Q1436.9423,1363.1354 1436.8547,1365.9758 Q1436.7672,1368.8163 1436.7642,1371.6456 Q1436.7612,1374.475 1436.9182,1377.1304 Q1437.0751,1379.7858 1437.4736,1382.4379 Q1437.8723,1385.09 1438.36,1387.408 Q1438.8477,1389.726 1439.6537,1392.8832 Q1440.4597,1396.0404 1441.3539,1399.0504 Q1442.248,1402.0604 1443.0614,1404.8762 Q1443.8748,1407.692 1444.6968,1410.2009 Q1445.5188,1412.7098 1446.333,1414.669 Q1447.1472,1416.6282 1448.044,1418.5771 Q1448.9407,1420.526 1450.1542,1422.6434 Q1451.3677,1424.7609 1452.4332,1426.54 Q1453.4988,1428.3192 1454.4775,1429.5714 Q1455.4563,1430.8236 1456.5854,1432.0541 Q1457.7146,1433.2845 1459.179,1434.7009 Q1460.6434,1436.1173 1462.5781,1437.5284 Q1464.5127,1438.9396 1466.4075,1439.8525 Q1468.3022,1440.7656 1470.3202,1441.8118 Q1472.3381,1442.8579 1474.4686,1443.5842 Q1476.5991,1444.3107 1478.4058,1444.8474 Q1480.2124,1445.3842 1482.1686,1446.086 Q1484.1248,1446.788 1486.0068,1447.1548 Q1487.8889,1447.5216 1489.6093,1447.7046 Q1491.3296,1447.8876 1492.641,1447.8937 Q1493.9524,1447.8998 1495.3359,1447.8998 Q1496.7195,1447.8998 1497.7958,1447.8998 Q1498.8721,1447.8998 1499.7006,1447.7295 Q1500.529,1447.5592 1501.5853,1447.3817 Q1502.6416,1447.2042 1503.4624,1447.0281 Q1504.2832,1446.8519 1505.398,1446.5098 Q1506.5127,1446.1676 1507.6532,1445.6473 Q1508.7937,1445.1271 1509.9312,1444.099 Q1511.0686,1443.0709 1511.1346,1443.0095 L1511.2007,1442.9481 " fill="none" stroke="#000000" stroke-width="7.8008885" stroke-linecap="round"/><path d="M1653.9021,1320.3475 Q1653.9021,1320.3475 1653.9021,1320.3475 Q1653.9021,1320.3475 1653.9021,1320.3475 Q1653.9021,1320.3475 1653.9021,1320.3475 Q1653.9021,1320.3475 1653.9021,1320.3475 Q1653.9021,1320.3475 1653.9021,1320.3475 Q1653.9021,1320.3475 1653.9021,1320.3475 Q1653.9021,1320.3475 1653.9021,1320.3475 Q1653.9021,1320.3475 1653.9021,1320.3475 Q1653.9021,1320.3475 1653.9021,1320.3475 Q1653.9021,1320.3475 1653.9021,1320.3475 Q1653.9021,1320.3475 1651.3044,1320.3475 Q1648.7068,1320.3475 1647.0813,1320.56 Q1645.4559,1320.7725 1643.6459,1320.7812 Q1641.8358,1320.79 1640.0894,1320.79 Q1638.3428,1320.79 1636.3951,1320.79 Q1634.4475,1320.79 1632.5431,1320.79 Q1630.6387,1320.79 1628.9752,1320.79 Q1627.3118,1320.79 1625.8654,1320.79 Q1624.419,1320.79 1622.65,1320.79 Q1620.8811,1320.79 1618.9944,1320.79 Q1617.1078,1320.79 1615.3641,1320.79 Q1613.6205,1320.79 1611.5929,1321.0017 Q1609.5653,1321.2133 1607.3165,1321.4355 Q1605.0677,1321.6578 1603.4246,1321.6664 Q1601.7812,1321.6749 1599.4462,1321.6749 Q1597.1111,1321.6749 1595.4644,1321.6749 Q1593.8177,1321.6749 1592.0758,1321.4628 Q1590.3339,1321.2506 1588.6086,1321.0308 Q1586.8833,1320.811 1585.1334,1320.5881 Q1583.3835,1320.3651 1581.7573,1319.9343 Q1580.131,1319.5035 1578.79,1319.2721 Q1577.4491,1319.0406 1576.3262,1318.8214 Q1575.2034,1318.6022 1574.2703,1318.3804 Q1573.3373,1318.1586 1572.51,1318.147 Q1571.6826,1318.1354 1570.9648,1318.1354 Q1570.247,1318.1354 1569.6389,1318.1354 Q1569.0308,1318.1354 1568.4077,1318.3464 Q1567.7845,1318.5575 1567.1748,1318.9874 Q1566.5651,1319.4174 1565.9502,1319.8615 Q1565.3352,1320.3055 1564.724,1320.9573 Q1564.1128,1321.6091 1563.3999,1322.4873 Q1562.6869,1323.3654 1561.7795,1324.8801 Q1560.8723,1326.3949 1560.1488,1327.7307 Q1559.4253,1329.0665 1558.7083,1330.3984 Q1557.9912,1331.7303 1557.1875,1333.0441 Q1556.3838,1334.3578 1555.3641,1335.9088 Q1554.3445,1337.4598 1553.4324,1338.9895 Q1552.5203,1340.519 1551.5867,1342.3038 Q1550.653,1344.0886 1549.9314,1345.4316 Q1549.21,1346.7745 1548.4978,1348.518 Q1547.7856,1350.2614 1547.2644,1352.0337 Q1546.743,1353.8059 1546.3296,1355.3667 Q1545.916,1356.9274 1545.7019,1358.4779 Q1545.4878,1360.0284 1545.382,1361.5657 Q1545.2761,1363.1029 1545.1735,1364.4498 Q1545.0708,1365.7968 1544.9692,1367.3229 Q1544.8677,1368.849 1544.7659,1370.3953 Q1544.6642,1371.9415 1544.5603,1373.7286 Q1544.4565,1375.5157 1544.3556,1377.2665 Q1544.2546,1379.0172 1544.2495,1380.361 Q1544.2444,1381.7047 1544.2444,1383.0426 Q1544.2444,1384.3805 1544.2444,1385.4962 Q1544.2444,1386.6119 1544.2444,1387.718 Q1544.2444,1388.8241 1544.2444,1389.9308 Q1544.2444,1391.0375 1544.2444,1392.1401 Q1544.2444,1393.2428 1544.2444,1394.7698 Q1544.2444,1396.2969 1544.2444,1397.4246 Q1544.2444,1398.5521 1544.4392,1400.7156 Q1544.634,1402.879 1544.7407,1404.6692 Q1544.8474,1406.4594 1545.0474,1408.0204 Q1545.2472,1409.5814 1545.4492,1410.9048 Q1545.6511,1412.2281 1545.7592,1413.7686 Q1545.8672,1415.3088 1546.0674,1416.8687 Q1546.2677,1418.4286 1546.4717,1419.5525 Q1546.6755,1420.6765 1546.8798,1421.9932 Q1547.084,1423.3097 1547.1907,1424.425 Q1547.2972,1425.5405 1547.5933,1427.0657 Q1547.8894,1428.5907 1548.1958,1429.7191 Q1548.5021,1430.8475 1548.7117,1432.1658 Q1548.9213,1433.484 1549.3174,1434.8035 Q1549.7136,1436.1229 1549.9292,1437.0336 Q1550.1448,1437.9442 1550.4474,1439.4664 Q1550.75,1440.9886 1551.1516,1441.9001 Q1551.5532,1442.8116 1551.8625,1443.898 Q1552.172,1444.9843 1552.4817,1445.6819 Q1552.7915,1446.3795 1553.0975,1447.0424 Q1553.4036,1447.7052 1553.6145,1448.3755 Q1553.8254,1449.0457 1554.1265,1449.9177 Q1554.4274,1450.7899 1554.7334,1451.674 Q1555.0393,1452.558 1555.2473,1453.4388 Q1555.4552,1454.3197 1555.5624,1455.2046 Q1555.6696,1456.0895 1556.0669,1458.0457 Q1556.4642,1460.0017 1556.7737,1460.9277 Q1557.0831,1461.8538 1557.2915,1462.9502 Q1557.5,1464.0468 1557.7019,1464.7217 Q1557.9039,1465.3967 1558.0128,1465.6443 Q1558.1217,1465.892 1558.126,1465.9016 Q1558.1302,1465.9113 1558.1302,1465.9113 Q1558.1302,1465.9113 1558.1302,1466.1324 Q1558.1302,1466.3536 1558.1302,1466.3536 Q1558.1302,1466.3536 1558.2324,1466.3536 Q1558.3345,1466.3536 1558.3345,1466.3536 Q1558.3345,1466.3536 1559.0156,1466.9932 Q1559.6969,1467.6327 1560.3118,1468.0765 Q1560.9268,1468.5204 1561.5422,1468.7542 Q1562.1576,1468.9879 1563.5569,1469.4224 Q1564.9563,1469.8569 1565.8846,1470.0845 Q1566.813,1470.3119 1567.8328,1470.5342 Q1568.8527,1470.7565 1569.7766,1470.9778 Q1570.7007,1471.199 1571.8157,1471.2097 Q1572.9305,1471.2206 1573.9553,1471.2206 Q1574.98,1471.2206 1575.9993,1471.2206 Q1577.0186,1471.2206 1578.3323,1471.2206 Q1579.646,1471.2206 1580.876,1471.4309 Q1582.1061,1471.6414 1583.4282,1471.6521 Q1584.7505,1471.663 1586.2736,1471.8737 Q1587.7966,1472.0844 1589.3315,1472.0948 Q1590.8665,1472.1053 1592.6714,1472.3141 Q1594.4763,1472.5228 1596.6143,1472.7452 Q1598.7522,1472.9677 1600.6135,1473.19 Q1602.4749,1473.4122 1604.209,1473.6326 Q1605.943,1473.8529 1607.7732,1474.0739 Q1609.6033,1474.2948 1611.4519,1474.3062 Q1613.3005,1474.3176 1614.842,1474.3176 Q1616.3835,1474.3176 1617.9116,1474.1077 Q1619.4397,1473.8978 1620.387,1473.8865 Q1621.3342,1473.8751 1622.6415,1473.8751 Q1623.9487,1473.8751 1624.7979,1473.8751 Q1625.647,1473.8751 1626.5605,1473.8751 Q1627.4741,1473.8751 1628.3882,1473.8751 Q1629.3022,1473.8751 1630.2203,1473.8751 Q1631.1384,1473.8751 1632.0638,1474.0862 Q1632.9893,1474.2971 1634.1958,1474.3074 Q1635.4023,1474.3176 1636.4327,1474.5278 Q1637.4631,1474.7379 1638.766,1474.9578 Q1640.0688,1475.1776 1640.8326,1475.4031 Q1641.5964,1475.6285 1642.9003,1476.0625 Q1644.2041,1476.4963 1645.1414,1476.7266 Q1646.0787,1476.9569 1646.9066,1476.9646 Q1647.7345,1476.9723 1648.3474,1477.1862 Q1648.9603,1477.4 1649.5585,1477.6161 Q1650.1566,1477.8322 1650.6699,1477.8446 Q1651.1833,1477.857 1651.6045,1477.857 Q1652.0256,1477.857 1652.3364,1477.857 Q1652.6472,1477.857 1653.0505,1477.857 Q1653.4539,1477.857 1654.0594,1477.6455 Q1654.665,1477.434 1654.7898,1477.2124 Q1654.9146,1476.991 1655.209,1476.772 Q1655.5033,1476.5531 1656.5813,1475.0771 Q1657.6594,1473.6012 1658.2063,1472.6752 Q1658.753,1471.7491 1659.3566,1469.8257 Q1659.9601,1467.9022 1660.4797,1466.1086 Q1660.9993,1464.3151 1661.2179,1461.9202 Q1661.4365,1459.5253 1661.447,1457.2954 Q1661.4575,1455.0657 1661.4575,1453.0651 Q1661.4575,1451.0645 1661.4575,1448.654 Q1661.4575,1446.2435 1661.3602,1443.8021 Q1661.263,1441.3607 1661.0636,1438.2946 Q1660.8643,1435.2284 1660.7573,1432.3435 Q1660.6504,1429.4585 1660.4507,1426.792 Q1660.251,1424.1254 1660.0474,1421.6863 Q1659.8438,1419.2472 1659.6395,1415.9739 Q1659.4353,1412.7006 1659.2312,1409.169 Q1659.027,1405.6375 1658.8245,1401.9207 Q1658.622,1398.2039 1658.4175,1394.438 Q1658.213,1390.6722 1658.2017,1386.6771 Q1658.1903,1382.682 1658.2876,1378.9048 Q1658.3849,1375.1277 1658.4873,1370.5146 Q1658.5896,1365.9016 1658.4957,1361.6414 Q1658.4019,1357.3812 1658.4963,1352.7673 Q1658.5908,1348.1534 1658.6929,1343.7117 Q1658.7949,1339.2699 1658.8967,1335.0767 Q1658.9985,1330.8834 1659.0028,1327.5249 Q1659.0071,1324.1663 1658.9087,1320.6167 Q1658.8103,1317.0673 1658.5114,1313.313 Q1658.2124,1309.5588 1657.9102,1306.2664 Q1657.6078,1302.9738 1657.2075,1299.8911 Q1656.8074,1296.8085 1656.5898,1293.2661 Q1656.3723,1289.7238 1656.1678,1286.1763 Q1655.9634,1282.6288 1655.5652,1278.6749 Q1655.167,1274.7211 1654.8552,1270.3108 Q1654.5436,1265.9005 1654.4324,1262.1256 Q1654.3213,1258.3507 1654.218,1254.7612 Q1654.1147,1251.1718 1654.3059,1248.0632 Q1654.4971,1244.9548 1654.7015,1241.6405 Q1654.906,1238.3262 1654.9146,1235.2375 Q1654.9231,1232.149 1655.0204,1228.8418 Q1655.1177,1225.5344 1655.2189,1222.6643 Q1655.3201,1219.7941 1655.4219,1217.3436 Q1655.5237,1214.8932 1655.7249,1212.6359 Q1655.9259,1210.3785 1656.1306,1208.582 Q1656.3354,1206.7856 1656.4409,1204.8225 Q1656.5464,1202.8593 1656.843,1201.0734 Q1657.1398,1199.2875 1657.5481,1196.8583 Q1657.9565,1194.4291 1658.1672,1192.6423 Q1658.378,1190.8555 1658.7732,1189.3169 Q1659.1682,1187.7782 1659.483,1186.8494 Q1659.7979,1185.9205 1659.8109,1185.6707 Q1659.824,1185.4208 1659.824,1185.4117 Q1659.824,1185.4027 1659.824,1185.4027 Q1659.824,1185.4027 1659.824,1185.4027 Q1659.824,1185.4027 1659.926,1185.1814 L1660.0281,1184.9602 " fill="none" stroke="#000000" stroke-width="9.758239" stroke-linecap="round"/><path d="M1701.7745,1386.3184 Q1701.7745,1386.3184 1701.7745,1386.3184 Q1701.7745,1386.3184 1701.7745,1386.3184 Q1701.7745,1386.3184 1701.7745,1386.3184 Q1701.7745,1386.3184 1701.7745,1386.3184 Q1701.7745,1386.3184 1701.7745,1386.3184 Q1701.7745,1386.3184 1701.7745,1386.3184 Q1701.7745,1386.3184 1701.7745,1386.3184 Q1701.7745,1386.3184 1701.7745,1386.3184 Q1701.7745,1386.3184 1701.7745,1386.3184 Q1701.7745,1386.3184 1704.315,1386.4885 Q1706.8552,1386.6587 1708.8967,1386.6699 Q1710.9382,1386.6812 1713.6084,1386.8549 Q1716.2784,1387.0286 1718.5935,1387.0363 Q1720.9084,1387.044 1723.2909,1387.044 Q1725.6733,1387.044 1727.9666,1387.044 Q1730.2596,1387.044 1732.9939,1387.044 Q1735.7283,1387.044 1738.0079,1387.044 Q1740.2876,1387.044 1742.6816,1386.8711 Q1745.0757,1386.6982 1747.0281,1386.6897 Q1748.9806,1386.6812 1751.2241,1386.5083 Q1753.4678,1386.3354 1755.4763,1386.155 Q1757.4849,1385.9746 1759.6677,1385.9651 Q1761.8507,1385.9556 1763.858,1386.1279 Q1765.8654,1386.3002 1767.6355,1386.4813 Q1769.4056,1386.6625 1771.1467,1386.8423 Q1772.8878,1387.022 1774.3391,1387.3757 Q1775.7904,1387.7294 1777.3673,1387.9203 Q1778.9442,1388.1112 1780.5208,1388.291 Q1782.0972,1388.4707 1783.6982,1388.8237 Q1785.2993,1389.1768 1786.7416,1389.3702 Q1788.1838,1389.5637 1789.4465,1389.916 Q1790.7092,1390.2683 1791.8735,1390.6274 Q1793.038,1390.9865 1794.1526,1391.1831 Q1795.2672,1391.3799 1796.0991,1391.5576 Q1796.9309,1391.7354 1797.7041,1391.9202 Q1798.4773,1392.105 1798.9902,1392.1138 Q1799.5032,1392.1227 1799.8472,1392.1227 Q1800.1912,1392.1227 1800.2881,1392.1227 Q1800.3851,1392.1227 1800.389,1392.1227 Q1800.393,1392.1227 1800.393,1392.1227 Q1800.393,1392.1227 1800.393,1392.1227 Q1800.393,1392.1227 1800.393,1392.1227 Q1800.393,1392.1227 1800.393,1392.1227 Q1800.393,1392.1227 1800.393,1392.1227 Q1800.393,1392.1227 1800.393,1392.1227 Q1800.393,1392.1227 1800.8832,1391.0691 Q1801.3734,1390.0154 1801.5443,1388.948 Q1801.7152,1387.8806 1801.7239,1386.7927 Q1801.7324,1385.7048 1801.6536,1383.9407 Q1801.5748,1382.1766 1801.2534,1380.5276 Q1800.932,1378.8787 1800.4373,1376.7249 Q1799.9424,1374.571 1799.2898,1372.4222 Q1798.6372,1370.2734 1797.7219,1368.0715 Q1796.8066,1365.8695 1795.8862,1363.8662 Q1794.9658,1361.8628 1793.8823,1359.6875 Q1792.799,1357.5122 1791.7004,1355.6633 Q1790.6018,1353.8143 1789.3601,1352.1838 Q1788.1183,1350.5535 1786.7783,1348.7422 Q1785.4384,1346.9309 1784.0178,1345.1157 Q1782.5972,1343.3004 1780.8535,1341.487 Q1779.1099,1339.6736 1777.2802,1337.8682 Q1775.4504,1336.0626 1773.9319,1334.771 Q1772.4133,1333.4795 1771.0697,1332.5571 Q1769.7261,1331.6349 1768.2295,1330.9005 Q1766.7328,1330.1661 1765.5393,1329.6108 Q1764.346,1329.0554 1763.0276,1328.8573 Q1761.7092,1328.6592 1760.3707,1328.3076 Q1759.0322,1327.956 1757.6743,1327.934 Q1756.3165,1327.9119 1754.5878,1328.0837 Q1752.859,1328.2556 1751.3369,1328.6093 Q1749.815,1328.9629 1748.3809,1329.1545 Q1746.9468,1329.3462 1745.1309,1329.6992 Q1743.3148,1330.0522 1741.4242,1330.2399 Q1739.5336,1330.4275 1737.8348,1330.78 Q1736.1361,1331.1326 1734.6145,1331.3257 Q1733.093,1331.5187 1731.42,1331.8726 Q1729.7471,1332.2266 1728.2283,1332.418 Q1726.7096,1332.6093 1725.4475,1332.9609 Q1724.1855,1333.3125 1722.9307,1333.846 Q1721.6759,1334.3794 1720.8062,1334.7561 Q1719.9364,1335.1328 1718.8588,1335.6691 Q1717.7811,1336.2053 1717.0945,1336.7477 Q1716.4077,1337.29 1715.8187,1337.6611 Q1715.2297,1338.0322 1714.7228,1338.3953 Q1714.2158,1338.7583 1713.3931,1339.4675 Q1712.5703,1340.1768 1711.978,1340.7242 Q1711.3857,1341.2717 1710.4767,1342.3374 Q1709.5676,1343.4031 1708.4905,1344.8326 Q1707.4133,1346.2622 1706.5698,1347.8718 Q1705.7264,1349.4814 1704.9695,1351.1105 Q1704.2125,1352.7395 1703.6151,1354.5449 Q1703.0177,1356.3505 1702.5911,1358.1558 Q1702.1643,1359.9609 1701.8187,1361.9751 Q1701.4731,1363.9891 1701.2976,1365.9829 Q1701.122,1367.9768 1701.0343,1370.3049 Q1700.9467,1372.6329 1700.942,1375.0073 Q1700.9374,1377.3816 1701.096,1379.9019 Q1701.2545,1382.4222 1701.421,1384.9489 Q1701.5875,1387.4755 1701.8342,1389.6753 Q1702.081,1391.8752 1702.3337,1394.239 Q1702.5865,1396.6029 1702.835,1398.594 Q1703.0833,1400.5851 1703.4144,1402.5891 Q1703.7456,1404.5933 1704.1609,1406.7673 Q1704.5762,1408.9414 1704.9957,1411.1232 Q1705.4153,1413.3049 1705.9164,1415.1478 Q1706.4175,1416.9907 1706.9167,1418.9658 Q1707.4161,1420.9408 1707.9968,1422.9331 Q1708.5774,1424.9253 1709.1672,1426.7598 Q1709.757,1428.5944 1710.5762,1430.3945 Q1711.3954,1432.1947 1712.2317,1433.6637 Q1713.0679,1435.1327 1713.9127,1436.5972 Q1714.7576,1438.0618 1715.6713,1439.3352 Q1716.585,1440.6086 1717.4993,1441.5272 Q1718.4137,1442.4458 1719.1787,1443.1835 Q1719.9438,1443.9211 1721.1014,1445.1704 Q1722.259,1446.4196 1723.5044,1447.511 Q1724.7498,1448.6023 1725.9999,1449.6857 Q1727.25,1450.769 1728.4323,1451.8625 Q1729.6145,1452.956 1730.7866,1453.8723 Q1731.9586,1454.7885 1732.7314,1455.5212 Q1733.5042,1456.2539 1734.5764,1456.981 Q1735.6487,1457.7079 1736.4319,1458.2704 Q1737.2151,1458.8329 1738.2043,1459.5474 Q1739.1936,1460.2617 1740.0317,1460.8098 Q1740.8699,1461.3579 1742.1145,1461.9062 Q1743.359,1462.4546 1744.6222,1463.002 Q1745.8854,1463.5494 1747.6265,1464.0938 Q1749.3676,1464.6382 1750.8024,1465.0076 Q1752.2372,1465.3768 1753.7408,1465.9143 Q1755.2445,1466.4517 1756.5112,1466.8217 Q1757.7778,1467.1917 1758.9503,1467.3789 Q1760.1228,1467.566 1760.9705,1467.7472 Q1761.8181,1467.9283 1763.0632,1467.9353 Q1764.3082,1467.9421 1765.2335,1467.9421 Q1766.1588,1467.9421 1767.165,1467.9421 Q1768.1713,1467.9421 1769.0156,1467.7673 Q1769.8601,1467.5925 1770.6968,1467.5859 Q1771.5334,1467.5795 1772.2906,1467.4045 Q1773.0479,1467.2297 1773.8832,1467.0481 Q1774.7185,1466.8665 1775.4745,1466.8602 Q1776.2305,1466.854 1776.8844,1466.684 Q1777.5383,1466.5139 1778.1497,1466.5026 Q1778.761,1466.4912 1779.591,1466.315 Q1780.4209,1466.1387 1780.9319,1466.1335 Q1781.4427,1466.1284 1782.1072,1465.9526 Q1782.7715,1465.7769 1783.2803,1465.7712 Q1783.7891,1465.7656 1784.4548,1465.7656 Q1785.1207,1465.7656 1785.7104,1465.7656 Q1786.3002,1465.7656 1786.8857,1465.7656 Q1787.4713,1465.7656 1788.1373,1465.7656 Q1788.8033,1465.7656 1789.311,1465.7656 Q1789.8186,1465.7656 1790.2402,1465.7656 Q1790.6619,1465.7656 1790.8353,1465.7656 Q1791.0088,1465.7656 1791.0946,1465.7656 Q1791.1804,1465.7656 1791.4276,1465.7656 Q1791.6748,1465.7656 1791.926,1465.7656 Q1792.1771,1465.7656 1793.3269,1465.7656 Q1794.4766,1465.7656 1794.5046,1465.7656 Q1794.5328,1465.7656 1794.5328,1465.7656 L1794.5328,1465.7656 " fill="none" stroke="#000000" stroke-width="8.001101" stroke-linecap="round"/><path d="M1845.2653,1228.8748 Q1845.2653,1228.8748 1845.2653,1228.8748 Q1845.2653,1228.8748 1845.2653,1228.8748 Q1845.2653,1228.8748 1845.2653,1228.8748 Q1845.2653,1228.8748 1845.2653,1228.8748 Q1845.2653,1228.8748 1845.2653,1228.8748 Q1845.2653,1228.8748 1845.2653,1228.8748 Q1845.2653,1228.8748 1845.2653,1228.8748 Q1845.2653,1228.8748 1845.2653,1228.8748 Q1845.2653,1228.8748 1845.2653,1228.8748 Q1845.2653,1228.8748 1845.2653,1228.8748 Q1845.2653,1228.8748 1845.2653,1228.8748 Q1845.2653,1228.8748 1845.2653,1228.8748 Q1845.2653,1228.8748 1845.2653,1228.8748 Q1845.2653,1228.8748 1844.4518,1232.5713 Q1843.6383,1236.268 1843.2963,1238.6221 Q1842.9542,1240.9761 1842.6221,1242.9724 Q1842.29,1244.9689 1842.0312,1247.5068 Q1841.7723,1250.0449 1841.4404,1252.7639 Q1841.1086,1255.4828 1840.8555,1257.6697 Q1840.6022,1259.8566 1840.4299,1262.5625 Q1840.2576,1265.2683 1840.0896,1267.9961 Q1839.9218,1270.7239 1839.6753,1273.26 Q1839.4287,1275.7961 1839.1766,1278.3447 Q1838.9246,1280.8932 1838.5155,1283.592 Q1838.1064,1286.291 1837.8467,1289.362 Q1837.5869,1292.4331 1837.3364,1295.1622 Q1837.086,1297.8914 1836.9143,1301.1323 Q1836.7424,1304.3734 1836.6545,1306.6068 Q1836.5665,1308.8402 1836.4829,1310.8472 Q1836.3992,1312.854 1836.3953,1314.4816 Q1836.3912,1316.1091 1836.3123,1317.9207 Q1836.2332,1319.7322 1836.0687,1321.7349 Q1835.9043,1323.7375 1835.7368,1325.3864 Q1835.5693,1327.0352 1835.4819,1328.8392 Q1835.3945,1330.6433 1835.2308,1333.3256 Q1835.0671,1336.0078 1835.0594,1338.2025 Q1835.0518,1340.3972 1834.894,1342.7224 Q1834.7365,1345.0477 1834.5691,1347.2366 Q1834.4016,1349.4253 1834.3123,1351.2726 Q1834.223,1353.1199 1834.139,1354.9419 Q1834.055,1356.7639 1833.9717,1358.3982 Q1833.8882,1360.0326 1833.884,1361.467 Q1833.8798,1362.9014 1833.8798,1364.7083 Q1833.8798,1366.5151 1833.8798,1368.0034 Q1833.8798,1369.4917 1833.7998,1370.7737 Q1833.7197,1372.0557 1833.7161,1373.8391 Q1833.7123,1375.6226 1833.8718,1377.4377 Q1834.0314,1379.253 1834.1188,1380.5464 Q1834.2062,1381.8398 1834.3696,1383.4545 Q1834.5332,1385.0691 1834.7799,1386.8727 Q1835.0266,1388.6763 1835.3585,1389.9777 Q1835.6904,1391.279 1836.0292,1392.3888 Q1836.3679,1393.4985 1836.4604,1394.2368 Q1836.5531,1394.9751 1836.719,1396.0587 Q1836.8848,1397.1423 1837.0503,1398.0442 Q1837.2158,1398.946 1837.4646,1400.2067 Q1837.7135,1401.4673 1837.9637,1402.7322 Q1838.214,1403.997 1838.3835,1405.0859 Q1838.553,1406.175 1838.7993,1407.258 Q1839.0455,1408.3411 1839.1372,1409.2522 Q1839.2288,1410.1632 1839.3927,1411.2485 Q1839.5566,1412.3337 1839.7236,1413.2477 Q1839.8906,1414.1616 1840.0585,1415.0704 Q1840.2263,1415.9792 1840.2343,1416.7131 Q1840.2422,1417.447 1840.2422,1417.9954 Q1840.2422,1418.5437 1840.2422,1419.0907 Q1840.2422,1419.6377 1840.2422,1420.1832 Q1840.2422,1420.7288 1840.2422,1421.1013 Q1840.2422,1421.4739 1840.2422,1422.1826 Q1840.2422,1422.8914 1840.2422,1423.6146 Q1840.2422,1424.3379 1840.2422,1425.2344 Q1840.2422,1426.1309 1840.2422,1427.0396 Q1840.2422,1427.9484 1840.2422,1428.6846 Q1840.2422,1429.4209 1840.2422,1430.492 Q1840.2422,1431.5631 1840.2422,1432.3059 Q1840.2422,1433.0486 1840.2422,1433.9448 Q1840.2422,1434.8411 1840.2422,1435.2306 Q1840.2422,1435.6201 1840.321,1436.1499 Q1840.3999,1436.6796 1840.4048,1437.2305 Q1840.4097,1437.7814 1840.4097,1437.9797 Q1840.4097,1438.1782 1840.4097,1438.3596 Q1840.4097,1438.5409 1840.4097,1438.722 Q1840.4097,1438.9032 1840.4895,1439.4297 Q1840.5692,1439.9562 1840.7319,1440.6713 Q1840.8948,1441.3864 1841.0618,1442.2803 Q1841.2286,1443.1742 1841.397,1443.7413 Q1841.5654,1444.3085 1841.6531,1444.8527 Q1841.7407,1445.3969 1841.9043,1445.9412 Q1842.0677,1446.4856 1842.234,1447.026 Q1842.4003,1447.5664 1842.4095,1447.5967 Q1842.4188,1447.627 1842.4188,1447.627 Q1842.4188,1447.627 1842.5026,1448.1622 Q1842.5863,1448.6975 1842.6655,1448.8782 Q1842.7449,1449.059 1842.8291,1449.4143 Q1842.9133,1449.7697 1842.9971,1450.1324 Q1843.0807,1450.4952 1843.1642,1451.0286 Q1843.2477,1451.5618 1843.4109,1452.279 Q1843.5741,1452.9965 1843.7413,1453.7208 Q1843.9086,1454.4452 1844.0767,1455.1736 Q1844.2449,1455.9019 1844.3328,1456.4556 Q1844.4207,1457.0093 1844.4243,1457.5488 Q1844.4281,1458.0884 1844.5073,1458.6326 Q1844.5867,1459.1766 1844.6709,1459.552 Q1844.755,1459.9272 1844.8389,1460.2905 Q1844.9229,1460.6538 1844.9266,1461.0161 Q1844.9304,1461.3784 1845.0101,1461.9137 Q1845.0898,1462.449 1845.1736,1462.8203 Q1845.2573,1463.1918 1845.2612,1463.209 Q1845.2653,1463.2263 1845.2653,1463.2263 Q1845.2653,1463.2263 1845.3489,1463.7621 Q1845.4326,1464.2979 1845.4326,1464.479 Q1845.4326,1464.66 1845.5117,1465.0115 Q1845.5908,1465.3628 1845.5955,1465.3828 Q1845.6001,1465.4028 1845.6001,1465.4028 Q1845.6001,1465.4028 1845.6838,1465.7568 Q1845.7676,1466.1107 1845.8475,1466.2927 Q1845.9275,1466.4749 1846.0112,1466.8295 Q1846.095,1467.1841 1846.2584,1467.3734 Q1846.4219,1467.5627 1846.5889,1467.7439 Q1846.7559,1467.925 1846.9231,1468.1062 Q1847.0902,1468.2874 1847.3379,1468.6417 Q1847.5856,1468.9961 1847.757,1469.186 Q1847.9283,1469.3761 1848.6548,1469.9038 Q1849.3813,1470.4314 1850.0552,1470.9758 Q1850.7291,1471.5203 1851.234,1471.8877 Q1851.7389,1472.2551 1852.5657,1472.6213 Q1853.3923,1472.9875 1853.9081,1473.1766 Q1854.4238,1473.3657 1854.8447,1473.5461 Q1855.2656,1473.7266 1855.6854,1473.7366 Q1856.1052,1473.7466 1856.843,1473.9192 Q1857.5809,1474.0918 1858.8004,1474.2712 Q1860.0199,1474.4508 1860.8875,1474.4614 Q1861.7551,1474.4722 1862.9883,1474.4722 Q1864.2214,1474.4722 1865.004,1474.4722 Q1865.7866,1474.4722 1866.9398,1474.2993 Q1868.093,1474.1266 1868.9458,1473.9452 Q1869.7985,1473.7638 1869.8381,1473.7551 L1869.8779,1473.7466 " fill="none" stroke="#000000" stroke-width="8.001101" stroke-linecap="round"/></svg>