<svg width="1440" height="2616" xmlns="http://www.w3.org/2000/svg"><rect width="1440" height="2616" fill="#ffffff"/><path d="M490.4297,1562.9648 Q490.4297,1562.9648 490.4297,1562.9648 Q490.4297,1562.9648 490.4297,1562.9648 Q490.4297,1562.9648 490.4297,1562.9648 Q490.4297,1562.9648 490.4297,1562.9648 Q490.4297,1562.9648 490.4297,1562.9648 Q490.4297,1562.9648 490.4297,1562.9648 Q490.4297,1562.9648 479.49805,1551.5205 Q468.56644,1540.0762 461.26855,1530.124 Q453.9707,1520.1719 439.7002,1492.1221 Q425.4297,1464.0723 420.10156,1448.4272 Q414.77347,1432.7822 411.21194,1417.1704 Q407.65042,1401.5586 405.6768,1385.5938 Q403.70316,1369.6289 403.13623,1351.7925 Q402.5693,1333.956 403.06885,1316.7095 Q403.56836,1299.4629 407.00488,1281.9937 Q410.4414,1264.5244 415.33447,1247.3477 Q420.2275,1230.1709 426.84766,1214.187 Q433.46777,1198.2031 441.17676,1182.5713 Q448.88574,1166.9395 457.78955,1151.374 Q466.69333,1135.8086 476.49707,1121.3223 Q486.3008,1106.8359 497.5625,1094.5171 Q508.82422,1082.1982 521.85596,1070.104 Q534.8877,1058.0098 547.7676,1047.2642 Q560.64746,1036.5186 576.2427,1026.9385 Q591.8379,1017.3584 607.3008,1012.2798 Q622.7637,1007.2011 636.02637,1004.0957 Q649.28906,1000.99023 662.97363,1000.16406 Q676.6582,999.3379 689.16895,1000.0547 Q701.6797,1000.7715 714.3257,1003.749 Q726.9717,1006.72656 738.43604,1011.25146 Q749.9004,1015.77637 761.15283,1021.4536 Q772.4053,1027.1309 782.9761,1033.2148 Q793.5469,1039.2988 803.56396,1045.75 Q813.58105,1052.2012 822.74414,1058.6719 Q831.9072,1065.1426 841.0679,1071.2617 Q850.2285,1077.3809 858.7168,1083.1255 Q867.205,1088.8701 874.6094,1095.3188 Q882.0137,1101.7676 888.3535,1108.2241 Q894.69336,1114.6807 900.51953,1122.2749 Q906.3457,1129.8691 910.93066,1137.4517 Q915.5156,1145.0342 918.7339,1151.9307 Q921.95215,1158.8271 925.27783,1166.77 Q928.6035,1174.7129 931.4331,1184.916 Q934.2627,1195.1191 935.7168,1204.6685 Q937.1709,1214.2178 937.5591,1224.5137 Q937.94727,1234.8096 937.958,1247.6538 Q937.96875,1260.498 937.11816,1271.9707 Q936.2676,1283.4434 934.3672,1296.7148 Q932.46686,1309.9863 929.3384,1323.331 Q926.20996,1336.6758 922.1968,1351.1045 Q918.1836,1365.5332 913.11523,1380.0166 Q908.0469,1394.5 902.48145,1408.8608 Q896.916,1423.2217 890.77246,1438.8213 Q884.6289,1454.4208 878.11426,1469.7246 Q871.59955,1485.0283 863.91504,1499.8765 Q856.23047,1514.7246 847.7954,1529.6162 Q839.36035,1544.5078 831.09863,1557.5088 Q822.8369,1570.5098 815.2451,1580.8931 Q807.6533,1591.2764 799.27344,1601.8906 Q790.89355,1612.5049 783.4336,1622.4878 Q775.97363,1632.4707 768.9297,1641.6362 Q761.88574,1650.8019 756.39746,1657.7148 Q750.9092,1664.6279 745.6328,1672.2192 Q740.35645,1679.8105 736.7959,1687.042 Q733.23535,1694.2734 730.91016,1700.7739 Q728.58496,1707.2744 727.32666,1713.7158 Q726.0684,1720.1573 725.8526,1725.5527 Q725.6368,1730.9482 726.8242,1737.0376 Q728.0117,1743.1271 730.4331,1749.9517 Q732.8545,1756.7762 735.82227,1762.8853 Q738.79004,1768.9941 742.37646,1774.6909 Q745.96295,1780.3877 751.0991,1786.8745 Q756.2353,1793.3613 761.68896,1798.7397 Q767.1426,1804.1182 775.1455,1810.9238 Q783.1485,1817.7295 790.0469,1823.4819 Q796.9453,1829.2344 804.25977,1834.9062 Q811.5742,1840.5781 819.4868,1846.6748 Q827.3994,1852.7715 835.3262,1858.5088 Q843.2529,1864.2461 850.3047,1868.8481 Q857.3565,1873.4502 866.27637,1878.0293 Q875.1963,1882.6084 882.27686,1886.0664 Q889.3574,1889.5244 896.7256,1892.582 Q904.09375,1895.6398 911.33936,1897.5894 Q918.5849,1899.5391 926.2964,1901.0713 Q934.0078,1902.6035 941.9087,1902.6475 Q949.80963,1902.6914 958.06934,1901.9512 Q966.3291,1901.2109 974.4258,1899.708 Q982.52246,1898.205 990.5498,1896.6929 Q998.57715,1895.1807 1007.8823,1891.8076 Q1017.1875,1888.4346 1026.8213,1884.647 Q1036.4551,1880.8594 1046.6748,1875.9263 Q1056.8945,1870.9932 1067.2017,1865.3354 Q1077.5088,1859.6777 1087.9502,1853.186 Q1098.3916,1846.6943 1106.7153,1839.478 Q1115.0391,1832.2617 1122.9521,1823.9229 Q1130.8652,1815.584 1138.4346,1805.7256 Q1146.0039,1795.8672 1153.0557,1784.1079 Q1160.1074,1772.3486 1165.7837,1760.147 Q1171.46,1747.9453 1176.6904,1734.7778 Q1181.9209,1721.6104 1185.521,1709.6792 Q1189.1211,1697.7482 1191.2617,1683.4375 Q1193.4023,1669.127 1193.9912,1655.6436 Q1194.5801,1642.1602 1194.4233,1630.2905 Q1194.2666,1618.4209 1192.3906,1606.3188 Q1190.5146,1594.2168 1187.3745,1583.0796 Q1184.2344,1571.9424 1180.2114,1561.2583 Q1176.1885,1550.5742 1171.7983,1542.126 Q1167.4082,1533.6777 1162.1699,1525.69 Q1156.9316,1517.7021 1152.0005,1512.668 Q1147.0693,1507.6338 1141.5015,1503.0835 Q1135.9336,1498.5332 1128.7349,1495.044 Q1121.5361,1491.5547 1114.3218,1489.606 Q1107.1074,1487.6572 1099.2178,1486.8647 Q1091.3281,1486.0721 1082.582,1486.4213 Q1073.8359,1486.7704 1064.7075,1487.521 Q1055.5791,1488.2715 1046.2871,1489.4004 Q1036.9951,1490.5293 1027.373,1491.3003 Q1017.751,1492.0713 1007.02783,1492.4668 Q996.3047,1492.8623 985.42285,1492.8745 Q974.541,1492.8867 963.94385,1491.4077 Q953.3467,1489.9287 941.47217,1487.3042 Q929.59766,1484.6796 916.6494,1480.9155 Q903.7012,1477.1514 891.90625,1472.9834 Q880.1113,1468.8154 868.0757,1464.5947 Q856.04004,1460.374 843.26953,1455.8276 Q830.499,1451.2812 820.02637,1448.1792 Q809.5537,1445.0771 798.6743,1443.1401 Q787.7949,1441.2031 777.7461,1440.4072 Q767.6972,1439.6113 757.1846,1439.958 Q746.6719,1440.3047 737.33105,1441.79 Q727.99023,1443.2754 718.5127,1445.1655 Q709.03516,1447.0557 700.7114,1449.334 Q692.3877,1451.6123 683.9629,1454.6328 Q675.5381,1457.6533 668.17285,1460.6792 Q660.8076,1463.7051 654.74805,1466.3984 Q648.6885,1469.0917 641.87744,1472.1191 Q635.0664,1475.1465 629.03516,1478.5737 Q623.0039,1482.001 617.7114,1485.4263 Q612.41895,1488.8516 607.3047,1492.6553 Q602.1904,1496.459 597.59766,1500.273 Q593.0049,1504.0869 588.10693,1508.9907 Q583.209,1513.8945 578.2578,1520.7295 Q573.30664,1527.5645 569.24023,1532.937 Q565.1738,1538.3094 560.7871,1543.6431 Q556.4004,1548.9766 552.0034,1554.6826 Q547.60645,1560.3888 543.5703,1565.3405 Q539.5342,1570.2921 535.64404,1575.6373 Q531.7539,1580.9825 528.75244,1585.188 Q525.751,1589.3936 522.75244,1593.2261 Q519.7539,1597.0586 516.9404,1600.8628 Q514.12695,1604.667 511.48486,1607.7344 Q508.84277,1610.8018 506.2036,1613.8511 Q503.56445,1616.9004 500.77393,1619.5591 Q497.9834,1622.2178 494.98486,1624.5259 Q491.98633,1626.834 488.15332,1629.4824 Q484.3203,1632.1309 480.61963,1633.3179 Q476.91895,1634.5049 472.88574,1635.2769 Q468.85254,1636.0487 465.49854,1636.0693 Q462.14453,1636.09 459.32275,1635.7207 Q456.50098,1635.3516 454.021,1634.5991 Q451.54102,1633.8466 448.92773,1632.7227 Q446.31448,1631.5986 443.33154,1629.3477 Q440.34863,1627.0968 437.86768,1625.1777 Q435.38672,1623.2588 432.92676,1620.6172 Q430.46677,1617.9756 428.34518,1615.6772 Q426.2236,1613.3789 423.72754,1606.6372 Q421.23145,1599.8955 421.02588,1599.3306 L420.8203,1598.7656 " fill="none" stroke="#f57c00" stroke-width="56.0" stroke-linecap="round"/></svg>