<svg width="1440" height="2616" xmlns="http://www.w3.org/2000/svg"><rect width="1440" height="2616" fill="#ffffff"/><path d="M833.2031,1667.3203 Q833.2031,1667.3203 833.2031,1667.3203 Q833.2031,1667.3203 833.2031,1667.3203 Q833.2031,1667.3203 833.2031,1667.3203 Q833.2031,1667.3203 833.2031,1667.3203 Q833.2031,1667.3203 833.2031,1662.6055 Q833.2031,1657.8906 834.2905,1643.1133 Q835.3779,1628.3359 838.6079,1615.0391 Q841.8379,1601.7422 848.6074,1584.9282 Q855.37695,1568.1143 864.00146,1549.4917 Q872.62604,1530.8691 883.0283,1512.2241 Q893.43066,1493.5791 904.6987,1475.6978 Q915.9668,1457.8164 926.3008,1444.6108 Q936.63477,1431.4053 946.3862,1420.687 Q956.13776,1409.9688 963.9639,1402.8652 Q971.7901,1395.7617 980.2496,1390.084 Q988.70905,1384.4062 995.9053,1381.8164 Q1003.10156,1379.2266 1008.83984,1378.9175 Q1014.5781,1378.6083 1022.2256,1383.1025 Q1029.873,1387.5967 1036.1104,1398.7598 Q1042.3477,1409.9229 1045.7778,1425.7754 Q1049.208,1441.6279 1049.1411,1459.0503 Q1049.0742,1476.4727 1047.1978,1496.2207 Q1045.3213,1515.9688 1043.04,1536.2109 Q1040.7588,1556.4531 1039.1685,1572.0815 Q1037.5781,1587.71 1037.3491,1601.5864 Q1037.1201,1615.4628 1037.7993,1624.0342 Q1038.4785,1632.6055 1039.354,1636.9092 Q1040.2295,1641.2129 1041.4487,1642.7993 Q1042.668,1644.3857 1046.1221,1645.1685 Q1049.5762,1645.9512 1057.6997,1641.5303 Q1065.8232,1637.1094 1077.7031,1626.2188 Q1089.583,1615.3281 1102.544,1600.9648 Q1115.5049,1586.6016 1129.0024,1568.8252 Q1142.5,1551.0488 1154.6069,1536.1846 Q1166.7139,1521.3203 1177.3711,1508.9761 Q1188.0283,1496.6318 1196.3647,1487.7646 Q1204.7012,1478.8975 1210.9077,1472.3633 Q1217.1143,1465.8291 1221.044,1462.3174 Q1224.9736,1458.8057 1226.2783,1457.5991 Q1227.583,1456.3925 1227.6196,1456.3584 Q1227.6562,1456.3242 1227.6562,1456.3242 Q1227.6562,1456.3242 1223.9229,1471.8848 Q1220.1895,1487.4453 1212.0498,1507.81 Q1203.9102,1528.1748 1193.7769,1549.106 Q1183.6436,1570.0371 1172.9795,1593.1069 Q1162.3154,1616.1768 1153.5991,1635.4316 Q1144.8828,1654.6865 1138.4595,1670.8359 Q1132.0361,1686.9854 1127.6216,1699.5527 Q1123.207,1712.1201 1121.1738,1719.5879 Q1119.1406,1727.0555 1118.5698,1731.7148 Q1117.999,1736.374 1118.1543,1737.9839 Q1118.3096,1739.5938 1118.315,1739.6387 Q1118.3203,1739.6836 1118.3203,1739.6836 Q1118.3203,1739.6836 1118.3203,1739.6836 Q1118.3203,1739.6836 1126.6348,1738.2046 Q1134.9492,1736.7257 1139.1812,1734.085 Q1143.4131,1731.4443 1148.9927,1727.6714 Q1154.5723,1723.8984 1160.0269,1720.0894 Q1165.4814,1716.2802 1170.0698,1713.5864 Q1174.6582,1710.8927 1178.6997,1708.6055 Q1182.7412,1706.3184 1186.4526,1705.1357 Q1190.1641,1703.9531 1191.9819,1703.5488 Q1193.7998,1703.1445 1195.3921,1703.1328 Q1196.9844,1703.1211 1197.8794,1703.4902 Q1198.7744,1703.8593 1200.6772,1706.8276 Q1202.5801,1709.7959 1204.686,1716.1733 Q1206.792,1722.5508 1207.1948,1729.7759 Q1207.5977,1737.001 1207.0962,1745.3257 Q1206.5947,1753.6505 1206.2388,1761.998 Q1205.8828,1770.3457 1205.6997,1778.4194 Q1205.5166,1786.493 1205.1733,1793.6787 Q1204.8301,1800.8643 1204.8174,1807.0459 Q1204.8047,1813.2275 1204.8047,1818.2104 Q1204.8047,1823.1934 1205.147,1827.4116 Q1205.4893,1831.6299 1205.8403,1834.7017 Q1206.1914,1837.7734 1206.542,1840.0737 Q1206.8926,1842.374 1207.4155,1844.2935 Q1207.9385,1846.213 1208.6333,1848.8462 Q1209.3281,1851.4795 1210.374,1853.7827 Q1211.4199,1856.0858 1212.4722,1857.6294 Q1213.5244,1859.1729 1213.5591,1859.2231 L1213.5938,1859.2734 " fill="none" stroke="#0037ff" stroke-width="56.0" stroke-linecap="round"/></svg>